<svg width="500" height="500" viewBox="0 0 500 500" fill="none" xmlns="http://www.w3.org/2000/svg">
<path fill-rule="evenodd" clip-rule="evenodd" d="M358.293 385.855L309.308 388.397L309.295 388.195C313.095 378.67 322.729 371.763 332.97 371.23C343.21 370.697 353.512 376.56 358.282 385.636L358.293 385.855ZM299.608 388.901C290.398 412.831 280.746 436.696 260.141 451.956C259.452 452.465 258.76 452.96 258.058 453.435L258.478 454.048C296.98 472.329 344.995 472.776 383.006 453.494C409.54 440.029 432.095 416.988 440.515 388.448C448.936 359.907 441.246 326.091 418.286 307.155C403.308 294.8 383.743 289.625 364.588 286.459C343.791 282.906 322.689 281.465 301.602 282.158L301.373 281.972V281.822L300.946 281.817C294.842 289.052 289.552 296.936 285.171 305.326C282.154 293.345 279.079 281.215 273.131 270.385L273.136 270.252C269.933 270.153 266.73 270.049 263.527 269.943L263.511 270.391C265.535 310.317 266.333 350.25 265.907 390.191L265.933 390.654L299.608 388.901ZM301.585 335.425L301.579 335.546C300.902 340.442 300.225 345.395 300.668 350.32C301.111 355.244 302.763 360.216 306.189 363.783C309.615 367.35 315.01 369.235 319.7 367.668C322.636 366.687 325.056 364.47 326.74 361.869C328.425 359.268 329.432 356.284 330.188 353.283C331.6 347.684 332.214 341.913 332.011 336.143L331.66 336.154C330.727 336.132 329.796 336.109 328.864 336.086C327.958 336.063 327.053 336.041 326.149 336.02C326.298 334.241 326.426 332.449 326.533 330.664C326.641 329.795 326.576 328.912 326.34 328.069C326.216 327.647 325.974 327.271 325.643 326.983C325.311 326.695 324.904 326.507 324.47 326.443C323.201 326.358 322.295 327.647 321.837 328.836C321.026 330.946 320.746 333.222 321.022 335.466L321.011 335.893C314.535 335.739 308.06 335.584 301.585 335.425ZM390.973 298.37C390.56 298.214 390.099 298.423 389.943 298.836C389.787 299.249 389.996 299.71 390.409 299.866C410.215 307.326 426.039 324.643 431.691 345.04C437.344 365.437 432.687 388.429 419.544 405.019C419.27 405.365 419.328 405.868 419.674 406.142C420.02 406.416 420.523 406.358 420.797 406.011C434.257 389.021 439.021 365.502 433.233 344.613C427.444 323.724 411.256 306.01 390.973 298.37Z" fill="black" fill-opacity="0.15"/>
<path d="M326.148 336.022C327.981 336.065 329.819 336.113 331.659 336.156L332.01 336.145C332.213 341.916 331.599 347.686 330.187 353.285C329.43 356.286 328.423 359.27 326.739 361.871C325.055 364.472 322.635 366.69 319.699 367.67C315.011 369.237 309.615 367.351 306.188 363.785C302.761 360.219 301.103 355.247 300.667 350.322C300.23 345.397 300.901 340.446 301.578 335.548L301.584 335.426C308.059 335.58 314.535 335.736 321.011 335.894L326.148 336.022Z" fill="black" fill-opacity="0.15"/>
<path d="M321.021 335.468C320.745 333.224 321.024 330.948 321.836 328.838C322.294 327.649 323.2 326.36 324.469 326.445C324.902 326.51 325.31 326.697 325.641 326.985C325.973 327.273 326.215 327.649 326.339 328.071C326.574 328.915 326.639 329.797 326.532 330.666C326.427 332.452 326.297 334.243 326.148 336.022L321.01 335.895L321.021 335.468Z" fill="black"/>
<path d="M300.948 281.815C294.845 289.05 289.555 296.933 285.173 305.324C282.156 293.345 279.08 281.213 273.134 270.383L273.139 270.25C274.658 270.302 276.182 270.351 277.701 270.398L287.081 270.703C290.737 270.825 294.612 271.011 297.628 273.079C300.618 275.126 301.423 276.485 301.375 281.82L300.948 281.815Z" fill="black"/>
<path d="M235.485 289.538C232.111 286.553 227.981 284.245 223.506 283.781L223.442 283.798C222.098 278.83 225.749 273.537 230.429 271.326C234.245 269.519 238.535 269.248 242.794 269.295C243.844 269.306 244.888 269.338 245.922 269.369C249.504 269.487 253.083 269.602 256.661 269.716L256.656 269.876C251.508 279.363 247.878 289.59 244.27 299.771C241.577 296.157 238.864 292.517 235.485 289.538Z" fill="black"/>
<path d="M218.041 418.606C218.153 419.382 218.437 420.123 218.873 420.774C219.309 421.426 219.887 421.97 220.562 422.368C222.273 423.28 224.447 422.901 226.105 421.889C227.762 420.876 229.004 419.33 230.177 417.79C235.437 410.899 240.095 403.491 243.346 395.459C243.846 394.259 244.254 393.023 244.567 391.761C245.228 388.984 245.26 386.128 243.671 383.852C241.692 381.027 237.942 380.18 234.531 379.695C225.092 378.357 215.392 378.132 206.094 380.222C196.795 382.313 187.177 387.529 180.797 394.612L180.819 395.071L199.829 394.085C197.457 398.855 195.085 403.627 192.714 408.401C191.936 409.972 191.142 411.578 190.902 413.314C190.663 415.051 191.078 416.981 192.384 418.154C193.679 419.316 195.624 419.518 197.319 419.108C199.014 418.697 200.528 417.748 202.006 416.816L202.56 416.997C202.284 417.786 202.226 418.635 202.39 419.455C202.939 421.725 205.646 422.736 207.981 422.736C209.74 422.732 211.48 422.376 213.099 421.689C214.718 421.001 216.183 419.996 217.408 418.733L218.041 418.606ZM94.2225 411.192C87.4433 389.282 92.5334 364.696 104.957 345.419C117.38 326.141 136.524 311.836 157.384 302.307C178.245 292.778 199.297 284.474 223.509 284.032C223.488 283.952 223.462 283.876 223.44 283.797L223.504 283.781C227.983 284.245 232.112 286.553 235.483 289.538C238.855 292.522 241.577 296.157 244.267 299.77C247.875 289.591 251.506 279.363 256.653 269.874L256.658 269.715C258.95 269.795 261.237 269.864 263.528 269.939L263.512 270.386C265.532 310.284 266.331 350.218 265.908 390.186L265.934 390.65L299.607 388.902C290.396 412.833 280.744 436.7 260.142 451.956C259.454 452.463 258.762 452.958 258.058 453.433C243.29 463.554 225.052 467.679 207.16 469.203C184.339 471.148 160.75 469.134 139.846 459.776C118.943 450.418 100.991 433.07 94.2225 411.192Z" fill="black" fill-opacity="0.15"/>
<path d="M266.78 229.637C269.238 229.221 271.693 228.802 274.146 228.38C273.794 218.856 273.439 209.33 273.08 199.802C273.005 197.823 273.096 195.506 274.711 194.371C275.745 193.646 277.109 193.652 278.378 193.683C283.287 193.811 288.193 193.941 293.098 194.072" stroke="black" stroke-linecap="round" stroke-linejoin="round"/>
<path d="M283.692 206.227V201.331" stroke="black" stroke-linecap="round" stroke-linejoin="round"/>
<path d="M259.484 205.105C259.388 203.597 259.293 202.09 259.197 200.585" stroke="black" stroke-linecap="round" stroke-linejoin="round"/>
<path d="M265.566 241.715C263.933 242.163 262.205 242.121 260.596 241.595C258.987 241.068 257.569 240.079 256.519 238.752C255.468 237.424 254.831 235.818 254.687 234.131C254.544 232.444 254.899 230.753 255.711 229.267" stroke="black" stroke-linecap="round" stroke-linejoin="round"/>
<path d="M242.797 268.293L243.277 232.304C243.405 222.913 243.531 213.522 243.655 204.131C243.735 197.97 244.189 190.994 248.91 187.039C252.215 184.279 256.787 183.751 261.078 183.426C274.312 182.425 287.596 182.236 300.853 182.861L302.505 182.941" stroke="black" stroke-linecap="round" stroke-linejoin="round"/>
<path d="M277.717 269.897C276.283 265.33 277.977 260.309 280.653 256.339C283.329 252.369 286.916 249.117 289.89 245.37C296.52 237.008 299.845 226.418 301.071 215.818C301.119 215.396 301.167 214.981 301.205 214.56C302.239 204.369 301.517 194.078 300.805 183.856" stroke="black" stroke-linecap="round" stroke-linejoin="round"/>
<path d="M317.236 158.002C318.074 157.081 319.151 156.41 320.346 156.064C321.542 155.718 322.81 155.709 324.01 156.04C327.432 157.095 329.628 160.757 329.681 164.333C329.734 167.91 327.955 171.326 325.54 173.969C323.125 176.612 320.093 178.6 317.098 180.556C320.386 178.814 324.821 180.263 326.89 183.354C328.958 186.445 328.777 190.73 326.927 193.955C325.078 197.179 321.756 199.404 318.201 200.495C322.625 204.545 322.628 212.444 318.212 216.505C313.796 220.567 305.399 219.362 301.727 214.618" stroke="black" stroke-linecap="round" stroke-linejoin="round"/>
<path d="M317.236 158.001C316.895 158.991 316.455 159.944 315.925 160.847C316.053 159.785 316.511 158.789 317.236 158.001Z" stroke="black" stroke-linecap="round" stroke-linejoin="round"/>
<path d="M302.761 148.493C303.269 147.063 304.217 145.83 305.47 144.972C306.722 144.114 308.214 143.675 309.732 143.718C313.372 143.905 316.527 146.846 317.566 150.338C318.258 152.864 318.142 155.544 317.236 158.002" stroke="black" stroke-linecap="round" stroke-linejoin="round"/>
<path d="M302.761 148.493C302.746 149.09 302.658 149.682 302.501 150.258C302.487 149.659 302.575 149.062 302.761 148.493Z" stroke="black" stroke-linecap="round" stroke-linejoin="round"/>
<path d="M242.632 232.292C239.391 237.515 231.419 238.996 226.515 235.292C221.611 231.588 220.86 223.508 225.001 218.962C219.544 217.305 217.151 210.392 218.595 204.87C220.039 199.348 224.228 195.021 228.428 191.163C222.278 189.212 218.244 182.166 219.678 175.872C221.113 169.578 227.79 164.973 234.181 165.868C229.757 162.798 229.181 155.848 232.326 151.478C235.471 147.108 241.408 145.317 246.727 146.154C252.046 146.99 256.784 150.092 260.637 153.866C258.287 150.172 260.136 144.816 263.861 142.53C267.586 140.243 272.501 140.621 276.434 142.54C280.367 144.459 283.469 147.71 286.257 151.082C284.274 146.04 288.392 139.65 293.803 139.372C298.616 139.132 302.896 143.791 302.762 148.491" stroke="black" stroke-linecap="round" stroke-linejoin="round"/>
<path d="M301.375 281.969V281.82C301.423 276.485 300.618 275.126 297.628 273.079C294.612 271.011 290.737 270.825 287.081 270.703L277.7 270.398C276.182 270.35 274.657 270.303 273.138 270.249C269.935 270.148 266.732 270.045 263.529 269.94C261.237 269.866 258.951 269.796 256.659 269.716C253.077 269.605 249.498 269.49 245.92 269.37C244.886 269.338 243.841 269.306 242.791 269.295C238.533 269.247 234.243 269.519 230.426 271.327C225.747 273.538 222.096 278.831 223.439 283.798C223.461 283.878 223.487 283.954 223.509 284.032C199.296 284.474 178.248 292.773 157.384 302.308C136.519 311.843 117.381 326.136 104.956 345.419C92.5316 364.702 87.4425 389.282 94.2217 411.192C100.993 433.07 118.941 450.423 139.844 459.777C160.746 469.131 184.336 471.15 207.157 469.204C225.049 467.68 243.287 463.555 258.056 453.434C258.759 452.959 259.452 452.464 260.139 451.957C280.743 436.697 290.395 412.832 299.605 388.903" stroke="black" stroke-linecap="round" stroke-linejoin="round"/>
<path d="M301.605 282.156C322.691 281.463 343.794 282.904 364.59 286.457C383.745 289.622 403.31 294.798 418.288 307.152C441.248 326.088 448.939 359.905 440.518 388.445C432.097 416.986 409.54 440.029 383.006 453.494C344.995 472.776 296.98 472.329 258.479 454.048" stroke="black" stroke-linecap="round" stroke-linejoin="round"/>
<path d="M244.561 391.76H244.566L265.933 390.652L299.606 388.904L309.306 388.397L358.291 385.855L361.696 385.679L363.951 333.507" stroke="black" stroke-linecap="round" stroke-linejoin="round"/>
<path d="M176.096 344.295L173.335 395.459L180.818 395.07L199.829 394.084" stroke="black" stroke-linecap="round" stroke-linejoin="round"/>
<path d="M180.797 394.613C187.177 387.529 196.791 382.312 206.092 380.222C215.392 378.133 225.092 378.357 234.529 379.695C237.94 380.18 241.692 381.027 243.669 383.852C245.258 386.128 245.226 388.984 244.565 391.761C244.252 393.023 243.844 394.259 243.344 395.459C240.093 403.491 235.435 410.899 230.174 417.79C229.002 419.33 227.755 420.881 226.103 421.889C224.45 422.896 222.271 423.28 220.56 422.368C219.885 421.97 219.308 421.425 218.871 420.774C218.435 420.123 218.151 419.382 218.039 418.606C217.917 417.968 217.885 417.317 217.943 416.671C218.135 414.465 219.174 412.434 220.197 410.467C223.651 403.801 227.108 397.131 230.569 390.46" stroke="black" stroke-linecap="round" stroke-linejoin="round"/>
<path d="M217.407 418.733C216.182 419.996 214.717 421 213.098 421.688C211.479 422.375 209.739 422.732 207.98 422.736C205.645 422.736 202.938 421.723 202.389 419.455C202.225 418.635 202.283 417.786 202.559 416.997C202.723 416.48 202.915 415.971 203.132 415.473C206.859 406.611 211.153 397.998 215.988 389.688" stroke="black" stroke-linecap="round" stroke-linejoin="round"/>
<path d="M202.003 416.815C200.527 417.747 199.013 418.69 197.316 419.106C195.619 419.523 193.676 419.315 192.382 418.152C191.076 416.98 190.663 415.056 190.9 413.312C191.137 411.569 191.933 409.971 192.711 408.399C195.083 403.629 197.455 398.857 199.826 394.083C200.551 392.628 201.271 391.179 201.996 389.723" stroke="black" stroke-linecap="round" stroke-linejoin="round"/>
<path d="M309.295 388.195C313.097 378.67 322.732 371.769 332.969 371.23C343.206 370.692 353.51 376.56 358.282 385.636" stroke="black" stroke-linecap="round" stroke-linejoin="round"/>
<path d="M223.503 283.779C227.983 284.243 232.111 286.55 235.483 289.535C238.854 292.52 241.576 296.155 244.266 299.768C247.874 289.588 251.505 279.361 256.652 269.872" stroke="black" stroke-linecap="round" stroke-linejoin="round"/>
<path d="M273.134 270.383C279.082 281.213 282.156 293.343 285.173 305.324C289.555 296.933 294.845 289.05 300.948 281.815" stroke="black" stroke-linecap="round" stroke-linejoin="round"/>
<path d="M263.514 270.388C265.534 310.286 266.332 350.219 265.909 390.188" stroke="black" stroke-linecap="round" stroke-linejoin="round"/>
<path d="M301.578 335.55C300.901 340.446 300.224 345.399 300.667 350.323C301.11 355.248 302.762 360.219 306.188 363.787C309.614 367.354 315.009 369.239 319.699 367.672C322.635 366.691 325.055 364.474 326.739 361.873C328.424 359.272 329.43 356.288 330.187 353.287C331.599 347.688 332.213 341.918 332.01 336.147C332.01 336.104 332.005 336.061 332.005 336.019" stroke="black" stroke-linecap="round" stroke-linejoin="round"/>
<path d="M301.002 335.41L301.583 335.426C308.058 335.58 314.534 335.737 321.01 335.894L326.148 336.022C327.981 336.065 329.82 336.113 331.659 336.155" stroke="black" stroke-linecap="round" stroke-linejoin="round"/>
<path d="M323.925 354.074C324.9 348.094 325.641 342.077 326.148 336.022C326.297 334.243 326.425 332.452 326.532 330.666C326.639 329.797 326.574 328.915 326.339 328.071C326.215 327.649 325.973 327.273 325.641 326.985C325.31 326.697 324.902 326.51 324.469 326.445C323.2 326.36 322.294 327.649 321.836 328.838C321.024 330.948 320.745 333.224 321.021 335.468C321.186 335.416 321.351 335.367 321.516 335.312" stroke="black" stroke-linecap="round" stroke-linejoin="round"/>
<path d="M407.589 359.842L413.357 354.824" stroke="black" stroke-linecap="round" stroke-linejoin="round"/>
<path d="M412.729 360.193L408.64 354.794" stroke="black" stroke-linecap="round" stroke-linejoin="round"/>
<path d="M350.394 340.32C348.506 339.611 346.86 338.377 345.65 336.764" stroke="black" stroke-linecap="round" stroke-linejoin="round"/>
<path d="M345.422 341.058L349.678 335.784" stroke="black" stroke-linecap="round" stroke-linejoin="round"/>
<path d="M286.722 320.487L292.584 315.007L292.223 315.199" stroke="black" stroke-linecap="round" stroke-linejoin="round"/>
<path d="M290.967 321.721C290.186 319.381 288.901 317.241 287.205 315.451" stroke="black" stroke-linecap="round" stroke-linejoin="round"/>
<path d="M235.502 355.562C236.302 354.001 237.536 352.705 239.057 351.829" stroke="black" stroke-linecap="round" stroke-linejoin="round"/>
<path d="M238.498 356.119L235.429 351.9" stroke="black" stroke-linecap="round" stroke-linejoin="round"/>
<path d="M190.358 318.697C191.582 315.702 193.362 312.965 195.604 310.631" stroke="black" stroke-linecap="round" stroke-linejoin="round"/>
<path d="M195.037 317.825L188.939 311.887" stroke="black" stroke-linecap="round" stroke-linejoin="round"/>
<path d="M160.269 380.94L156.515 377.421" stroke="black" stroke-linecap="round" stroke-linejoin="round"/>
<path d="M155.28 382.918L160.045 376.397" stroke="black" stroke-linecap="round" stroke-linejoin="round"/>
<path d="M158.29 444.115C157.014 446.421 155.312 448.464 153.274 450.134" stroke="black" stroke-linecap="round" stroke-linejoin="round"/>
<path d="M157.611 449.831L154.443 445.431" stroke="black" stroke-linecap="round" stroke-linejoin="round"/>
<path d="M258.423 421.253L255.068 415.993C255.107 415.982 255.148 415.984 255.186 415.998C255.224 416.012 255.257 416.037 255.279 416.071C255.302 416.105 255.314 416.144 255.313 416.185C255.312 416.225 255.299 416.264 255.274 416.297C255.25 416.329 255.216 416.353 255.178 416.365C255.139 416.378 255.098 416.378 255.059 416.365C255.021 416.353 254.987 416.329 254.963 416.296C254.939 416.264 254.925 416.224 254.925 416.184" stroke="black" stroke-linecap="round" stroke-linejoin="round"/>
<path d="M253.643 421.086L258.399 416.312" stroke="black" stroke-linecap="round" stroke-linejoin="round"/>
<path d="M346.883 417.293L343.133 413.767" stroke="black" stroke-linecap="round" stroke-linejoin="round"/>
<path d="M342.884 418.282L346.395 414.018" stroke="black" stroke-linecap="round" stroke-linejoin="round"/>
<path d="M128.892 354.628L124.002 351.051" stroke="black" stroke-linecap="round" stroke-linejoin="round"/>
<path d="M124.392 355.782L127.751 349.747" stroke="black" stroke-linecap="round" stroke-linejoin="round"/>
<path d="M408.558 414.674L404.482 409.359" stroke="black" stroke-linecap="round" stroke-linejoin="round"/>
<path d="M403.309 414.798C405.703 413.385 407.924 411.698 409.928 409.771" stroke="black" stroke-linecap="round" stroke-linejoin="round"/>
<path d="M370.724 305.419L374.235 299.901" stroke="black" stroke-linecap="round" stroke-linejoin="round"/>
<path d="M374.479 304.925L369.161 300.471" stroke="black" stroke-linecap="round" stroke-linejoin="round"/>
<path d="M26.9671 240.329C18.8765 262.165 13.4546 285.407 15.1416 308.631C15.6479 315.605 16.8442 322.689 20.214 328.816C23.5838 334.942 29.4374 340.02 36.3598 341.009C43.2822 341.998 51.0017 338.041 53.009 331.342C55.0163 324.643 49.5376 316.417 42.5557 316.803C37.2114 317.098 32.926 321.959 31.8588 327.205C30.7916 332.45 32.3275 337.894 34.5583 342.76C37.488 349.155 41.5973 354.934 44.9067 361.142C48.2163 367.349 50.7642 374.267 50.1585 381.275C49.5528 388.284 45.1213 395.312 38.3453 397.202C31.5692 399.092 23.2229 394.006 23.2666 386.972" stroke="black" stroke-linecap="round" stroke-linejoin="round"/>
<path d="M470.818 172.72C470.196 190.116 469.393 208.21 461.155 223.543C458.811 227.899 455.79 232.059 451.567 234.636C447.343 237.214 441.741 237.933 437.452 235.467C433.164 233.001 431.009 226.929 433.641 222.741C436.61 218.015 444.106 217.93 448.348 221.557C452.591 225.183 454.005 231.218 453.752 236.793C453.415 244.228 450.605 251.299 447.824 258.199C445.043 265.1 442.217 272.165 441.843 279.597C441.47 287.029 444.002 295.038 450.069 299.348C456.136 303.658 465.955 302.659 469.619 296.181C473.283 289.703 466.963 279.749 459.77 281.656C457.746 282.241 455.96 283.45 454.666 285.112C450.733 289.986 451.458 297.945 456.206 302.029C460.955 306.112 468.932 305.637 473.162 301.019" stroke="black" stroke-linecap="round" stroke-linejoin="round"/>
<path d="M259.13 121.592L253.439 74.9011" stroke="black" stroke-linecap="round" stroke-linejoin="round"/>
<path d="M240.673 125.754C235.814 123.257 231.345 120.066 227.406 116.279" stroke="black" stroke-linecap="round" stroke-linejoin="round"/>
<path d="M275.722 120.42L279.498 111.02" stroke="black" stroke-linecap="round" stroke-linejoin="round"/>
<path d="M320.899 95.7657C325.708 93.7803 326.54 87.2241 325.355 82.16C324.17 77.0959 321.724 72.0308 322.741 66.9287C323.805 61.584 328.494 57.6465 333.481 55.448C338.949 53.0386 345.209 52.209 350.981 53.7558C356.753 55.3027 361.929 59.3715 364.233 64.8829C366.537 70.3944 365.644 77.2621 361.56 81.6215C357.676 85.7668 351.794 87.1704 346.495 89.2168C341.196 91.2631 335.653 94.898 334.852 100.522" stroke="black" stroke-linecap="round" stroke-linejoin="round"/>
<path d="M338.62 89.223C341.139 86.2543 342.981 82.7725 344.017 79.0199C342.682 80.1027 340.76 81.2126 339.397 80.1657C338.059 79.1381 338.583 77.0407 339.233 75.4834C339.139 75.8881 338.96 76.2683 338.709 76.5996C338.457 76.9308 338.139 77.2053 337.775 77.4053C337.41 77.6053 337.008 77.7267 336.594 77.761C336.18 77.7954 335.763 77.7423 335.371 77.6048C334.978 77.4673 334.619 77.2491 334.317 76.9642C334.015 76.6787 333.776 76.3329 333.616 75.9496C333.456 75.5657 333.378 75.1527 333.388 74.7371C333.398 74.322 333.495 73.9131 333.674 73.5376L331.194 85.048" stroke="black" stroke-linecap="round" stroke-linejoin="round"/>
<path d="M372.537 217.425C384.662 211.68 395.917 206.259 407.177 198.965C408.326 198.318 409.339 197.454 410.16 196.422C410.912 195.344 411.213 193.845 410.553 192.707C409.898 191.578 408.505 191.1 407.205 190.983C403.723 190.671 400.387 192.28 397.281 193.886C388.219 198.571 379.153 202.966 370.454 208.31" stroke="black" stroke-linecap="round" stroke-linejoin="round"/>
<path d="M369.998 208.628L360.181 218.239L372.477 217.477" stroke="black" stroke-linecap="round" stroke-linejoin="round"/>
<path d="M367.59 217.685L365.506 213.519" stroke="black" stroke-linecap="round" stroke-linejoin="round"/>
<path d="M401.816 201.713L398.801 193.438" stroke="black" stroke-linecap="round" stroke-linejoin="round"/>
<path d="M387.902 144.15L386.399 135.498" stroke="black" stroke-linecap="round" stroke-linejoin="round"/>
<path d="M382.994 141.096L390.899 137.722" stroke="black" stroke-linecap="round" stroke-linejoin="round"/>
<path d="M395.805 137.378L396.762 142.908L396.482 141.152" stroke="black" stroke-linecap="round" stroke-linejoin="round"/>
<path d="M400.814 139.791L389.508 148.418" stroke="black" stroke-linecap="round" stroke-linejoin="round"/>
<path d="M388.527 243.911L385.228 237.471" stroke="black" stroke-linecap="round" stroke-linejoin="round"/>
<path d="M381.159 244.259L392.182 236.134" stroke="black" stroke-linecap="round" stroke-linejoin="round"/>
<path d="M297.614 89.223L293.852 81.6985" stroke="black" stroke-linecap="round" stroke-linejoin="round"/>
<path d="M291.576 87.6884L298.728 83.1812" stroke="black" stroke-linecap="round" stroke-linejoin="round"/>
<path d="M398.445 88.4603L391.298 83.5676" stroke="black" stroke-linecap="round" stroke-linejoin="round"/>
<path d="M396.294 82.5291L391.482 89.3561" stroke="black" stroke-linecap="round" stroke-linejoin="round"/>
<path d="M139.597 146.262C139.735 148.884 141.228 151.503 143.625 152.574C151.369 156.034 156.863 144.616 152.28 138.988C146.875 132.351 139.235 139.443 139.597 146.262Z" stroke="black" stroke-linecap="round" stroke-linejoin="round"/>
<path d="M177.207 188.931L173.034 182.937" stroke="black" stroke-linecap="round" stroke-linejoin="round"/>
<path d="M171.588 188.926L178.74 183.288" stroke="black" stroke-linecap="round" stroke-linejoin="round"/>
<path d="M103.095 156.209L96.4248 150.817" stroke="black" stroke-linecap="round" stroke-linejoin="round"/>
<path d="M96.3506 156.946L100.863 148.668" stroke="black" stroke-linecap="round" stroke-linejoin="round"/>
<path d="M93.5298 435.542C89.6283 432.118 86.471 427.93 84.2538 423.237C82.0361 418.544 80.8059 413.446 80.6387 408.258" stroke="black" stroke-linecap="round" stroke-linejoin="round"/>
<path d="M422.5 439.821C430.661 435.5 437.799 429.477 443.43 422.158C449.061 414.839 453.055 406.396 455.141 397.4" stroke="black" stroke-linecap="round" stroke-linejoin="round"/>
<path d="M76.1413 268.49C74.6543 267.337 73.4532 265.856 72.6309 264.163C71.809 262.47 71.3881 260.611 71.4017 258.729C71.4147 256.847 71.8616 254.993 72.7074 253.312C73.5532 251.631 74.7751 250.167 76.2782 249.035C78.9897 246.992 82.5585 246.06 84.7282 243.45C87.2913 240.366 87.1371 235.871 86.3428 231.939C85.2465 226.538 83.209 221.37 80.3236 216.674" stroke="black" stroke-linecap="round" stroke-linejoin="round"/>
<path d="M137.683 241.156C132.856 230.374 128.019 219.562 124.383 208.32C123.038 204.161 121.921 199.374 124.164 195.622C124.789 194.58 125.765 193.622 126.976 193.528C128.528 193.406 129.796 194.691 130.778 195.897C140.101 207.333 145.766 221.244 151.164 234.975" stroke="black" stroke-linecap="round" stroke-linejoin="round"/>
<path d="M137.902 241.123L150.923 235.394" stroke="black" stroke-linecap="round" stroke-linejoin="round"/>
<path d="M131.715 213.918C132.279 212.906 132.763 212.461 133.681 211.754C134.469 211.102 135.764 211.406 136.389 212.215C136.675 212.641 136.859 213.126 136.926 213.634C136.993 214.143 136.94 214.659 136.774 215.144C136.644 215.644 136.413 216.113 136.096 216.521C135.778 216.93 135.381 217.269 134.928 217.519C134.468 217.757 133.947 217.849 133.434 217.784C132.92 217.719 132.438 217.499 132.052 217.154C131.235 216.337 131.224 214.965 131.715 213.918Z" stroke="black" stroke-linecap="round" stroke-linejoin="round"/>
<path d="M131.581 228.907C129.305 232.606 128.059 236.846 127.97 241.188C127.881 245.53 128.954 249.817 131.077 253.606C131.173 251.077 131.773 248.593 132.843 246.299C133.914 244.006 135.431 241.95 137.308 240.253" stroke="black" stroke-linecap="round" stroke-linejoin="round"/>
<path d="M144.967 219.446C150.14 217.957 155.868 220.286 159.565 224.199C163.262 228.113 165.219 233.359 166.431 238.604C161.961 235.439 156.57 233.84 151.096 234.054" stroke="black" stroke-linecap="round" stroke-linejoin="round"/>
<path d="M150.779 243.315C147.964 244.269 145.222 245.426 142.575 246.778" stroke="black" stroke-linecap="round" stroke-linejoin="round"/>
<path d="M142.63 246.479L142.205 268.442L147.193 258.006L153.774 274.297L153.447 259.62C156.716 263.411 160.388 266.835 164.399 269.831L157.664 258.158C162.021 258.661 166.436 258.201 170.596 256.81C166.445 255.082 162.141 253.752 157.739 252.836L163.5 249.222C159.333 247.337 155.176 245.432 151.028 243.509" stroke="black" stroke-linecap="round" stroke-linejoin="round"/>
<path d="M57.9668 274.297L80.6381 281.987L96.4251 238.766" stroke="black" stroke-linecap="round" stroke-linejoin="round"/>
<path d="M103.096 81.6984L134.164 103.519L136.943 60.9375L103.096 81.6984Z" stroke="black" stroke-linecap="round" stroke-linejoin="round"/>
<path d="M264.764 41.8203L272.65 20L279.94 38.0583L264.764 41.8203Z" stroke="black" stroke-linecap="round" stroke-linejoin="round"/>
<path d="M369.161 129.854L370.64 144.149L387.152 121.591L409.928 135.497" stroke="black" stroke-linecap="round" stroke-linejoin="round"/>
<path d="M422.5 153.513L438.82 166.722L447.722 148.418L422.5 153.513Z" stroke="black" stroke-linecap="round" stroke-linejoin="round"/>
<path d="M223.503 98.2453L195.038 60.9375L166.431 85.4349L186.584 120.42L223.503 98.2453Z" stroke="black" stroke-linecap="round" stroke-linejoin="round"/>
<path d="M178.74 90.6787L199.83 76.7464L192.98 70.7886L173.338 85.4349L178.74 90.6787Z" stroke="black" stroke-linecap="round" stroke-linejoin="round"/>
<path d="M182.869 95.4301L201.68 83.1812" stroke="black" stroke-linecap="round" stroke-linejoin="round"/>
<path d="M187.76 100.885L206.382 89.2229" stroke="black" stroke-linecap="round" stroke-linejoin="round"/>
<path d="M191.334 107.657L210.144 95.4302" stroke="black" stroke-linecap="round" stroke-linejoin="round"/>
<path d="M202.29 265.102L195.038 246.859L210.144 246.778L202.29 265.102Z" stroke="black" stroke-linecap="round" stroke-linejoin="round"/>
<path d="M320.089 96.3479C318.503 101.548 316.421 106.585 313.873 111.388L324.959 117.499L329.855 109.568C330.787 108.058 334.807 103.445 334.627 101.756C334.452 100.122 329.77 98.839 328.377 98.3417C325.694 97.3807 322.916 96.7125 320.089 96.3479Z" stroke="black" stroke-linecap="round" stroke-linejoin="round"/>
<path d="M331.53 107.061C327.946 104.096 323.93 101.697 319.62 99.9475" stroke="black" stroke-linecap="round" stroke-linejoin="round"/>
<path d="M327.506 112L318.189 102.694" stroke="black" stroke-linecap="round" stroke-linejoin="round"/>
<path d="M325.344 115.87C322.143 113.052 319.187 109.967 316.509 106.648" stroke="black" stroke-linecap="round" stroke-linejoin="round"/>
<path d="M370.571 64.6881L376.22 62.8235" stroke="black" stroke-linecap="round" stroke-linejoin="round"/>
<path d="M359.709 51.235L365.706 37.3809V38.4371" stroke="black" stroke-linecap="round" stroke-linejoin="round"/>
<path d="M336.776 48.2157C336.769 46.5844 336.221 45.0015 335.217 43.7153" stroke="black" stroke-linecap="round" stroke-linejoin="round"/>
<path d="M319.81 58.3734L311.909 53.1067" stroke="black" stroke-linecap="round" stroke-linejoin="round"/>
<path d="M317.553 76.4353L313.039 77.1874" stroke="black" stroke-linecap="round" stroke-linejoin="round"/>
<path d="M370.555 79.165L379.811 83.151" stroke="black" stroke-linecap="round" stroke-linejoin="round"/>
<path d="M359.188 90.0291L360.306 92.6666" stroke="black" stroke-linecap="round" stroke-linejoin="round"/>
<path d="M348.778 95.9949L348.714 109.48C348.653 109.518 348.583 109.54 348.511 109.542C348.44 109.545 348.368 109.53 348.304 109.497C348.241 109.464 348.186 109.415 348.146 109.355C348.107 109.295 348.084 109.227 348.079 109.155" stroke="black" stroke-linecap="round" stroke-linejoin="round"/>
<path fill-rule="evenodd" clip-rule="evenodd" d="M248.912 187.038C252.217 184.277 256.789 183.749 261.08 183.424C274.314 182.423 287.597 182.234 300.855 182.859L300.807 183.856L300.812 183.927C301.523 194.126 302.238 204.393 301.207 214.56L301.728 214.618C305.4 219.362 313.797 220.567 318.213 216.505C322.629 212.444 322.626 204.545 318.202 200.495C321.757 199.404 325.08 197.177 326.929 193.953C328.779 190.728 328.961 186.443 326.892 183.352C324.823 180.261 320.389 178.811 317.1 180.554C320.095 178.598 323.128 176.61 325.542 173.967C327.957 171.323 329.737 167.908 329.684 164.331C329.63 160.755 327.435 157.093 324.013 156.038C322.812 155.708 321.544 155.716 320.349 156.062C319.153 156.408 318.076 157.079 317.239 158C318.144 155.542 318.26 152.862 317.569 150.335C316.53 146.844 313.375 143.903 309.735 143.716C308.217 143.673 306.725 144.112 305.472 144.97C304.22 145.828 303.272 147.06 302.764 148.491C302.898 143.791 298.618 139.132 293.805 139.372C288.394 139.65 284.276 146.04 286.259 151.082C283.471 147.71 280.369 144.459 276.436 142.54C272.503 140.621 267.588 140.243 263.863 142.53C260.138 144.816 258.289 150.172 260.639 153.866C256.786 150.092 252.048 146.99 246.729 146.154C241.41 145.317 235.473 147.108 232.328 151.478C229.182 155.848 229.759 162.798 234.182 165.868C227.792 164.973 221.115 169.578 219.68 175.872C218.245 182.166 222.28 189.212 228.43 191.163C224.23 195.021 220.041 199.348 218.597 204.87C217.153 210.392 219.546 217.305 225.003 218.962C220.862 223.508 221.613 231.588 226.517 235.292C231.42 238.996 239.393 237.515 242.634 232.292L243.279 232.302C243.403 222.911 243.529 213.52 243.657 204.13C243.737 197.969 244.19 190.992 248.912 187.038ZM302.503 150.256C302.661 149.68 302.748 149.088 302.764 148.491C302.578 149.06 302.49 149.657 302.503 150.256ZM315.928 160.845C316.457 159.942 316.897 158.989 317.239 158C316.514 158.787 316.055 159.782 315.928 160.845ZM305.416 149.638C305.015 149.451 304.54 149.624 304.353 150.024C304.166 150.424 304.339 150.9 304.739 151.086C309.407 153.265 311.767 159.466 309.729 164.196C309.578 164.548 309.697 164.957 310.013 165.173C310.33 165.389 310.755 165.349 311.027 165.08C312.861 163.261 316.308 163.429 318.244 165.331C320.17 167.225 320.604 170.448 319.513 173.045C318.424 175.638 316.017 177.603 313.276 178.601C312.861 178.752 312.647 179.21 312.798 179.626C312.949 180.04 313.408 180.254 313.823 180.103C316.879 178.991 319.687 176.759 320.988 173.664C322.286 170.573 321.837 166.621 319.365 164.191C317.454 162.313 314.347 161.681 311.861 162.669C312.848 157.576 310.177 151.859 305.416 149.638Z" fill="black"/>
<g opacity="0.1">
<path d="M229.915 283.982C201.3 283.991 172.595 292.518 147.81 306.651C125.33 319.469 104.774 337.874 95.4195 362.566C90.7049 375.014 89.1059 388.61 91.4012 401.739C93.7049 414.911 100.546 426.75 110.172 435.945C128.989 453.917 155.138 464.051 180.631 467.403C195.101 469.281 209.773 468.93 224.137 466.361C231.226 465.113 238.201 463.286 244.992 460.901C251.836 458.49 258.925 455.788 264.836 451.532C266.59 450.269 267.538 448.207 266.614 446.105C265.821 444.301 263.53 442.783 261.488 443.589C255.842 445.817 250.451 448.595 244.758 450.716C227.98 456.967 210.094 459.694 192.216 458.727C168.421 457.544 144.749 449.846 125.362 435.877C115.636 428.869 107.034 419.548 103.03 408.074C99.157 396.974 98.8637 384.504 101.682 373.12C107.542 349.453 125.529 331.023 145.493 318.128C170.868 301.738 199.989 292.879 229.914 289.888C233.621 289.517 233.794 283.978 229.914 283.98L229.915 283.982Z" fill="black"/>
</g>
<g opacity="0.1">
<path d="M368.946 383.267C370.385 375.444 370.57 367.201 371.158 359.274L372.027 347.555C372.324 343.557 373.206 339.142 372.433 335.196C371.554 330.705 365.378 331.49 364.1 335.196C362.87 338.763 363.228 343.289 362.986 347.045L362.231 358.764C361.734 366.479 360.75 374.478 361.088 382.202C361.275 386.478 368.092 387.915 368.947 383.265L368.946 383.267Z" fill="black"/>
</g>
<g opacity="0.1">
<path d="M263.137 454.091C264.23 455.881 265.002 457.194 266.934 458.252C269.061 459.416 271.436 460.107 273.741 460.815C277.779 462.055 281.869 463.131 286.009 463.968C294.571 465.701 303.261 466.721 311.991 467.018C329.49 467.662 346.958 465.056 363.507 459.33C372.634 456.135 381.58 452.492 388.72 445.811C389.686 444.908 388.668 443.415 387.485 443.689C379.573 445.512 372.113 448.542 364.346 450.877C356.372 453.244 348.228 454.995 339.986 456.115C323.971 458.331 307.46 458.285 291.541 455.372C287.102 454.559 282.682 453.578 278.324 452.41C276.075 451.808 273.862 451.038 271.598 450.504C270.393 450.181 269.156 449.991 267.909 449.938C266.629 449.93 265.633 450.488 264.45 450.861C264.128 450.955 263.831 451.121 263.582 451.345C263.333 451.57 263.138 451.848 263.012 452.158C262.886 452.469 262.831 452.804 262.852 453.139C262.874 453.473 262.971 453.799 263.136 454.091L263.137 454.091Z" fill="black"/>
</g>
</svg>
