<svg width="500" height="500" viewBox="0 0 500 500" fill="none" xmlns="http://www.w3.org/2000/svg">
<mask id="mask0_30_32014" style="mask-type:luminance" maskUnits="userSpaceOnUse" x="39" y="39" width="422" height="422">
<path d="M39 39H461V461H39V39Z" fill="white"/>
</mask>
<g mask="url(#mask0_30_32014)">
<mask id="mask1_30_32014" style="mask-type:luminance" maskUnits="userSpaceOnUse" x="55" y="61" width="390" height="378">
<path d="M55.2627 61.418H444.294V438.58H55.2627V61.418Z" fill="white"/>
</mask>
<g mask="url(#mask1_30_32014)">
<path d="M196.678 89.3559C187.883 89.1985 178.665 87.0845 170.374 89.9555C172.233 96.3211 179.01 99.8276 185.376 101.687C190.925 103.309 196.654 104.233 202.432 104.437C207.37 104.62 212.314 104.279 217.18 103.419C224.151 102.178 230.916 99.8883 237.936 98.9981C244.955 98.108 252.557 98.81 258.256 102.995C266.154 108.792 268.371 119.433 270 129.093C270.357 131.213 270.715 133.327 271.072 135.447L271.326 135.403C274.156 137.282 276.612 139.671 278.57 142.447C279.721 144.076 280.926 146.002 282.894 146.335C284.645 146.632 286.413 145.408 287.114 143.773C287.81 142.144 287.587 140.236 286.902 138.601C286.218 136.965 285.109 135.542 284.019 134.143L284.122 134.034C285.968 135.784 287.817 137.531 289.67 139.273C290.59 140.145 291.705 141.078 292.967 140.896C294.474 140.676 295.296 138.855 295.033 137.353C294.769 135.851 293.749 134.609 292.822 133.397C288.872 128.237 285.864 122.422 283.935 116.217C281.84 109.447 281.065 102.305 278.648 95.6485C276.231 88.9923 271.694 82.5362 264.945 80.3919C259.427 78.6335 253.48 80.0226 247.713 80.5009C240.162 81.0811 232.572 80.0878 225.425 77.5836C218.277 75.0794 211.727 71.119 206.189 65.9529C204.269 64.1361 201.804 62.0041 199.327 62.9246C196.547 63.9541 196.414 68.0304 197.934 70.5804C199.454 73.1238 202.004 74.9529 203.384 77.5755L203.378 77.5996C197.867 75.7827 192.353 73.9657 186.838 72.1488C185.715 71.7037 184.52 71.4654 183.313 71.4455C182.107 71.5061 180.854 72.0996 180.357 73.1959C179.757 74.5041 180.393 76.0365 181.126 77.2779C184.586 83.0672 190.166 87.281 196.682 89.0244L196.678 89.3559Z" fill="black"/>
<path d="M292.316 180.205C287.732 180.847 283.171 181.562 278.645 182.319C263.558 184.839 248.532 187.679 233.536 190.665C223.057 192.737 212.598 194.88 202.132 197.025L266.355 229.64L376.661 215.958L376.522 292.768L376.486 292.919C376.917 293.021 377.325 293.202 377.691 293.453C378.878 294.27 379.568 295.614 380.217 296.898C385.624 307.619 385.177 306.026 396.285 315.723C399.562 322.633 401.972 330.156 401.639 337.793C401.336 344.625 398.562 351.572 393.402 355.963L393.426 355.993C403.777 360.003 415.957 354.424 422.583 345.521C429.209 336.618 431.359 325.195 432.334 314.142C434.635 288.001 431.268 261.013 419.937 237.344C408.607 213.674 388.897 193.578 364.343 184.324C341.569 175.748 316.646 176.82 292.316 180.205Z" fill="black" fill-opacity="0.15"/>
<path d="M234.385 181.483C232.12 183.561 231.223 187.462 233.343 189.69L233.537 190.665C248.533 187.679 263.561 184.839 278.647 182.319C283.171 181.562 287.732 180.847 292.318 180.205C293.22 176.214 289.823 172.192 285.886 170.974C283.029 170.09 280.017 170.278 277.037 170.774C275.82 170.98 274.615 171.235 273.422 171.489C264.621 173.372 255.825 175.258 247.032 177.146C245.626 177.443 244.216 177.745 242.812 178.048C239.812 178.691 236.65 179.412 234.385 181.483Z" fill="black" fill-opacity="0.15"/>
<path d="M83.0837 311.743C84.6148 311.976 86.1639 312.063 87.7108 312.004C90.4182 311.901 93.4768 311.132 94.7441 308.739C96.3855 305.632 94.0535 301.944 91.5765 299.448C87.2312 295.083 82.1052 291.572 76.4649 289.097C75.0389 288.466 73.5645 287.95 72.0559 287.553C68.5792 286.656 64.6849 286.498 62.1956 288.952C60.1484 290.969 60.421 293.222 61.4566 295.414C62.1978 296.842 63.0501 298.209 64.0062 299.502C68.4447 305.917 75.3857 310.593 83.0837 311.743Z" stroke="black" stroke-linecap="round" stroke-linejoin="round"/>
<path d="M82.5387 311.956L82.9928 312.337C85.2703 314.233 87.6445 315.826 88.9043 318.527C90.2486 321.41 90.1351 325.226 87.7777 327.358C86.0879 328.884 83.7801 329.187 81.4477 328.963C80.3311 328.848 79.2251 328.646 78.1407 328.357C73.2103 327.091 68.3771 325.135 64.3861 321.961C62.7623 320.683 61.316 319.194 60.0857 317.534C58.2425 315.115 57.0033 312.291 56.4701 309.296C55.6349 304.269 57.2996 298.734 61.2426 295.512" stroke="black" stroke-linecap="round" stroke-linejoin="round"/>
<path d="M81.364 328.896C81.3909 328.92 81.419 328.942 81.4489 328.963C84.3409 331.253 86.8232 334.018 88.7899 337.139C89.7469 338.641 90.6309 340.343 90.4313 342.111C90.1645 344.461 87.9842 346.23 85.6768 346.751C83.3694 347.272 80.9768 346.787 78.6813 346.223C78.3845 346.15 78.0817 346.072 77.7849 345.993C73.6238 344.915 69.5177 343.479 65.9078 341.154C62.0439 338.658 58.7672 335.036 57.3799 330.651C55.9926 326.267 56.732 321.088 59.8513 317.708" stroke="black" stroke-linecap="round" stroke-linejoin="round"/>
<path d="M396.284 315.723C385.176 306.026 385.624 307.619 380.216 296.898C379.568 295.614 378.878 294.27 377.69 293.452C377.325 293.202 376.916 293.021 376.485 292.919C376.009 292.778 375.502 292.772 375.023 292.903C374.544 293.034 374.111 293.295 373.772 293.658C373.068 294.512 373.118 295.73 373.2 296.832C374.242 309.963 374.497 309.145 376.732 322.124" stroke="black" stroke-linecap="round" stroke-linejoin="round"/>
<path d="M376.485 322.135C370.677 322.935 364.869 323.737 359.061 324.54C354.651 325.146 350.103 325.805 346.317 328.137C345.082 328.9 343.9 329.896 343.362 331.244C342.824 332.593 343.107 334.351 344.318 335.157C345.185 335.732 346.293 335.714 347.335 335.678L356.069 335.387C362.973 335.157 369.882 334.925 376.794 334.69" stroke="black" stroke-linecap="round" stroke-linejoin="round"/>
<path d="M356.069 335.449C353.141 335.942 350.422 337.278 348.244 339.295C346.282 341.039 345.197 344.074 346.486 346.363C347.885 348.853 351.222 349.349 354.081 349.337C355.007 349.337 355.934 349.307 356.861 349.258C364.044 348.895 371.124 347.28 378.15 345.667" stroke="black" stroke-linecap="round" stroke-linejoin="round"/>
<path d="M356.868 349.458C354.373 350.797 351.799 352.196 350.054 354.426C348.31 356.655 347.608 359.967 349.164 362.335C350.975 365.091 354.835 365.456 358.122 365.273C364.766 364.916 371.31 363.529 377.812 362.148C379.223 361.845 380.641 361.542 382.046 361.191C385.377 360.367 388.635 359.283 391.482 357.406C392.151 356.965 392.792 356.483 393.402 355.964C398.563 351.573 401.336 344.626 401.639 337.794C401.972 330.157 399.562 322.634 396.285 315.724" stroke="black" stroke-linecap="round" stroke-linejoin="round"/>
<path d="M393.426 355.993C403.777 360.003 415.957 354.425 422.583 345.521C429.209 336.618 431.359 325.195 432.334 314.142C434.635 288.001 431.268 261.013 419.937 237.344C408.607 213.674 388.897 193.578 364.343 184.324C341.57 175.748 316.649 176.82 292.318 180.205C287.733 180.847 283.172 181.562 278.647 182.319C263.56 184.839 248.533 187.679 233.537 190.665C223.059 192.737 212.599 194.88 202.133 197.025" stroke="black" stroke-linecap="round" stroke-linejoin="round"/>
<path d="M292.261 180.436C292.28 180.357 292.305 180.284 292.316 180.205C293.218 176.214 289.821 172.192 285.884 170.974C283.027 170.09 280.015 170.278 277.035 170.774C275.818 170.98 274.613 171.235 273.42 171.489C264.619 173.372 255.823 175.258 247.03 177.146C245.624 177.443 244.214 177.745 242.81 178.048C239.813 178.69 236.651 179.411 234.385 181.482C232.12 183.554 231.224 187.461 233.344 189.689" stroke="black" stroke-linecap="round" stroke-linejoin="round"/>
<path d="M276.938 170.187C274.982 158.607 273.026 147.027 271.07 135.446C270.712 133.327 270.355 131.213 269.997 129.093C268.368 119.433 266.152 108.791 258.254 102.995C252.554 98.8097 244.953 98.1156 237.934 98.9979C230.915 99.8801 224.148 102.177 217.178 103.419C212.311 104.279 207.368 104.619 202.43 104.436C196.652 104.232 190.923 103.309 185.374 101.687C179.008 99.8273 172.23 96.3208 170.371 89.9552C178.663 87.0843 187.881 89.1982 196.675 89.3556C201.048 89.4343 205.318 89.0347 209.322 87.2896" stroke="black" stroke-linecap="round" stroke-linejoin="round"/>
<path d="M196.682 89.0244C190.167 87.2805 184.589 83.0676 181.128 77.2787C180.395 76.0373 179.759 74.5049 180.359 73.1967C180.856 72.1004 182.109 71.507 183.315 71.4463C184.523 71.4662 185.717 71.7045 186.84 72.1496C192.351 73.9666 197.865 75.7835 203.38 77.6005C207.087 78.8181 210.792 80.0375 214.494 81.2587" stroke="black" stroke-linecap="round" stroke-linejoin="round"/>
<path d="M203.387 77.5755C202.005 74.9529 199.456 73.1238 197.936 70.5804C196.415 68.0308 196.549 63.9541 199.329 62.9246C201.806 62.0041 204.271 64.1361 206.191 65.9529C211.729 71.1188 218.278 75.0791 225.426 77.5832C232.573 80.0874 240.162 81.0809 247.713 80.5009C253.479 80.0226 259.427 78.6357 264.945 80.3919C271.692 82.5362 276.234 88.9862 278.645 95.6485C281.056 102.311 281.838 109.446 283.935 116.217C285.863 122.423 288.871 128.239 292.82 133.399C293.747 134.611 294.765 135.853 295.031 137.356C295.297 138.859 294.474 140.681 292.965 140.899C291.705 141.08 290.591 140.148 289.668 139.275C287.822 137.531 285.972 135.785 284.121 134.036C283 132.981 281.885 131.929 280.765 130.875" stroke="black" stroke-linecap="round" stroke-linejoin="round"/>
<path d="M284.019 134.145C285.109 135.544 286.217 136.961 286.902 138.602C287.587 140.244 287.81 142.145 287.114 143.774C286.411 145.41 284.643 146.632 282.894 146.337C280.926 146.004 279.72 144.077 278.569 142.448C276.612 139.672 274.156 137.284 271.326 135.404" stroke="black" stroke-linecap="round" stroke-linejoin="round"/>
<path d="M237.509 109.058C237.836 107.933 238.428 106.903 239.236 106.054C240.044 105.206 241.043 104.564 242.151 104.182C243.259 103.8 244.442 103.69 245.601 103.861C246.759 104.032 247.861 104.479 248.811 105.164C248.575 105.127 248.345 105.097 248.115 105.061" stroke="black" stroke-linecap="round" stroke-linejoin="round"/>
<path d="M212.157 114.357C215.554 113.176 218.954 111.997 222.355 110.821C223.464 110.439 224.723 110.057 225.777 110.578C226.903 111.135 227.34 112.498 227.667 113.716C229.894 122.062 232.122 130.41 234.349 138.76C234.694 140.037 235.112 141.43 236.202 142.169C238.177 143.508 240.769 141.927 242.604 140.407" stroke="black" stroke-linecap="round" stroke-linejoin="round"/>
<path d="M252.967 150.776C256.891 150.764 260.344 146.882 259.901 142.981" stroke="black" stroke-linecap="round" stroke-linejoin="round"/>
<path d="M244.391 117.622C244.68 115.799 244.507 113.933 243.888 112.195" stroke="black" stroke-linecap="round" stroke-linejoin="round"/>
<path d="M222.435 123.612C222.423 121.898 221.957 120.218 221.085 118.742" stroke="black" stroke-linecap="round" stroke-linejoin="round"/>
<path d="M376.522 292.768L376.661 215.957L266.358 229.639L202.133 197.025L174.297 182.894L60.5772 157.033L72.1212 287.317" stroke="black" stroke-linecap="round" stroke-linejoin="round"/>
<path d="M382.076 361.317L384.644 427.159L294.86 437.419L169.167 375.284L80.2436 379.559L77.6755 346.424" stroke="black" stroke-linecap="round" stroke-linejoin="round"/>
<path d="M174.297 182.894L169.166 375.284" stroke="black" stroke-linecap="round" stroke-linejoin="round"/>
<path d="M266.358 229.64L294.86 437.419" stroke="black" stroke-linecap="round" stroke-linejoin="round"/>
<path d="M246.988 176.935C246.67 172.315 244.66 167.974 241.344 164.743C237.903 161.418 233.348 159.558 229.315 156.978C220.86 151.563 214.815 142.981 210.788 133.787C206.76 124.593 204.573 114.715 202.411 104.909" stroke="black" stroke-linecap="round" stroke-linejoin="round"/>
<path d="M67.6447 225.016C75.0763 220.396 82.6683 215.705 91.1681 213.625C99.6679 211.545 109.385 212.476 116.028 218.174C124.501 225.442 125.778 237.989 131.728 247.434C134.444 251.672 138.079 255.244 142.364 257.885C146.649 260.526 151.474 262.169 156.48 262.691C165.437 263.554 175.343 260.938 182.919 265.794C188.756 269.536 191.386 276.832 191.781 283.754C192.177 290.677 190.748 297.564 190.382 304.487C189.845 314.636 192.245 325.939 200.464 331.917C208.896 338.047 220.506 336.67 230.444 339.822C244.915 344.412 254.709 358.559 258.332 373.302C261.954 388.046 260.464 403.502 258.95 418.61" stroke="black" stroke-linecap="round" stroke-linejoin="round"/>
<path d="M375.757 258.867C364.714 254.433 351.404 256.217 341.92 263.402C337.799 266.523 334.416 270.535 330.29 273.65C326.164 276.764 320.863 278.975 315.859 277.676C309.962 276.143 306.199 270.295 300.671 267.732C294.998 265.102 287.698 266.564 283.475 271.177C280.833 274.064 279.445 277.848 277.453 281.215C275.461 284.582 272.404 287.79 268.502 288.082C265.482 288.309 262.571 286.695 260.453 284.531C258.336 282.367 256.854 279.678 255.261 277.102C251.165 270.477 244.782 263.773 237.034 264.568C229.463 265.344 224.569 272.832 217.847 276.401C212.496 279.244 206.082 279.519 200.688 282.28C197.234 284.055 194.352 286.77 192.376 290.112" stroke="black" stroke-linecap="round" stroke-linejoin="round"/>
<path d="M234.502 265.197C239.462 258.518 238.704 249.328 237.544 241.091C236.383 232.855 235.197 223.828 239.566 216.75" stroke="black" stroke-linecap="round" stroke-linejoin="round"/>
<path d="M221.336 339.073C222.152 345.096 217.878 351.067 212.256 353.375C206.635 355.682 200.09 354.802 194.574 352.251C189.074 349.707 183.703 345.463 177.712 346.377C175.925 346.649 174.163 347.388 172.371 347.148C169.092 346.708 167.197 343.35 164.898 340.971C160.333 336.252 152.917 335.006 146.616 336.853C140.314 338.699 135.072 343.233 131.184 348.525C127.296 353.817 124.611 359.877 121.957 365.883C120.245 369.759 118.532 373.635 116.818 377.511" stroke="black" stroke-linecap="round" stroke-linejoin="round"/>
<path d="M301.741 300.903L309.614 302.491C309.892 302.548 310.178 302.549 310.456 302.494C310.734 302.44 310.998 302.331 311.234 302.174C311.469 302.018 311.672 301.816 311.83 301.581C311.988 301.346 312.098 301.082 312.153 300.805L315.329 285.059C315.386 284.782 315.387 284.496 315.332 284.218C315.278 283.94 315.169 283.676 315.012 283.44C314.856 283.204 314.654 283.002 314.419 282.844C314.184 282.686 313.921 282.576 313.643 282.52L305.77 280.932C305.492 280.876 305.207 280.875 304.929 280.929C304.651 280.984 304.386 281.092 304.151 281.249C303.915 281.405 303.713 281.607 303.555 281.842C303.396 282.077 303.287 282.341 303.231 282.619L300.055 298.364C299.999 298.642 299.998 298.927 300.052 299.205C300.107 299.483 300.215 299.748 300.372 299.983C300.529 300.219 300.73 300.422 300.965 300.58C301.2 300.737 301.464 300.847 301.741 300.903Z" fill="black"/>
<path d="M302.171 265.409L305.424 267.113C305.675 267.244 305.949 267.325 306.231 267.35C306.513 267.376 306.797 267.346 307.068 267.261C307.338 267.176 307.589 267.04 307.806 266.858C308.023 266.676 308.203 266.454 308.334 266.203L312.446 258.348C312.577 258.098 312.658 257.823 312.684 257.541C312.709 257.259 312.679 256.975 312.595 256.705C312.51 256.435 312.373 256.184 312.192 255.967C312.01 255.749 311.788 255.57 311.537 255.439L308.284 253.735C308.033 253.604 307.759 253.523 307.477 253.497C307.195 253.472 306.91 253.502 306.64 253.587C306.37 253.671 306.119 253.808 305.902 253.99C305.684 254.172 305.505 254.394 305.374 254.645L301.261 262.5C301.13 262.75 301.049 263.024 301.023 263.307C300.998 263.588 301.029 263.873 301.113 264.143C301.198 264.413 301.335 264.664 301.516 264.881C301.698 265.099 301.92 265.278 302.171 265.409Z" fill="black"/>
<path d="M312.745 272.059L314.636 272.951C314.891 273.072 315.169 273.141 315.452 273.155C315.734 273.168 316.017 273.126 316.284 273.03C316.55 272.935 316.795 272.788 317.005 272.597C317.214 272.407 317.384 272.177 317.505 271.921L319.858 266.929C319.979 266.673 320.049 266.395 320.062 266.112C320.076 265.83 320.034 265.547 319.938 265.28C319.842 265.014 319.695 264.769 319.504 264.559C319.314 264.35 319.084 264.18 318.828 264.059L316.938 263.168C316.682 263.047 316.404 262.977 316.121 262.964C315.839 262.95 315.556 262.992 315.29 263.088C315.023 263.183 314.778 263.331 314.569 263.521C314.359 263.711 314.189 263.941 314.068 264.197L311.715 269.189C311.594 269.445 311.525 269.723 311.511 270.006C311.497 270.288 311.54 270.571 311.635 270.838C311.731 271.104 311.878 271.349 312.069 271.559C312.259 271.768 312.489 271.938 312.745 272.059Z" fill="black"/>
<path d="M126.615 220.999L128.999 227.786C129.203 228.367 129.63 228.843 130.185 229.11C130.74 229.377 131.379 229.412 131.96 229.208L144.731 224.724C145.019 224.622 145.284 224.466 145.511 224.262C145.738 224.059 145.923 223.812 146.055 223.538C146.187 223.262 146.264 222.964 146.28 222.66C146.297 222.355 146.253 222.05 146.152 221.763L143.768 214.975C143.564 214.394 143.137 213.918 142.582 213.651C142.026 213.385 141.388 213.349 140.807 213.553L128.036 218.04C127.455 218.244 126.979 218.67 126.713 219.225C126.447 219.78 126.411 220.418 126.615 220.999Z" fill="black"/>
<path d="M121.021 210.885L121.875 213.315C122.079 213.897 122.506 214.373 123.061 214.639C123.616 214.906 124.255 214.941 124.836 214.737L130.914 212.602C131.495 212.398 131.971 211.971 132.238 211.416C132.505 210.861 132.54 210.222 132.335 209.641L131.482 207.211C131.278 206.63 130.851 206.154 130.296 205.887C129.741 205.621 129.103 205.585 128.521 205.789L122.443 207.924C121.862 208.129 121.385 208.555 121.119 209.11C120.852 209.666 120.817 210.304 121.021 210.885Z" fill="black"/>
<path d="M134.531 319.521L129.05 322.345C128.502 322.627 128.089 323.115 127.901 323.702C127.714 324.289 127.766 324.926 128.049 325.474L133.317 335.699C133.6 336.247 134.088 336.659 134.674 336.847C135.261 337.035 135.898 336.982 136.446 336.7L141.928 333.876C142.475 333.594 142.888 333.105 143.076 332.519C143.263 331.932 143.211 331.295 142.928 330.747L137.66 320.522C137.378 319.975 136.889 319.562 136.303 319.374C135.716 319.186 135.079 319.239 134.531 319.521Z" fill="black"/>
<path d="M149.748 321.358L145.039 323.023C144.684 323.149 144.394 323.41 144.232 323.75C144.069 324.089 144.049 324.479 144.174 324.834L146.388 331.093C146.45 331.269 146.546 331.43 146.67 331.569C146.795 331.707 146.946 331.82 147.114 331.9C147.282 331.981 147.464 332.027 147.65 332.037C147.836 332.047 148.022 332.019 148.198 331.957L152.907 330.293C153.262 330.167 153.552 329.906 153.714 329.567C153.876 329.227 153.897 328.837 153.771 328.482L151.558 322.223C151.432 321.868 151.171 321.578 150.832 321.416C150.493 321.254 150.103 321.233 149.748 321.358Z" fill="black"/>
<path d="M262.084 361.031C262.084 361.031 252.394 339.939 244.985 336.805C237.575 333.67 211.923 333.67 205.937 328.541C199.951 323.412 197.101 310.014 196.816 304.029C196.531 298.043 201.662 287.498 206.223 286.357C210.785 285.217 223.894 282.082 225.89 279.802C227.885 277.522 232.73 271.822 238.715 272.391C244.701 272.961 251.538 283.221 251.538 283.221C251.538 283.221 262.655 291.772 263.794 297.472C264.934 303.172 273.485 362.456 273.485 362.456C273.485 362.456 277.475 378.132 270.92 377.277C264.365 376.423 262.084 361.031 262.084 361.031Z" fill="black" fill-opacity="0.15"/>
<path d="M135.82 263.84C134.89 263.401 123.279 256.145 120.144 249.589C117.009 243.034 119.004 232.49 114.444 229.353C109.883 226.216 99.9075 221.657 93.9221 223.652C87.9368 225.647 81.3813 233.059 84.5151 242.749C87.6488 252.438 87.0721 264.42 97.3408 274.101C107.317 283.508 130.973 292.627 140.379 292.057C149.784 291.487 160.166 284.797 160.33 278.091C160.616 266.405 145.509 268.4 135.82 263.84Z" fill="black" fill-opacity="0.15"/>
<path d="M325.358 377.277C325.358 377.277 340.749 372.717 344.169 384.687C347.589 396.658 350.825 406.389 348.444 413.19C346.356 419.153 337.328 425.73 326.498 425.73C315.667 425.73 303.411 412.619 301.701 404.639C299.992 396.658 299.421 380.982 304.552 379.272C309.682 377.562 325.358 377.277 325.358 377.277Z" fill="black" fill-opacity="0.15"/>
<path d="M249.579 209.133C250.524 207.04 251.468 204.947 252.413 202.855" stroke="black" stroke-linecap="round" stroke-linejoin="round"/>
<path d="M254.948 207.993C252.469 206.587 249.99 205.179 247.509 203.77" stroke="black" stroke-linecap="round" stroke-linejoin="round"/>
<path d="M333.471 195.494L336.525 188.618" stroke="black" stroke-linecap="round" stroke-linejoin="round"/>
<path d="M339.642 194.524C336.965 192.937 334.289 191.348 331.613 189.76" stroke="black" stroke-linecap="round" stroke-linejoin="round"/>
<path d="M292.621 219.111C293.757 216.734 294.894 214.358 296.031 211.981" stroke="black" stroke-linecap="round" stroke-linejoin="round"/>
<path d="M298.544 218.838C295.979 217.033 293.415 215.227 290.851 213.421" stroke="black" stroke-linecap="round" stroke-linejoin="round"/>
<path d="M390.001 250.114L395.513 243.353" stroke="black" stroke-linecap="round" stroke-linejoin="round"/>
<path d="M396.609 250.732L389.199 243.322" stroke="black" stroke-linecap="round" stroke-linejoin="round"/>
<path d="M405.791 303.512C407.314 301.901 408.836 300.287 410.357 298.672" stroke="black" stroke-linecap="round" stroke-linejoin="round"/>
<path d="M411.206 304.265C409.303 301.986 407.401 299.708 405.499 297.429" stroke="black" stroke-linecap="round" stroke-linejoin="round"/>
<path d="M386.149 282.993L390.212 277.058" stroke="black" stroke-linecap="round" stroke-linejoin="round"/>
<path d="M416.282 267.827L410.867 261.841" stroke="black" stroke-linecap="round" stroke-linejoin="round"/>
<path d="M384.644 228.498C385.445 226.593 386.721 224.925 388.349 223.652" stroke="black" stroke-linecap="round" stroke-linejoin="round"/>
<path d="M378.131 203.084L372.429 197.67" stroke="black" stroke-linecap="round" stroke-linejoin="round"/>
<path d="M338.894 212.635C339.985 211.08 341.075 209.525 342.165 207.97" stroke="black" stroke-linecap="round" stroke-linejoin="round"/>
<path d="M307.937 194.041C306.321 192.236 304.706 190.431 303.09 188.626" stroke="black" stroke-linecap="round" stroke-linejoin="round"/>
<path d="M311.49 214.626L315.113 210.842" stroke="black" stroke-linecap="round" stroke-linejoin="round"/>
<path d="M277.473 201.991L273.483 196.86" stroke="black" stroke-linecap="round" stroke-linejoin="round"/>
<path d="M268.069 219.093C269.02 217.953 269.97 216.813 270.92 215.672" stroke="black" stroke-linecap="round" stroke-linejoin="round"/>
<path d="M233.031 203.109C231.891 202.065 230.75 201.02 229.61 199.975" stroke="black" stroke-linecap="round" stroke-linejoin="round"/>
<path d="M241.68 188.566L239.385 179.449" stroke="black" stroke-linecap="round" stroke-linejoin="round"/>
<path d="M252.411 186.88C251.552 183.651 250.693 180.421 249.834 177.193" stroke="black" stroke-linecap="round" stroke-linejoin="round"/>
<path d="M265.548 184.595C264.766 181.369 263.984 178.145 263.202 174.92" stroke="black" stroke-linecap="round" stroke-linejoin="round"/>
<path d="M276.649 182.602C275.808 179.274 274.967 175.945 274.126 172.616" stroke="black" stroke-linecap="round" stroke-linejoin="round"/>
<path d="M286.114 180.594L284.071 171.77" stroke="black" stroke-linecap="round" stroke-linejoin="round"/>
<path d="M390.583 310.203C392.998 308.074 396.728 307.943 399.678 309.23C402.629 310.517 404.905 312.992 406.729 315.643C414.83 327.418 414.937 344.147 406.988 356.026L405.449 354.761" stroke="black" stroke-linecap="round" stroke-linejoin="round"/>
<path d="M59.2061 229.504L56.3488 202.558" stroke="black" stroke-linecap="round" stroke-linejoin="round"/>
<path d="M436.174 340.082C441.723 332.308 444.065 322.694 442.713 313.239" stroke="black" stroke-linecap="round" stroke-linejoin="round"/>
<path d="M236.623 421.189C224.675 414.211 212.532 407.585 200.193 401.311" stroke="black" stroke-linecap="round" stroke-linejoin="round"/>
<g opacity="0.1">
<path d="M230.914 101.367C232.334 99.441 235.5 99.365 237.698 99.0735C240.549 98.7008 243.43 98.6094 246.3 98.8001C252.121 99.19 257.723 101.074 261.869 105.344C266.053 109.652 268.426 115.501 269.906 121.239C271.719 128.272 273.102 135.432 274.206 142.608C274.841 146.737 275.38 150.88 275.822 155.038C276.259 159.175 276.881 163.475 276.733 167.637C276.722 168.657 276.344 169.64 275.668 170.406C274.993 171.171 274.064 171.668 273.053 171.806C271.179 172.029 268.701 170.879 268.393 168.765C267.781 164.505 267.69 160.162 267.253 155.876C266.837 151.789 266.306 147.717 265.663 143.66C264.396 135.675 262.708 127.763 260.608 119.956C258.96 113.839 256.261 107.481 250.566 104.154C247.496 102.411 244.01 101.535 240.481 101.621C238.745 101.636 237.012 101.754 235.29 101.975C233.802 102.167 232.445 102.579 231.045 101.875C230.96 101.824 230.899 101.743 230.875 101.648C230.85 101.553 230.864 101.452 230.913 101.367H230.914Z" fill="black"/>
</g>
<g opacity="0.1">
<path d="M283.032 170.797C283.576 170.82 284.009 170.478 284.56 170.456C284.989 170.466 285.413 170.541 285.819 170.678C286.811 171.025 287.755 171.495 288.63 172.076C289.509 172.623 290.472 173.084 291.136 173.893C292.044 174.898 292.715 176.094 293.098 177.394C294.245 182.025 287.171 183.987 285.945 179.366C285.637 178.211 285.664 177.995 285.344 176.816C285.21 176.481 285.148 176.122 285.161 175.761C285.155 175.359 285.162 175.305 285.182 175.599C285.235 175.904 285.174 175.849 284.999 175.435C284.864 175.126 284.735 174.814 284.613 174.5L285.222 175.545C284.749 174.979 284.241 174.445 283.698 173.945C283.296 173.56 282.948 172.697 282.573 172.488C282.406 172.384 282.277 172.23 282.205 172.047C282.133 171.864 282.121 171.663 282.173 171.473C282.224 171.283 282.336 171.115 282.49 170.994C282.645 170.872 282.834 170.804 283.031 170.799L283.032 170.797Z" fill="black"/>
</g>
<g opacity="0.1">
<path d="M293.616 180.197C298.782 178.957 304.084 179.289 309.322 178.517C314.484 177.755 319.51 176.939 324.757 176.89C334.825 176.811 344.868 177.913 354.679 180.171C373.037 184.396 389.461 193.646 401.899 207.872C414.089 221.814 422.58 238.862 427.899 256.526C433.526 275.262 435.376 294.929 433.343 314.386C432.248 324.722 430.669 335.963 424.662 344.745C418.677 353.492 408.67 359.188 397.93 356.855C395.286 356.281 393.744 353.201 394.432 350.696C395.187 347.95 397.936 346.642 400.592 347.198C407.305 348.605 413.99 343.611 417.328 337.945C421.388 331.055 422.668 322.609 423.538 314.775C425.504 296.982 424.134 278.978 419.499 261.686C415.191 245.591 408.146 229.653 397.696 216.564C387.087 203.278 373.349 193.893 357.012 189.096C347.077 186.179 336.783 184.838 326.47 184.212C321.003 183.88 315.608 183.269 310.18 182.614C304.673 181.949 299.117 182.894 293.616 182.145C292.605 182.007 292.706 180.416 293.616 180.197Z" fill="black"/>
</g>
</g>
</g>
</svg>
