<svg width="500" height="500" viewBox="0 0 500 500" fill="none" xmlns="http://www.w3.org/2000/svg">
<path d="M364.997 192.925C371.344 193.55 377.806 194.175 384.052 192.9C390.298 191.625 396.417 188.141 399.312 182.459C402.413 176.36 401.314 169.091 400.618 162.291C399.081 147.269 399.842 131.783 395.038 117.472C394.458 115.738 393.788 113.999 393.662 112.169C393.536 110.34 394.055 108.358 395.467 107.194C396.762 106.13 398.521 105.934 400.22 105.863C400.396 105.853 400.573 105.843 400.744 105.838C404.444 105.717 408.148 105.594 411.855 105.47C411.885 105.466 411.915 105.464 411.945 105.465C415.174 105.354 418.816 105.4 421.084 107.704C422.959 109.609 423.307 112.496 423.544 115.155C425.722 139.502 426.871 164.031 424.658 188.373C424.265 192.696 423.741 197.09 421.982 201.061C419.809 205.957 415.872 209.883 411.496 212.973C403.123 218.84 393.126 221.945 382.903 221.855L382.897 222.39C383.036 239.237 385.103 256.013 389.057 272.39C389.813 275.51 390.429 279.341 388.016 281.452C386.488 282.793 384.28 282.889 382.259 283.067C375.44 283.668 368.858 285.868 363.048 289.489C363.043 286.368 363.043 283.248 363.048 280.128C363.043 277.895 363.045 275.664 363.053 273.433C363.108 246.631 363.428 219.833 364.011 193.041L364.222 192.406L364.997 192.925Z" fill="black"/>
<path d="M403.551 211.706C410.124 209.703 415.024 203.922 417.565 197.539C420.106 191.156 420.614 184.163 420.883 177.296C421.716 156.082 420.537 134.834 418.622 113.69" stroke="white" stroke-linecap="round" stroke-linejoin="round"/>
<path d="M297.224 137.847C295.631 146.619 295.475 156.129 299.77 163.944C303.011 169.842 308.536 174.228 314.55 177.247C320.544 180.252 327.061 182.026 333.529 183.78C336.674 188.458 336.801 194.487 336.513 200.118C336.044 209.247 334.764 218.31 333.489 227.364C331.553 241.07 329.619 254.777 327.686 268.483C327.43 270.282 327.176 272.082 326.926 273.881L326.29 278.373C326.268 279.034 326.03 279.669 325.613 280.183C324.666 281.115 323.087 280.46 321.954 279.769C319.459 278.305 317.059 276.687 314.766 274.925C311.838 272.592 309.337 269.865 307.976 266.406C306.292 262.117 306.64 257.322 307.143 252.741C308.892 236.831 312.204 221.134 315.528 205.472C302.054 205.432 289.875 196.116 283.105 184.451C276.305 172.746 274.087 158.982 272.892 145.493C271.789 133.092 271.486 120.298 275.524 108.518C276.204 106.521 277.127 104.424 278.946 103.356C280.796 102.267 283.113 102.504 285.243 102.776L287.133 103.018C290.501 103.451 293.87 103.883 297.24 104.314C297.944 104.388 298.642 104.516 299.327 104.696C299.984 104.861 300.597 105.17 301.121 105.599C302.77 107.005 302.815 109.505 302.604 111.663C301.73 120.537 298.821 129.077 297.224 137.847Z" fill="black"/>
<path d="M320.361 183.834C305.54 181.79 293.94 168.391 290.929 153.735C287.918 139.079 292.255 123.705 299.617 110.68" stroke="white" stroke-linecap="round" stroke-linejoin="round"/>
<path d="M88.2323 303.729C92.114 303.109 96.0708 303.996 99.8718 305.009C109.768 307.645 119.441 311.169 129.512 313.009C139.584 314.848 150.321 314.909 159.692 310.791C168.983 306.708 176.609 297.891 177.215 287.784C179.195 287.753 181.168 287.516 183.1 287.079C196.624 284.251 209.681 279.587 222.683 274.895L222.844 275.343C231.832 285.425 241.052 302.126 244.581 315.161C248.109 328.197 249.395 341.737 250.035 355.227C250.92 373.908 250.584 392.811 246.425 411.049C245.145 416.69 243.461 422.326 240.372 427.216C238.556 430.127 236.185 432.652 233.393 434.646C231.46 436.01 229.293 437.008 227 437.59C222.01 438.82 216.288 437.549 212.715 433.951C212.263 433.499 211.85 433.011 211.48 432.492C208.072 427.748 208.425 421.361 209.05 415.555C211.061 396.767 214.362 378.076 214.862 359.187C215.361 340.298 213.56 320.992 204.706 304.302H204.701C203.733 310.679 202.629 317.045 200.592 323.156C198.228 330.264 194.528 337.074 188.943 342.062C181.885 348.368 172.439 351.277 163.139 353.031C146.069 356.168 128.575 356.216 111.49 353.172C102.884 351.67 94.214 349.356 86.9958 344.442C84.2994 342.614 81.8849 340.402 79.8286 337.876C76.339 333.571 74.0317 328.389 73.8349 322.889C73.7145 317.847 75.4859 312.943 78.8005 309.143C81.214 306.29 84.5515 304.374 88.2323 303.729Z" fill="black"/>
<path d="M240.474 409.308C252.049 371.007 248.127 328.26 229.776 292.704" stroke="white" stroke-linecap="round" stroke-linejoin="round"/>
<path d="M371.934 447.704C372.756 451.721 373.557 456.021 372.005 459.822C370.614 463.224 367.554 465.629 364.505 467.691C359.407 471.142 353.982 474.081 348.307 476.467C343.046 478.68 336.953 480.394 331.757 478.029C329.272 476.895 327.115 474.657 326.847 471.935C326.651 469.94 327.488 467.968 328.618 466.305C330.69 463.25 333.709 460.987 336.673 458.784C340.852 455.679 345.033 452.573 349.215 449.468L349.336 449.1C352.184 449.986 355.577 449.986 358.602 449.796C362.81 449.535 367.387 449.06 371.224 447.477L371.934 447.704Z" fill="black"/>
<path d="M352.31 137.313C347.021 135.922 341.733 134.529 336.446 133.134C334.878 132.721 333.309 132.307 331.738 131.894C330.566 131.663 329.447 131.214 328.441 130.569C327.483 129.863 326.783 128.673 327.005 127.504C327.397 125.427 330.256 124.857 332.227 125.629C334.197 126.4 335.786 127.983 337.802 128.623C336.895 127.564 335.957 126.45 335.609 125.094C335.261 123.739 335.695 122.07 336.955 121.459C338.16 120.875 339.637 121.449 340.63 122.342C341.623 123.234 342.324 124.419 343.261 125.371C345.53 127.66 348.897 128.356 352.022 129.127C355.525 129.993 358.969 131.083 362.331 132.393C363.762 132.948 365.248 133.603 366.142 134.853C367.775 137.145 366.742 140.282 366.086 143.024C364.61 149.366 365.567 156.031 368.768 161.701C369.348 162.719 369.966 164.097 369.156 164.938C368.335 165.784 366.848 165.149 366.102 164.232C365.355 163.315 364.846 162.124 363.788 161.59C363.929 162.936 364.861 164.045 365.431 165.27C366.001 166.495 366.066 168.234 364.902 168.925C364.01 169.459 362.795 169.051 362.09 168.28C361.448 167.455 361.003 166.494 360.787 165.472L360.505 165.431C361.296 159.872 361.746 154.269 361.851 148.655C361.892 146.387 361.846 143.993 360.682 142.047C358.995 139.219 355.496 138.155 352.31 137.313Z" fill="black"/>
<path d="M348.061 184.985C346.166 186.654 344.269 188.322 342.37 189.991C342.425 187.067 342.479 184.145 342.531 181.224L342.869 181.23C344.578 181.935 346.281 183.14 347.99 183.846C348.173 183.896 348.332 184.013 348.434 184.173C348.565 184.466 348.303 184.773 348.061 184.985Z" fill="black"/>
<path d="M338.699 211.445C338.2 206.585 336.663 196.418 340.352 192.37C341.804 190.782 343.75 191.216 345.232 192.647C347.273 194.613 346.43 197.89 346.477 200.592C346.79 219.031 350.374 237.268 357.063 254.454C356.468 257.116 355.875 259.777 355.283 262.438C352.612 262.54 350.132 260.824 348.609 258.628C347.087 256.431 346.366 253.789 345.706 251.197C342.395 238.137 340.053 224.85 338.699 211.445Z" fill="black"/>
<path d="M292.283 434.863C287.287 380.729 294.612 325.956 314.443 275.343L314.766 274.927C317.058 276.689 319.459 278.307 321.953 279.771C323.087 280.461 324.665 281.116 325.612 280.184C326.029 279.671 326.267 279.035 326.29 278.374L326.925 273.882C338.596 277.717 350.766 279.821 363.048 280.128C363.043 283.249 363.043 286.369 363.048 289.489C366.978 287.038 371.275 285.23 375.776 284.136L375.836 284.368C372.262 332.564 378.468 380.891 379.98 429.198C380.121 433.725 380.142 438.559 377.688 442.359C376.112 444.69 373.855 446.477 371.226 447.477C367.39 449.059 362.812 449.533 358.604 449.795C355.579 449.987 352.186 449.987 349.338 449.1C347.175 448.429 345.328 447.244 344.192 445.245C342.946 443.042 342.951 440.381 342.994 437.85C343.679 392.628 344.368 347.404 345.06 302.179L344.894 302.063C332.121 320.029 330.452 338.55 329.187 360.78C327.891 383.436 329.358 406.289 326.041 428.736C325.593 431.771 325.013 434.911 323.248 437.426C322.13 438.984 320.66 440.256 318.96 441.141C315.738 442.891 311.772 443.612 308.071 444.177C304.785 444.676 300.984 444.957 297.954 443.939C296.252 443.422 294.786 442.32 293.816 440.829C292.711 439.072 292.475 436.922 292.283 434.863Z" fill="black" fill-opacity="0.15"/>
<path d="M319.973 441.26C321.505 446.22 322.988 451.841 320.477 456.392C318.642 459.725 315.048 461.675 311.519 463.107C300.905 467.389 289.309 468.634 278.029 466.7C276.89 466.499 275.7 466.247 274.808 465.503C273.613 464.509 273.21 462.831 273.27 461.278C273.411 457.659 275.695 454.397 278.573 452.205C281.452 450.012 284.905 448.715 288.297 447.451C291.675 446.191 294.553 445.434 297.933 444.174L297.958 443.937C300.988 444.956 304.789 444.673 308.075 444.174C311.773 443.61 315.742 442.889 318.964 441.14L319.973 441.26Z" fill="black"/>
<path d="M255.207 451.886C255.936 453.832 254.854 456.004 253.468 457.547C249.541 461.912 243.24 463.495 237.387 463.052C231.534 462.608 225.985 460.4 220.541 458.217C218.151 457.259 215.691 456.262 213.851 454.462C211.215 451.901 210.212 448.019 210.353 444.345C210.494 440.786 211.588 437.338 212.707 433.951C216.281 437.55 222.003 438.82 226.993 437.59C229.286 437.008 231.453 436.01 233.385 434.646L233.451 434.736C238.269 440.42 244.206 445.052 250.892 448.342C252.606 449.184 254.531 450.1 255.207 451.886Z" fill="black" fill-opacity="0.15"/>
<path d="M181.852 201.62C180.37 201.439 179.074 200.198 178.49 198.782C177.824 197.159 177.87 195.345 177.925 193.585L177.885 193.343C179.55 193.089 181.146 192.501 182.578 191.614C183.69 190.905 184.681 190.021 185.512 188.998L185.945 189.258C187.644 191.308 188.885 193.697 189.585 196.265C189.811 197.107 189.953 198.075 189.444 198.781C189.29 198.986 189.096 199.157 188.874 199.284C188.209 199.668 187.311 199.728 186.54 199.965C185.139 200.389 183.959 201.503 182.503 201.632C182.286 201.653 182.068 201.649 181.852 201.62Z" fill="black" fill-opacity="0.15"/>
<path d="M184.377 250.522C187.191 242.605 188.417 234.21 187.983 225.819C187.55 217.428 185.466 209.205 181.851 201.62C182.067 201.65 182.285 201.655 182.502 201.635C183.96 201.504 185.138 200.39 186.539 199.969C187.31 199.732 188.206 199.671 188.873 199.288C198.141 215.557 201.291 234.602 197.755 252.989C196.853 257.576 195.497 262.168 192.825 266.005C188.505 272.22 181.241 275.796 176.523 281.712C175.358 276.389 176.422 270.808 178.217 265.662C180.011 260.516 182.521 255.648 184.377 250.522Z" fill="black" fill-opacity="0.15"/>
<path d="M165.242 185.504C161.452 183.645 158.494 180.435 156.95 176.506C155.655 173.108 155.554 169.171 157.01 165.874C157.232 165.367 157.492 164.877 157.787 164.408C158.537 163.166 159.572 162.12 160.808 161.358C163.263 159.876 166.227 159.82 169.458 159.75C173.844 159.646 178.058 155.571 182.383 156.478C182.464 156.493 182.539 156.508 182.62 156.53C184.49 156.999 185.962 158.521 186.786 160.26C187.353 161.524 187.716 162.87 187.86 164.248C187.931 164.787 187.986 165.332 188.027 165.871C188.345 169.03 188.139 172.221 187.416 175.312C187.097 176.539 186.643 177.726 186.062 178.852C183.224 184.276 176.913 187.628 170.813 187.088C168.874 186.908 166.985 186.371 165.242 185.504ZM174.528 171.717C176.584 170.029 178.173 167.221 177.174 164.756C175.455 160.511 163.977 160.91 161.502 164.235C160.044 166.195 160.148 169.084 161.522 171.101C162.245 172.089 163.192 172.891 164.286 173.44C165.38 173.99 166.589 174.271 167.813 174.261C170.278 174.216 172.651 173.317 174.528 171.717Z" fill="black"/>
<path d="M166.713 170.331C165.835 169.98 165.11 169.329 164.668 168.494C164.224 167.658 164.092 166.693 164.294 165.769C164.455 165.109 164.893 164.428 165.564 164.338C166.163 164.257 166.703 164.66 167.237 164.937C167.464 165.058 167.702 165.154 167.948 165.225L167.928 165.769C167.623 166.062 167.379 166.414 167.211 166.803C167.044 167.192 166.955 167.61 166.952 168.034C166.948 168.458 167.029 168.878 167.19 169.27C167.35 169.661 167.588 170.017 167.888 170.316L167.878 170.543C167.48 170.537 167.087 170.466 166.713 170.331Z" fill="black"/>
<path d="M174.381 125.094C174.932 124.252 175.661 123.539 176.516 123.007C177.777 122.291 179.589 122.322 180.474 123.471C181.19 124.404 181.074 125.774 180.49 126.793C179.839 127.776 178.978 128.602 177.969 129.213C176.82 130.008 175.637 130.749 174.42 131.435C171.74 132.948 168.917 134.193 165.992 135.151C162.211 136.391 157.971 137.329 155.507 140.459C153.168 143.428 153.122 147.713 154.433 151.256C155.743 154.8 158.198 157.79 160.613 160.698L160.805 161.358C159.57 162.12 158.534 163.166 157.784 164.408C157.489 164.877 157.229 165.367 157.007 165.875L156.74 165.759C152.995 161.353 149.164 156.791 147.424 151.28C145.685 145.768 146.547 139.01 151.029 135.36C153.665 133.213 157.108 132.427 160.329 131.328C163.55 130.229 166.882 128.53 168.309 125.442C168.858 124.253 169.136 122.841 170.159 122.015C170.621 121.634 171.195 121.418 171.793 121.401C172.39 121.383 172.977 121.564 173.459 121.916C173.943 122.268 174.295 122.77 174.461 123.345C174.628 123.919 174.598 124.532 174.378 125.088C174.118 125.452 173.869 125.828 173.627 126.202C173.971 125.905 174.231 125.523 174.381 125.094Z" fill="black"/>
<path d="M78.8005 309.143C75.4859 312.943 73.7146 317.847 73.8349 322.889C74.0318 328.388 76.3406 333.571 79.8286 337.875L79.2088 338.385C75.5547 344.519 71.8979 350.656 68.2396 356.794C67.05 358.785 65.7594 360.878 63.6927 361.916C60.1745 363.69 55.7531 361.638 53.3536 358.518C50.5714 354.888 49.7194 350.07 50.0772 345.508C50.435 340.946 51.9001 336.555 53.3536 332.22C54.7755 327.97 56.1995 323.719 57.6245 319.466C58.7891 315.988 60.1047 312.293 63.0182 310.06C67.3573 306.743 73.4823 307.842 78.8005 309.143Z" fill="black" fill-opacity="0.15"/>
<path d="M169.32 159.327C170.485 158.44 171.646 157.55 172.804 156.66C170.317 152.362 168.106 147.911 166.185 143.332C165.839 142.658 165.67 141.907 165.696 141.149C165.867 139.733 167.329 138.831 168.717 138.483C170.104 138.135 171.595 138.118 172.865 137.459" stroke="black" stroke-linecap="round" stroke-linejoin="round"/>
<path d="M163.225 147.864C162.72 147.684 162.183 147.606 161.647 147.634C161.111 147.663 160.587 147.797 160.103 148.03C159.619 148.262 159.186 148.588 158.83 148.989C158.472 149.39 158.198 149.857 158.023 150.364" stroke="black" stroke-linecap="round" stroke-linejoin="round"/>
<path d="M170.111 145.147C170.902 142.959 173.952 141.981 175.868 143.302" stroke="black" stroke-linecap="round" stroke-linejoin="round"/>
<path d="M175.253 131.859C179.188 139.532 181.608 147.891 182.381 156.479C182.385 156.492 182.387 156.506 182.386 156.519" stroke="black" stroke-linecap="round" stroke-linejoin="round"/>
<path d="M160.806 161.358C159.571 162.12 158.535 163.166 157.785 164.408C157.49 164.877 157.23 165.367 157.008 165.875C155.55 169.172 155.654 173.109 156.948 176.506C158.492 180.435 161.449 183.645 165.24 185.504C166.982 186.369 168.868 186.906 170.805 187.087C176.905 187.627 183.216 184.274 186.054 178.851C186.635 177.724 187.09 176.537 187.408 175.311C188.131 172.219 188.338 169.029 188.019 165.87C187.978 165.331 187.923 164.786 187.852 164.247C187.708 162.869 187.345 161.523 186.779 160.259C185.957 158.52 184.487 156.998 182.612 156.529C182.531 156.509 182.456 156.494 182.375 156.477C178.052 155.57 173.833 159.643 169.451 159.749C166.225 159.821 163.261 159.877 160.806 161.358Z" stroke="black" stroke-linecap="round" stroke-linejoin="round"/>
<path d="M172.64 163.864C172.068 164.513 171.323 164.986 170.492 165.228C169.661 165.469 168.778 165.468 167.947 165.225C167.701 165.155 167.463 165.058 167.236 164.937C166.702 164.66 166.163 164.257 165.563 164.337C164.892 164.428 164.454 165.109 164.293 165.769C164.091 166.693 164.223 167.658 164.667 168.494C165.109 169.329 165.834 169.98 166.712 170.331C167.086 170.466 167.48 170.537 167.877 170.543C168.62 170.559 169.353 170.368 169.994 169.991C170.635 169.615 171.158 169.067 171.506 168.41" stroke="black" stroke-linecap="round" stroke-linejoin="round"/>
<path d="M167.888 170.316C167.588 170.018 167.35 169.662 167.19 169.27C167.029 168.878 166.948 168.458 166.952 168.034C166.955 167.611 167.044 167.192 167.211 166.803C167.379 166.415 167.623 166.063 167.928 165.769" stroke="black" stroke-linecap="round" stroke-linejoin="round"/>
<path d="M161.502 164.237C160.044 166.197 160.148 169.086 161.522 171.103C162.245 172.09 163.192 172.892 164.286 173.442C165.38 173.991 166.589 174.273 167.813 174.263C170.278 174.217 172.652 173.318 174.528 171.717C176.584 170.029 178.173 167.221 177.174 164.756C175.454 160.511 163.977 160.91 161.502 164.237Z" stroke="black" stroke-linecap="round" stroke-linejoin="round"/>
<path d="M174.381 125.094C174.601 124.539 174.63 123.926 174.464 123.351C174.298 122.777 173.945 122.274 173.463 121.922C172.979 121.571 172.393 121.39 171.795 121.407C171.198 121.425 170.623 121.641 170.162 122.021C169.139 122.848 168.86 124.261 168.312 125.449C166.885 128.534 163.548 130.233 160.332 131.334C157.116 132.436 153.665 133.22 151.031 135.367C146.552 139.017 145.683 145.771 147.427 151.286C149.171 156.802 153 161.358 156.743 165.766" stroke="black" stroke-linecap="round" stroke-linejoin="round"/>
<path d="M174.381 125.094C174.12 125.459 173.872 125.835 173.63 126.208C173.974 125.909 174.233 125.525 174.381 125.094Z" stroke="black" stroke-linecap="round" stroke-linejoin="round"/>
<path d="M160.614 160.698C158.199 157.79 155.74 154.805 154.434 151.256C153.128 147.707 153.169 143.428 155.508 140.459C157.973 137.329 162.212 136.391 165.993 135.151C168.918 134.193 171.741 132.948 174.421 131.435C175.636 130.75 176.82 130.009 177.97 129.213C178.979 128.602 179.84 127.776 180.491 126.793C181.076 125.775 181.191 124.404 180.476 123.471C179.593 122.322 177.779 122.291 176.517 123.007C175.662 123.539 174.933 124.251 174.382 125.094" stroke="black" stroke-linecap="round" stroke-linejoin="round"/>
<path d="M188.445 164.166C193.32 139.793 198.191 115.418 203.058 91.0412C203.537 88.6318 204.066 86.1214 205.589 84.1906C207.651 81.5797 211.038 80.6167 214.451 80.4703C215.422 80.4333 216.395 80.4521 217.364 80.5261C220.45 80.7578 223.585 81.3375 226.645 81.2031C227.828 81.1625 229.002 80.9849 230.143 80.6735C228.093 97.4703 226.039 114.263 223.983 131.053C221.725 149.542 219.462 168.088 219.577 186.709C219.739 213.48 224.82 239.981 230.934 266.053" stroke="black" stroke-linecap="round" stroke-linejoin="round"/>
<path d="M164.884 186.193C162.708 186.461 160.505 186.405 158.346 186.027C149.983 184.61 142.356 178.687 138.502 170.99C133.653 161.317 134.217 149.516 138.346 139.515C142.474 129.514 149.856 121.141 158.152 114.194C160.435 112.284 163.056 109.42 161.7 106.769C161.171 105.741 160.147 105.08 159.17 104.47C159.069 104.405 158.961 104.339 158.862 104.279C155.863 102.398 152.866 100.52 149.869 98.6427C149.279 98.275 148.674 97.9021 148.049 97.564C146.456 96.6974 144.758 96.0567 142.997 96.289C140.502 96.6166 138.592 98.5927 136.943 100.493C124.876 114.426 115.398 131.061 112.314 149.239C109.229 167.416 113.115 187.196 124.996 201.296C134.267 212.29 147.428 219.045 160.459 225.26C161.292 225.659 162.118 226.052 162.944 226.445" stroke="black" stroke-linecap="round" stroke-linejoin="round"/>
<path d="M159.147 103.817C161.567 103.904 163.938 103.114 165.821 101.593C166.633 100.933 167.384 100.046 167.404 98.9974C167.434 97.4651 165.821 96.3104 164.289 96.2651C162.757 96.2198 161.325 96.9557 159.974 97.6714C163.995 92.0599 166.934 85.7474 168.64 79.0578C168.781 78.4932 168.896 77.8328 168.523 77.3839C168.3 77.1714 168.007 77.0458 167.698 77.0292C167.39 77.0125 167.085 77.1062 166.84 77.2932C166.358 77.6859 165.981 78.1917 165.741 78.7651C163.221 83.6349 160.702 88.5026 158.184 93.3688C160.604 87.3714 165.741 75.5365 163.474 74.7609C160.401 73.4328 159.359 79.9781 158.312 83.1464C157.265 86.3146 156.467 89.624 154.632 92.4115C156.311 86.9203 157.38 81.2615 157.818 75.5365C157.899 74.5182 157.714 73.1672 156.704 72.9911C155.694 72.8151 155.066 74.0495 154.789 75.0427C152.705 82.5385 150.622 90.0359 148.539 97.5349" stroke="black" stroke-linecap="round" stroke-linejoin="round"/>
<path d="M214.426 79.8823C212.04 78.4495 209.988 76.5229 208.407 74.2313C207.918 73.5255 207.505 72.4974 208.11 71.8823C208.573 71.4136 209.355 71.5245 209.99 71.711C212.292 72.386 214.429 73.5271 216.271 75.063C216.271 67.1828 215.908 51.3689 219.165 51.724C222.421 52.0791 220.727 65.7526 219.775 72.7948C220.656 67.7792 221.539 62.7667 222.421 57.7578C222.728 56.0037 223.535 53.8057 225.314 53.8208C227.328 53.838 225.604 67.3698 224.044 73.9641C225.554 70.9349 225.581 67.4214 226.015 64.0641C226.449 60.7068 228.109 54.9724 230.35 55.2422C234.359 55.7245 229.982 72.5646 226.615 80.5474" stroke="black" stroke-linecap="round" stroke-linejoin="round"/>
<path d="M158.25 186.578C161.92 188.988 165.655 191.428 169.854 192.703C172.448 193.519 175.194 193.738 177.884 193.343C179.549 193.089 181.146 192.501 182.578 191.614C183.689 190.905 184.68 190.021 185.511 188.998C186.583 187.672 187.416 186.169 187.971 184.557C188.999 181.603 189.117 178.241 187.805 175.397" stroke="black" stroke-linecap="round" stroke-linejoin="round"/>
<path d="M177.925 193.585C177.87 195.344 177.824 197.159 178.49 198.782C179.074 200.198 180.37 201.439 181.852 201.62C182.068 201.65 182.286 201.655 182.503 201.635C183.961 201.504 185.139 200.39 186.54 199.969C187.311 199.732 188.207 199.671 188.874 199.288C189.096 199.161 189.29 198.989 189.444 198.784C189.953 198.079 189.811 197.11 189.585 196.269C188.884 193.701 187.644 191.311 185.945 189.262" stroke="black" stroke-linecap="round" stroke-linejoin="round"/>
<path d="M160.307 225.58C162.505 242.452 164.703 259.327 166.901 276.205C167.334 279.547 167.908 283.177 170.379 285.48C172.223 287.194 174.658 287.769 177.214 287.784C179.195 287.753 181.167 287.516 183.099 287.078C196.624 284.25 209.68 279.587 222.683 274.894C222.985 274.783 223.282 274.678 223.585 274.567C225.445 273.896 227.356 273.195 228.858 271.9C230.36 270.605 231.368 268.553 230.884 266.632" stroke="black" stroke-linecap="round" stroke-linejoin="round"/>
<path d="M177.229 287.495L177.214 287.783C176.609 297.89 168.982 306.706 159.692 310.79C150.321 314.908 139.584 314.847 129.512 313.007C119.44 311.167 109.767 307.643 99.8713 305.007C96.0692 303.994 92.1135 303.107 88.2317 303.727C84.5515 304.373 81.214 306.289 78.8005 309.141C75.4859 312.942 73.7145 317.846 73.8349 322.888C74.0317 328.387 76.3406 333.569 79.8286 337.874C81.8822 340.401 84.2937 342.614 86.9869 344.443C94.2052 349.357 102.875 351.671 111.481 353.173C128.567 356.217 146.06 356.169 163.13 353.032C172.43 351.278 181.877 348.369 188.934 342.063C194.519 337.073 198.219 330.263 200.583 323.157C202.62 317.047 203.724 310.681 204.692 304.303C204.853 303.269 205.005 302.236 205.161 301.203" stroke="black" stroke-linecap="round" stroke-linejoin="round"/>
<path d="M204.697 304.303C213.551 320.994 215.354 340.301 214.853 359.189C214.353 378.077 211.051 396.769 209.041 415.556C208.416 421.363 208.063 427.75 211.471 432.494C211.841 433.014 212.254 433.501 212.706 433.952C216.28 437.551 222.002 438.821 226.992 437.592C229.284 437.01 231.451 436.012 233.384 434.647C236.176 432.654 238.547 430.129 240.363 427.217C243.453 422.328 245.136 416.692 246.417 411.051C250.576 392.813 250.914 373.91 250.026 355.228C249.386 341.739 248.099 328.197 244.572 315.163C241.045 302.129 231.823 285.427 222.835 275.345" stroke="black" stroke-linecap="round" stroke-linejoin="round"/>
<path d="M78.987 309.188L78.8005 309.143C73.4823 307.841 67.3573 306.743 63.0193 310.06C60.1057 312.293 58.7901 315.988 57.6255 319.466C56.1989 323.715 54.7755 327.967 53.3547 332.22C51.9033 336.555 50.4382 340.946 50.0783 345.508C49.7184 350.07 50.5726 354.889 53.3547 358.518C55.7542 361.639 60.1776 363.69 63.6937 361.916C65.7604 360.878 67.051 358.785 68.2406 356.794C71.8958 350.655 75.5521 344.518 79.2099 338.385" stroke="black" stroke-linecap="round" stroke-linejoin="round"/>
<path d="M212.813 433.638C212.778 433.742 212.742 433.846 212.709 433.951C211.59 437.336 210.496 440.786 210.355 444.345C210.214 448.019 211.217 451.901 213.853 454.462C215.693 456.261 218.153 457.259 220.543 458.217C225.987 460.4 231.542 462.603 237.389 463.052C243.236 463.501 249.543 461.912 253.47 457.547C254.856 456.004 255.94 453.832 255.209 451.886C254.532 450.102 252.608 449.184 250.894 448.344C244.207 445.053 238.27 440.42 233.451 434.735" stroke="black" stroke-linecap="round" stroke-linejoin="round"/>
<path d="M340.096 138.049C342.78 139.203 345.608 139.985 348.504 140.373C346.941 146.009 345.382 151.645 343.826 157.28C344.597 157.285 345.364 157.285 346.135 157.291" stroke="black" stroke-linecap="round" stroke-linejoin="round"/>
<path d="M343.443 144.834C343.41 144.446 343.261 144.076 343.017 143.771C342.773 143.467 342.443 143.242 342.071 143.126C341.698 143.009 341.299 143.007 340.925 143.118C340.551 143.229 340.218 143.45 339.97 143.751C340.126 143.64 340.282 143.523 340.443 143.408" stroke="black" stroke-linecap="round" stroke-linejoin="round"/>
<path d="M351.887 145.591C351.987 145.515 352.089 145.444 352.184 145.369" stroke="black" stroke-linecap="round" stroke-linejoin="round"/>
<path d="M356.02 146.997C355.886 146.596 355.661 146.231 355.364 145.931C355.066 145.631 354.703 145.404 354.302 145.268C353.902 145.132 353.476 145.09 353.056 145.146C352.638 145.202 352.237 145.354 351.886 145.591C351.821 145.636 351.755 145.681 351.695 145.732" stroke="black" stroke-linecap="round" stroke-linejoin="round"/>
<path d="M345.328 163.277C346.699 164.422 348.851 164.194 350.298 163.145C350.565 162.951 350.815 162.733 351.044 162.495C352.024 161.408 352.746 160.114 353.156 158.71C354.452 159.496 355.439 160.702 355.954 162.128C356.202 162.838 356.275 163.598 356.167 164.343C356.059 165.088 355.773 165.796 355.334 166.407C355.028 166.804 354.645 167.136 354.21 167.385C353.779 167.639 353.299 167.798 352.802 167.852C352.305 167.906 351.802 167.854 351.326 167.698" stroke="black" stroke-linecap="round" stroke-linejoin="round"/>
<path d="M354.119 167.07C354.088 166.105 353.787 165.168 353.25 164.366C352.712 163.564 351.96 162.929 351.079 162.533" stroke="black" stroke-linecap="round" stroke-linejoin="round"/>
<path d="M343.302 178.86C345.107 176.476 344.2 172.947 342.39 170.573C340.58 168.198 338.034 166.475 336.144 164.161C332.967 160.274 331.935 154.986 332.268 149.981C332.601 144.976 334.688 138.634 336.255 133.865" stroke="black" stroke-linecap="round" stroke-linejoin="round"/>
<path d="M357.165 181.794C360.064 170.979 361.638 159.851 361.852 148.655C361.893 146.387 361.847 143.993 360.683 142.047C358.994 139.219 355.496 138.155 352.31 137.313C347.021 135.922 341.733 134.529 336.446 133.134C334.878 132.721 333.309 132.307 331.738 131.894C330.566 131.663 329.447 131.214 328.441 130.569C327.483 129.863 326.783 128.673 327.005 127.504C327.397 125.427 330.256 124.857 332.227 125.629C334.197 126.4 335.786 127.983 337.802 128.623C336.895 127.564 335.957 126.45 335.609 125.094C335.261 123.739 335.695 122.07 336.955 121.459C338.16 120.875 339.637 121.449 340.63 122.342C341.623 123.234 342.324 124.419 343.261 125.371C345.53 127.66 348.897 128.356 352.022 129.127C355.525 129.993 358.969 131.083 362.331 132.393C363.762 132.948 365.248 133.603 366.142 134.853C367.775 137.145 366.742 140.282 366.086 143.024C364.61 149.366 365.567 156.031 368.768 161.701C369.348 162.719 369.966 164.097 369.156 164.937C368.335 165.784 366.848 165.149 366.102 164.232C365.355 163.315 364.846 162.124 363.788 161.59C363.929 162.936 364.861 164.045 365.431 165.27C366.001 166.495 366.066 168.234 364.902 168.925C364.01 169.459 362.795 169.051 362.09 168.28C361.448 167.455 361.003 166.494 360.787 165.472" stroke="black" stroke-linecap="round" stroke-linejoin="round"/>
<path d="M333.613 183.8L333.558 183.785C333.548 183.781 333.538 183.779 333.528 183.78C327.06 182.026 320.542 180.252 314.548 177.247C308.534 174.227 303.01 169.842 299.768 163.944C295.473 156.132 295.63 146.619 297.223 137.847C298.816 129.076 301.729 120.537 302.602 111.665C302.813 109.508 302.768 107.007 301.119 105.601C300.595 105.172 299.982 104.864 299.325 104.698C298.64 104.518 297.942 104.39 297.238 104.316C293.87 103.887 290.501 103.455 287.131 103.02L285.241 102.778C283.108 102.506 280.794 102.269 278.944 103.358C277.124 104.427 276.202 106.523 275.522 108.52C271.484 120.3 271.786 133.094 272.89 145.495C274.085 158.979 276.303 172.746 283.103 184.453C289.874 196.12 302.052 205.434 315.526 205.474H315.678" stroke="black" stroke-linecap="round" stroke-linejoin="round"/>
<path d="M364.998 192.925C371.345 193.55 377.807 194.175 384.053 192.9C390.299 191.625 396.418 188.141 399.314 182.459C402.414 176.36 401.315 169.091 400.619 162.291C399.082 147.269 399.843 131.783 395.039 117.472C394.459 115.738 393.789 113.999 393.663 112.169C393.537 110.34 394.056 108.358 395.468 107.194C396.763 106.13 398.522 105.934 400.221 105.863C400.397 105.853 400.574 105.843 400.745 105.838C404.445 105.717 408.149 105.594 411.856 105.47C411.885 105.466 411.916 105.464 411.946 105.465C415.176 105.354 418.817 105.4 421.085 107.704C422.96 109.609 423.308 112.496 423.545 115.155C425.723 139.502 426.872 164.031 424.659 188.373C424.266 192.696 423.742 197.09 421.983 201.061C419.81 205.957 415.873 209.883 411.497 212.973C403.123 218.84 393.127 221.945 382.904 221.855C381.966 221.845 381.033 221.808 380.106 221.744" stroke="black" stroke-linecap="round" stroke-linejoin="round"/>
<path d="M315.638 204.943C315.603 205.119 315.562 205.296 315.527 205.472C312.205 221.134 308.893 236.832 307.141 252.741C306.637 257.325 306.289 262.116 307.975 266.407C309.335 269.865 311.836 272.592 314.765 274.926C317.057 276.689 319.458 278.306 321.952 279.77C323.086 280.46 324.664 281.116 325.612 280.183C326.028 279.67 326.266 279.034 326.289 278.373L326.924 273.882C327.176 272.082 327.43 270.283 327.685 268.483C329.621 254.777 331.555 241.071 333.487 227.365C334.763 218.311 336.043 209.247 336.511 200.118C336.799 194.488 336.673 188.459 333.528 183.781" stroke="black" stroke-linecap="round" stroke-linejoin="round"/>
<path d="M364.01 193.041C363.431 219.833 363.111 246.63 363.052 273.433C363.047 275.666 363.045 277.897 363.047 280.127C363.042 283.247 363.042 286.368 363.047 289.488C368.857 285.867 375.439 283.667 382.258 283.066C384.279 282.89 386.487 282.794 388.015 281.452C390.429 279.339 389.814 275.508 389.056 272.389C385.102 256.012 383.035 239.236 382.896 222.389" stroke="black" stroke-linecap="round" stroke-linejoin="round"/>
<path d="M333.598 183.644C332.181 182.459 333.543 179.42 335.196 178.592C336.849 177.765 338.82 178.114 340.635 178.481C341.512 178.658 342.394 178.834 343.271 179.01C347.904 179.939 352.535 180.869 357.164 181.803C357.381 181.848 357.598 181.889 357.815 181.934C359.539 182.277 361.373 182.685 362.603 183.946C364.554 185.937 364.705 189.657 364.221 192.404" stroke="black" stroke-linecap="round" stroke-linejoin="round"/>
<path d="M314.443 275.343C294.612 325.959 287.287 380.729 292.283 434.863C292.475 436.924 292.711 439.072 293.816 440.826C294.786 442.318 296.252 443.419 297.954 443.936C300.984 444.955 304.785 444.672 308.071 444.173C311.769 443.609 315.738 442.888 318.96 441.139C320.659 440.253 322.127 438.98 323.244 437.423C325.009 434.908 325.588 431.768 326.037 428.733C329.354 406.285 327.887 383.43 329.183 360.777C330.448 338.546 332.117 320.026 344.89 302.06C345.127 301.722 345.374 301.38 345.619 301.042" stroke="black" stroke-linecap="round" stroke-linejoin="round"/>
<path d="M345.056 302.176C344.366 347.398 343.677 392.622 342.99 437.847C342.95 440.378 342.944 443.039 344.188 445.243C345.321 447.244 347.171 448.428 349.334 449.097C352.182 449.982 355.575 449.982 358.6 449.792C362.808 449.532 367.385 449.056 371.222 447.473C373.852 446.474 376.108 444.687 377.684 442.357C380.139 438.555 380.119 433.722 379.976 429.195C378.466 380.888 372.258 332.561 375.832 284.365" stroke="black" stroke-linecap="round" stroke-linejoin="round"/>
<path d="M328.326 268.573C339.636 271.479 351.236 273.109 362.909 273.433" stroke="black" stroke-linecap="round" stroke-linejoin="round"/>
<path d="M326.883 273.871C326.896 273.877 326.909 273.88 326.923 273.881C338.595 277.716 350.765 279.82 363.046 280.127C363.083 280.131 363.12 280.133 363.157 280.132" stroke="black" stroke-linecap="round" stroke-linejoin="round"/>
<path d="M342.537 180.953C342.537 181.043 342.532 181.134 342.532 181.224C342.477 184.143 342.423 187.065 342.371 189.991C344.266 188.324 346.163 186.655 348.062 184.985C348.304 184.773 348.566 184.464 348.435 184.173C348.333 184.012 348.175 183.896 347.991 183.846C346.282 183.14 344.579 181.935 342.87 181.23" stroke="black" stroke-linecap="round" stroke-linejoin="round"/>
<path d="M338.699 211.445C340.053 224.85 342.395 238.137 345.706 251.197C346.366 253.789 347.092 256.425 348.609 258.628C350.127 260.83 352.612 262.54 355.283 262.438C355.878 259.777 356.471 257.116 357.063 254.454C350.374 237.268 346.79 219.031 346.477 200.592C346.432 197.89 347.273 194.613 345.232 192.647C343.75 191.216 341.804 190.782 340.352 192.37C336.663 196.418 338.2 206.585 338.699 211.445Z" stroke="black" stroke-linecap="round" stroke-linejoin="round"/>
<path d="M297.929 444.173C294.551 445.433 291.673 446.19 288.293 447.45C284.901 448.715 281.453 450.01 278.569 452.204C275.686 454.397 273.407 457.658 273.266 461.277C273.206 462.83 273.609 464.506 274.804 465.502C275.696 466.247 276.887 466.499 278.025 466.699C289.306 468.632 300.902 467.388 311.515 463.106C315.043 461.674 318.638 459.723 320.473 456.391C322.983 451.84 321.501 446.219 319.969 441.259" stroke="black" stroke-linecap="round" stroke-linejoin="round"/>
<path d="M349.215 449.466C345.036 452.571 340.856 455.677 336.673 458.782C333.709 460.985 330.69 463.248 328.618 466.303C327.489 467.966 326.652 469.937 326.847 471.933C327.115 474.656 329.272 476.894 331.757 478.027C336.955 480.391 343.049 478.677 348.307 476.465C353.981 474.079 359.407 471.139 364.505 467.689C367.555 465.627 370.615 463.222 372.005 459.82C373.557 456.018 372.756 451.719 371.934 447.702" stroke="black" stroke-linecap="round" stroke-linejoin="round"/>
<path d="M291.31 92.6661C292.303 87.2495 293.995 76.4593 291.376 76.4593C288.266 75.7765 286.685 93.8088 287.161 102.783" stroke="black" stroke-linecap="round" stroke-linejoin="round"/>
<path d="M291.265 92.9031C291.139 93.5281 291.023 94.1531 290.912 94.7781C291.033 94.1583 291.149 93.5328 291.265 92.9031Z" stroke="black" stroke-linecap="round" stroke-linejoin="round"/>
<path d="M291.265 92.9031C291.28 92.8224 291.295 92.7417 291.31 92.6661" stroke="black" stroke-linecap="round" stroke-linejoin="round"/>
<path d="M299.39 104.487C300.262 103.534 301.411 102.889 302.445 102.118C303.478 101.346 304.461 100.358 304.728 99.0968C304.995 97.8354 304.28 96.2989 303.004 96.1021C301.154 95.8151 299.98 98.1942 298.165 98.6479C300.184 93.2021 301.581 87.5453 302.329 81.7859C302.46 80.8083 302.334 79.4823 301.361 79.2958C300.418 79.1146 299.803 80.2437 299.516 81.1609C297.903 86.2672 296.292 91.3739 294.682 96.4802C295.806 90.6781 296.93 84.8458 297.167 78.938C297.197 78.1771 296.854 77.0979 296.113 77.2843C295.72 77.3802 295.523 77.8088 295.387 78.187C293.652 82.8989 292.288 87.7406 291.309 92.6661" stroke="black" stroke-linecap="round" stroke-linejoin="round"/>
<path d="M411.838 105.072C411.438 98.1469 410.528 91.2604 409.116 84.4693C408.778 82.8547 408.359 81.1474 407.15 80.0286C406.394 79.3229 405.015 79.0104 404.433 79.8672C404.18 80.3594 404.11 80.926 404.236 81.4651C404.866 86.7984 405.494 92.1318 406.121 97.4651C405.416 92.6307 404.67 87.6807 402.295 83.4109C401.946 82.6656 401.398 82.0307 400.712 81.576C400.363 81.3578 399.95 81.2656 399.543 81.3151C399.134 81.3651 398.755 81.5531 398.469 81.8484C397.948 82.5083 398.152 83.4562 398.379 84.263C399.689 88.9057 400.999 93.5469 402.31 98.1859C400.904 93.9713 399.487 89.7271 397.396 85.8005C397.13 85.2182 396.739 84.7026 396.25 84.2901C396 84.0875 395.695 83.9672 395.375 83.9448C395.055 83.9219 394.735 83.9984 394.46 84.1641C393.78 84.6578 393.835 85.6812 393.986 86.5078C394.778 90.9255 396.096 95.2323 397.913 99.3364C396.956 98.6963 395.937 98.0312 394.788 97.9906C393.639 97.95 392.378 98.824 392.449 99.9667C392.509 100.96 393.457 101.63 394.304 102.149C396.275 103.344 398.244 104.542 400.212 105.743" stroke="black" stroke-linecap="round" stroke-linejoin="round"/>
<path d="M181.822 201.558L181.852 201.619C185.467 209.204 187.551 217.427 187.984 225.818C188.418 234.209 187.192 242.603 184.378 250.52C182.522 255.647 180.012 260.517 178.218 265.658C176.423 270.8 175.359 276.388 176.524 281.708C181.242 275.791 188.506 272.216 192.826 266.001C195.498 262.165 196.854 257.572 197.756 252.985C201.292 234.598 198.142 215.554 188.874 199.284C188.859 199.259 188.844 199.229 188.829 199.204" stroke="black" stroke-linecap="round" stroke-linejoin="round"/>
<path d="M448.01 201.533C438.962 217.724 431.107 235.174 430.096 253.694C429.868 257.867 430.049 262.268 432.163 265.873C434.277 269.478 438.865 271.928 442.748 270.384C446.631 268.841 447.819 262.483 444.173 260.44C441.382 258.878 437.65 260.66 436.059 263.438C434.469 266.216 434.489 269.608 434.734 272.799C435.289 280.002 436.77 287.142 436.739 294.366C436.708 301.59 434.946 309.176 429.954 314.399C427.614 316.847 424.061 318.746 420.905 317.517C417.749 316.288 417.1 310.718 420.373 309.845" stroke="black" stroke-linecap="round" stroke-linejoin="round"/>
<path d="M415.322 220.706C418.285 219.954 420.966 218.355 423.034 216.103C425.102 213.851 426.468 211.044 426.964 208.027" stroke="black" stroke-linecap="round" stroke-linejoin="round"/>
<path d="M280.748 368.142C279.523 363.699 279.287 359.043 280.057 354.5C280.826 349.957 282.582 345.638 285.201 341.847" stroke="black" stroke-linecap="round" stroke-linejoin="round"/>
<path d="M279.507 200.717C275.999 198.709 273.059 195.844 270.962 192.389C268.866 188.934 267.681 185.003 267.519 180.965" stroke="black" stroke-linecap="round" stroke-linejoin="round"/>
<path d="M282.976 64.238C287.96 60.188 292.282 55.3859 295.786 50.0046" stroke="black" stroke-linecap="round" stroke-linejoin="round"/>
<path d="M261.572 55.6932L264.546 20.8333" stroke="black" stroke-linecap="round" stroke-linejoin="round"/>
<path d="M244.547 52.8516L239.568 43.6" stroke="black" stroke-linecap="round" stroke-linejoin="round"/>
<path d="M368.431 313.679L369.043 306.908" stroke="black" stroke-linecap="round" stroke-linejoin="round"/>
<path d="M353.786 334.668V327.907" stroke="black" stroke-linecap="round" stroke-linejoin="round"/>
<path d="M366.599 364.913L366.252 358.507" stroke="black" stroke-linecap="round" stroke-linejoin="round"/>
<path d="M353.676 410.797L354.433 406.179" stroke="black" stroke-linecap="round" stroke-linejoin="round"/>
<path d="M370.866 396.226L370.51 389.109" stroke="black" stroke-linecap="round" stroke-linejoin="round"/>
<path d="M326.743 315.809C327.305 313.278 328.533 310.944 330.301 309.048" stroke="black" stroke-linecap="round" stroke-linejoin="round"/>
<path d="M317.093 293.384C317.467 291.264 318.63 289.365 320.348 288.068" stroke="black" stroke-linecap="round" stroke-linejoin="round"/>
<path d="M305.75 357.085L307.529 350.679" stroke="black" stroke-linecap="round" stroke-linejoin="round"/>
<path d="M318.203 391.245C319.061 389.216 319.187 386.951 318.558 384.839" stroke="black" stroke-linecap="round" stroke-linejoin="round"/>
<path d="M296.472 409.044C296.23 408.285 296.141 407.485 296.208 406.692C296.276 405.897 296.5 405.125 296.867 404.418" stroke="black" stroke-linecap="round" stroke-linejoin="round"/>
<path d="M313.943 431.454L314.653 425.76" stroke="black" stroke-linecap="round" stroke-linejoin="round"/>
<path d="M348.104 278.093L348.814 273.822" stroke="black" stroke-linecap="round" stroke-linejoin="round"/>
<path d="M340.265 277.379L341.332 272.754" stroke="black" stroke-linecap="round" stroke-linejoin="round"/>
<path d="M153.266 118.266C149.283 114.473 144.628 111.455 139.54 109.367C138.511 108.945 137.389 108.499 136.819 107.544" stroke="black" stroke-linecap="round" stroke-linejoin="round"/>
<path d="M203.296 92.5115C210.272 91.2667 217.361 90.7745 224.442 91.0422" stroke="black" stroke-linecap="round" stroke-linejoin="round"/>
<path d="M131.394 92.4672L128.784 87.9599" stroke="black" stroke-linecap="round" stroke-linejoin="round"/>
<path d="M127.392 92.0297L132.071 88.1552" stroke="black" stroke-linecap="round" stroke-linejoin="round"/>
<path d="M139.942 71.8291C139.914 69.8463 139.419 67.8979 138.498 66.1411" stroke="black" stroke-linecap="round" stroke-linejoin="round"/>
<path d="M136.138 69.6943L141.668 66.8531L141.273 67.512" stroke="black" stroke-linecap="round" stroke-linejoin="round"/>
<path d="M98.6307 106.237C93.9735 110.612 89.9979 115.933 88.2589 122.083C86.5198 128.233 87.2761 135.288 91.2224 140.315C93.0193 142.604 95.8979 144.517 98.7016 143.739C101.96 142.835 103.274 138.94 103.593 135.574C103.794 133.452 103.792 131.239 102.955 129.278C102.119 127.317 100.279 125.661 98.1479 125.595C94.9235 125.494 92.6693 128.81 91.7781 131.911C90.3333 137.014 90.7682 142.466 93.0037 147.276C94.1026 149.616 95.6526 151.896 95.6714 154.482C95.7016 158.692 91.4464 161.922 87.2531 162.306C83.0599 162.69 78.9859 160.999 75.1151 159.343" stroke="black" stroke-linecap="round" stroke-linejoin="round"/>
<path d="M100.483 169.104C99.3604 181.047 105.122 193.395 114.996 200.207" stroke="black" stroke-linecap="round" stroke-linejoin="round"/>
<path d="M122.589 236.52C130.07 245.612 135.849 255.978 139.652 267.121C141.502 272.553 142.861 278.546 140.948 283.957C139.972 286.716 138.203 289.124 135.862 290.88C133.521 292.636 130.714 293.661 127.792 293.827C124.87 293.992 121.965 293.29 119.441 291.808C116.917 290.327 114.887 288.133 113.607 285.502C111.74 281.661 112.129 276.141 115.92 274.174C119.058 272.546 123.319 274.426 124.677 277.691C126.035 280.955 124.704 284.97 121.969 287.213C119.234 289.455 115.386 290.045 111.931 289.292C107.608 288.35 103.955 285.559 99.9375 283.704C95.9198 281.849 90.7656 281.087 87.3771 283.932" stroke="black" stroke-linecap="round" stroke-linejoin="round"/>
<path d="M165.963 364.219C170.07 364.848 174.268 364.533 178.235 363.296C182.203 362.06 185.836 359.935 188.859 357.083" stroke="black" stroke-linecap="round" stroke-linejoin="round"/>
<path d="M375.669 129.71L382.608 124.373" stroke="black" stroke-linecap="round" stroke-linejoin="round"/>
<path d="M381.007 130.777L376.204 123.839" stroke="black" stroke-linecap="round" stroke-linejoin="round"/>
<path d="M356.455 116.367V111.563" stroke="black" stroke-linecap="round" stroke-linejoin="round"/>
<path d="M351.655 114.839L360.197 114.361" stroke="black" stroke-linecap="round" stroke-linejoin="round"/>
<path d="M368.4 436.438L369.104 430.269" stroke="black" stroke-linecap="round" stroke-linejoin="round"/>
<path d="M66.3911 308.331C60.7005 319.745 55.3802 331.993 56.1495 344.723C56.3469 347.996 56.9828 351.324 58.6901 354.122C60.3974 356.919 63.3338 359.115 66.6068 359.284" stroke="black" stroke-linecap="round" stroke-linejoin="round"/>
<path d="M75.5328 343.809L70.0239 338.886" stroke="black" stroke-linecap="round" stroke-linejoin="round"/>
<path d="M72.2994 348.928L68.0807 344.844" stroke="black" stroke-linecap="round" stroke-linejoin="round"/>
<path d="M210.838 448.964C215.137 451.024 219.508 452.939 223.973 454.607C229.077 456.514 234.442 458.115 239.877 457.78C245.312 457.445 250.877 454.848 253.514 450.082" stroke="black" stroke-linecap="round" stroke-linejoin="round"/>
<path d="M243.024 444.426C241.483 445.594 240.023 446.864 238.653 448.228L238.943 448.09" stroke="black" stroke-linecap="round" stroke-linejoin="round"/>
<path d="M237.874 439.813C236.416 440.565 235.145 441.633 234.151 442.938" stroke="black" stroke-linecap="round" stroke-linejoin="round"/>
<path d="M219.151 118.568C218.417 117.343 217.36 116.343 216.097 115.678" stroke="black" stroke-linecap="round" stroke-linejoin="round"/>
<path d="M201.135 139.673L203.508 137.302" stroke="black" stroke-linecap="round" stroke-linejoin="round"/>
<path d="M214.183 156.754L212.047 154.381" stroke="black" stroke-linecap="round" stroke-linejoin="round"/>
<path d="M198.237 180.431L201.096 177.121" stroke="black" stroke-linecap="round" stroke-linejoin="round"/>
<path d="M213.631 205.71L210.833 203.282" stroke="black" stroke-linecap="round" stroke-linejoin="round"/>
<path d="M207.589 239.331L209.553 235.571" stroke="black" stroke-linecap="round" stroke-linejoin="round"/>
<path d="M217.266 261.604L213.945 259.469" stroke="black" stroke-linecap="round" stroke-linejoin="round"/>
<path d="M175.753 240.492C174.66 240.447 173.598 240.12 172.669 239.543" stroke="black" stroke-linecap="round" stroke-linejoin="round"/>
<path d="M168.853 217.943C169.588 216.793 170.094 215.511 170.339 214.168" stroke="black" stroke-linecap="round" stroke-linejoin="round"/>
<path d="M154.166 198.267L151.319 196.843" stroke="black" stroke-linecap="round" stroke-linejoin="round"/>
<path d="M131.992 195.602L133.945 191.596" stroke="black" stroke-linecap="round" stroke-linejoin="round"/>
<path d="M129.498 170.732C128.075 170.485 126.75 169.843 125.674 168.88" stroke="black" stroke-linecap="round" stroke-linejoin="round"/>
<path d="M119.095 152.041L121.459 149.187" stroke="black" stroke-linecap="round" stroke-linejoin="round"/>
<path d="M134.477 131.134L132.342 128.287" stroke="black" stroke-linecap="round" stroke-linejoin="round"/>
<path d="M119.651 258.52L116.448 253.895" stroke="black" stroke-linecap="round" stroke-linejoin="round"/>
<path d="M114.606 259.47C117.003 258.174 119.009 256.26 120.417 253.928" stroke="black" stroke-linecap="round" stroke-linejoin="round"/>
<path d="M81.2214 140.03C79.7172 140.176 78.2089 139.798 76.9506 138.962" stroke="black" stroke-linecap="round" stroke-linejoin="round"/>
<path d="M78.0193 142.52L79.4427 137.183" stroke="black" stroke-linecap="round" stroke-linejoin="round"/>
<path d="M449.718 288.543L446.609 285.252" stroke="black" stroke-linecap="round" stroke-linejoin="round"/>
<path d="M446.301 290.189L449.503 285.564" stroke="black" stroke-linecap="round" stroke-linejoin="round"/>
<g opacity="0.1">
<path d="M142.831 97.9255C139.722 99.449 137.511 102.187 135.254 104.758C132.94 107.394 130.748 110.148 128.671 112.973C124.429 118.841 120.985 125.246 118.431 132.02C113.529 144.802 111.656 158.96 114.028 172.478C116.305 185.372 122.322 197.313 131.332 206.814C135.763 211.447 140.949 215.295 146.668 218.193C151.969 220.857 159.024 223.033 161.465 229.015C163.09 232.997 163.297 237.68 163.838 241.899C164.451 246.681 165.057 251.463 165.701 256.241L167.624 270.501C168.282 275.381 168.644 280.43 169.863 285.203C170.829 288.981 176.616 288.164 176.625 284.287C176.635 280.197 175.948 276.093 175.484 272.03C174.98 267.604 174.474 263.178 173.969 258.752C173.05 250.692 172.128 242.628 171.121 234.579C170.173 227.004 167.829 220.844 161.367 216.364C156.257 212.822 150.183 210.979 145.009 207.503C123.836 193.276 116.602 164.447 123.054 140.717C125.066 133.378 128.021 126.33 131.844 119.749C133.793 116.298 135.925 112.953 138.231 109.729C140.522 106.59 143.54 103.817 145.203 100.295C145.383 99.9636 145.451 99.5828 145.397 99.2094C145.343 98.836 145.169 98.4901 144.903 98.2235C144.636 97.9568 144.29 97.7834 143.917 97.7297C143.543 97.6755 143.162 97.7438 142.831 97.9235V97.9255Z" fill="black"/>
</g>
<g opacity="0.1">
<path d="M210.239 80.7755C207.136 81.5375 206.358 86.3917 205.544 88.987C204.346 92.8089 203.142 96.6354 202.051 100.49C199.871 108.187 197.972 116.003 196.274 123.819C194.573 131.653 193.039 139.522 191.545 147.397C190.83 151.169 190.147 154.947 189.498 158.732C188.998 161.643 187.019 166.946 189.663 169.211C189.892 169.44 190.177 169.605 190.49 169.687C190.803 169.769 191.133 169.767 191.444 169.68C194.769 168.279 194.581 163.918 195.121 160.797C195.805 156.85 196.524 152.909 197.278 148.974C198.789 141.109 200.542 133.297 202.414 125.508C204.286 117.72 206.248 109.953 208.207 102.183C209.145 98.4599 210.042 94.7261 211.008 91.0094C211.734 88.2177 213.826 83.5781 211.545 81.1172C211.377 80.95 211.168 80.8302 210.939 80.7693C210.709 80.7089 210.468 80.7099 210.239 80.7719V80.7755Z" fill="black"/>
</g>
<g opacity="0.1">
<path d="M315.389 277.378C312.479 281.75 311.125 287.576 309.504 292.537C307.802 297.745 306.218 302.989 304.793 308.28C301.987 318.703 299.643 329.235 297.762 339.878C293.933 361.303 291.946 383.017 291.824 404.782C291.832 417.033 292.507 429.275 293.846 441.454C294.31 445.859 301.236 445.957 300.828 441.454C296.959 398.771 300.017 355.451 310.731 313.927C312.259 308.001 313.912 302.107 315.69 296.246C317.409 290.575 320.096 284.728 320.759 278.832C321.105 275.764 316.815 275.239 315.391 277.378H315.389Z" fill="black"/>
</g>
<g opacity="0.1">
<path d="M346.463 301.867C345.596 303.969 345.545 306.434 345.34 308.684C345.119 311.105 345.076 313.537 344.993 315.964C344.827 320.819 344.8 325.665 344.791 330.523C344.773 340.054 344.73 349.585 344.757 359.12L344.922 417.356L344.968 433.475L344.991 441.274C344.998 444.135 344.665 447.028 346.16 449.587C346.437 450.043 346.827 450.42 347.292 450.682C347.758 450.945 348.283 451.082 348.817 451.082C349.351 451.082 349.876 450.945 350.341 450.682C350.806 450.42 351.196 450.043 351.473 449.587C352.73 447.418 352.622 445.264 352.619 442.834L352.614 435.555L352.604 420.996L352.583 392.398C352.569 372.986 352.523 353.574 352.444 334.163C352.415 328.79 352.452 323.414 352.249 318.044C352.152 315.444 352.1 312.839 351.919 310.244C351.73 307.543 351.699 304.381 350.653 301.867C349.803 299.826 347.31 299.81 346.462 301.867H346.463Z" fill="black"/>
</g>
</svg>
