<svg width="500" height="500" viewBox="0 0 500 500" fill="none" xmlns="http://www.w3.org/2000/svg">
<path d="M169.238 367.447C172.59 373.022 174.401 379.388 174.487 385.892C174.574 392.397 172.932 398.808 169.729 404.471C166.527 410.133 161.879 414.844 156.26 418.123C150.642 421.401 144.253 423.129 137.748 423.131C127.037 423.131 117.888 419.038 111.171 411.725L110.788 411.42L121.814 397.461L138.691 413.877L168.914 367.234L169.238 367.447Z" fill="black" fill-opacity="0.15"/>
<path d="M159.928 409.395C168.361 401.936 171.976 389.463 168.838 378.652" stroke="white" stroke-linecap="round" stroke-linejoin="round"/>
<path d="M169.085 204.867C165.985 208.075 159.224 207.106 153.687 202.575C147.958 197.892 145.703 191.176 148.65 187.575C151.598 183.974 158.625 184.848 164.349 189.531C170.073 194.213 172.333 200.93 169.385 204.531C169.292 204.648 169.192 204.761 169.085 204.867Z" fill="black"/>
<path d="M169.41 200.364C168.404 197.181 166.626 194.297 164.235 191.967C161.845 189.638 158.916 187.935 155.708 187.012" stroke="white" stroke-linecap="round" stroke-linejoin="round"/>
<path d="M148.651 187.576C145.703 191.178 147.958 197.894 153.687 202.576C159.225 207.107 165.986 208.074 169.086 204.868C169.192 204.763 169.292 204.651 169.386 204.533C172.333 200.932 170.078 194.215 164.349 189.533C158.62 184.852 151.594 183.975 148.651 187.576ZM127.592 175.263L128.762 175.288L128.752 175.779L121.352 243.933L127.592 255.956L141.929 237.457L135.684 175.494V175.442L137.998 175.494L134.067 167.402L127.592 175.263ZM116.856 265.218C117.079 267.301 117.105 269.4 116.934 271.488C116.758 274.445 116.379 277.29 114.458 279.379V279.541H48.4269V278.927C41.681 274.259 37.0769 266.692 34.1685 258.909C25.3191 235.264 30.1149 207.038 46.28 187.645C62.4449 168.252 89.3459 158.45 114.196 162.891L114.786 162.208L126.436 172.256L134.759 162.081L139.844 171.794L153.037 165.857L153.297 166.43C159.516 170.39 166.478 173.037 173.757 174.207C181.036 175.377 188.477 175.046 195.623 173.234C202.769 171.423 209.469 168.168 215.311 163.671C221.153 159.175 226.013 153.531 229.593 147.086C231.342 143.931 232.934 140.423 235.999 138.527C236.399 138.28 236.817 138.065 237.249 137.883C239.5 136.92 242.02 136.881 244.561 137.249C246.571 137.585 248.555 138.064 250.498 138.679C254.104 139.755 258.05 141.141 260.742 143.582C261.988 144.678 262.933 146.073 263.489 147.636C264.697 151.149 263.548 154.942 261.931 158.357C261.691 158.868 261.44 159.365 261.184 159.856C258.021 165.928 254.159 171.61 249.677 176.788V176.792C245.927 181.135 241.765 185.105 237.251 188.648C234.065 191.156 230.707 193.438 227.203 195.478C212.721 203.868 196.166 208.002 179.44 207.405C177.209 207.321 174.728 207.258 172.728 208.044C171.799 208.38 170.976 208.958 170.345 209.719C168.935 211.449 168.834 213.861 168.807 216.087L167.893 279.544H151.894V278.998C151.795 276.158 149.452 273.946 147.122 272.321C138.291 266.22 127.48 263.683 116.856 265.218ZM72.4928 204.12C66.572 208.271 62.0241 214.344 60.2485 221.341C57.5709 231.92 61.86 244.13 70.999 250.051L71.0678 249.942C71.5444 234.667 72.0194 219.393 72.4928 204.12Z" fill="black" fill-opacity="0.15"/>
<path d="M63.7276 206.886C60.2729 210.455 57.7291 214.804 56.3109 219.565C54.8921 224.326 54.6411 229.357 55.5786 234.235C56.5156 239.114 58.614 243.694 61.6958 247.59C64.777 251.486 68.752 254.582 73.2833 256.618" stroke="white" stroke-linecap="round" stroke-linejoin="round"/>
<path d="M147.104 104.117C142.549 102.914 137.815 102.545 133.13 103.031C129.764 103.385 126.064 104.456 124.428 107.419C123.46 109.173 123.416 111.273 123.391 113.276C123.356 116.489 123.32 119.704 123.283 122.92H123.116C122.418 123.603 121.51 124.031 120.539 124.136C119.568 124.241 118.59 124.016 117.762 123.497C116.934 122.979 116.305 122.198 115.975 121.279C115.645 120.359 115.633 119.356 115.943 118.43C115.13 118.287 114.39 117.872 113.844 117.254C113.298 116.634 112.979 115.848 112.94 115.024C112.9 114.199 113.143 113.386 113.626 112.718C114.111 112.049 114.808 111.566 115.604 111.346C114.476 110.992 113.525 110.226 112.941 109.199C112.356 108.173 112.181 106.964 112.451 105.814C112.721 104.664 113.416 103.659 114.396 103C115.376 102.341 116.569 102.077 117.736 102.261C116.955 101.683 116.386 100.864 116.117 99.9302C115.848 98.9969 115.894 98.0005 116.247 97.0953C116.6 96.1901 117.241 95.426 118.071 94.9213C118.901 94.4166 119.875 94.1989 120.841 94.3021C120.079 93.4432 119.668 92.3286 119.693 91.1802C119.717 90.0323 120.173 88.9354 120.97 88.1094C121.768 87.2833 122.848 86.7885 123.995 86.7239C125.141 86.6599 126.27 87.0302 127.155 87.762C127.161 86.7792 127.476 85.8234 128.056 85.0297C128.635 84.2359 129.45 83.6448 130.384 83.3401C131.319 83.0349 132.325 83.0318 133.261 83.3307C134.198 83.6297 135.016 84.2156 135.601 85.0057C136.059 83.9578 136.833 83.0797 137.815 82.4927C138.796 81.9062 139.937 81.6406 141.076 81.7328C142.217 81.8255 143.299 82.2713 144.173 83.0088C145.048 83.7463 145.67 84.738 145.954 85.8458C146.549 85.0391 147.42 84.4786 148.4 84.2703C149.382 84.062 150.405 84.2203 151.277 84.7151C152.149 85.2099 152.81 86.0073 153.134 86.9562C153.458 87.9052 153.424 88.9401 153.037 89.8651C154.422 88.3713 157.198 89.1182 158.147 90.9167C159.095 92.7151 158.54 95.0047 157.356 96.6552C159.252 95.5057 161.994 96.9307 162.564 99.0729C163.134 101.215 161.876 103.559 159.99 104.728C158.472 105.601 156.729 106.003 154.983 105.883C154.502 105.868 154.023 105.825 153.548 105.755C151.356 105.439 149.246 104.687 147.104 104.117Z" fill="black"/>
<path d="M156.71 103.284C157.326 102.786 157.736 102.079 157.863 101.297C157.989 100.516 157.823 99.7146 157.396 99.0479C156.969 98.3812 156.311 97.8948 155.549 97.6828C154.786 97.4703 153.972 97.5463 153.262 97.8969C153.673 97.3922 153.933 96.7807 154.008 96.1338C154.084 95.487 153.973 94.8318 153.689 94.2458C153.405 93.6599 152.959 93.1672 152.405 92.826C151.85 92.4849 151.209 92.3094 150.558 92.3203" stroke="white" stroke-linecap="round" stroke-linejoin="round"/>
<path d="M301.935 89.7401L301.164 120.297L273 120.812C274.538 116.936 275.491 112.872 275.226 108.741C275.186 108.17 275.078 107.517 274.592 107.222C273.948 106.834 273.142 107.326 272.577 107.821C270.468 109.674 268.72 111.902 267.421 114.391L267.146 114.293C267.819 112.396 268.444 110.484 269.021 108.558C269.188 108.115 269.265 107.642 269.247 107.168C269.236 106.933 269.158 106.705 269.024 106.512C268.889 106.318 268.703 106.167 268.485 106.074C268.23 106.03 267.967 106.041 267.716 106.108C267.465 106.175 267.231 106.296 267.031 106.462C264.471 108.13 262.469 110.526 261.282 113.342C261.892 111.248 262.413 109.131 262.825 106.987C262.943 106.373 263.033 105.67 262.643 105.174C262.025 104.388 260.757 104.752 259.946 105.336C258.153 106.624 256.998 108.599 255.976 110.559C254.262 113.897 252.725 117.323 251.372 120.823L251.343 120.814V89.9401L301.926 89.4291L301.935 89.7401Z" fill="black" fill-opacity="0.15"/>
<path d="M56.7256 302.373H217.999L185.226 467.533H66.6115L56.7256 303.155V302.373ZM188.405 320.003L153.301 335.033L166.208 343.356L157.679 355.532L157.369 355.316C151.811 351.805 145.413 349.851 138.842 349.655C132.27 349.46 125.767 351.031 120.01 354.205C114.253 357.379 109.453 362.039 106.11 367.699C102.767 373.36 101.004 379.814 101.005 386.388C101.004 387.008 101.04 387.629 101.114 388.245L101.276 388.368L85.2824 409.024L100.077 424.978L110.788 411.422L111.171 411.727C117.89 419.037 127.037 423.133 137.748 423.133C144.253 423.131 150.642 421.403 156.26 418.124C161.879 414.846 166.527 410.135 169.73 404.473C172.932 398.81 174.574 392.399 174.488 385.894C174.401 379.39 172.59 373.024 169.238 367.449L168.914 367.237L178.691 352.148L190.483 363.474L188.405 320.003Z" fill="black"/>
<path d="M135.684 175.494L141.929 237.457L127.592 255.956L121.352 243.933L128.752 175.779L128.761 175.287L129.675 175.307L135.684 175.44V175.494Z" fill="black"/>
<path d="M134.068 167.402L137.999 175.494L135.685 175.44L129.676 175.307L128.762 175.287L127.592 175.263L134.068 167.402Z" fill="black"/>
<path d="M132.189 133.117C130.666 133.785 129.841 136.223 130.426 137.785C129.574 137.494 128.869 136.88 128.465 136.076C128.264 135.577 128.174 135.041 128.199 134.504C128.225 133.967 128.366 133.442 128.613 132.965C128.86 132.487 129.208 132.069 129.632 131.738C130.056 131.408 130.546 131.172 131.069 131.049C131.308 131.799 131.713 132.486 132.253 133.058L132.189 133.117Z" fill="black"/>
<path d="M116.787 368.331L101.275 388.368L101.114 388.245C101.04 387.629 101.004 387.009 101.005 386.388C101.005 379.815 102.767 373.361 106.11 367.701C109.453 362.04 114.253 357.38 120.009 354.206C125.766 351.033 132.269 349.461 138.84 349.657C145.41 349.852 151.809 351.806 157.367 355.316L157.677 355.532L136.062 386.388L116.787 368.331Z" fill="black" fill-opacity="0.15"/>
<path d="M137.316 127.638C138.166 128.546 139.812 128.05 140.484 127.004C141.157 125.957 141.138 124.635 141.099 123.392L140.76 112.794C140.726 111.689 140.735 110.455 141.492 109.649C142.052 109.148 142.745 108.818 143.487 108.701C145.477 108.23 147.521 108.027 149.565 108.097" stroke="black" stroke-linecap="round" stroke-linejoin="round"/>
<path d="M149.712 115.654C149.513 115.367 149.252 115.128 148.949 114.953C148.646 114.779 148.308 114.673 147.96 114.645C147.611 114.616 147.261 114.665 146.934 114.788C146.606 114.91 146.31 115.103 146.066 115.354" stroke="black" stroke-linecap="round" stroke-linejoin="round"/>
<path d="M135.036 115.58C134.166 114.145 131.694 114.165 130.85 115.619" stroke="black" stroke-linecap="round" stroke-linejoin="round"/>
<path d="M138.131 134.752C137.091 135.036 135.992 135.029 134.955 134.73C133.918 134.431 132.984 133.852 132.255 133.057C131.714 132.484 131.309 131.797 131.07 131.047C130.547 131.171 130.057 131.406 129.633 131.737C129.209 132.067 128.862 132.485 128.615 132.963C128.367 133.44 128.226 133.965 128.201 134.502C128.175 135.039 128.266 135.575 128.466 136.074C128.871 136.879 129.574 137.493 130.427 137.784C131.017 138.016 131.657 138.09 132.284 137.998C132.912 137.907 133.505 137.654 134.004 137.263" stroke="black" stroke-linecap="round" stroke-linejoin="round"/>
<path d="M130.436 137.808C130.432 137.798 130.432 137.793 130.427 137.784C129.842 136.221 130.668 133.784 132.191 133.116" stroke="black" stroke-linecap="round" stroke-linejoin="round"/>
<path d="M143.752 153.708C143.575 151.208 143.403 148.672 143.87 146.208C144.336 143.744 145.531 141.319 147.584 139.884C149.019 138.887 150.808 138.401 152.041 137.162C153.746 135.453 153.937 132.794 154.031 130.382C154.351 122.222 154.668 114.061 154.984 105.898" stroke="black" stroke-linecap="round" stroke-linejoin="round"/>
<path d="M122.934 153.29C123.052 143.164 123.168 133.041 123.283 122.92C123.318 119.707 123.354 116.492 123.391 113.276C123.416 111.271 123.459 109.173 124.428 107.419C126.064 104.456 129.764 103.385 133.129 103.031C137.815 102.545 142.55 102.913 147.103 104.117C149.245 104.687 151.353 105.439 153.55 105.753C154.025 105.823 154.504 105.866 154.984 105.881C156.731 106.001 158.474 105.599 159.991 104.726C161.878 103.557 163.135 101.218 162.566 99.0708C161.996 96.9239 159.254 95.5036 157.357 96.6531C158.542 95.0026 159.097 92.713 158.148 90.9146C157.2 89.1161 154.424 88.3693 153.039 89.863C153.426 88.9375 153.46 87.9031 153.137 86.9541C152.812 86.0052 152.152 85.2078 151.279 84.7125C150.407 84.2177 149.384 84.0594 148.403 84.2682C147.422 84.4765 146.551 85.037 145.955 85.8437C145.672 84.7354 145.05 83.7437 144.176 83.0062C143.302 82.2693 142.219 81.8229 141.079 81.7307C139.939 81.638 138.798 81.9036 137.817 82.4906C136.835 83.0771 136.062 83.9557 135.603 85.0036C135.018 84.2135 134.2 83.6276 133.264 83.3286C132.328 83.0297 131.321 83.0328 130.387 83.3375C129.452 83.6427 128.638 84.2338 128.058 85.0276C127.478 85.8213 127.163 86.7771 127.157 87.7599C126.272 87.0281 125.143 86.6573 123.997 86.7219C122.85 86.7859 121.77 87.2807 120.972 88.1073C120.175 88.9333 119.719 90.0302 119.694 91.1781C119.67 92.326 120.081 93.4411 120.843 94.3C119.877 94.1969 118.904 94.4146 118.073 94.9193C117.243 95.4239 116.602 96.1875 116.248 97.0927C115.895 97.9979 115.85 98.9943 116.119 99.9281C116.388 100.861 116.957 101.681 117.738 102.259C116.571 102.075 115.378 102.339 114.398 102.997C113.418 103.656 112.723 104.661 112.453 105.811C112.183 106.961 112.358 108.171 112.943 109.197C113.528 110.223 114.479 110.99 115.605 111.344C114.81 111.564 114.113 112.047 113.629 112.716C113.144 113.384 112.902 114.197 112.942 115.021C112.981 115.846 113.3 116.632 113.846 117.251C114.392 117.87 115.132 118.285 115.944 118.428C115.635 119.354 115.647 120.357 115.977 121.277C116.307 122.195 116.937 122.977 117.765 123.495C118.592 124.014 119.57 124.238 120.541 124.133C121.512 124.029 122.42 123.601 123.118 122.918" stroke="black" stroke-linecap="round" stroke-linejoin="round"/>
<path d="M134.761 162.081C134.245 161.736 126.747 156.189 122.9 153.34C121.559 152.347 120.66 151.679 120.66 151.679L113.03 160.695L114.789 162.208L126.439 172.256L134.761 162.081Z" stroke="black" stroke-linecap="round" stroke-linejoin="round"/>
<path d="M153.039 165.854L153.721 165.549L145.629 152.371L143.919 153.899L134.76 162.081L139.846 171.794L153.039 165.854Z" stroke="black" stroke-linecap="round" stroke-linejoin="round"/>
<path d="M128.762 175.287L127.592 175.263L134.068 167.402L137.999 175.494L135.685 175.44L129.676 175.307L128.762 175.287Z" stroke="black" stroke-linecap="round" stroke-linejoin="round"/>
<path d="M128.752 175.779L121.352 243.933L127.592 255.956L141.929 237.457L135.684 175.494" stroke="black" stroke-linecap="round" stroke-linejoin="round"/>
<path d="M114.458 279.379C116.379 277.29 116.758 274.445 116.934 271.487C117.105 269.4 117.079 267.301 116.856 265.218C116.556 262.997 115.844 260.919 114.321 259.297C111.957 256.797 108.282 256.113 104.857 255.813C93.4683 254.811 81.1256 256.32 71.4021 250.311C71.2646 250.227 71.1318 250.144 70.999 250.05C61.86 244.13 57.5709 231.92 60.2485 221.341C62.0225 214.344 66.5719 208.271 72.4928 204.12C75.6568 201.89 79.1949 200.244 82.9386 199.26" stroke="black" stroke-linecap="round" stroke-linejoin="round"/>
<path d="M114.198 162.891C89.3459 158.449 62.4448 168.252 46.2813 187.645C30.1178 207.038 25.3188 235.266 34.1683 258.909C37.0766 266.692 41.6808 274.259 48.4266 278.927" stroke="black" stroke-linecap="round" stroke-linejoin="round"/>
<path d="M72.4973 203.928C72.4973 203.992 72.4926 204.056 72.4926 204.12C72.0166 219.395 71.5416 234.67 71.0676 249.942" stroke="black" stroke-linecap="round" stroke-linejoin="round"/>
<path d="M249.676 176.791C245.925 181.134 241.763 185.104 237.25 188.647C234.063 191.155 230.706 193.437 227.202 195.477C212.72 203.867 196.164 208.001 179.438 207.404C177.208 207.32 174.726 207.257 172.727 208.043C171.797 208.379 170.974 208.957 170.344 209.718C168.934 211.448 168.833 213.86 168.806 216.086L167.892 279.543" stroke="black" stroke-linecap="round" stroke-linejoin="round"/>
<path d="M153.299 166.429C159.517 170.389 166.479 173.036 173.758 174.206C181.037 175.376 188.478 175.045 195.624 173.233C202.77 171.422 209.47 168.167 215.312 163.67C221.154 159.173 226.014 153.53 229.594 147.085C231.344 143.93 232.936 140.422 236.001 138.526C236.4 138.279 236.818 138.064 237.251 137.882C239.501 136.919 242.021 136.88 244.562 137.248C246.572 137.584 248.556 138.062 250.5 138.678C254.106 139.754 258.052 141.14 260.744 143.581C261.989 144.677 262.934 146.072 263.49 147.635C264.699 151.148 263.55 154.941 261.933 158.356C261.692 158.867 261.442 159.364 261.186 159.855C258.022 165.927 254.16 171.609 249.679 176.786" stroke="black" stroke-linecap="round" stroke-linejoin="round"/>
<path d="M261.282 113.354C259.764 118.641 257.725 123.79 255.695 128.91" stroke="black" stroke-linecap="round" stroke-linejoin="round"/>
<path d="M244.615 136.899C242.017 133.296 240.368 129.097 239.819 124.69C239.687 123.638 239.721 122.36 240.61 121.785C240.969 121.595 241.375 121.515 241.779 121.554C242.183 121.593 242.566 121.751 242.88 122.007C243.496 122.534 244.002 123.177 244.369 123.898C245.563 125.928 246.761 127.957 247.963 129.986C249.068 126.92 250.184 123.854 251.378 120.822C252.731 117.322 254.268 113.896 255.982 110.558C257.004 108.598 258.158 106.623 259.952 105.335C260.763 104.751 262.03 104.387 262.649 105.173C263.037 105.669 262.949 106.371 262.831 106.986C262.418 109.129 261.897 111.246 261.288 113.341" stroke="black" stroke-linecap="round" stroke-linejoin="round"/>
<path d="M261.281 113.354C261.281 113.349 261.286 113.344 261.286 113.34C262.472 110.525 264.473 108.129 267.033 106.46C267.232 106.294 267.466 106.173 267.717 106.106C267.968 106.039 268.231 106.027 268.487 106.072C268.704 106.165 268.891 106.316 269.025 106.509C269.16 106.703 269.237 106.931 269.248 107.166C269.267 107.64 269.189 108.113 269.022 108.556C268.443 110.483 267.818 112.394 267.147 114.291C265.199 119.827 262.885 125.227 260.22 130.456" stroke="black" stroke-linecap="round" stroke-linejoin="round"/>
<path d="M267.423 114.391C268.722 111.902 270.47 109.675 272.579 107.821C273.144 107.326 273.95 106.832 274.594 107.222C275.08 107.517 275.188 108.17 275.228 108.741C275.493 112.872 274.54 116.936 273.002 120.813C272.194 122.83 271.265 124.797 270.221 126.704C267.229 132.246 263.606 137.479 261.258 143.326" stroke="black" stroke-linecap="round" stroke-linejoin="round"/>
<path d="M226.843 76.0661L237.245 75.8745L471.875 71.5213L479.162 71.3839" stroke="black" stroke-linecap="round" stroke-linejoin="round"/>
<path d="M226.843 238.902L237.25 239.054L382.397 241.182L466.672 242.42L475.521 242.547" stroke="black" stroke-linecap="round" stroke-linejoin="round"/>
<path d="M471.88 71.3839L471.875 71.5213L466.672 242.415" stroke="black" stroke-linecap="round" stroke-linejoin="round"/>
<path d="M237.25 188.554V188.647V238.902" stroke="black" stroke-linecap="round" stroke-linejoin="round"/>
<path d="M237.25 76.0662V137.882V138.206" stroke="black" stroke-linecap="round" stroke-linejoin="round"/>
<path d="M319.446 240.724L272.626 458.561" stroke="black" stroke-linecap="round" stroke-linejoin="round"/>
<path d="M382.397 241.182L413.612 452.724" stroke="black" stroke-linecap="round" stroke-linejoin="round"/>
<path d="M56.7254 302.373H40.0786L36.9541 279.541H48.4265H114.458H151.894H167.892H180.195H210.717H235.166V302.373H217.999H56.7254Z" stroke="black" stroke-linecap="round" stroke-linejoin="round"/>
<path d="M56.7256 303.155L66.6115 467.533H185.226L217.999 302.373" stroke="black" stroke-linecap="round" stroke-linejoin="round"/>
<path d="M180.195 279.541V260.929H195.456H210.718V279.541" stroke="black" stroke-linecap="round" stroke-linejoin="round"/>
<path d="M159.386 196.416L169.085 204.867L172.727 208.041L194.415 226.938L195.456 260.929" stroke="black" stroke-linecap="round" stroke-linejoin="round"/>
<path d="M169.385 204.532C169.292 204.649 169.192 204.761 169.085 204.867C165.985 208.075 159.224 207.106 153.687 202.575C147.958 197.892 145.703 191.176 148.65 187.575C151.598 183.974 158.625 184.848 164.349 189.531C170.073 194.213 172.333 200.93 169.385 204.532Z" stroke="black" stroke-linecap="round" stroke-linejoin="round"/>
<path d="M116.787 265.228C116.812 265.223 116.831 265.223 116.856 265.218C127.479 263.682 138.291 266.218 147.122 272.318C149.451 273.944 151.795 276.155 151.894 278.995" stroke="black" stroke-linecap="round" stroke-linejoin="round"/>
<path d="M101.114 388.245C101.04 387.629 101.004 387.009 101.005 386.388C101.005 379.815 102.767 373.361 106.11 367.701C109.453 362.04 114.253 357.38 120.009 354.206C125.766 351.033 132.269 349.461 138.84 349.657C145.41 349.852 151.809 351.806 157.367 355.316" stroke="black" stroke-linecap="round" stroke-linejoin="round"/>
<path d="M169.238 367.447C172.59 373.022 174.401 379.388 174.488 385.893C174.573 392.397 172.932 398.808 169.73 404.471C166.527 410.133 161.879 414.844 156.26 418.123C150.642 421.401 144.253 423.129 137.748 423.131C127.036 423.131 117.888 419.038 111.171 411.725" stroke="black" stroke-linecap="round" stroke-linejoin="round"/>
<path d="M101.275 388.368L85.2822 409.024L100.076 424.978L110.788 411.422L121.813 397.463L138.691 413.879L168.913 367.235L178.691 352.146L190.483 363.472L188.405 320.003L153.299 335.033L166.206 343.356L157.676 355.532L136.062 386.388L116.787 368.331L101.275 388.368Z" stroke="black" stroke-linecap="round" stroke-linejoin="round"/>
<path d="M249.676 176.786V176.791L248.855 195.472L247.479 226.938H298.466H356.734H409.45H450.03L451.568 192.677L453.253 155.094L454.939 117.516L456.27 87.8583L412.221 88.3052L358.803 88.851L303.664 89.4109L301.93 89.4307L251.346 89.9417V120.813" stroke="black" stroke-linecap="round" stroke-linejoin="round"/>
<path d="M301.935 89.7401L301.163 120.297L300.215 157.703L299.277 194.823L298.466 226.938" stroke="black" stroke-linecap="round" stroke-linejoin="round"/>
<path d="M358.813 89.7401L358.365 119.255L357.795 156.72L357.235 194.003L356.734 226.938" stroke="black" stroke-linecap="round" stroke-linejoin="round"/>
<path d="M412.226 88.7573L411.632 118.282L410.881 155.816L410.129 193.261L409.45 226.938" stroke="black" stroke-linecap="round" stroke-linejoin="round"/>
<path d="M249.902 195.516L299.277 194.823L357.236 194.003L410.129 193.261L451.569 192.677H451.622" stroke="black" stroke-linecap="round" stroke-linejoin="round"/>
<path d="M261.881 158.356H261.93L300.216 157.703L357.796 156.72L410.881 155.816L453.219 155.094" stroke="black" stroke-linecap="round" stroke-linejoin="round"/>
<path d="M273 120.812L301.164 120.297L358.365 119.255L411.632 118.282L454.595 117.501" stroke="black" stroke-linecap="round" stroke-linejoin="round"/>
<path d="M228.577 149.071L260.376 160.287" stroke="black" stroke-linecap="round" stroke-linejoin="round"/>
<path d="M253.268 157.511L259.493 143.63" stroke="black" stroke-linecap="round" stroke-linejoin="round"/>
<path d="M245.082 154.694L251.536 139.657" stroke="black" stroke-linecap="round" stroke-linejoin="round"/>
<path d="M236.733 151.678L242.782 137.821" stroke="black" stroke-linecap="round" stroke-linejoin="round"/>
<path d="M101.581 255.488C101.162 263.436 100.07 271.335 98.3176 279.098" stroke="black" stroke-linecap="round" stroke-linejoin="round"/>
<path d="M99.3901 273.461L116.013 274.716" stroke="black" stroke-linecap="round" stroke-linejoin="round"/>
<path d="M100.783 266L116.946 267.406" stroke="black" stroke-linecap="round" stroke-linejoin="round"/>
<path d="M101.004 259.846L115.101 260.182" stroke="black" stroke-linecap="round" stroke-linejoin="round"/>
<path d="M240.134 175.068L241.356 169.711" stroke="black" stroke-linecap="round" stroke-linejoin="round"/>
<path d="M218.491 168.211L222.638 169.201" stroke="black" stroke-linecap="round" stroke-linejoin="round"/>
<path d="M214.312 191.913L215.705 187.984" stroke="black" stroke-linecap="round" stroke-linejoin="round"/>
<path d="M197.892 182.191C196.834 181.052 195.464 180.252 193.952 179.892" stroke="black" stroke-linecap="round" stroke-linejoin="round"/>
<path d="M186.593 198.641L189.606 194.252" stroke="black" stroke-linecap="round" stroke-linejoin="round"/>
<path d="M178.192 187.797C176.915 186.805 175.9 185.517 175.234 184.043" stroke="black" stroke-linecap="round" stroke-linejoin="round"/>
<path d="M153.732 178.277L156.986 174.825" stroke="black" stroke-linecap="round" stroke-linejoin="round"/>
<path d="M157.421 220.118C156.781 218.369 155.753 216.789 154.416 215.493" stroke="black" stroke-linecap="round" stroke-linejoin="round"/>
<path d="M144.473 209.944L147.479 206.938" stroke="black" stroke-linecap="round" stroke-linejoin="round"/>
<path d="M152.809 236.09C151.421 236.986 150.226 238.152 149.295 239.518" stroke="black" stroke-linecap="round" stroke-linejoin="round"/>
<path d="M161.583 240.696L159.5 236.765" stroke="black" stroke-linecap="round" stroke-linejoin="round"/>
<path d="M145.158 261.723L149.087 258.716" stroke="black" stroke-linecap="round" stroke-linejoin="round"/>
<path d="M109.679 247.275L106.306 243.717" stroke="black" stroke-linecap="round" stroke-linejoin="round"/>
<path d="M103.569 224.3C104.977 222.829 106.709 221.708 108.629 221.027" stroke="black" stroke-linecap="round" stroke-linejoin="round"/>
<path d="M92.2172 235.841L89.3364 231.289L89.9406 230.794" stroke="black" stroke-linecap="round" stroke-linejoin="round"/>
<path d="M103.836 204.964C103.008 203.593 102.324 202.141 101.793 200.63" stroke="black" stroke-linecap="round" stroke-linejoin="round"/>
<path d="M114.362 192.52L118.325 190.027" stroke="black" stroke-linecap="round" stroke-linejoin="round"/>
<path d="M102.622 178.267C101.325 177.404 100.285 176.206 99.6167 174.798" stroke="black" stroke-linecap="round" stroke-linejoin="round"/>
<path d="M83.8921 190.057L87.59 187.514" stroke="black" stroke-linecap="round" stroke-linejoin="round"/>
<path d="M63.3119 192.605L60.3062 189.136" stroke="black" stroke-linecap="round" stroke-linejoin="round"/>
<path d="M56.612 209.76L52.9141 209.979" stroke="black" stroke-linecap="round" stroke-linejoin="round"/>
<path d="M45.3069 223.547L42.2861 220.326L42.6689 219.831" stroke="black" stroke-linecap="round" stroke-linejoin="round"/>
<path d="M55.4917 243.779L51.4202 245.767L51.9847 245.552" stroke="black" stroke-linecap="round" stroke-linejoin="round"/>
<path d="M40.8871 246.014C39.547 244.857 38.4475 243.448 37.6511 241.867L38.3428 241.853" stroke="black" stroke-linecap="round" stroke-linejoin="round"/>
<path d="M62.8666 263.563C61.364 262.723 60.2479 261.332 59.7546 259.683" stroke="black" stroke-linecap="round" stroke-linejoin="round"/>
<path d="M76.949 264.272L81.3396 260.106" stroke="black" stroke-linecap="round" stroke-linejoin="round"/>
<path d="M89.8901 274.708C88.3245 273.677 86.9938 272.329 85.9839 270.75" stroke="black" stroke-linecap="round" stroke-linejoin="round"/>
<path d="M62.3896 275.842C63.4782 275.071 64.3537 274.036 64.9334 272.835" stroke="black" stroke-linecap="round" stroke-linejoin="round"/>
<path d="M85.4702 87.1042C86.5385 103.553 86.3942 120.057 85.039 136.484C84.7072 140.508 83.6916 145.346 79.8723 146.655C76.1963 147.914 72.4765 144.963 69.9963 141.967C66.4848 137.724 63.6666 132.953 61.6463 127.829C61.0374 126.283 60.7343 124.079 62.2301 123.355C63.1905 122.89 64.3312 123.393 65.2176 123.988C72.4932 128.869 73.4499 140.324 68.0822 147.247C62.7145 154.169 52.6395 156.403 44.2651 153.826C41.5568 152.993 38.8209 151.572 37.4589 149.086C36.0969 146.601 36.7584 142.889 39.3698 141.783C41.4219 140.914 43.9011 141.945 45.3047 143.675C46.7084 145.405 47.2485 147.672 47.5683 149.877C48.4797 156.153 47.7485 163.071 43.6505 167.911C40.8964 171.164 36.9532 173.12 33.1604 175.061C29.3677 177.003 25.4782 179.139 22.9912 182.599C20.5042 186.06 19.8698 191.23 22.6787 194.434" stroke="black" stroke-linecap="round" stroke-linejoin="round"/>
<path d="M180.486 94.8162L178.068 87.8766" stroke="black" stroke-linecap="round" stroke-linejoin="round"/>
<path d="M175.109 93.2583L182.336 89.001" stroke="black" stroke-linecap="round" stroke-linejoin="round"/>
<path d="M169.793 66.7031L165.629 60.4609" stroke="black" stroke-linecap="round" stroke-linejoin="round"/>
<path d="M163.943 66.0578L169.512 60.5281" stroke="black" stroke-linecap="round" stroke-linejoin="round"/>
<path d="M228.658 65.1094L216.366 56.8453" stroke="black" stroke-linecap="round" stroke-linejoin="round"/>
<path d="M239.967 62.163L231.803 32.2917" stroke="black" stroke-linecap="round" stroke-linejoin="round"/>
<path d="M249.77 61.2094C250.938 56.8453 252.557 52.6146 254.602 48.5861" stroke="black" stroke-linecap="round" stroke-linejoin="round"/>
<path d="M454.864 263.618C443.512 272.933 435.374 285.58 431.599 299.771C430.784 302.867 430.327 306.577 432.525 308.905C434.741 311.253 438.483 310.984 441.681 310.539C444.466 310.151 447.316 309.743 449.806 308.431C452.296 307.12 454.389 304.702 454.517 301.893C454.645 299.083 452.198 296.189 449.405 296.519C446.569 296.853 444.961 299.904 444.136 302.638C442.282 308.81 441.899 315.332 443.02 321.679C443.739 325.723 445.067 329.678 445.26 333.781C445.453 337.883 444.27 342.364 440.957 344.794C437.644 347.225 432.003 346.395 430.548 342.555" stroke="black" stroke-linecap="round" stroke-linejoin="round"/>
<path d="M226.119 255.066C228.082 266.967 240.732 275.99 252.623 273.972C255.882 273.419 259.148 272.158 262.398 272.76C267.77 273.754 270.947 279.378 272.342 284.659C274.229 291.846 274.212 299.399 272.294 306.578C271.678 308.869 270.836 311.173 269.25 312.941C267.664 314.709 265.204 315.849 262.892 315.31C260.148 314.67 258.383 311.918 257.705 309.183C257.142 306.916 257.148 304.421 258.222 302.346C259.296 300.271 261.592 298.746 263.91 299.033C266.228 299.32 268.188 301.755 267.578 304.01C266.968 306.265 263.533 307.231 262.083 305.4" stroke="black" stroke-linecap="round" stroke-linejoin="round"/>
<path d="M250.443 337.704L243.737 329.198" stroke="black" stroke-linecap="round" stroke-linejoin="round"/>
<path d="M241.585 338.965L249.215 331.334" stroke="black" stroke-linecap="round" stroke-linejoin="round"/>
<path d="M287.298 272.948L294.821 268.601" stroke="black" stroke-linecap="round" stroke-linejoin="round"/>
<path d="M292.265 275.128L287.554 264.979" stroke="black" stroke-linecap="round" stroke-linejoin="round"/>
<path d="M387.125 41.9834L392.716 34.3844" stroke="black" stroke-linecap="round" stroke-linejoin="round"/>
<path d="M393.544 39.9288L386.617 35.0647" stroke="black" stroke-linecap="round" stroke-linejoin="round"/>
<path d="M425.405 58.0323L432.341 50.4021" stroke="black" stroke-linecap="round" stroke-linejoin="round"/>
<path d="M430.824 57.425L425.298 49.0854" stroke="black" stroke-linecap="round" stroke-linejoin="round"/>
<path d="M316.331 140.367L337.654 140.751" stroke="black" stroke-linecap="round" stroke-linejoin="round"/>
<path d="M373.561 139.075L391.247 136.977" stroke="black" stroke-linecap="round" stroke-linejoin="round"/>
<path d="M424.019 139.003C430.208 139.528 436.436 138.662 442.248 136.471" stroke="black" stroke-linecap="round" stroke-linejoin="round"/>
<path d="M312.162 177.968L333.486 176.822" stroke="black" stroke-linecap="round" stroke-linejoin="round"/>
<path d="M373.036 178.117L392.802 177.492" stroke="black" stroke-linecap="round" stroke-linejoin="round"/>
<path d="M423.497 177.515L435.983 176.994" stroke="black" stroke-linecap="round" stroke-linejoin="round"/>
<path d="M418.815 210.886L438.066 211.016" stroke="black" stroke-linecap="round" stroke-linejoin="round"/>
<path d="M371.472 171.769L400.089 170.815" stroke="black" stroke-linecap="round" stroke-linejoin="round"/>
<path d="M310.079 216.346L339.74 215.539" stroke="black" stroke-linecap="round" stroke-linejoin="round"/>
<path d="M308.003 210.05C320.153 210.036 332.292 209.598 344.42 208.736" stroke="black" stroke-linecap="round" stroke-linejoin="round"/>
<path d="M369.925 213.08L390.747 211.713" stroke="black" stroke-linecap="round" stroke-linejoin="round"/>
<path d="M334.42 100.956C335.07 98.9135 333.535 96.5208 331.432 96.1047C330.369 95.9474 329.284 96.1745 328.373 96.7448C327.462 97.3151 326.784 98.1916 326.461 99.2166C326.189 100.257 326.245 101.357 326.62 102.365C326.996 103.373 327.673 104.241 328.559 104.85C330.483 106.167 333.436 106.521 334.126 108.748C334.839 111.052 331.931 113.214 329.602 112.589C327.273 111.964 325.81 109.626 325.128 107.314" stroke="black" stroke-linecap="round" stroke-linejoin="round"/>
<path d="M329.597 115.609L329.317 93.7562" stroke="black" stroke-linecap="round" stroke-linejoin="round"/>
<path d="M377.74 110.44L393.865 99.5109" stroke="black" stroke-linecap="round" stroke-linejoin="round"/>
<path d="M391.242 106.763L393.759 99.0844L385.515 98.501" stroke="black" stroke-linecap="round" stroke-linejoin="round"/>
<path d="M428.221 109.403L437.076 100.048" stroke="black" stroke-linecap="round" stroke-linejoin="round"/>
<path d="M426.639 102.046L438.631 109.286" stroke="black" stroke-linecap="round" stroke-linejoin="round"/>
<path d="M271.585 177.497L281.99 176.981" stroke="black" stroke-linecap="round" stroke-linejoin="round"/>
<path d="M324.65 135.375H338.179" stroke="black" stroke-linecap="round" stroke-linejoin="round"/>
<path d="M225.285 203.01C231.666 200.543 237.455 196.759 242.277 191.906" stroke="black" stroke-linecap="round" stroke-linejoin="round"/>
<path d="M28.9229 262.701C25.914 258.051 24.3897 252.596 24.552 247.06" stroke="black" stroke-linecap="round" stroke-linejoin="round"/>
<path d="M151.264 102.814C148.585 102.161 145.832 101.987 143.095 101.701C140.357 101.414 137.529 100.931 134.762 101.001C132.428 101.045 130.143 101.676 128.117 102.835C125.659 104.242 123.893 105.689 121.007 106.156C117.742 106.684 118.502 111.117 121.007 112.041C126.895 114.214 129.289 107.428 134.274 106.579C139.639 105.665 145.316 107.248 150.732 106.73C152.835 106.53 153.597 103.382 151.263 102.814H151.264Z" fill="black"/>
<g opacity="0.1">
<path d="M114.848 164.668C104.246 160.065 90.728 160.871 79.7785 163.812C68.2994 166.885 57.8014 172.853 49.2888 181.145C41.1001 189.228 35.0163 199.194 31.5695 210.172C28.1227 221.149 27.4178 232.805 29.5164 244.118C32.0664 257.258 38.3624 269.38 47.6456 279.023C51.3956 282.965 57.177 277.088 53.5832 273.086C39.8748 257.806 34.1868 235.485 39.3967 215.586C44.4732 196.198 58.9416 179.709 77.8827 172.886C83.4145 170.866 89.1832 169.566 95.0468 169.02C101.297 168.477 107.347 169.16 113.578 169.352C115.934 169.424 117.192 165.684 114.847 164.665L114.848 164.668Z" fill="black"/>
</g>
<g opacity="0.1">
<path d="M174.452 204.647C175.952 207.195 181.014 207.117 183.605 207.199C187.572 207.326 191.544 207.154 195.487 206.684C203.356 205.749 211.05 203.69 218.334 200.569C232.269 194.58 243.907 184.7 252.487 172.231C257.271 165.313 260.998 157.721 263.545 149.705C265.188 144.486 256.902 142.199 255.353 147.446C250.466 164.003 240.084 178.399 225.918 188.264C218.29 193.575 209.765 197.464 200.754 199.743C196.15 200.942 191.443 201.702 186.695 202.016C184.342 202.167 181.981 202.109 179.633 202.286C177.921 202.416 175.841 202.208 174.593 203.554C174.455 203.697 174.367 203.881 174.342 204.078C174.317 204.274 174.355 204.474 174.452 204.648V204.647Z" fill="black"/>
</g>
<g opacity="0.1">
<path d="M185.628 275.993L186.534 266.019C187.002 260.832 178.537 260.707 178.348 266.019L177.993 275.993C177.816 280.967 185.191 280.811 185.628 275.993Z" fill="black"/>
</g>
<g opacity="0.1">
<path d="M46.2338 298.411C46.0973 293.571 45.8864 288.739 46.188 283.894C46.5666 277.811 36.7609 277.731 36.6666 283.894C36.5874 289.158 36.8801 294.385 38.0729 299.516C39.1317 304.067 46.365 303.099 46.2328 298.411H46.2338Z" fill="black"/>
</g>
</svg>
