<svg width="500" height="500" viewBox="0 0 500 500" fill="none" xmlns="http://www.w3.org/2000/svg">
<mask id="mask0_16_1582" style="mask-type:luminance" maskUnits="userSpaceOnUse" x="20" y="67" width="460" height="366">
<path d="M479.687 67.7083H20.3125V432.292H479.687V67.7083Z" fill="white"/>
</mask>
<g mask="url(#mask0_16_1582)">
<path fill-rule="evenodd" clip-rule="evenodd" d="M393.935 413.583C394.669 413.643 395.408 413.634 396.141 413.555C398.962 413.266 401.594 411.997 403.577 409.969C405.56 407.942 406.771 405.283 406.997 402.456L415.298 298.585L414.562 298.524C409.824 296.793 404.791 294.909 399.795 293.04L399.491 292.926C395.724 291.523 391.981 290.134 388.41 288.824C385.786 287.862 382.929 286.692 381.688 284.189C381.246 283.294 381.053 282.296 380.861 281.303C380.623 280.066 380.386 278.837 379.67 277.821C378.285 275.863 375.68 275.413 373.237 275.257L373.227 275.392C369.936 280.296 366.514 285.163 362.249 289.246C357.984 293.33 352.786 296.617 347.001 297.782C344.598 298.262 341.92 298.322 339.911 296.919C337.823 295.46 336.97 292.78 336.671 290.244C336.02 284.528 337.463 278.769 340.734 274.035L340.743 273.84C340.252 273.818 339.762 273.797 339.272 273.776C338.835 273.757 338.397 273.739 337.96 273.719C334.944 273.588 331.48 273.646 329.522 275.938C328.97 276.585 328.598 277.356 328.225 278.128C327.893 278.816 327.56 279.505 327.098 280.11C325.183 282.614 321.657 283.038 318.522 283.414L318.474 283.419C307.517 284.734 296.882 287.991 287.068 293.036L279.144 392.245C278.888 395.452 279.917 398.629 282.003 401.078C284.09 403.526 287.063 405.045 290.271 405.302L393.935 413.583ZM392.401 376.001C393.61 378.14 394.157 380.59 393.973 383.04C393.725 386.325 392.183 389.378 389.685 391.526C387.188 393.675 383.939 394.744 380.655 394.498C378.204 394.315 375.864 393.408 373.929 391.894C371.994 390.38 370.551 388.326 369.784 385.992C369.016 383.658 368.958 381.148 369.616 378.781C370.274 376.414 371.62 374.295 373.482 372.693C375.345 371.091 377.641 370.077 380.08 369.779C382.519 369.481 384.991 369.914 387.184 371.021C389.377 372.129 391.193 373.861 392.401 376.001ZM355.876 372.887C357.085 375.026 357.632 377.476 357.448 379.926C357.326 381.553 356.885 383.14 356.149 384.596C355.414 386.053 354.399 387.35 353.162 388.414C351.925 389.478 350.491 390.288 348.941 390.798C347.392 391.307 345.756 391.507 344.13 391.384C341.679 391.201 339.339 390.294 337.404 388.78C335.469 387.266 334.026 385.212 333.259 382.878C332.491 380.544 332.433 378.034 333.091 375.667C333.749 373.3 335.095 371.181 336.957 369.579C338.82 367.977 341.116 366.963 343.555 366.665C345.994 366.367 348.466 366.799 350.659 367.907C352.852 369.015 354.668 370.747 355.876 372.887ZM316.798 370.183C318.007 372.322 318.554 374.772 318.37 377.222H318.371C318.248 378.85 317.807 380.436 317.072 381.893C316.336 383.349 315.321 384.646 314.084 385.71C312.847 386.775 311.413 387.584 309.863 388.094C308.313 388.604 306.678 388.803 305.051 388.681C302.601 388.497 300.261 387.59 298.325 386.076C296.391 384.562 294.948 382.508 294.181 380.174C293.413 377.84 293.355 375.331 294.013 372.964C294.671 370.596 296.017 368.478 297.879 366.876C299.742 365.273 302.038 364.259 304.476 363.961C306.916 363.664 309.388 364.096 311.581 365.203C313.774 366.311 315.59 368.044 316.798 370.183ZM383.527 292.108C383.157 291.997 382.767 292.206 382.655 292.576C382.544 292.945 382.752 293.335 383.122 293.447L410.908 301.85C411.277 301.962 411.668 301.753 411.78 301.383C411.892 301.014 411.683 300.623 411.313 300.511L383.527 292.108Z" fill="black" fill-opacity="0.15"/>
<path d="M372.422 275.213C372.688 275.227 372.958 275.24 373.233 275.254L373.224 275.39C369.933 280.294 366.511 285.165 362.246 289.244C357.98 293.322 352.783 296.614 346.998 297.779C344.597 298.259 341.916 298.32 339.907 296.917C337.819 295.458 336.966 292.778 336.667 290.242C336.016 284.525 337.46 278.767 340.73 274.033L340.739 273.838L348.147 274.159C355.403 274.476 362.663 274.792 369.925 275.105C370.758 275.143 371.592 275.175 372.422 275.213Z" fill="black" fill-opacity="0.15"/>
<path d="M363.048 246.632C363.085 248.571 362.209 250.591 360.544 251.592C359.93 251.959 359.232 252.16 358.516 252.175L358.502 251.685C358.928 251.171 359.246 250.576 359.436 249.935C359.627 249.295 359.687 248.623 359.613 247.96C359.538 247.296 359.331 246.654 359.003 246.072C358.676 245.49 358.234 244.98 357.705 244.572L357.16 244.468C358.717 243.781 360.053 242.676 361.02 241.274C362.225 242.812 362.933 244.682 363.048 246.632Z" fill="black"/>
<path d="M345.99 366.608C348.44 366.792 350.78 367.698 352.715 369.213C354.65 370.727 356.093 372.781 356.86 375.115C357.628 377.448 357.686 379.958 357.028 382.325C356.37 384.692 355.024 386.811 353.161 388.414C351.299 390.016 349.003 391.03 346.564 391.328C344.125 391.625 341.653 391.193 339.46 390.085C337.267 388.978 335.451 387.245 334.243 385.106C333.034 382.966 332.487 380.517 332.671 378.067C332.793 376.44 333.234 374.853 333.97 373.396C334.705 371.94 335.72 370.642 336.957 369.578C338.194 368.514 339.628 367.704 341.178 367.195C342.728 366.685 344.362 366.485 345.99 366.608Z" fill="black"/>
<path d="M306.912 363.909C309.362 364.093 311.702 365 313.636 366.514C315.57 368.028 317.012 370.082 317.779 372.416C318.546 374.749 318.604 377.258 317.946 379.624C317.287 381.991 315.942 384.109 314.079 385.711C312.217 387.313 309.921 388.327 307.483 388.624C305.044 388.921 302.572 388.489 300.38 387.381C298.187 386.274 296.372 384.541 295.164 382.402C293.956 380.263 293.41 377.814 293.594 375.365C293.841 372.079 295.383 369.027 297.881 366.879C300.378 364.73 303.627 363.662 306.912 363.909Z" fill="black" fill-opacity="0.15"/>
<path d="M435.559 160.417L416.675 396.815C415.975 408.865 402.825 414.082 396.141 413.555C398.962 413.266 401.594 411.997 403.577 409.97C405.56 407.942 406.771 405.283 406.997 402.456L415.295 298.581L425.99 164.662C426.117 163.074 425.93 161.477 425.439 159.96C424.949 158.444 424.164 157.04 423.131 155.827C422.098 154.614 420.836 153.617 419.417 152.891C417.998 152.166 416.45 151.728 414.862 151.601L311.203 143.319C309.318 143.167 307.424 143.458 305.672 144.168C303.921 144.879 302.36 145.99 301.115 147.412C305.194 141.757 311.016 138.476 320.763 139.142L424.428 147.423C426.012 147.546 427.556 147.979 428.973 148.698C430.389 149.417 431.651 150.408 432.684 151.615C433.718 152.821 434.504 154.22 434.997 155.73C435.49 157.24 435.681 158.833 435.559 160.417Z" fill="black"/>
<path d="M185.123 390.223C185.583 392.636 185.317 395.132 184.358 397.394C183.399 399.656 181.792 401.582 179.738 402.93C177.684 404.279 175.277 404.987 172.82 404.967C170.364 404.947 167.969 404.199 165.937 402.818C163.906 401.436 162.33 399.483 161.408 397.206C160.486 394.929 160.261 392.43 160.76 390.024C161.259 387.619 162.46 385.416 164.211 383.693C165.962 381.97 168.185 380.805 170.598 380.345C172.2 380.04 173.847 380.053 175.445 380.384C177.042 380.715 178.558 381.357 179.907 382.275C181.256 383.192 182.411 384.366 183.306 385.73C184.201 387.094 184.819 388.621 185.123 390.223Z" fill="black"/>
<path d="M181.25 273.455C182.026 279.259 180.733 285.151 177.6 290.097H177.595C175.365 293.747 172.258 296.782 168.556 298.926C159.797 303.914 148.283 303.336 139.806 297.884C136.853 295.97 134.268 293.54 132.175 290.71C128.228 285.408 126.01 279.017 125.826 272.409C125.714 267.388 126.898 262.096 130.31 258.41C130.32 258.405 130.324 258.396 130.329 258.391C135.396 252.942 143.489 252.536 150.433 252.826C157.608 253.128 164.392 252.737 170.683 256.888C171.51 257.432 172.301 258.029 173.052 258.673C177.455 262.469 180.362 267.71 181.25 273.455ZM150.292 267.894C153.075 262.239 147.789 258.123 142.372 259.526C141.015 259.924 139.834 260.772 139.023 261.932C138.214 263.091 137.823 264.492 137.916 265.903C138.077 267.308 138.69 268.622 139.662 269.649C140.635 270.676 141.915 271.358 143.309 271.595C144.712 271.772 146.136 271.511 147.386 270.849C148.636 270.186 149.651 269.155 150.292 267.894Z" fill="black"/>
<path d="M146.688 397.78C147.149 400.194 146.884 402.69 145.926 404.952C144.968 407.215 143.36 409.142 141.307 410.491C139.254 411.84 136.846 412.549 134.389 412.53C131.933 412.51 129.537 411.763 127.505 410.382C125.473 409.001 123.896 407.048 122.974 404.77C122.052 402.493 121.826 399.994 122.325 397.588C122.823 395.182 124.024 392.978 125.775 391.255C127.526 389.532 129.75 388.367 132.163 387.907C135.398 387.291 138.746 387.985 141.47 389.836C144.194 391.688 146.071 394.545 146.688 397.78Z" fill="black" fill-opacity="0.15"/>
<path d="M195.104 162.737L220.197 294.446L219.759 294.53C206.176 294.106 192.58 294.819 179.115 296.66C179.114 294.432 178.648 292.229 177.748 290.19L177.599 290.097C180.733 285.151 182.026 279.259 181.249 273.455C180.361 267.709 177.454 262.468 173.049 258.673L173.11 258.603C172.312 242.376 171.518 226.149 170.728 209.922L170.695 209.847C171.241 209.604 171.782 209.344 172.318 209.066C177.52 206.358 182.109 201.925 183.641 196.266C180.487 195.992 177.32 196.594 174.487 198.005C171.654 199.415 169.265 201.58 167.582 204.26C169.558 200.951 171.531 197.641 173.502 194.331C174.164 193.217 174.856 191.903 174.411 190.681C173.795 189.003 171.371 188.732 169.842 189.656C168.313 190.579 167.418 192.224 166.393 193.683C162.831 198.759 157.144 202.009 151.236 203.902C145.329 205.794 139.116 206.465 132.982 207.397C128.46 208.083 123.467 209.216 120.89 213.001C117.967 217.299 119.397 223.028 119.645 228.221C119.888 233.571 118.736 238.893 116.302 243.665C115.146 245.921 113.948 249.207 116.116 250.527C118.12 251.748 120.353 249.604 121.645 247.543C120.331 249.879 119.906 252.61 120.447 255.235C123.848 254.196 126.724 251.899 128.489 248.811L128.838 248.765L130.124 258.251L130.306 258.414C126.894 262.102 125.71 267.392 125.822 272.413C126.006 279.021 128.223 285.412 132.171 290.715L132.101 290.767C130.558 289.215 127.803 289.387 126.116 290.781C124.428 292.174 123.701 294.472 123.715 296.664C123.728 298.855 124.386 300.98 125.039 303.073C114.667 306.984 104.662 311.807 95.1427 317.487L94.0615 317.692L69.1141 186.74C68.8156 185.176 68.8286 183.567 69.1516 182.007C69.475 180.447 70.1021 178.967 70.9979 177.649C71.8937 176.332 73.0401 175.204 74.3719 174.33C75.7036 173.456 77.1943 172.853 78.7588 172.555L180.918 153.088C182.566 152.772 184.262 152.802 185.898 153.178C187.534 153.553 189.073 154.266 190.418 155.269C191.541 156.352 192.592 157.505 193.565 158.723L193.579 158.737C194.318 159.971 194.834 161.325 195.104 162.737ZM99.9557 247.373C99.9557 246.708 99.7588 246.058 99.3896 245.506C99.0203 244.953 98.4953 244.522 97.8812 244.268C97.2672 244.014 96.5911 243.947 95.9396 244.077C95.2875 244.206 94.6885 244.527 94.2187 244.996C93.7484 245.467 93.4281 246.065 93.2984 246.717C93.1687 247.369 93.2354 248.045 93.4901 248.659C93.7443 249.273 94.175 249.798 94.7276 250.167C95.2807 250.537 95.9302 250.734 96.5948 250.734C97.4865 250.733 98.3406 250.38 98.9708 249.749C99.6016 249.119 99.9557 248.265 99.9557 247.373V247.373ZM99.7599 228.941C99.7604 227.651 99.3781 226.389 98.662 225.316C97.9453 224.243 96.9266 223.406 95.7349 222.912C94.5427 222.418 93.2312 222.288 91.9656 222.54C90.7 222.791 89.537 223.412 88.6245 224.324C87.712 225.236 87.0901 226.398 86.838 227.664C86.5859 228.929 86.7146 230.241 87.2078 231.433C87.7016 232.626 88.5375 233.645 89.6099 234.362C90.6828 235.079 91.9437 235.462 93.2338 235.463C94.9641 235.462 96.6229 234.775 97.8463 233.552C99.0703 232.33 99.7583 230.67 99.7599 228.941Z" fill="black" fill-opacity="0.15"/>
<path d="M183.641 196.264C182.108 201.923 177.521 206.356 172.318 209.064C171.782 209.344 171.242 209.604 170.696 209.845C165.918 212.018 160.696 213.108 155.546 214.171C148.683 215.593 141.821 217.014 134.96 218.432C131.716 219.103 128.037 220.099 126.588 223.075C125.656 224.991 125.921 227.247 126.21 229.359C127.086 235.829 127.962 242.296 128.84 248.76L128.49 248.807C126.726 251.895 123.849 254.192 120.448 255.231C119.907 252.606 120.332 249.874 121.646 247.539C121.693 247.465 121.74 247.39 121.781 247.315C121.735 247.39 121.693 247.465 121.646 247.539C120.355 249.599 118.122 251.744 116.117 250.522C113.95 249.203 115.148 245.917 116.304 243.66C118.737 238.889 119.889 233.567 119.646 228.217C119.399 223.024 117.968 217.295 120.891 212.996C123.469 209.211 128.461 208.079 132.983 207.393C139.118 206.461 145.327 205.785 151.238 203.897C157.149 202.01 162.831 198.755 166.394 193.679C167.42 192.221 168.321 190.57 169.844 189.652C171.366 188.733 173.797 188.998 174.412 190.677C174.855 191.898 174.165 193.213 173.503 194.327C171.531 197.636 169.558 200.946 167.583 204.256C169.266 201.576 171.655 199.412 174.488 198.002C177.321 196.592 180.488 195.99 183.641 196.264Z" fill="black"/>
<path d="M180.919 153.088L78.7597 172.555C77.1946 172.853 75.704 173.456 74.3722 174.33C73.0404 175.204 71.8941 176.332 70.9982 177.649C70.1024 178.967 69.4753 180.447 69.1519 182.007C68.8284 183.567 68.8159 185.176 69.1144 186.74L94.0623 317.689L113.758 421.074C114.289 423.863 115.781 426.376 117.973 428.178C120.165 429.98 122.92 430.956 125.758 430.938C119.171 432.182 105.531 428.42 103.527 416.519L59.1389 183.556C58.5488 180.402 59.2352 177.143 61.0472 174.495C62.8592 171.848 65.6482 170.028 68.8019 169.436L170.957 149.974C180.103 148.337 185.841 150.892 190.419 155.269C189.074 154.266 187.534 153.554 185.899 153.178C184.263 152.802 182.567 152.772 180.919 153.088Z" fill="black"/>
<path d="M164.249 220.192C160.748 220.588 157.247 220.983 153.746 221.375C152.576 221.511 151.178 221.809 150.772 222.919C150.622 223.511 150.643 224.133 150.833 224.714C152.646 232.703 154.461 240.695 156.278 248.688C154.809 249.373 153.341 250.055 151.872 250.734" stroke="black" stroke-linecap="round" stroke-linejoin="round"/>
<path d="M144.195 230.629C143.839 230.112 143.352 229.699 142.785 229.434C142.217 229.169 141.588 229.06 140.964 229.119C140.34 229.178 139.743 229.402 139.235 229.769C138.726 230.136 138.326 230.633 138.074 231.207" stroke="black" stroke-linecap="round" stroke-linejoin="round"/>
<path d="M158.921 228.568C159.759 227.916 160.77 227.52 161.828 227.43C162.888 227.34 163.95 227.559 164.887 228.06" stroke="black" stroke-linecap="round" stroke-linejoin="round"/>
<path d="M173.05 258.673C172.299 258.028 171.508 257.432 170.682 256.888C164.389 252.739 157.606 253.13 150.432 252.825C143.486 252.536 135.394 252.941 130.327 258.391C130.323 258.395 130.318 258.405 130.309 258.409C126.897 262.097 125.712 267.388 125.824 272.408C126.009 279.017 128.226 285.407 132.173 290.71C134.267 293.54 136.851 295.969 139.805 297.884C148.284 303.333 159.798 303.911 168.555 298.926C172.257 296.782 175.364 293.747 177.594 290.096H177.598C180.732 285.151 182.025 279.259 181.25 273.455C180.362 267.709 177.455 262.468 173.05 258.673Z" stroke="black" stroke-linecap="round" stroke-linejoin="round"/>
<path d="M142.372 259.526C141.015 259.924 139.834 260.772 139.024 261.932C138.213 263.091 137.823 264.492 137.915 265.903C138.077 267.308 138.689 268.622 139.662 269.649C140.635 270.676 141.914 271.358 143.309 271.595C144.712 271.772 146.136 271.511 147.386 270.849C148.636 270.186 149.651 269.155 150.292 267.894C153.073 262.24 147.789 258.125 142.372 259.526Z" stroke="black" stroke-linecap="round" stroke-linejoin="round"/>
<path d="M140.568 263.866C142.344 266.039 146.236 265.861 147.812 263.54" stroke="black" stroke-linecap="round" stroke-linejoin="round"/>
<path d="M121.88 247.154C121.847 247.21 121.814 247.266 121.782 247.317C121.735 247.392 121.693 247.467 121.647 247.541C120.333 249.877 119.908 252.608 120.449 255.233C123.85 254.194 126.726 251.897 128.49 248.809" stroke="black" stroke-linecap="round" stroke-linejoin="round"/>
<path d="M130.126 258.249L128.839 248.762C127.962 242.297 127.086 235.83 126.21 229.361C125.921 227.249 125.656 224.993 126.588 223.077C128.037 220.103 131.715 219.105 134.96 218.434C141.821 217.017 148.683 215.597 155.546 214.173C160.697 213.11 165.918 212.02 170.696 209.847C171.241 209.605 171.782 209.344 172.318 209.066C177.521 206.358 182.11 201.925 183.641 196.266C180.488 195.993 177.32 196.594 174.487 198.005C171.654 199.415 169.264 201.58 167.582 204.26C169.558 200.951 171.531 197.641 173.502 194.331C174.164 193.217 174.856 191.903 174.411 190.681C173.796 189.003 171.372 188.732 169.843 189.656C168.313 190.579 167.419 192.224 166.393 193.683C162.832 198.759 157.145 202.009 151.237 203.902C145.329 205.794 139.116 206.465 132.982 207.397C128.46 208.083 123.468 209.216 120.89 213.001C117.967 217.299 119.398 223.028 119.645 228.221C119.888 233.571 118.736 238.893 116.302 243.665C115.147 245.921 113.949 249.207 116.116 250.527C118.121 251.748 120.353 249.604 121.645 247.543C121.691 247.469 121.738 247.394 121.78 247.319" stroke="black" stroke-linecap="round" stroke-linejoin="round"/>
<path d="M173.111 258.603C172.312 242.376 171.518 226.149 170.729 209.922" stroke="black" stroke-linecap="round" stroke-linejoin="round"/>
<path d="M132.102 290.764C130.559 289.211 127.804 289.384 126.117 290.778C124.429 292.171 123.702 294.469 123.716 296.66C123.729 298.852 124.387 300.977 125.04 303.07C114.667 306.981 104.663 311.804 95.144 317.484" stroke="black" stroke-linecap="round" stroke-linejoin="round"/>
<path d="M177.749 290.19C178.649 292.229 179.114 294.432 179.115 296.66C192.58 294.819 206.175 294.106 219.759 294.53" stroke="black" stroke-linecap="round" stroke-linejoin="round"/>
<path d="M180.583 347.784C181.312 351.038 182.438 354.683 185.45 356.129C188.191 357.448 191.641 356.31 193.747 354.115C195.854 351.919 196.857 348.894 197.472 345.915C198.831 339.285 198.584 332.427 196.749 325.912C196.745 325.893 193.995 326.239 190.601 326.745C185.366 327.527 178.593 328.676 177.968 329.431C175.703 332.182 179.809 344.326 180.583 347.784Z" stroke="black" stroke-linecap="round" stroke-linejoin="round"/>
<path d="M192.291 337.566C191.727 333.958 191.163 330.352 190.599 326.746C190.394 325.418 190.183 324.09 189.979 322.761" stroke="black" stroke-linecap="round" stroke-linejoin="round"/>
<path d="M348.606 230.895C348.18 230.564 347.668 230.361 347.13 230.312C346.592 230.263 346.052 230.369 345.572 230.617C345.093 230.866 344.695 231.246 344.425 231.714C344.156 232.182 344.026 232.717 344.051 233.256C344.076 233.795 344.255 234.316 344.568 234.757C344.88 235.197 345.311 235.54 345.811 235.742C346.312 235.945 346.86 236 347.39 235.901C347.921 235.802 348.412 235.553 348.806 235.183" stroke="black" stroke-linecap="round" stroke-linejoin="round"/>
<path d="M337.708 219.003C337.634 217.833 337.552 216.662 337.479 215.493" stroke="black" stroke-linecap="round" stroke-linejoin="round"/>
<path d="M343.161 209.563C342.633 209.269 342.077 209.028 341.501 208.841C339.175 208.082 336.65 208.21 334.411 209.199" stroke="black" stroke-linecap="round" stroke-linejoin="round"/>
<path d="M352.135 245.22C353.835 245.434 355.561 245.179 357.126 244.484C358.692 243.789 360.038 242.68 361.02 241.276C362.225 242.814 362.933 244.682 363.048 246.632C363.085 248.571 362.209 250.591 360.545 251.592C359.931 251.959 359.232 252.16 358.517 252.175C357.907 252.214 357.296 252.104 356.738 251.853C356.18 251.603 355.691 251.221 355.314 250.739" stroke="black" stroke-linecap="round" stroke-linejoin="round"/>
<path d="M358.502 251.685C358.928 251.171 359.246 250.576 359.436 249.935C359.627 249.295 359.687 248.623 359.612 247.96C359.538 247.296 359.331 246.654 359.003 246.072C358.676 245.49 358.234 244.98 357.706 244.572" stroke="black" stroke-linecap="round" stroke-linejoin="round"/>
<path d="M332.845 194.479C328.621 201.544 325.966 209.435 325.058 217.616C324.15 225.797 325.012 234.078 327.585 241.897C327.865 242.736 328.174 243.569 328.512 244.397C329.72 247.31 331.347 250.051 333.799 251.991C336.091 253.804 338.959 254.792 341.238 256.629C346.238 260.647 347.369 267.67 348.151 274.04" stroke="black" stroke-linecap="round" stroke-linejoin="round"/>
<path d="M328.323 244.474C326.181 244.927 323.947 244.613 322.013 243.587C320.078 242.562 318.565 240.89 317.736 238.863C316.908 236.836 316.817 234.582 317.48 232.495C318.143 230.408 319.517 228.62 321.364 227.443C319.682 226.367 318.349 224.827 317.527 223.008C316.705 221.19 316.428 219.172 316.73 217.199C317.033 215.226 317.902 213.384 319.232 211.896C320.561 210.407 322.295 209.337 324.221 208.815C320.459 201.523 321.83 192.183 326.721 185.596C331.613 179.009 339.564 175.084 347.708 174.072C355.852 173.061 364.149 174.767 371.762 177.816C378.824 180.641 385.546 184.733 390.304 190.668C395.744 197.445 398.261 206.172 399.072 214.824C399.883 223.476 399.105 232.189 398.643 240.868C397.729 258.101 398.056 275.376 399.622 292.561" stroke="black" stroke-linecap="round" stroke-linejoin="round"/>
<path d="M332.076 191.84C332.356 192.711 332.659 193.569 332.989 194.422C335.008 199.667 337.885 204.54 341.501 208.841C344.644 212.597 348.319 215.873 352.41 218.565C358.366 222.446 365.071 225.033 372.091 226.158C376.366 226.854 380.712 226.992 385.022 226.569" stroke="black" stroke-linecap="round" stroke-linejoin="round"/>
<path d="M372.119 225.99L372.091 226.157C369.374 242.128 368.655 258.373 369.951 274.521" stroke="black" stroke-linecap="round" stroke-linejoin="round"/>
<path d="M286.875 293.132C286.94 293.099 287.001 293.066 287.066 293.034C296.88 287.988 307.516 284.731 318.472 283.417C321.619 283.039 325.171 282.624 327.096 280.107C328.076 278.825 328.476 277.161 329.52 275.935C331.478 273.643 334.942 273.585 337.958 273.716C338.885 273.758 339.813 273.795 340.741 273.838L348.148 274.159C355.405 274.476 362.665 274.792 369.927 275.105C370.757 275.143 371.594 275.175 372.421 275.213C372.687 275.227 372.957 275.24 373.232 275.254C375.675 275.41 378.281 275.86 379.665 277.818C380.957 279.651 380.691 282.177 381.684 284.186C382.924 286.689 385.781 287.859 388.406 288.821C391.977 290.131 395.72 291.52 399.486 292.923C404.582 294.83 409.723 296.755 414.557 298.522" stroke="black" stroke-linecap="round" stroke-linejoin="round"/>
<path d="M340.732 274.033C337.462 278.767 336.019 284.525 336.67 290.242C336.968 292.778 337.821 295.458 339.909 296.917C341.919 298.32 344.597 298.259 347 297.779C352.785 296.614 357.983 293.328 362.248 289.244C366.513 285.16 369.935 280.294 373.226 275.39" stroke="black" stroke-linecap="round" stroke-linejoin="round"/>
<path d="M193.58 158.738C194.318 159.971 194.834 161.325 195.104 162.737L220.197 294.446L239.753 397.071C240.354 400.232 239.676 403.502 237.866 406.162C236.057 408.822 233.265 410.655 230.104 411.257L127.949 430.723C127.232 430.861 126.503 430.931 125.772 430.932" stroke="black" stroke-linecap="round" stroke-linejoin="round"/>
<path d="M125.758 430.938C122.92 430.956 120.166 429.979 117.973 428.177C115.781 426.374 114.29 423.861 113.759 421.073L94.062 317.689L69.1141 186.74C68.8156 185.176 68.8286 183.567 69.1516 182.007C69.475 180.447 70.1021 178.967 70.9979 177.649C71.8937 176.332 73.0401 175.204 74.3719 174.33C75.7036 173.456 77.1943 172.853 78.7588 172.555L180.918 153.088C183.349 152.628 185.863 152.921 188.123 153.928C190.383 154.935 192.281 156.608 193.565 158.723" stroke="black" stroke-linecap="round" stroke-linejoin="round"/>
<path d="M125.772 430.933C125.77 430.933 125.767 430.933 125.765 430.934C125.762 430.935 125.76 430.936 125.758 430.938C119.171 432.183 105.531 428.421 103.527 416.52L59.1389 183.556C58.5488 180.403 59.2348 177.144 61.0473 174.496C62.8592 171.848 65.6483 170.028 68.802 169.436L170.957 149.974C180.103 148.337 185.842 150.892 190.419 155.269C191.542 156.352 192.592 157.506 193.565 158.723L193.58 158.737" stroke="black" stroke-linecap="round" stroke-linejoin="round"/>
<path d="M292.69 222.653L287.068 293.034L279.144 392.242C278.888 395.449 279.917 398.626 282.003 401.075C284.09 403.523 287.063 405.043 290.271 405.299L393.935 413.58C394.669 413.641 395.408 413.631 396.141 413.552C398.962 413.263 401.594 411.995 403.577 409.967C405.56 407.939 406.771 405.281 406.997 402.453L415.295 298.579L425.99 164.662C426.117 163.074 425.93 161.477 425.439 159.96C424.949 158.444 424.164 157.04 423.131 155.827C422.098 154.614 420.836 153.616 419.417 152.891C417.998 152.166 416.45 151.728 414.862 151.601L311.202 143.319C307.995 143.064 304.817 144.092 302.368 146.178C299.918 148.265 298.397 151.239 298.141 154.446L297.11 167.354L297.087 167.662" stroke="black" stroke-linecap="round" stroke-linejoin="round"/>
<path d="M396.122 413.555H396.141C402.825 414.082 415.975 408.867 416.675 396.815L435.559 160.417C435.681 158.833 435.49 157.24 434.997 155.73C434.504 154.219 433.718 152.821 432.684 151.615C431.65 150.408 430.389 149.417 428.972 148.698C427.556 147.979 426.011 147.546 424.427 147.424L320.762 139.143C311.015 138.476 305.193 141.758 301.113 147.413C300.356 148.468 299.667 149.571 299.048 150.713" stroke="black" stroke-linecap="round" stroke-linejoin="round"/>
<path d="M294.838 220.99C294.806 221.013 294.769 221.036 294.734 221.06C294.035 221.558 293.322 222.034 292.585 222.495C284.74 227.409 274.857 230.341 264.126 230.341C238.59 230.341 217.893 213.759 217.893 193.305C217.893 172.85 238.59 156.268 264.126 156.268C277.043 156.268 288.721 160.51 297.108 167.358C305.303 174.033 310.356 183.198 310.356 193.305C310.356 200.909 307.498 207.979 302.589 213.857L302.463 214.014" stroke="black" stroke-linecap="round" stroke-linejoin="round"/>
<path d="M294.563 220.928C294.62 220.97 294.68 221.017 294.736 221.059C299.215 224.499 303.694 227.937 308.173 231.374C305.559 225.802 303.682 219.912 302.591 213.854C302.568 213.724 302.545 213.589 302.521 213.458" stroke="black" stroke-linecap="round" stroke-linejoin="round"/>
<path d="M146.688 397.78C147.149 400.194 146.884 402.69 145.926 404.952C144.968 407.215 143.36 409.142 141.307 410.491C139.254 411.84 136.846 412.549 134.389 412.53C131.933 412.51 129.537 411.763 127.505 410.382C125.473 409.001 123.896 407.048 122.974 404.77C122.052 402.493 121.826 399.994 122.325 397.588C122.823 395.182 124.024 392.978 125.775 391.255C127.526 389.532 129.75 388.367 132.163 387.907C135.398 387.291 138.746 387.985 141.47 389.836C144.194 391.688 146.071 394.545 146.688 397.78Z" stroke="black" stroke-linecap="round" stroke-linejoin="round"/>
<path d="M185.123 390.223C185.583 392.636 185.317 395.132 184.358 397.394C183.399 399.656 181.792 401.582 179.738 402.93C177.684 404.279 175.277 404.987 172.82 404.967C170.364 404.947 167.969 404.199 165.937 402.818C163.906 401.436 162.33 399.483 161.408 397.206C160.486 394.929 160.261 392.43 160.76 390.024C161.259 387.619 162.46 385.416 164.211 383.693C165.962 381.97 168.185 380.805 170.598 380.345C172.2 380.04 173.847 380.053 175.445 380.384C177.042 380.715 178.558 381.357 179.907 382.275C181.256 383.192 182.411 384.366 183.306 385.73C184.201 387.094 184.819 388.621 185.123 390.223Z" stroke="black" stroke-linecap="round" stroke-linejoin="round"/>
<path d="M221.198 383.725C221.657 386.139 221.391 388.634 220.433 390.896C219.474 393.158 217.866 395.085 215.812 396.433C213.759 397.781 211.351 398.491 208.895 398.47C206.438 398.451 204.042 397.703 202.011 396.321C199.979 394.94 198.403 392.986 197.482 390.709C196.56 388.432 196.334 385.932 196.833 383.527C197.332 381.121 198.533 378.918 200.284 377.195C202.036 375.472 204.259 374.307 206.672 373.847C208.274 373.542 209.921 373.555 211.519 373.885C213.116 374.216 214.633 374.859 215.982 375.776C217.33 376.693 218.486 377.868 219.38 379.232C220.275 380.595 220.893 382.122 221.198 383.725Z" stroke="black" stroke-linecap="round" stroke-linejoin="round"/>
<path d="M318.371 377.223C318.187 379.673 317.282 382.014 315.768 383.95C314.255 385.885 312.201 387.329 309.867 388.097C307.533 388.866 305.023 388.924 302.656 388.267C300.289 387.609 298.169 386.264 296.566 384.401C294.964 382.539 293.949 380.243 293.651 377.804C293.353 375.365 293.785 372.892 294.893 370.698C296 368.505 297.733 366.689 299.872 365.481C302.012 364.272 304.462 363.725 306.912 363.909C310.196 364.157 313.248 365.698 315.397 368.195C317.545 370.691 318.615 373.938 318.371 377.223Z" stroke="black" stroke-linecap="round" stroke-linejoin="round"/>
<path d="M357.448 379.926C357.264 382.376 356.358 384.717 354.844 386.652C353.329 388.587 351.275 390.029 348.942 390.797C346.607 391.565 344.098 391.623 341.731 390.965C339.364 390.306 337.245 388.96 335.643 387.098C334.04 385.235 333.026 382.94 332.729 380.501C332.431 378.062 332.863 375.59 333.971 373.396C335.078 371.203 336.811 369.388 338.95 368.179C341.09 366.971 343.54 366.424 345.99 366.608C349.275 366.856 352.327 368.397 354.476 370.895C356.624 373.392 357.694 376.641 357.448 379.926Z" stroke="black" stroke-linecap="round" stroke-linejoin="round"/>
<path d="M393.973 383.04C393.789 385.49 392.883 387.831 391.368 389.766C389.854 391.7 387.8 393.143 385.466 393.911C383.132 394.679 380.623 394.737 378.256 394.079C375.889 393.42 373.77 392.074 372.168 390.212C370.565 388.349 369.551 386.054 369.253 383.615C368.956 381.175 369.388 378.703 370.496 376.51C371.603 374.317 373.336 372.501 375.475 371.293C377.615 370.084 380.064 369.538 382.514 369.722C385.8 369.969 388.853 371.51 391.001 374.008C393.15 376.506 394.219 379.755 393.973 383.04Z" stroke="black" stroke-linecap="round" stroke-linejoin="round"/>
<path d="M123.865 171.981L128.098 170.825" stroke="black" stroke-linecap="round" stroke-linejoin="round"/>
<path d="M133.878 169.427C134.536 169.427 149.276 166.136 149.276 166.136" stroke="black" stroke-linecap="round" stroke-linejoin="round"/>
<path d="M350.853 153.731L355.235 153.936" stroke="black" stroke-linecap="round" stroke-linejoin="round"/>
<path d="M361.165 154.389C361.79 154.593 376.828 156.003 376.828 156.003" stroke="black" stroke-linecap="round" stroke-linejoin="round"/>
<path d="M164.808 416.44L184.112 412.268" stroke="black" stroke-linecap="round" stroke-linejoin="round"/>
<path d="M332.188 401.304L352.568 402.838" stroke="black" stroke-linecap="round" stroke-linejoin="round"/>
<path d="M99.7602 228.941C99.7597 230.231 99.3768 231.492 98.6602 232.565C97.943 233.637 96.9242 234.473 95.7321 234.967C94.5399 235.46 93.2284 235.59 91.9633 235.337C90.6977 235.086 89.5357 234.465 88.6232 233.552C87.7112 232.64 87.0899 231.478 86.8378 230.213C86.5862 228.947 86.7149 227.635 87.2086 226.443C87.7024 225.252 88.5378 224.232 89.6107 223.516C90.6831 222.798 91.944 222.416 93.2341 222.415C94.0914 222.415 94.9404 222.583 95.7321 222.911C96.5242 223.239 97.2435 223.72 97.8498 224.326C98.4555 224.932 98.9362 225.652 99.2643 226.443C99.592 227.235 99.7607 228.084 99.7602 228.941Z" stroke="black" stroke-linecap="round" stroke-linejoin="round"/>
<path d="M96.5953 250.734C98.4516 250.734 99.9563 249.23 99.9563 247.373C99.9563 245.517 98.4516 244.013 96.5953 244.013C94.7391 244.013 93.2344 245.517 93.2344 247.373C93.2344 249.23 94.7391 250.734 96.5953 250.734Z" stroke="black" stroke-linecap="round" stroke-linejoin="round"/>
<path d="M300.615 241.276C302.865 241.276 304.689 239.452 304.689 237.202C304.689 234.951 302.865 233.127 300.615 233.127C298.365 233.127 296.54 234.951 296.54 237.202C296.54 239.452 298.365 241.276 300.615 241.276Z" stroke="black" stroke-linecap="round" stroke-linejoin="round"/>
<path d="M213.064 392.127C214.02 391.123 214.711 389.897 215.072 388.558C215.434 387.22 215.455 385.812 215.134 384.464C214.813 383.115 214.161 381.868 213.235 380.836C212.31 379.804 211.14 379.019 209.835 378.554" stroke="black" stroke-linecap="round" stroke-linejoin="round"/>
<path d="M209.844 389.849C210.36 389.393 210.751 388.812 210.98 388.161C211.208 387.511 211.267 386.814 211.15 386.134C211.033 385.455 210.745 384.817 210.312 384.28C209.88 383.744 209.317 383.327 208.677 383.069" stroke="black" stroke-linecap="round" stroke-linejoin="round"/>
<path d="M138.035 402.746L128.738 404.346L127.381 396.455L136.677 394.855L137.254 398.206L138.035 402.746Z" stroke="black" stroke-linecap="round" stroke-linejoin="round"/>
<path d="M141.758 393.981L143.022 401.331L137.253 398.206L141.492 394.054" stroke="black" stroke-linecap="round" stroke-linejoin="round"/>
<path d="M307.722 380.149L298.298 379.739L298.647 371.739L308.071 372.15L307.923 375.547L307.722 380.149Z" stroke="black" stroke-linecap="round" stroke-linejoin="round"/>
<path d="M313.221 372.375L312.897 379.826L307.923 375.547L312.946 372.39" stroke="black" stroke-linecap="round" stroke-linejoin="round"/>
<path d="M205.91 388.818C206.168 388.59 206.363 388.299 206.477 387.974C206.592 387.649 206.621 387.301 206.562 386.961C206.504 386.621 206.36 386.302 206.144 386.034C205.927 385.766 205.646 385.557 205.326 385.428" stroke="black" stroke-linecap="round" stroke-linejoin="round"/>
<path d="M383.874 389.299C385.006 388.497 385.918 387.425 386.529 386.181C387.14 384.936 387.431 383.559 387.373 382.173C387.317 380.788 386.915 379.439 386.203 378.249C385.492 377.059 384.495 376.065 383.302 375.358" stroke="black" stroke-linecap="round" stroke-linejoin="round"/>
<path d="M381.151 386.447C381.745 386.098 382.24 385.603 382.589 385.009C382.939 384.415 383.13 383.741 383.146 383.052C383.161 382.363 383.001 381.681 382.679 381.071C382.357 380.462 381.885 379.945 381.307 379.569" stroke="black" stroke-linecap="round" stroke-linejoin="round"/>
<path d="M377.487 384.682C377.784 384.507 378.031 384.259 378.206 383.963C378.38 383.666 378.475 383.329 378.483 382.984C378.49 382.64 378.41 382.3 378.249 381.995C378.088 381.691 377.852 381.432 377.563 381.244" stroke="black" stroke-linecap="round" stroke-linejoin="round"/>
<path d="M47.3604 268.738C40.7224 283.823 36.1797 300.006 35.7854 316.483C35.6401 322.555 36.1339 328.9 39.2141 334.136C42.2943 339.372 48.5891 343.128 54.4603 341.578C60.3317 340.028 63.8561 331.876 59.8249 327.331C56.016 323.038 48.2411 324.77 45.1109 329.581C41.9807 334.391 42.6021 340.814 44.7734 346.127C46.9448 351.44 50.4719 356.078 53.116 361.172C55.7603 366.266 57.5213 372.253 55.7994 377.728C54.0775 383.203 47.7745 387.44 42.4698 385.25" stroke="black" stroke-linecap="round" stroke-linejoin="round"/>
<path d="M467.386 214.688L477.288 263.947C478.297 268.969 479.312 274.078 478.84 279.178C478.368 284.279 476.187 289.464 471.979 292.383C467.771 295.303 461.36 295.241 457.966 291.404C454.572 287.567 456.083 280.246 461.032 278.927C468.525 279.772 466.709 302.064 460.175 311.531C457.263 315.75 453.29 319.184 450.621 323.562C447.952 327.941 446.853 333.932 449.963 338.007C453.074 342.081 461.169 341.302 461.917 336.231" stroke="black" stroke-linecap="round" stroke-linejoin="round"/>
<path d="M112.882 145.609L102.996 135.752" stroke="black" stroke-linecap="round" stroke-linejoin="round"/>
<path d="M103.033 146.393L111.835 136.169" stroke="black" stroke-linecap="round" stroke-linejoin="round"/>
<path d="M134.974 127.969L142.213 119.413" stroke="black" stroke-linecap="round" stroke-linejoin="round"/>
<path d="M142.922 125.916L135.016 120.665" stroke="black" stroke-linecap="round" stroke-linejoin="round"/>
<path d="M203.498 127.229L189.667 113.419" stroke="black" stroke-linecap="round" stroke-linejoin="round"/>
<path d="M245.027 119.41L244.29 68.737" stroke="black" stroke-linecap="round" stroke-linejoin="round"/>
<path d="M287.598 121.376C288.571 116.135 291.095 111.307 294.843 107.518" stroke="black" stroke-linecap="round" stroke-linejoin="round"/>
<path d="M406.406 121.004L400.803 113.524" stroke="black" stroke-linecap="round" stroke-linejoin="round"/>
<path d="M398.862 120.052L406.102 114.788" stroke="black" stroke-linecap="round" stroke-linejoin="round"/>
<path d="M381.764 133.232L375.842 127.969" stroke="black" stroke-linecap="round" stroke-linejoin="round"/>
<path d="M381.106 127.969L374.525 133.891" stroke="black" stroke-linecap="round" stroke-linejoin="round"/>
<path d="M465.344 325.4L471.925 320.793" stroke="black" stroke-linecap="round" stroke-linejoin="round"/>
<path d="M469.951 326.716L466.66 320.135" stroke="black" stroke-linecap="round" stroke-linejoin="round"/>
<path d="M456.131 268.802L460.737 267.486" stroke="black" stroke-linecap="round" stroke-linejoin="round"/>
<path d="M458.872 271.413L457.529 264.838" stroke="black" stroke-linecap="round" stroke-linejoin="round"/>
<path d="M51.9519 312.797L56.5352 308.165" stroke="black" stroke-linecap="round" stroke-linejoin="round"/>
<path d="M56.0732 312.841L52.105 307.591" stroke="black" stroke-linecap="round" stroke-linejoin="round"/>
<path d="M42.1739 366.872C41.3856 366.377 40.4747 366.112 39.544 366.108C38.6133 366.104 37.7 366.36 36.9072 366.848" stroke="black" stroke-linecap="round" stroke-linejoin="round"/>
<path d="M39.3951 363.559L38.7842 372.118" stroke="black" stroke-linecap="round" stroke-linejoin="round"/>
<path d="M358.939 113.513L361.94 116.055C362.031 116.131 362.096 116.234 362.126 116.348C362.157 116.464 362.151 116.585 362.111 116.696C362.07 116.808 361.997 116.904 361.899 116.972C361.802 117.041 361.686 117.078 361.568 117.078L357.635 117.098C357.521 117.099 357.409 117.134 357.314 117.198C357.219 117.263 357.145 117.353 357.101 117.459L355.611 121.098C355.567 121.208 355.489 121.302 355.389 121.367C355.29 121.431 355.173 121.464 355.054 121.459C354.935 121.455 354.821 121.415 354.726 121.344C354.631 121.272 354.56 121.174 354.522 121.061L353.288 117.327C353.252 117.218 353.185 117.122 353.095 117.052C353.004 116.981 352.895 116.939 352.78 116.93L348.858 116.638C348.74 116.63 348.627 116.585 348.535 116.51C348.443 116.435 348.376 116.334 348.343 116.219C348.31 116.105 348.313 115.984 348.351 115.871C348.39 115.759 348.462 115.661 348.558 115.591L351.727 113.263C351.82 113.195 351.891 113.102 351.93 112.994C351.969 112.886 351.975 112.769 351.948 112.657L351.013 108.837C350.985 108.722 350.993 108.601 351.036 108.49C351.079 108.379 351.155 108.284 351.253 108.218C351.351 108.152 351.468 108.117 351.586 108.119C351.705 108.12 351.82 108.158 351.917 108.228L355.11 110.523C355.203 110.59 355.314 110.628 355.429 110.632C355.544 110.636 355.657 110.606 355.754 110.545L359.099 108.477C359.2 108.415 359.318 108.384 359.436 108.391C359.555 108.397 359.668 108.44 359.761 108.513C359.855 108.586 359.924 108.686 359.959 108.799C359.994 108.913 359.994 109.034 359.957 109.147L358.759 112.893C358.725 113.003 358.723 113.12 358.756 113.23C358.787 113.341 358.851 113.439 358.939 113.513Z" fill="black"/>
<path d="M32.7603 256.257L35.6071 259.583C35.693 259.684 35.746 259.808 35.759 259.94C35.7721 260.071 35.7446 260.203 35.6802 260.319C35.6158 260.434 35.5176 260.527 35.3989 260.585C35.2802 260.643 35.1465 260.663 35.016 260.643L30.6899 259.966C30.5637 259.946 30.4345 259.964 30.3185 260.018C30.2025 260.071 30.1051 260.158 30.0384 260.267L27.754 264.003C27.6852 264.116 27.5833 264.206 27.4621 264.259C27.3408 264.313 27.2061 264.327 27.0762 264.302C26.9462 264.276 26.8272 264.211 26.7353 264.116C26.6435 264.02 26.5831 263.899 26.5624 263.768L25.8692 259.445C25.849 259.319 25.792 259.202 25.7051 259.108C25.6182 259.014 25.5055 258.948 25.3811 258.919L21.1223 257.901C20.9937 257.87 20.8777 257.8 20.7899 257.702C20.702 257.603 20.6465 257.48 20.6308 257.348C20.6151 257.217 20.6399 257.084 20.702 256.968C20.764 256.851 20.8604 256.756 20.978 256.696L24.8759 254.701C24.9892 254.643 25.0828 254.553 25.145 254.441C25.2072 254.33 25.2351 254.203 25.2254 254.076L24.878 249.711C24.8674 249.579 24.8975 249.447 24.9642 249.333C25.0309 249.219 25.1309 249.128 25.2508 249.073C25.3707 249.017 25.5047 249 25.6348 249.023C25.765 249.046 25.8849 249.108 25.9785 249.202L29.0806 252.292C29.1712 252.382 29.2864 252.444 29.4119 252.468C29.5373 252.493 29.6672 252.48 29.7853 252.431L33.829 250.752C33.9511 250.701 34.0858 250.689 34.2149 250.717C34.344 250.745 34.4615 250.812 34.5513 250.909C34.6412 251.006 34.6992 251.128 34.7174 251.259C34.7357 251.39 34.7134 251.523 34.6535 251.641L32.6744 255.547C32.6174 255.661 32.5952 255.789 32.6105 255.915C32.6258 256.041 32.6778 256.16 32.7603 256.257Z" fill="black"/>
<path d="M124.916 302.56C125.729 306.705 129.674 309.659 133.789 310.609C137.905 311.559 142.201 310.903 146.374 310.244L164.883 307.321C168.112 306.811 171.427 306.272 174.248 304.619C177.069 302.966 179.322 299.922 179.063 296.663" stroke="black" stroke-linecap="round" stroke-linejoin="round"/>
<path d="M172.336 305L172.066 297.435" stroke="black" stroke-linecap="round" stroke-linejoin="round"/>
<path d="M163.649 307.135L163.318 301.213" stroke="black" stroke-linecap="round" stroke-linejoin="round"/>
<path d="M155.043 308.125L154.904 302.699" stroke="black" stroke-linecap="round" stroke-linejoin="round"/>
<path d="M144.371 309.938L144.171 299.57" stroke="black" stroke-linecap="round" stroke-linejoin="round"/>
<path d="M134.151 310.264L134.161 310.896C133.761 305.243 134.159 299.563 135.343 294.021" stroke="black" stroke-linecap="round" stroke-linejoin="round"/>
<path d="M126.562 305.357C126.608 305.39 126.645 305.432 126.67 305.482C126.696 305.531 126.709 305.586 126.71 305.642C126.71 305.697 126.698 305.753 126.673 305.803C126.648 305.853 126.612 305.896 126.568 305.93C126.76 300.604 128.646 295.478 131.953 291.299" stroke="black" stroke-linecap="round" stroke-linejoin="round"/>
<path d="M284.491 327.019C288.07 330.72 293.938 331.314 298.909 329.973C303.879 328.632 308.232 325.688 312.656 323.056C317.081 320.424 321.883 318.008 327.031 317.921C332.448 317.829 337.604 320.354 341.946 323.593C346.287 326.833 350.025 330.808 354.216 334.242C361.195 339.961 370.37 344.26 379.104 341.991C385.421 340.348 390.361 335.603 395.495 331.574C400.628 327.545 406.947 323.935 413.352 325.192" stroke="black" stroke-linecap="round" stroke-linejoin="round"/>
<path d="M283.093 345.665C286.671 349.367 292.54 349.96 297.51 348.619C302.481 347.279 306.833 344.334 311.258 341.702C315.682 339.07 320.485 336.654 325.633 336.567C331.049 336.476 336.206 339 340.547 342.24C344.888 345.479 348.627 349.455 352.817 352.889C359.797 358.608 368.972 362.907 377.706 360.637C384.023 358.995 388.963 354.249 394.096 350.22C399.229 346.191 405.549 342.582 411.954 343.839" stroke="black" stroke-linecap="round" stroke-linejoin="round"/>
<path d="M209.353 320.474L212.641 316.195" stroke="black" stroke-linecap="round" stroke-linejoin="round"/>
<path d="M169.535 364.864L165.924 363.197" stroke="black" stroke-linecap="round" stroke-linejoin="round"/>
<path d="M148.136 337.246L151.153 332.932C151.209 332.971 151.252 333.024 151.28 333.087C151.307 333.149 151.317 333.218 151.308 333.285C151.299 333.353 151.272 333.417 151.229 333.47C151.187 333.523 151.131 333.564 151.067 333.587" stroke="black" stroke-linecap="round" stroke-linejoin="round"/>
<path d="M129.38 362.583L125.76 359.951" stroke="black" stroke-linecap="round" stroke-linejoin="round"/>
<path d="M110.625 329.02C111.376 327.175 112.63 325.579 114.244 324.413" stroke="black" stroke-linecap="round" stroke-linejoin="round"/>
<path d="M220.869 359.257L215.942 357.588" stroke="black" stroke-linecap="round" stroke-linejoin="round"/>
<path d="M144.844 381.01L147.477 376.074" stroke="black" stroke-linecap="round" stroke-linejoin="round"/>
<path fill-rule="evenodd" clip-rule="evenodd" d="M319.266 211.926C317.941 213.41 317.062 215.237 316.73 217.199C316.459 219.17 316.75 221.177 317.569 222.989C318.388 224.802 319.702 226.346 321.361 227.444C319.514 228.622 318.14 230.41 317.477 232.497C316.814 234.584 316.905 236.837 317.734 238.865C318.562 240.891 320.075 242.564 322.01 243.589C323.945 244.614 326.178 244.928 328.321 244.476L328.512 244.396C328.173 243.569 327.864 242.735 327.584 241.896C325.012 234.078 324.15 225.797 325.058 217.616C325.965 209.434 328.621 201.544 332.845 194.479L332.989 194.423C335.008 199.668 337.884 204.54 341.501 208.841C344.643 212.597 348.318 215.873 352.409 218.565C358.365 222.447 365.071 225.034 372.09 226.159C369.373 242.129 368.655 258.376 369.951 274.523L369.927 275.106C370.345 275.125 370.765 275.142 371.186 275.16C371.598 275.177 372.011 275.195 372.422 275.213C372.687 275.228 372.958 275.241 373.233 275.255C375.675 275.409 378.281 275.861 379.665 277.819C380.38 278.834 380.618 280.064 380.857 281.299C381.049 282.293 381.241 283.291 381.684 284.186C382.924 286.691 385.782 287.861 388.406 288.822C391.977 290.132 395.72 291.521 399.487 292.924L399.622 292.559C398.056 275.374 397.729 258.099 398.643 240.867C398.72 239.429 398.804 237.991 398.89 236.552C399.319 229.303 399.748 222.042 399.072 214.822C398.261 206.17 395.744 197.444 390.303 190.666C385.546 184.732 378.824 180.639 371.762 177.814C364.149 174.765 355.851 173.059 347.708 174.071C339.564 175.082 331.613 179.007 326.721 185.594C321.829 192.181 320.459 201.522 324.221 208.814C322.309 209.364 320.591 210.442 319.266 211.926ZM367.628 179.993C367.25 179.913 366.879 180.154 366.799 180.532C366.719 180.91 366.96 181.281 367.338 181.361C375.113 183.01 382.063 187.336 386.976 193.585C391.89 199.833 394.454 207.607 394.223 215.553C394.212 215.939 394.516 216.26 394.902 216.272C395.288 216.283 395.61 215.979 395.621 215.593C395.862 207.321 393.191 199.226 388.076 192.72C382.96 186.215 375.724 181.71 367.628 179.993Z" fill="black"/>
<path fill-rule="evenodd" clip-rule="evenodd" d="M308.177 231.374C305.562 225.802 303.684 219.912 302.591 213.854C307.5 207.978 310.358 200.906 310.361 193.304C310.361 183.197 305.308 174.032 297.112 167.357C288.726 160.509 277.048 156.267 264.132 156.267C238.595 156.267 217.898 172.849 217.898 193.304C217.898 213.758 238.595 230.34 264.132 230.34C274.862 230.34 284.745 227.408 292.59 222.494C293.327 222.033 294.04 221.557 294.739 221.059C299.219 224.496 303.698 227.934 308.177 231.374ZM247.683 189.998C248.442 188.277 251.15 187.889 252.362 189.329L252.682 189.796C253.577 191.451 252.223 193.828 250.344 193.905C248.464 193.982 246.923 191.72 247.683 189.998ZM266.348 189.329C265.136 187.889 262.427 188.277 261.668 189.998C260.909 191.72 262.449 193.982 264.329 193.905C266.208 193.828 267.562 191.451 266.667 189.796L266.348 189.329ZM275.652 189.998C276.411 188.277 279.12 187.889 280.332 189.329L280.65 189.796C281.546 191.451 280.193 193.828 278.313 193.905C276.433 193.982 274.892 191.72 275.652 189.998Z" fill="black"/>
<g opacity="0.1">
<path d="M128.257 220.249C126.264 222.489 126.234 225.818 126.093 228.687C125.943 232.046 126.069 235.413 126.468 238.753C126.819 241.91 127.337 245.048 128.02 248.152C128.705 251.224 128.947 255.079 132.299 256.231C133.454 256.627 134.543 255.938 135.194 255.053C136.946 252.669 135.142 249.424 134.528 246.855C133.804 243.871 133.261 240.847 132.903 237.798C132.577 234.937 132.374 232.044 132.244 229.167C132.118 226.383 132.54 223.05 131.017 220.604C130.45 219.693 129.033 219.375 128.257 220.248V220.249Z" fill="black"/>
</g>
<g opacity="0.1">
<path d="M132.421 289.948C128.505 287.488 125.216 292.063 124.327 295.392C123.708 297.709 123.919 300.12 123.589 302.471C123.272 304.726 121.652 305.407 119.645 305.97C114.749 307.342 110.01 308.422 105.379 310.618C103.111 311.692 100.928 312.94 98.8503 314.348C96.3977 316.015 93.5789 317.598 93.5899 320.886C93.5946 322.29 94.6607 324 96.1529 324.253C99.2326 324.774 100.692 323.124 103.012 321.468C105.055 320.009 107.207 318.709 109.449 317.581C113.844 315.367 118.579 314.669 123.116 312.935C127.852 311.125 130.676 307.686 131.047 302.562C131.2 300.455 130.517 298.266 131.012 296.194C131.238 295.447 131.567 294.734 131.988 294.078C132.304 293.489 132.663 292.923 133.06 292.386C133.291 291.976 133.353 291.492 133.234 291.037C133.115 290.582 132.823 290.192 132.421 289.948Z" fill="black"/>
</g>
<g opacity="0.1">
<path d="M334.144 196.823C331.222 198.717 329.782 202.274 328.207 205.29C326.6 208.364 325.489 211.671 324.914 215.092C323.677 222.223 324.139 229.546 326.261 236.466C328.384 243.386 332.108 249.709 337.132 254.92C341.692 259.651 349.003 264.104 346.458 271.616C345.242 275.205 350.49 277.14 352.393 274.116C356.216 268.046 352.4 260.563 348.103 255.946C345.591 253.248 342.746 250.888 340.416 248.018C338.281 245.367 336.47 242.473 335.019 239.395C332.038 233.185 330.65 226.331 330.981 219.451C331.162 215.902 331.899 212.482 332.606 209.016C332.962 207.051 333.531 205.13 334.302 203.287C335.068 201.554 335.864 200.254 336.153 198.364C336.316 197.287 335.247 196.105 334.144 196.819V196.823Z" fill="black"/>
</g>
<g opacity="0.1">
<path d="M330.551 274.498C328.906 277.929 326.867 280.105 323.083 281.092C319.216 282.099 315.142 282.149 311.229 282.974C303.209 284.636 295.594 287.857 288.815 292.454C284.676 295.318 288.509 302.102 292.807 299.284C300.398 294.195 309.015 290.837 318.047 289.445C322.318 288.788 326.729 288.215 330.355 285.666C333.584 283.394 336.371 279.048 334.791 275.052C334.136 273.397 331.504 272.512 330.551 274.498Z" fill="black"/>
</g>
</g>
</svg>
