<svg width="500" height="500" viewBox="0 0 500 500" fill="none" xmlns="http://www.w3.org/2000/svg">
<path d="M478.179 336.81L167.544 419.364L164.791 383.985L164.765 383.784L478.179 336.81Z" fill="black"/>
<path d="M477.448 336.691L365.282 331.847C365.316 327.503 365.356 323.026 365.429 318.455L477.448 336.691Z" fill="black"/>
<path d="M300.333 276.198C302.017 268.713 303.634 260.99 304.187 254.124C296.962 257.84 290.066 262.492 285.489 269.101C285.097 269.834 284.752 270.591 284.454 271.366C280.43 281.805 286.812 291.97 295.761 298.258L295.941 297.998C296.671 291.908 298.542 284.189 300.333 276.198ZM365.912 299.394C365.671 305.853 365.524 312.239 365.431 318.457C365.357 323.028 365.317 327.505 365.284 331.849L332.845 330.446C330.894 328.494 326.182 325.741 318.317 322.593L318.337 322.546C347.113 329.624 338.754 318.664 317.702 317.681C321.785 316.413 325.355 313.87 327.886 310.424C322.901 307.537 316.994 310.893 312.462 313.271L312.442 313.264C310.631 319.125 308.112 325.494 304.156 330.406C302.28 332.799 299.953 334.802 297.306 336.3C293.236 337.877 288.66 336.34 284.702 334.489C280.584 332.627 276.658 330.366 272.98 327.739C258.953 317.721 248.553 302.371 247.912 284.862C247.6 263.583 259.086 241.055 277.972 230.817C279.482 230.076 281.012 229.401 282.57 228.779C295.441 223.613 309.696 222.223 323.222 219.49L323.302 219.449C323.69 220.193 324.293 220.802 325.032 221.196C325.771 221.591 326.612 221.753 327.445 221.661C338.122 222.731 349.031 223.62 359.717 222.43C360.359 222.194 360.9 221.743 361.247 221.154C386.877 228.405 415.706 212.433 423.111 186.817C428.711 172.817 422.155 154.859 431.104 146.385C433.877 143.759 438.128 142.048 444.683 141.641C447.569 141.047 450.539 140.991 453.445 141.473C459.799 142.577 465.227 146.506 465.34 154.011C473.226 208.797 422.062 254.194 369.594 255.537C367.516 269.74 366.467 284.744 365.912 299.393V299.394Z" fill="black"/>
<path d="M367.597 152.997L367.637 153.031C376.552 144.985 385.587 146.301 373.277 156.559C384.892 147.979 392.652 165.608 365.772 164.659C363.854 164.592 361.762 164.432 359.484 164.158C352.594 164.091 345.343 161.939 338.586 163.423C334.216 165.241 333.441 171.001 333.326 175.733C333.274 178.092 333.192 180.504 333.112 182.957L332.979 182.95C327.145 188.871 324.036 178.011 326.042 172.384L325.914 172.351C315.115 176.541 317.22 166.651 324.163 163.509C320.466 162.106 316.124 157.929 322.433 156.332C326.563 156.827 330.492 157.154 334.301 154.929C340.074 152.638 346.383 152.054 352.479 153.245C354.657 153.672 356.963 154.314 359.028 153.505C363.138 151.628 365.069 146.943 368.577 144.403C374.119 143.675 370.557 149.242 367.597 152.997Z" fill="black"/>
<path d="M374.093 60.6802C374.915 62.3307 375.27 64.1755 375.118 66.013C374.966 67.851 374.313 69.612 373.231 71.1052C371.292 73.6917 368.171 75.1885 364.997 75.8031C361.823 76.4177 358.562 76.2443 355.334 76.0708C351.204 75.8432 347.08 75.6229 342.957 75.3755C335.693 74.9411 328.448 74.1995 321.191 73.7318C316.451 73.4245 310.919 72.963 309.636 67.2495C309.102 64.8703 309.709 62.3708 310.678 60.1385C312.985 54.8922 317.206 50.722 322.48 48.4772C325.246 47.3142 328.474 46.7329 331.23 47.936C333.248 48.9162 334.871 50.5574 335.828 52.587C336.765 54.6083 337.436 56.7422 337.826 58.9359C337.892 55.5542 338.694 52.1057 340.666 49.3595C342.637 46.6131 345.892 44.6746 349.267 44.835C352.822 45.0022 356.063 47.548 357.38 50.8496C357.938 52.3495 358.181 53.9474 358.096 55.5453C358.011 57.1432 357.599 58.7068 356.885 60.1385C356.689 60.4464 356.514 60.7677 356.365 61.101C356.552 60.7885 356.725 60.4677 356.885 60.1385C357.786 58.6318 359.075 57.3927 360.615 56.5505C362.156 55.7083 363.894 55.2932 365.649 55.3484C367.404 55.4042 369.113 55.9276 370.597 56.8646C372.082 57.8021 373.289 59.1193 374.094 60.6802H374.093Z" fill="black" fill-opacity="0.15"/>
<path d="M350.622 210.597C351.224 210.631 351.825 210.657 352.427 210.684C355.327 211.165 360.486 210.336 361.796 213.484C361.97 215.616 362.505 219.145 361.248 221.149C360.9 221.739 360.36 222.19 359.718 222.426C349.032 223.616 338.125 222.727 327.446 221.657C326.612 221.749 325.771 221.587 325.032 221.192C324.293 220.797 323.69 220.189 323.303 219.445C321.886 216.886 322.394 212.769 324.225 210.678C325.561 209.501 327.533 209.521 329.31 209.608C330.259 209.655 331.208 209.695 332.157 209.742C338.312 210.023 344.467 210.308 350.622 210.597Z" fill="black" fill-opacity="0.15"/>
<path d="M261.071 136.19C264.54 136.173 267.937 137.169 270.848 139.055C276.188 142.637 278.728 149.1 280.545 155.268C287.557 179.183 288.255 204.508 282.57 228.773C281.013 229.394 279.483 230.07 277.972 230.811C259.086 241.049 247.599 263.577 247.913 284.856C248.555 302.365 258.955 317.715 272.98 327.733L272.9 327.847L200.973 323.696C200.345 317.762 199.719 311.832 199.095 305.907C198.968 304.697 198.841 303.481 198.714 302.271C193.17 302.779 187.588 302.705 182.06 302.051C178.91 301.687 175.782 301.152 172.691 300.447C167.761 299.317 162.925 297.815 158.222 295.956C151.527 293.301 145.073 290.071 138.935 286.303C131.731 281.919 124.72 276.699 120.45 269.435C124.934 266.107 129.218 262.478 134.163 259.903C141.795 255.968 150.546 254.77 158.955 256.508C167.777 258.359 175.923 263.405 184.932 263.659C187.173 263.727 189.409 263.394 191.534 262.677C191.326 263.893 191.982 265.069 192.637 266.118C194.001 268.463 195.668 270.618 197.596 272.528C199.889 274.537 202.497 276.159 205.315 277.326C208.015 278.607 210.898 279.459 213.862 279.852C216.843 280.232 219.868 279.674 222.516 278.254C225.704 276.423 227.862 273.102 228.852 269.56C229.841 266.018 229.747 262.262 229.24 258.62C228.728 255.004 227.811 251.458 226.506 248.047L226.454 247.9C227.478 247.51 228.465 247.027 229.401 246.457C232.19 244.712 234.376 242.154 235.663 239.126L235.957 239.253C239.065 238.203 241.25 235.423 242.887 232.583C249.55 221.02 249.971 206.974 249.383 193.648C249.156 188.489 248.795 183.296 247.456 178.305C244.944 168.902 238.996 160.314 238.729 150.584C238.617 148.847 238.888 147.106 239.524 145.485C239.816 144.817 240.198 144.192 240.66 143.627C242.364 141.468 245.05 140.066 247.67 139.003C251.869 137.292 256.574 136.096 261.071 136.19Z" fill="black" fill-opacity="0.15"/>
<path d="M229.241 258.62C229.749 262.262 229.835 266.025 228.853 269.56C227.871 273.096 225.706 276.424 222.518 278.255C219.869 279.674 216.844 280.233 213.863 279.852C210.9 279.459 208.017 278.607 205.316 277.326C202.498 276.159 199.891 274.538 197.597 272.528C195.67 270.618 194.003 268.464 192.638 266.119C191.984 265.07 191.329 263.893 191.536 262.677C193.065 262.166 194.493 261.39 195.755 260.385C197.768 264.231 200.719 267.507 204.335 269.908C206.642 271.529 209.319 272.543 212.121 272.856C214.914 273.076 217.868 272.261 219.866 270.296C221.711 268.478 222.58 265.879 222.967 263.317C223.669 258.686 222.96 253.954 221.992 249.37L221.964 249.243C222.626 249.096 223.288 248.93 223.944 248.742C224.795 248.504 225.634 248.223 226.457 247.899L226.509 248.047C227.813 251.457 228.73 255.004 229.241 258.62Z" fill="black" fill-opacity="0.15"/>
<path d="M217.799 249.919C216.521 250.052 215.235 250.115 213.95 250.107V250.067C212.533 248.095 212.346 245.462 212.787 243.069C213.228 240.677 214.25 238.445 215.079 236.159C217.411 229.724 218.256 222.606 216.502 215.984C214.885 209.876 210.882 204.276 205.308 201.375L205.295 201.395C204.366 205.672 200.323 208.579 196.226 210.116C193.535 211.19 190.636 211.64 187.746 211.433L187.725 211.641C187.814 213.527 187.497 215.41 186.795 217.162C186.093 218.915 185.022 220.495 183.656 221.797C188.34 227.801 192.483 234.208 196.033 240.944C198.645 245.896 200.944 251.87 198.519 256.916C198.458 257.036 198.398 257.156 198.338 257.27C197.692 258.47 196.813 259.529 195.752 260.384C194.49 261.39 193.063 262.165 191.533 262.676C189.408 263.394 187.172 263.726 184.931 263.658C175.92 263.404 167.775 258.359 158.954 256.508C150.545 254.769 141.794 255.968 134.162 259.903C129.217 262.476 124.933 266.104 120.449 269.434C119.025 270.49 117.584 271.512 116.085 272.461C106.817 278.329 95.9582 281.18 85.003 280.621C78.841 280.294 72.666 278.851 67.2999 275.809C61.9337 272.768 54.7962 262.831 52.5603 257.077C54.8666 259.759 57.7332 261.903 60.9572 263.358C64.1817 264.813 67.6858 265.543 71.2228 265.498C74.7598 265.453 78.2436 264.633 81.4296 263.096C84.616 261.559 87.4264 259.343 89.6634 256.603C92.8577 252.693 94.7494 247.889 97.6426 243.752C99.2113 241.518 101.064 239.498 103.156 237.744C106.994 234.505 111.541 232.215 116.429 231.061C123.211 229.484 130.283 230.179 137.246 230.005C144.209 229.831 151.587 228.588 156.773 223.944C162.079 219.192 164.057 211.881 166.564 205.211C169.492 197.419 173.782 189.647 180.913 185.343C188.044 181.04 198.556 181.527 203.481 188.25L203.568 188.544C205.613 187.428 207.531 185.844 209.661 184.869C214.28 182.764 219.96 183.699 224.11 186.626C228.26 189.553 230.953 194.238 232.156 199.17C233.8 205.899 232.677 213.378 228.755 219.038L228.935 219.158C231.313 220.541 233.3 222.507 234.706 224.872C236.111 227.237 236.89 229.922 236.968 232.671C236.996 234.892 236.552 237.092 235.666 239.127C234.378 242.156 232.191 244.715 229.4 246.458C228.464 247.029 227.478 247.511 226.454 247.902C225.631 248.226 224.792 248.507 223.94 248.744C223.286 248.931 222.624 249.098 221.961 249.245C220.589 249.554 219.199 249.779 217.799 249.919Z" fill="black"/>
<path d="M199.094 305.909C199.715 311.837 200.341 317.767 200.972 323.699L160.901 321.393L151.506 300.723L181.846 304.031L199.094 305.909Z" fill="black"/>
<path d="M116.427 231.06C111.539 232.215 106.992 234.504 103.155 237.743L103.027 237.59C102.98 237.605 102.928 237.605 102.88 237.59C102.832 237.574 102.79 237.544 102.76 237.503C101.425 235.235 100.466 232.766 99.9202 230.192C99.3811 228.292 99.1874 226.312 99.3473 224.344C99.6921 222.224 100.477 220.201 101.653 218.403C102.484 217.016 103.416 215.692 104.44 214.44C107.715 210.404 111.856 207.156 116.556 204.937C117.425 204.519 118.323 204.164 119.243 203.874V203.868C119.931 203.649 120.638 203.49 121.354 203.393C122.448 203.174 123.585 203.357 124.556 203.908C125.852 204.777 126.239 206.481 126.527 208.018C127.322 212.208 128.184 216.418 129.855 220.341C131.526 224.264 133.671 227.672 137.246 230.004C130.281 230.178 123.21 229.483 116.427 231.06Z" fill="black" fill-opacity="0.15"/>
<path d="M373.217 156.615C372.566 157.098 371.947 157.625 371.366 158.192" stroke="black" stroke-linecap="round" stroke-linejoin="round"/>
<path d="M332.178 209.288C332.386 200.88 332.813 191.698 333.115 182.957C333.195 180.504 333.276 178.092 333.329 175.733C333.443 171.001 334.218 165.241 338.59 163.423C345.346 161.939 352.597 164.091 359.487 164.158C361.766 164.432 363.857 164.592 365.776 164.659C392.654 165.608 384.895 147.979 373.28 156.559" stroke="black" stroke-linecap="round" stroke-linejoin="round"/>
<path d="M332.979 182.951C327.146 188.872 324.037 178.012 326.043 172.385C326.358 171.316 327.033 170.388 327.954 169.759" stroke="black" stroke-linecap="round" stroke-linejoin="round"/>
<path d="M325.916 172.351C315.116 176.541 317.221 166.651 324.165 163.509C325.113 163.08 326.119 162.797 327.152 162.668" stroke="black" stroke-linecap="round" stroke-linejoin="round"/>
<path d="M324.298 163.564C324.253 163.549 324.208 163.532 324.164 163.511C320.467 162.108 316.125 157.931 322.434 156.334C326.563 156.828 330.493 157.156 334.303 154.93C340.075 152.639 346.384 152.055 352.48 153.246C354.658 153.674 356.963 154.316 359.029 153.507C363.138 151.629 365.07 146.944 368.579 144.405C374.119 143.676 370.558 149.243 367.596 152.998C366.58 154.295 365.625 155.378 365.148 155.906" stroke="black" stroke-linecap="round" stroke-linejoin="round"/>
<path d="M373.217 156.615C373.237 156.594 373.257 156.581 373.277 156.563C385.587 146.302 376.552 144.988 367.637 153.034" stroke="black" stroke-linecap="round" stroke-linejoin="round"/>
<path d="M350.642 210.838L350.622 210.597C350.034 203.514 352.293 200.62 359.116 199.022C364.503 192.493 364.481 173.687 365.772 164.659L365.792 164.499" stroke="black" stroke-linecap="round" stroke-linejoin="round"/>
<path d="M359.778 168.876C341.066 164.038 351.861 174.59 352.367 186.806C352.407 188.23 349.86 187.628 348.871 188.103" stroke="black" stroke-linecap="round" stroke-linejoin="round"/>
<path d="M345.009 173.107C343.351 171.737 340.912 172.519 339.535 173.935" stroke="black" stroke-linecap="round" stroke-linejoin="round"/>
<path d="M358.863 174.523C358.655 174.127 358.365 173.778 358.013 173.502C357.66 173.226 357.252 173.028 356.817 172.922C356.382 172.816 355.929 172.804 355.489 172.886C355.049 172.969 354.631 173.144 354.265 173.401" stroke="black" stroke-linecap="round" stroke-linejoin="round"/>
<path d="M345.456 195.855C342.542 197.417 340.177 194.11 339.261 191.691" stroke="black" stroke-linecap="round" stroke-linejoin="round"/>
<path d="M361.251 221.149C362.507 219.145 361.972 215.616 361.798 213.484C360.489 210.336 355.33 211.165 352.43 210.684C351.828 210.657 351.227 210.632 350.625 210.597C344.47 210.31 338.315 210.025 332.16 209.742C331.211 209.695 330.263 209.655 329.314 209.608C327.536 209.521 325.564 209.501 324.228 210.678C322.397 212.769 321.889 216.886 323.306 219.445C323.693 220.189 324.296 220.797 325.035 221.192C325.775 221.587 326.616 221.749 327.449 221.657C338.126 222.727 349.034 223.616 359.72 222.426C360.363 222.19 360.904 221.739 361.251 221.149Z" stroke="black" stroke-linecap="round" stroke-linejoin="round"/>
<path d="M360.991 221.076C361.078 221.103 361.164 221.123 361.251 221.149C386.88 228.401 415.71 212.429 423.115 186.813C428.715 172.812 422.159 154.855 431.107 146.381C433.881 143.755 438.131 142.044 444.687 141.636C447.573 141.044 450.542 140.987 453.449 141.469C459.803 142.572 465.23 146.502 465.344 154.007C473.23 208.793 422.066 254.19 369.598 255.533C369.025 255.546 368.449 255.553 367.874 255.56" stroke="black" stroke-linecap="round" stroke-linejoin="round"/>
<path d="M431.023 146.294C427.569 142.659 422.938 139.238 421.066 134.533C421.246 131.452 425.711 132.875 427.535 133.699C430.282 134.668 432.46 137.081 434.699 138.538C434.759 138.578 434.826 138.618 434.886 138.658" stroke="black" stroke-linecap="round" stroke-linejoin="round"/>
<path d="M453.445 141.458C454.207 133.526 455.409 124.971 452.369 117.44C446.033 110.677 447.811 131.741 447.149 134.735" stroke="black" stroke-linecap="round" stroke-linejoin="round"/>
<path d="M434.72 138.79C434.713 138.709 434.713 138.622 434.7 138.535C434.339 132.955 429.407 118.501 432.568 114.965C439.578 117.934 439.157 128.197 440.328 134.72V134.733" stroke="black" stroke-linecap="round" stroke-linejoin="round"/>
<path d="M447.096 134.733C446.461 129.774 446.381 114.484 439.919 114.41C437.907 120.772 439.867 128.05 440.333 134.72C440.353 135.02 440.373 135.321 440.385 135.615" stroke="black" stroke-linecap="round" stroke-linejoin="round"/>
<path d="M323.222 219.485C309.696 222.219 295.442 223.609 282.57 228.775C281.013 229.396 279.483 230.071 277.972 230.813C259.086 241.051 247.599 263.579 247.913 284.858C248.554 302.367 258.955 317.717 272.98 327.735C276.658 330.362 280.584 332.623 284.702 334.485C288.66 336.336 293.236 337.87 297.306 336.296C299.953 334.797 302.28 332.795 304.156 330.402C308.115 325.49 310.631 319.121 312.442 313.26C312.549 312.919 312.657 312.578 312.755 312.237C314.52 307.727 310.971 304.713 306.766 303.61C302.827 302.444 299.107 300.635 295.759 298.257C286.81 291.968 280.428 281.804 284.451 271.365C284.749 270.589 285.095 269.832 285.486 269.099C290.065 262.49 296.961 257.839 304.185 254.123C306.805 252.773 309.471 251.543 312.084 250.394" stroke="black" stroke-linecap="round" stroke-linejoin="round"/>
<path d="M304.203 253.936C304.196 253.996 304.196 254.064 304.189 254.123C303.634 260.987 302.017 268.712 300.335 276.197C298.544 284.19 296.673 291.908 295.944 297.997" stroke="black" stroke-linecap="round" stroke-linejoin="round"/>
<path d="M369.629 255.312C369.615 255.386 369.608 255.459 369.595 255.533C367.517 269.741 366.47 284.744 365.913 299.393C365.672 305.851 365.525 312.238 365.432 318.455C365.358 323.026 365.318 327.504 365.284 331.847V332.008" stroke="black" stroke-linecap="round" stroke-linejoin="round"/>
<path d="M312.464 313.267C316.995 310.888 322.902 307.533 327.888 310.42C325.356 313.866 321.787 316.409 317.703 317.678C317.382 317.778 317.055 317.871 316.727 317.952C316.936 317.888 317.133 317.788 317.308 317.658C317.396 317.605 317.477 317.542 317.549 317.47" stroke="black" stroke-linecap="round" stroke-linejoin="round"/>
<path d="M315.704 329.56C315.536 329.486 315.403 329.427 315.302 329.393" stroke="black" stroke-linecap="round" stroke-linejoin="round"/>
<path d="M304.11 330.361C304.123 330.375 304.143 330.388 304.157 330.402C311.032 336.149 319.287 342.438 328.743 341.067C334.484 339.831 319.04 331.096 315.731 329.573" stroke="black" stroke-linecap="round" stroke-linejoin="round"/>
<path d="M316.766 317.637L317.307 317.657L317.702 317.677C338.753 318.66 347.113 329.62 318.336 322.543" stroke="black" stroke-linecap="round" stroke-linejoin="round"/>
<path d="M315.029 329.306C315.256 329.392 315.477 329.479 315.706 329.559C315.713 329.566 315.719 329.566 315.732 329.573C329.973 334.953 336.644 334.224 332.848 330.442C330.896 328.49 326.184 325.737 318.319 322.589H318.312" stroke="black" stroke-linecap="round" stroke-linejoin="round"/>
<path d="M235.957 239.254C239.064 238.205 241.249 235.425 242.887 232.584C249.549 221.022 249.97 206.976 249.383 193.65C249.155 188.491 248.794 183.298 247.456 178.306C244.943 168.903 238.995 160.316 238.728 150.585C238.617 148.848 238.888 147.107 239.523 145.486C239.816 144.818 240.198 144.193 240.659 143.629C242.364 141.47 245.05 140.067 247.67 139.004C251.867 137.293 256.571 136.097 261.069 136.192C264.537 136.174 267.935 137.17 270.846 139.056C276.185 142.639 278.725 149.101 280.543 155.269C287.555 179.184 288.253 204.508 282.568 228.774C282.516 229.034 282.447 229.295 282.388 229.555" stroke="black" stroke-linecap="round" stroke-linejoin="round"/>
<path d="M213.951 250.067C212.534 248.095 212.346 245.462 212.788 243.069C213.229 240.677 214.251 238.445 215.079 236.159C217.411 229.724 218.256 222.606 216.503 215.984C214.885 209.876 210.882 204.276 205.309 201.375C204.84 201.128 204.367 200.906 203.879 200.698" stroke="black" stroke-linecap="round" stroke-linejoin="round"/>
<path d="M227.102 221.143C227.701 220.48 228.253 219.777 228.753 219.038C232.676 213.378 233.798 205.899 232.155 199.17C230.951 194.238 228.251 189.553 224.108 186.626C219.965 183.698 214.278 182.763 209.66 184.868C207.528 185.844 205.61 187.428 203.566 188.544C202.367 189.243 201.032 189.677 199.65 189.814" stroke="black" stroke-linecap="round" stroke-linejoin="round"/>
<path d="M213.75 250.107H213.951C215.236 250.115 216.521 250.052 217.8 249.919C219.201 249.778 220.591 249.552 221.963 249.242C222.625 249.095 223.286 248.93 223.942 248.741C224.794 248.504 225.633 248.223 226.455 247.899C227.48 247.509 228.466 247.026 229.402 246.456C232.192 244.711 234.378 242.153 235.664 239.124C236.551 237.089 236.995 234.889 236.966 232.669C236.889 229.919 236.11 227.234 234.704 224.87C233.298 222.505 231.312 220.538 228.933 219.156" stroke="black" stroke-linecap="round" stroke-linejoin="round"/>
<path d="M184.532 210.691C185.566 211.08 186.646 211.329 187.746 211.433C190.636 211.64 193.536 211.19 196.227 210.116C200.323 208.579 204.367 205.672 205.296 201.395" stroke="black" stroke-linecap="round" stroke-linejoin="round"/>
<path d="M181.231 223.609C182.111 223.109 182.927 222.501 183.656 221.798C185.023 220.496 186.093 218.915 186.795 217.162C187.497 215.41 187.815 213.528 187.726 211.642" stroke="black" stroke-linecap="round" stroke-linejoin="round"/>
<path d="M52.5583 257.077C54.8651 259.759 57.7313 261.903 60.9552 263.357C64.1797 264.812 67.6839 265.543 71.2208 265.497C74.7578 265.453 78.2417 264.632 81.4276 263.096C84.6141 261.559 87.4245 259.342 89.6615 256.602C92.8557 252.693 94.7474 247.889 97.6406 243.752C99.2094 241.518 101.063 239.498 103.154 237.743C106.992 234.504 111.539 232.215 116.427 231.06C123.209 229.483 130.281 230.178 137.244 230.004C144.207 229.83 151.585 228.588 156.771 223.943C162.077 219.192 164.055 211.88 166.563 205.211C169.49 197.419 173.78 189.646 180.911 185.343C188.042 181.039 198.554 181.527 203.479 188.249" stroke="black" stroke-linecap="round" stroke-linejoin="round"/>
<path d="M183.597 221.719L183.657 221.799C188.342 227.802 192.484 234.209 196.034 240.945C198.646 245.897 200.945 251.872 198.52 256.917C198.459 257.037 198.4 257.158 198.339 257.272C197.693 258.472 196.814 259.531 195.753 260.386C194.492 261.391 193.064 262.167 191.534 262.678C189.409 263.395 187.173 263.728 184.932 263.66C175.921 263.406 167.777 258.36 158.955 256.509C150.546 254.771 141.795 255.969 134.164 259.904C129.218 262.477 124.934 266.106 120.45 269.435C119.027 270.492 117.585 271.514 116.086 272.463C106.818 278.331 95.9594 281.182 85.0042 280.623C78.8422 280.295 72.6673 278.852 67.3011 275.811C61.935 272.77 54.7975 262.833 52.5615 257.079" stroke="black" stroke-linecap="round" stroke-linejoin="round"/>
<path d="M137.244 230.004C133.669 227.672 131.53 224.27 129.853 220.341C128.176 216.412 127.32 212.208 126.525 208.018C126.237 206.481 125.848 204.777 124.553 203.908C123.583 203.357 122.446 203.174 121.352 203.393C120.636 203.49 119.93 203.649 119.241 203.868V203.874C118.321 204.164 117.423 204.519 116.554 204.937C111.854 207.156 107.713 210.404 104.438 214.44C103.414 215.692 102.483 217.016 101.651 218.403C100.476 220.201 99.6901 222.224 99.3453 224.344C99.1849 226.312 99.3792 228.293 99.9182 230.192C100.464 232.766 101.423 235.235 102.758 237.503C102.788 237.544 102.83 237.574 102.878 237.59C102.926 237.606 102.978 237.606 103.026 237.59C103.046 237.583 103.053 237.556 103.039 237.523" stroke="black" stroke-linecap="round" stroke-linejoin="round"/>
<path d="M120.423 269.393C120.43 269.408 120.439 269.422 120.45 269.433C124.721 276.698 131.731 281.917 138.935 286.301C145.073 290.071 151.526 293.302 158.222 295.958C162.924 297.817 167.761 299.318 172.69 300.449C175.782 301.154 178.91 301.689 182.06 302.053C187.588 302.707 193.17 302.781 198.713 302.273C202.223 301.951 205.704 301.365 209.125 300.521" stroke="black" stroke-linecap="round" stroke-linejoin="round"/>
<path d="M198.438 257.324C199.716 259.211 201.437 260.757 203.449 261.828C204.98 262.719 206.742 263.129 208.508 263.005C211.335 262.692 213.647 260.539 215.158 258.119C216.676 255.67 217.583 252.893 217.804 250.02" stroke="black" stroke-linecap="round" stroke-linejoin="round"/>
<path d="M195.699 260.284C195.719 260.318 195.732 260.352 195.751 260.385C197.764 264.231 200.716 267.507 204.332 269.908C206.638 271.529 209.316 272.542 212.117 272.855C214.91 273.076 217.865 272.26 219.863 270.295C221.707 268.478 222.576 265.878 222.964 263.319C223.665 258.687 222.957 253.956 221.988 249.371" stroke="black" stroke-linecap="round" stroke-linejoin="round"/>
<path d="M191.536 262.67V262.677C191.328 263.893 191.984 265.07 192.639 266.119C194.003 268.464 195.67 270.618 197.597 272.528C199.891 274.538 202.498 276.159 205.316 277.326C208.017 278.607 210.9 279.459 213.864 279.852C216.844 280.233 219.869 279.674 222.518 278.255C225.706 276.424 227.864 273.103 228.853 269.56C229.842 266.018 229.749 262.262 229.241 258.62C228.73 255.005 227.813 251.458 226.508 248.047" stroke="black" stroke-linecap="round" stroke-linejoin="round"/>
<path d="M201.019 324.167C201.005 324.013 200.985 323.854 200.972 323.698C200.344 317.764 199.718 311.834 199.094 305.908C198.967 304.698 198.84 303.482 198.713 302.273C198.708 302.258 198.705 302.242 198.706 302.226" stroke="black" stroke-linecap="round" stroke-linejoin="round"/>
<path d="M193.087 222.139C193.008 221.242 193.258 220.347 193.788 219.62C194.063 219.266 194.441 219.007 194.87 218.879C195.299 218.751 195.757 218.759 196.181 218.905C196.533 219.12 196.91 219.293 197.303 219.419" stroke="black" stroke-linecap="round" stroke-linejoin="round"/>
<path d="M205.53 216.406C205.514 216.098 205.531 215.789 205.582 215.484C205.632 215.177 205.778 214.894 205.999 214.675C206.214 214.497 206.471 214.377 206.747 214.328C207.443 214.186 208.167 214.316 208.772 214.689" stroke="black" stroke-linecap="round" stroke-linejoin="round"/>
<path d="M195.405 214.206C195.212 214.035 194.979 213.917 194.727 213.862C194.476 213.808 194.215 213.818 193.968 213.894C193.478 214.048 193.03 214.313 192.658 214.669C191.947 215.287 191.328 216.005 190.82 216.801" stroke="black" stroke-linecap="round" stroke-linejoin="round"/>
<path d="M207.669 208.479C206.978 208.213 206.221 208.166 205.503 208.345C205.036 208.545 204.624 208.858 204.305 209.254C203.584 210.045 202.975 210.931 202.494 211.887" stroke="black" stroke-linecap="round" stroke-linejoin="round"/>
<path d="M204.461 227.104C204.761 227.172 205.073 227.175 205.374 227.114C205.676 227.052 205.961 226.928 206.212 226.749C206.463 226.57 206.672 226.34 206.828 226.074C206.983 225.808 207.081 225.512 207.114 225.206C207.14 225.066 207.138 224.921 207.108 224.781C207.079 224.641 207.021 224.508 206.94 224.391C206.64 224.01 206.065 224.03 205.583 224.026C205.014 224.021 204.449 223.931 203.906 223.758" stroke="black" stroke-linecap="round" stroke-linejoin="round"/>
<path d="M205.51 235.805C205.145 236.197 204.71 236.517 204.227 236.747C203.379 237.185 202.407 237.317 201.473 237.122C201.01 237.024 200.575 236.823 200.201 236.533C199.826 236.244 199.521 235.874 199.308 235.451" stroke="black" stroke-linecap="round" stroke-linejoin="round"/>
<path d="M119.227 203.835C121.049 199.678 122.782 195.414 123.341 190.903C123.561 189.67 123.49 188.402 123.133 187.201C122.999 186.722 122.692 186.309 122.271 186.045C121.987 185.922 121.676 185.881 121.371 185.924C121.065 185.968 120.778 186.095 120.54 186.292C120.069 186.691 119.685 187.182 119.41 187.735C117.312 191.543 115.559 195.531 114.171 199.651C113.95 200.266 113.73 200.888 113.516 201.503" stroke="black" stroke-linecap="round" stroke-linejoin="round"/>
<path d="M104.257 214.299C104.061 214.296 103.87 214.248 103.695 214.16C103.52 214.072 103.368 213.946 103.248 213.792C99.7587 210.492 96.615 206.844 93.865 202.906C92.9936 201.76 92.3473 200.458 91.9603 199.071C91.7712 198.375 91.753 197.644 91.9077 196.94C92.0629 196.235 92.3858 195.58 92.8488 195.028C93.1853 194.644 93.6431 194.389 94.1457 194.306C95.041 194.192 95.8499 194.826 96.5113 195.442C98.4525 197.302 100.255 199.301 101.905 201.423C102.506 202.179 103.107 202.947 103.702 203.709" stroke="black" stroke-linecap="round" stroke-linejoin="round"/>
<path d="M114.088 199.617C113.979 196.678 113.58 193.757 112.898 190.896C112.304 188.116 111.575 185.289 109.945 182.957C109.356 181.98 108.447 181.239 107.372 180.858C107.153 180.785 106.917 180.778 106.695 180.839C106.512 180.941 106.357 181.086 106.244 181.262C106.131 181.438 106.063 181.639 106.046 181.847C105.839 183.106 105.832 184.389 106.027 185.649C106.414 189.152 107.082 192.606 107.523 196.102C107.59 196.643 107.657 197.191 107.71 197.732" stroke="black" stroke-linecap="round" stroke-linejoin="round"/>
<path d="M107.312 196.129C105.991 192.81 104.183 189.706 101.947 186.92C100.597 185.243 98.9996 183.619 96.9412 183.004C96.7001 182.915 96.4402 182.888 96.186 182.924C95.5782 183.058 95.3043 183.766 95.2371 184.382C95.0569 186.006 95.598 187.617 96.2063 189.134C97.8834 193.304 100.165 197.193 102.154 201.223" stroke="black" stroke-linecap="round" stroke-linejoin="round"/>
<path d="M261.071 136.203V136.19C260.735 129.977 259.831 123.807 258.372 117.758C257.991 116.181 257.55 114.578 256.588 113.279C256.419 113.003 256.155 112.799 255.845 112.706C255.563 112.672 255.279 112.747 255.05 112.915C253.941 113.649 253.727 115.167 253.654 116.496C253.42 120.44 253.433 124.389 253.493 128.339C253.513 129.508 253.535 130.678 253.56 131.847" stroke="black" stroke-linecap="round" stroke-linejoin="round"/>
<path d="M240.635 143.601C236.596 143.049 232.678 141.827 229.041 139.986C229.352 139.351 229.787 138.785 230.321 138.321C230.855 137.858 231.476 137.506 232.148 137.286C233.493 136.854 234.898 136.639 236.311 136.651C237.915 136.591 239.526 136.591 241.13 136.658C242.319 136.698 243.502 136.771 244.685 136.885" stroke="black" stroke-linecap="round" stroke-linejoin="round"/>
<path d="M253.299 128.337C252.566 125.517 251.614 122.757 250.453 120.084C249.818 118.614 248.976 117.043 247.472 116.509C247.139 116.37 246.769 116.348 246.422 116.449C246.169 116.577 245.949 116.761 245.78 116.989C245.611 117.216 245.497 117.479 245.447 117.758C245.097 119.292 245.081 120.883 245.4 122.423C245.701 124.395 246.135 126.346 246.57 128.297C247.015 130.342 247.68 132.331 248.555 134.232C248.735 134.648 248.935 135.074 249.149 135.515" stroke="black" stroke-linecap="round" stroke-linejoin="round"/>
<path d="M248.728 134.519C248.668 134.426 248.608 134.326 248.554 134.232C245.824 129.803 242.458 125.799 238.563 122.349C237.975 121.734 237.228 121.295 236.405 121.08C236.145 121.02 235.873 121.046 235.63 121.154C235.002 121.481 235.042 122.39 235.195 123.078C236.284 127.908 238.302 132.479 241.136 136.538" stroke="black" stroke-linecap="round" stroke-linejoin="round"/>
<path d="M272.9 327.848L200.972 323.698L160.902 321.393L142.069 320.304" stroke="black" stroke-linecap="round" stroke-linejoin="round"/>
<path d="M26.0273 404.582L142.069 320.304" stroke="black" stroke-linecap="round" stroke-linejoin="round"/>
<path d="M26.0273 404.582L164.764 383.784L478.179 336.81" stroke="black" stroke-linecap="round" stroke-linejoin="round"/>
<path d="M365.672 299.313L365.912 299.393L477.878 336.71L478.179 336.811" stroke="black" stroke-linecap="round" stroke-linejoin="round"/>
<path d="M284.061 271.244L284.455 271.365L300.333 276.196H300.34" stroke="black" stroke-linecap="round" stroke-linejoin="round"/>
<path d="M158.108 296.245L151.506 300.723" stroke="black" stroke-linecap="round" stroke-linejoin="round"/>
<path d="M160.942 321.48L160.901 321.393L151.506 300.723" stroke="black" stroke-linecap="round" stroke-linejoin="round"/>
<path d="M199.148 305.916L199.094 305.909L181.846 304.031L151.506 300.723" stroke="black" stroke-linecap="round" stroke-linejoin="round"/>
<path d="M365.198 318.413L365.432 318.453L477.451 336.691L478.179 336.811" stroke="black" stroke-linecap="round" stroke-linejoin="round"/>
<path d="M164.791 383.985L167.544 419.364" stroke="black" stroke-linecap="round" stroke-linejoin="round"/>
<path d="M478.179 336.81L167.545 419.364" stroke="black" stroke-linecap="round" stroke-linejoin="round"/>
<path d="M478.492 336.737L477.877 336.71L477.449 336.69L365.284 331.845L332.845 330.442H332.805" stroke="black" stroke-linecap="round" stroke-linejoin="round"/>
<path d="M115.565 136.036C120.918 136.444 126.772 136.805 131.163 133.71C133.133 132.262 134.602 130.235 135.366 127.913C136.13 125.591 136.152 123.088 135.427 120.753C135.069 119.614 134.475 118.564 133.682 117.672C131.203 114.998 126.799 114.852 123.564 116.542C120.329 118.233 118.091 121.36 116.414 124.595C117.603 120.819 118.405 116.87 118.144 112.92C117.883 108.971 116.494 105.004 113.76 102.134C112.571 100.816 111.036 99.8573 109.33 99.3672C105.367 98.3583 101.197 100.991 99.1047 104.513C97.0125 108.035 96.5255 112.239 96.0776 116.308C95.6901 113.582 95.2963 110.815 94.1531 108.316C93.0099 105.816 90.9984 103.564 88.3588 102.802C86.7062 102.4 84.9838 102.375 83.3198 102.729C80.9875 103.116 78.6417 103.852 76.8443 105.375C75.7667 106.346 74.9088 107.538 74.3292 108.868C73.7495 110.198 73.4609 111.636 73.4828 113.088C73.5552 116.001 74.5052 118.823 76.2094 121.187C74.8734 119.543 73.0927 118.317 71.0797 117.656C69.0672 116.995 66.9068 116.926 64.8557 117.458C62.8047 117.99 60.95 119.099 59.5114 120.655C58.0729 122.21 57.112 124.146 56.7422 126.232C56.4562 127.423 56.6042 128.676 57.1588 129.768C57.7073 130.58 58.4583 131.234 59.3375 131.666C65.2588 135.041 71.8896 134.54 78.4307 134.566C86.3901 134.593 94.3427 134.804 102.289 135.201C106.718 135.421 111.143 135.7 115.565 136.036Z" stroke="black" stroke-opacity="0.15" stroke-linecap="round" stroke-linejoin="round"/>
<path d="M356.884 60.1385C356.686 60.4458 356.513 60.7677 356.363 61.101C356.549 60.787 356.723 60.4661 356.884 60.1385Z" stroke="black" stroke-linecap="round" stroke-linejoin="round"/>
<path d="M356.884 60.1385C357.598 58.7068 358.01 57.1432 358.095 55.5453C358.18 53.9474 357.936 52.3495 357.378 50.8496C356.061 47.548 352.82 45.0022 349.265 44.835C345.89 44.6746 342.629 46.6126 340.664 49.3595C338.699 52.1063 337.891 55.5542 337.824 58.9359C337.435 56.7422 336.764 54.6083 335.826 52.587C334.869 50.5574 333.247 48.9162 331.228 47.936C328.474 46.7329 325.247 47.3142 322.478 48.4772C317.205 50.722 312.984 54.8922 310.676 60.1385C309.707 62.3708 309.099 64.8703 309.634 67.2495C310.918 72.963 316.451 73.4245 321.189 73.7318C328.447 74.2005 335.691 74.9411 342.955 75.3755C347.079 75.6229 351.202 75.8443 355.332 76.0708C358.561 76.2443 361.828 76.4182 364.996 75.8031C368.164 75.188 371.291 73.6917 373.229 71.1052C374.03 70.0349 374.605 68.8125 374.919 67.513C375.233 66.2135 375.279 64.8635 375.054 63.5458C374.83 62.2276 374.339 60.9693 373.613 59.8469C372.886 58.7245 371.94 57.7615 370.83 57.0167C369.719 56.2719 368.469 55.7609 367.155 55.5141C365.841 55.2677 364.491 55.2917 363.186 55.5833C361.881 55.8755 360.65 56.4302 359.566 57.213C358.483 57.9964 357.57 58.9917 356.883 60.1385H356.884Z" stroke="black" stroke-linecap="round" stroke-linejoin="round"/>
<path d="M432.888 454.543C433.402 454.564 433.908 454.419 434.332 454.129C434.58 453.878 434.767 453.574 434.88 453.24C436.544 449.344 438.213 445.26 437.974 441.03C437.735 436.8 435 432.389 430.823 431.688C428.297 431.266 425.67 432.269 423.732 433.94C421.794 435.61 420.458 437.882 419.449 440.235C420.237 436.893 420.999 433.505 421.026 430.07C421.053 426.635 420.278 423.1 418.246 420.327C416.214 417.553 412.806 415.662 409.392 416.029C405.001 416.504 401.693 420.46 400.277 424.644C398.861 428.828 398.872 433.333 398.271 437.708C397.89 435.042 397.502 432.328 396.344 429.903C395.185 427.477 393.109 425.324 390.483 424.764C388.545 424.347 386.52 424.83 384.729 425.659C382.202 426.878 380.059 428.768 378.534 431.123C377.009 433.478 376.161 436.207 376.083 439.011C376.003 444.872 380.771 453.226 386.923 454.509C396.185 456.447 406.524 455.805 415.913 455.458C421.581 455.251 427.234 454.896 432.888 454.543Z" stroke="black" stroke-linecap="round" stroke-linejoin="round"/>
<path d="M466.624 270.302C464.263 268.144 461.902 265.991 459.541 263.844C457.375 261.865 455.212 259.891 453.052 257.923" stroke="black" stroke-linecap="round" stroke-linejoin="round"/>
<path d="M464.311 257.745C462.748 259.797 461.158 261.831 459.54 263.846C457.248 266.714 454.904 269.544 452.508 272.336" stroke="black" stroke-linecap="round" stroke-linejoin="round"/>
<path d="M199.462 164.948C200.865 163.316 202.228 161.654 203.552 159.963C205.082 158.018 206.559 156.033 207.983 154.008" stroke="black" stroke-linecap="round" stroke-linejoin="round"/>
<path d="M207.534 164.151C206.224 162.741 204.897 161.345 203.552 159.961C200.958 157.268 198.307 154.621 195.598 152.022" stroke="black" stroke-linecap="round" stroke-linejoin="round"/>
<path d="M52.5588 217.22C52.4114 214.647 52.1578 212.074 51.7967 209.521C51.4553 207.148 51.0253 204.794 50.5066 202.457" stroke="black" stroke-opacity="0.15" stroke-linecap="round" stroke-linejoin="round"/>
<path d="M59.7827 205.417C57.0895 206.727 54.4275 208.094 51.7966 209.52C48.7827 211.138 45.8065 212.823 42.8679 214.579" stroke="black" stroke-opacity="0.15" stroke-linecap="round" stroke-linejoin="round"/>
<path d="M319.48 116.034L318.852 122.383L323.73 126.493L317.502 127.863L315.096 133.771L311.868 128.271L305.512 127.81L309.743 123.038L308.219 116.849L314.06 119.403L319.48 116.034Z" stroke="black" stroke-opacity="0.15" stroke-linecap="round" stroke-linejoin="round"/>
<path d="M394.022 374.327C353.531 380.025 313.884 390.631 275.955 405.909C269.969 408.322 263.843 410.977 259.428 415.684C255.012 420.391 252.737 427.709 255.674 433.456C258.941 439.848 267.909 441.945 274.358 438.793C279.536 436.262 283.182 429.303 279.791 424.644C278.958 423.499 277.801 422.631 276.469 422.152C275.137 421.672 273.691 421.604 272.32 421.955C270.949 422.306 269.714 423.061 268.777 424.122C267.839 425.183 267.242 426.501 267.062 427.905" stroke="black" stroke-linecap="round" stroke-linejoin="round"/>
<path d="M479.375 324.531L412.083 302.522C408.542 301.364 404.935 300.175 401.892 298.021C398.848 295.868 396.391 292.565 396.18 288.843C396.07 286.911 396.563 284.992 397.59 283.353C398.617 281.712 400.129 280.432 401.915 279.689C403.702 278.946 405.675 278.776 407.562 279.203C409.45 279.629 411.158 280.632 412.451 282.072C413.971 283.765 414.846 286.147 414.326 288.363C413.805 290.578 411.682 292.436 409.415 292.252C407.148 292.067 405.287 289.481 406.158 287.38" stroke="black" stroke-linecap="round" stroke-linejoin="round"/>
<path d="M111.647 320.708L102.9 320.624C93.7818 320.536 84.6568 320.448 75.5505 320.929" stroke="black" stroke-linecap="round" stroke-linejoin="round"/>
<path d="M88.5755 338.49C69.6916 340.072 50.468 337.786 31.8727 341.438C27.9701 342.205 23.6863 343.552 21.8045 347.056C21.1062 348.294 20.884 349.745 21.1795 351.135C21.8003 353.684 24.3852 355.274 26.918 355.958C29.2097 356.576 31.7545 356.658 33.8592 355.564C35.9639 354.469 37.4404 351.98 36.8337 349.687C36.2269 347.394 33.1441 345.98 31.2488 347.407" stroke="black" stroke-linecap="round" stroke-linejoin="round"/>
<path d="M127.008 304.204C103.836 305.419 80.4844 306.216 57.5287 302.829C54.2735 302.348 50.7057 301.593 48.7375 298.954C47.8798 297.724 47.4418 296.25 47.4888 294.751C47.5357 293.252 48.065 291.808 48.9979 290.634C49.9779 289.498 51.275 288.681 52.7224 288.288C54.1703 287.894 55.7026 287.942 57.1229 288.426C57.7917 288.632 58.4125 288.97 58.949 289.419C59.4854 289.869 59.9271 290.42 60.2479 291.043C60.5516 291.674 60.6443 292.386 60.512 293.074C60.3797 293.763 60.0292 294.39 59.513 294.864C58.4193 295.736 56.5115 295.427 55.962 294.143" stroke="black" stroke-linecap="round" stroke-linejoin="round"/>
<path d="M378.594 135.712C380.327 132.852 382.06 129.992 383.793 127.132" stroke="black" stroke-linecap="round" stroke-linejoin="round"/>
<path d="M370.181 131.913C370.566 124.263 370.95 116.614 371.335 108.965" stroke="black" stroke-linecap="round" stroke-linejoin="round"/>
<path d="M360.263 136.374C357.884 133.372 355.896 130.081 354.345 126.579" stroke="black" stroke-linecap="round" stroke-linejoin="round"/>
<path d="M355.839 222.639C356.473 218.899 356.886 215.125 357.076 211.337" stroke="black" stroke-linecap="round" stroke-linejoin="round"/>
<path d="M348.499 222.969C348.568 218.878 348.736 214.79 349.003 210.705" stroke="black" stroke-linecap="round" stroke-linejoin="round"/>
<path d="M338.889 222.495C338.958 218.506 339.223 214.527 339.682 210.558" stroke="black" stroke-linecap="round" stroke-linejoin="round"/>
<path d="M330.431 221.425C330.512 221.484 330.389 221.618 330.298 221.578C330.207 221.538 330.179 221.422 330.162 221.326C329.505 217.509 329.301 213.628 329.553 209.764" stroke="black" stroke-linecap="round" stroke-linejoin="round"/>
<path d="M100.321 232.077C100.886 225.5 103.791 219.344 108.508 214.727C113.225 210.109 119.441 207.336 126.028 206.911" stroke="black" stroke-linecap="round" stroke-linejoin="round"/>
<path d="M122.723 219.509C122.79 219.577 122.7 219.701 122.605 219.697C122.51 219.681 122.426 219.628 122.371 219.549C120.905 217.977 119.108 216.751 117.11 215.959L117.315 215.701" stroke="black" stroke-linecap="round" stroke-linejoin="round"/>
<path d="M107.252 225.831C107.695 223.928 108.431 222.107 109.434 220.431" stroke="black" stroke-linecap="round" stroke-linejoin="round"/>
<path d="M152.245 266.127C150.466 264.823 148.772 263.41 147.171 261.894" stroke="black" stroke-linecap="round" stroke-linejoin="round"/>
<path d="M137.418 273.411C138.755 271.546 140.29 269.832 141.997 268.298C142.201 268.115 142.57 268.446 142.414 268.67C142.257 268.893 141.82 268.653 141.924 268.399" stroke="black" stroke-linecap="round" stroke-linejoin="round"/>
<path d="M165.644 274.318C164.301 272.611 162.803 271.03 161.17 269.596" stroke="black" stroke-linecap="round" stroke-linejoin="round"/>
<path d="M157.062 289.769C158.461 288.23 159.717 286.566 160.812 284.798" stroke="black" stroke-linecap="round" stroke-linejoin="round"/>
<path d="M186.479 270.958L180.195 266.246" stroke="black" stroke-linecap="round" stroke-linejoin="round"/>
<path d="M183.552 292.332C185.02 290.052 186.367 287.695 187.587 285.273" stroke="black" stroke-linecap="round" stroke-linejoin="round"/>
<path d="M216.414 290.653L220.492 284.328" stroke="black" stroke-linecap="round" stroke-linejoin="round"/>
<path d="M239.48 267.264C239.132 267.136 238.829 266.907 238.612 266.607C237.275 265.094 235.981 263.544 234.729 261.958" stroke="black" stroke-linecap="round" stroke-linejoin="round"/>
<path d="M246.204 258.268C247.049 256.081 248.103 253.98 249.35 251.994" stroke="black" stroke-linecap="round" stroke-linejoin="round"/>
<path d="M252.662 236.795C253.455 234.061 254.556 231.426 255.943 228.939" stroke="black" stroke-linecap="round" stroke-linejoin="round"/>
<path d="M226.899 295.478C225.532 294.654 224.302 293.621 223.253 292.417" stroke="black" stroke-linecap="round" stroke-linejoin="round"/>
<path d="M236.674 304.281C237.334 303.451 237.887 302.541 238.318 301.572C239.096 300.01 239.874 298.447 240.652 296.885" stroke="black" stroke-linecap="round" stroke-linejoin="round"/>
<path d="M239.779 157.486C243.829 151.51 249.9 147.197 256.876 145.34C263.853 143.483 271.265 144.206 277.75 147.377" stroke="black" stroke-linecap="round" stroke-linejoin="round"/>
<path d="M253.636 168.134C254.928 165.896 255.999 163.538 256.835 161.093C256.889 161.129 256.933 161.178 256.964 161.235C256.995 161.292 257.011 161.355 257.014 161.42C257.015 161.485 257.002 161.549 256.973 161.608C256.945 161.666 256.904 161.717 256.852 161.757" stroke="black" stroke-linecap="round" stroke-linejoin="round"/>
<path d="M279.314 173.946C277.62 172.586 275.802 171.389 273.882 170.372" stroke="black" stroke-linecap="round" stroke-linejoin="round"/>
<path d="M262.826 189.594C262.806 189.664 262.945 189.667 262.959 189.594C262.973 189.521 262.912 189.462 262.855 189.417L258.206 185.608" stroke="black" stroke-linecap="round" stroke-linejoin="round"/>
<path d="M271.151 199.522C271.093 199.607 271.034 199.691 270.977 199.776C271.969 196.984 272.962 194.192 273.955 191.399C274.086 191.03 274.458 190.577 274.769 190.816C274.806 190.815 274.842 190.824 274.873 190.844C274.904 190.864 274.929 190.893 274.943 190.927C274.957 190.961 274.96 190.999 274.953 191.035C274.945 191.071 274.927 191.104 274.899 191.129C274.77 191.217 274.573 191.024 274.657 190.895" stroke="black" stroke-linecap="round" stroke-linejoin="round"/>
<path d="M276.299 221.442C274.797 219.587 272.88 218.113 270.701 217.139" stroke="black" stroke-linecap="round" stroke-linejoin="round"/>
<path d="M216.254 313.43C213.668 311.447 210.956 309.632 208.137 307.996" stroke="black" stroke-linecap="round" stroke-linejoin="round"/>
<path d="M252.969 315.999C251.125 314.677 249.221 313.444 247.257 312.301" stroke="black" stroke-linecap="round" stroke-linejoin="round"/>
<path d="M286.129 315.386C285.667 315.677 285.269 316.059 284.959 316.508C284.442 317.185 283.963 317.997 284.108 318.835C284.262 319.433 284.592 319.971 285.055 320.38C285.299 320.657 285.596 320.882 285.929 321.043C286.251 321.158 286.599 321.185 286.935 321.122C287.271 321.058 287.585 320.907 287.844 320.684C288.357 320.228 288.728 319.632 288.91 318.97C289.104 318.428 289.161 317.846 289.073 317.277C288.845 316.087 287.274 314.74 286.129 315.386Z" stroke="black" stroke-opacity="0.15" stroke-linecap="round" stroke-linejoin="round"/>
<path d="M278.281 294.831C276.625 292.819 274.756 290.991 272.708 289.378C272.645 289.326 272.574 289.247 272.614 289.177C272.655 289.106 272.767 289.247 272.687 289.24" stroke="black" stroke-opacity="0.15" stroke-linecap="round" stroke-linejoin="round"/>
<path d="M272.566 296.565C273.973 293.87 275.757 291.39 277.865 289.198C277.907 289.155 277.952 289.099 277.934 289.042C277.917 288.984 277.802 288.994 277.821 289.051" stroke="black" stroke-opacity="0.15" stroke-linecap="round" stroke-linejoin="round"/>
<path d="M270.029 259.566C270.154 259.715 270.278 259.865 270.403 260.015C269.085 258.077 267.882 256.064 266.798 253.985" stroke="black" stroke-opacity="0.15" stroke-linecap="round" stroke-linejoin="round"/>
<path d="M265.501 259.256C265.477 259.211 265.417 259.298 265.46 259.325C265.504 259.352 265.558 259.318 265.597 259.286L271.046 254.894" stroke="black" stroke-opacity="0.15" stroke-linecap="round" stroke-linejoin="round"/>
<path d="M311.526 294.933C313.002 293.245 314.401 291.494 315.724 289.68" stroke="black" stroke-opacity="0.15" stroke-linecap="round" stroke-linejoin="round"/>
<path d="M315.677 294.823C314.311 292.622 312.758 290.542 311.036 288.607" stroke="black" stroke-opacity="0.15" stroke-linecap="round" stroke-linejoin="round"/>
<path d="M356.366 307.102C356.375 307.004 356.526 307.159 356.437 307.202C356.348 307.244 356.257 307.154 356.199 307.074L351.155 300.075" stroke="black" stroke-opacity="0.15" stroke-linecap="round" stroke-linejoin="round"/>
<path d="M349.989 307.712C352.407 304.932 354.088 301.531 356.769 299.004" stroke="black" stroke-opacity="0.15" stroke-linecap="round" stroke-linejoin="round"/>
<path d="M352.692 272.072C351.13 269.742 349.677 267.343 348.333 264.876" stroke="black" stroke-opacity="0.15" stroke-linecap="round" stroke-linejoin="round"/>
<path d="M346.848 271.042C349.025 269.042 351.244 267.088 353.504 265.18C353.467 265.236 353.432 265.293 353.396 265.348" stroke="black" stroke-opacity="0.15" stroke-linecap="round" stroke-linejoin="round"/>
<path d="M321.112 238.327C319.671 235.931 318.033 233.659 316.216 231.535" stroke="black" stroke-linecap="round" stroke-linejoin="round"/>
<path d="M315.562 238.347C317.567 235.704 319.871 233.304 322.431 231.193" stroke="black" stroke-opacity="0.15" stroke-linecap="round" stroke-linejoin="round"/>
<path d="M387.76 243.555C389.898 240.855 392.036 238.154 394.175 235.454" stroke="black" stroke-opacity="0.15" stroke-linecap="round" stroke-linejoin="round"/>
<path d="M395.641 242.692C393.565 239.748 391.133 237.071 388.401 234.723" stroke="black" stroke-opacity="0.15" stroke-linecap="round" stroke-linejoin="round"/>
<path d="M364.712 240.1C364.295 240.43 363.986 240.877 363.824 241.384C363.765 241.737 363.785 242.098 363.883 242.442C363.981 242.786 364.154 243.104 364.39 243.373C364.672 243.784 365.059 244.114 365.509 244.328C365.96 244.543 366.46 244.634 366.957 244.593C367.519 244.472 368.035 244.195 368.447 243.795C369.155 243.17 369.749 242.24 369.516 241.322C368.92 238.963 366.293 238.687 364.712 240.1Z" stroke="black" stroke-opacity="0.15" stroke-linecap="round" stroke-linejoin="round"/>
<path d="M340.983 233.135C340.654 233.607 340.486 234.171 340.503 234.745C340.537 235.103 340.653 235.447 340.842 235.752C341.03 236.056 341.287 236.314 341.592 236.503C342.15 236.837 342.81 236.956 343.449 236.838C344.089 236.718 344.663 236.37 345.063 235.857C347.01 233.154 342.973 230.097 340.983 233.135Z" stroke="black" stroke-opacity="0.15" stroke-linecap="round" stroke-linejoin="round"/>
<path d="M292.533 250.473C292.492 251.028 292.618 251.581 292.895 252.063C293.171 252.544 293.585 252.933 294.084 253.177C295.329 253.713 296.752 253.105 297.921 252.422C298.159 252.301 298.373 252.135 298.55 251.934C299.57 250.62 298.059 247.514 296.594 247.054C294.641 246.44 292.64 248.679 292.533 250.473Z" stroke="black" stroke-opacity="0.15" stroke-linecap="round" stroke-linejoin="round"/>
<path d="M332.639 291.776C332.966 292.111 333.381 292.347 333.836 292.457C334.292 292.567 334.769 292.546 335.213 292.398C337.291 291.721 338.525 287.953 335.935 287.11C333.542 286.331 330.834 289.773 332.639 291.776Z" stroke="black" stroke-opacity="0.15" stroke-linecap="round" stroke-linejoin="round"/>
<path d="M421.284 206.52C422.064 204.458 422.844 202.395 423.625 200.333C423.839 199.594 424.23 198.918 424.765 198.364" stroke="black" stroke-opacity="0.15" stroke-linecap="round" stroke-linejoin="round"/>
<path d="M418.98 200.596C421.904 201.683 424.769 202.919 427.565 204.301" stroke="black" stroke-opacity="0.15" stroke-linecap="round" stroke-linejoin="round"/>
<path d="M444.17 194.837C443.739 195.409 443.39 196.037 443.133 196.706C443.006 197.041 442.95 197.398 442.968 197.756C442.986 198.114 443.078 198.464 443.238 198.784C443.661 199.53 444.515 199.9 445.31 200.221C445.788 200.461 446.318 200.579 446.852 200.565C447.299 200.488 447.721 200.304 448.081 200.028C449.212 199.346 450.05 198.268 450.431 197.003C451.374 192.962 446.082 192.043 444.17 194.837Z" stroke="black" stroke-opacity="0.15" stroke-linecap="round" stroke-linejoin="round"/>
<path d="M445.293 177.615C447.903 175.189 449.665 171.972 452.23 169.501C453.15 168.616 454.198 167.79 454.719 166.623C454.846 166.643 454.842 166.874 454.714 166.89" stroke="black" stroke-opacity="0.15" stroke-linecap="round" stroke-linejoin="round"/>
<path d="M453.166 179.495C451.138 175.166 448.979 170.902 446.688 166.702" stroke="black" stroke-opacity="0.15" stroke-linecap="round" stroke-linejoin="round"/>
<g opacity="0.1">
<path d="M97.9188 224.791C98.5209 242.864 108.336 260.8 120.447 273.78C134.269 288.405 152.179 298.524 171.838 302.818C183.459 305.306 195.466 305.391 207.121 303.066L199.579 297.321C200.428 305 200.428 312.75 199.579 320.429H211.52L209.615 300.846C209.303 297.63 207.09 294.864 203.634 294.864C200.644 294.864 197.334 297.611 197.653 300.846L199.58 320.429C200.337 328.129 210.685 328.075 211.52 320.429C212.361 312.749 212.353 304.999 211.495 297.321C211.049 293.311 208.064 290.754 203.954 291.577C170.039 298.366 133.365 279.039 116.938 249.227C112.444 241.071 110.015 232.355 107.271 223.525C105.726 218.55 97.7355 219.244 97.9199 224.791H97.9188Z" fill="black"/>
</g>
<g opacity="0.1">
<path d="M346.629 164.422C343.79 162.408 339.923 163.317 337.369 165.378C333.96 168.129 332.218 171.43 331.587 175.783C330.907 180.493 332.075 185.564 332.155 190.329C332.253 195.711 331.863 201.091 330.99 206.402C330.615 208.661 331.581 210.973 333.955 211.625C335.971 212.179 338.82 210.938 339.178 208.659C340.469 200.422 340.978 192.045 340.057 183.738C339.648 180.052 338.75 176.381 338.499 172.699C338.371 170.824 338.522 168.543 339.976 167.184C341.656 165.615 343.787 165.608 345.837 166.296C347.007 166.689 347.52 165.055 346.628 164.421L346.629 164.422Z" fill="black"/>
</g>
<g opacity="0.1">
<path d="M228.436 249.37C234.491 251.485 241.894 245.313 245.648 241.169C250.596 235.711 253.697 228.895 255.189 221.718C258.459 205.981 257.046 188.826 254.034 173.166C252.274 164.011 249.597 154.984 246.703 146.13C244.549 139.542 234.798 143.392 237.822 149.874C245.746 166.858 248.695 186.443 248.512 205.082C248.428 213.612 247.697 222.663 243.772 230.399C242.069 233.849 239.68 236.915 236.753 239.41C233.888 241.801 230.011 242.701 227.36 245.287C225.973 246.642 226.754 248.777 228.437 249.368L228.436 249.37Z" fill="black"/>
</g>
</svg>
