<svg width="500" height="500" viewBox="0 0 500 500" fill="none" xmlns="http://www.w3.org/2000/svg">
<path d="M350.683 236.017L350.678 236.002C351.698 235.587 352.886 235.71 354.005 235.714C355.016 235.784 356.02 235.503 356.84 234.918C358.337 234.909 359.645 236.036 360.286 237.365C360.842 238.738 361.125 240.203 361.122 241.681C363.424 279.644 363.61 317.703 361.679 355.687L361.808 356.39C359.466 356.801 357.098 357.058 354.721 357.157C352.474 357.25 350.136 357.245 347.818 357.338C345.875 357.39 343.939 357.585 342.025 357.918L342 357.786C342.71 322.398 343.422 287.012 344.138 251.628C344.198 248.649 344.263 245.622 345.163 242.78C346.063 239.937 347.923 237.248 350.683 236.017Z" fill="black" fill-opacity="0.15"/>
<path d="M357.31 242.918C359.938 276.561 359.5 310.341 356 343.918" stroke="white" stroke-linecap="round" stroke-linejoin="round"/>
<path d="M146.251 217.958C148.906 220.702 149.027 224.869 148.996 228.631C148.699 261.864 148.406 295.095 148.115 328.322L148.095 328.918C143.027 328.767 137.98 328.227 133 327.304L133.126 326.703C133.217 300.626 133.308 274.548 133.402 248.471C133.438 238.644 133.503 228.633 136.622 219.283L136.748 219.107C138.012 219.894 139.739 219.86 141.292 219.763C142.717 219.67 144.249 219.537 145.321 218.623C145.56 218.417 145.769 218.18 145.94 217.918L146.251 217.958Z" fill="black"/>
<path d="M147 225.918L145 316.918" stroke="white" stroke-linecap="round" stroke-linejoin="round"/>
<path d="M168.065 329.893C169.556 330.375 170.964 331.085 172.238 331.997C174.847 333.963 176.796 336.677 177.823 339.779C179.479 344.308 179.82 349.626 179.951 354.52C180.082 359.706 180.116 365.258 177.757 369.782C177.452 370.376 177.104 370.948 176.715 371.491C172.118 377.944 163.085 379.156 155.167 378.883C140.758 378.382 126.627 374.879 112.744 370.99C99.2267 367.2 85.5632 362.905 74.1054 354.797C61.2209 345.681 51.818 332.051 46.7729 317.095C41.7278 302.14 40.9035 285.935 43.2621 270.331C45.142 257.903 49.0862 245.622 56.1714 235.244C63.2566 224.866 73.6863 216.5 85.8309 213.281C88.441 212.59 91.2946 212.034 93.1267 210.048C94.2025 208.879 94.7872 207.34 95.7949 206.113C96.5679 205.192 97.5251 204.445 98.6047 203.918C109.949 208.281 121.855 211.015 133.966 212.038L134.556 211.931C134.75 213.299 135.007 214.654 135.324 215.997C135.489 217.044 135.935 218.027 136.614 218.841C136.778 219.004 136.957 219.151 137.15 219.28L137.028 219.455C134.011 228.761 133.951 238.73 133.916 248.513C133.829 274.474 133.74 300.435 133.648 326.396L133.527 326.995C138.341 327.913 143.22 328.451 148.118 328.602C150.115 328.675 152.106 328.694 154.098 328.675C158.769 328.627 163.736 328.457 168.065 329.893Z" fill="black" fill-opacity="0.15"/>
<path d="M104.778 252.918C90.8232 264.148 84.6618 283.815 89.7903 300.754C94.9189 317.694 111.039 330.918 129 332.918" stroke="white" stroke-linecap="round" stroke-linejoin="round"/>
<path d="M343.07 172.237C344.513 172.705 345.914 173.292 347.259 173.99C349.466 175.033 351.76 175.878 354.116 176.517C358.053 177.628 362.137 178.13 366.227 178.006C370.074 177.833 373.739 175.922 377.307 174.673C379.386 173.883 381.587 173.462 383.812 173.428C385.114 173.428 386.403 173.689 387.601 174.197C390.438 175.431 392.422 178.169 393.308 181.128C394.193 184.087 394.112 187.248 393.712 190.308C392.942 196.249 390.847 202.311 386.369 206.307C384.485 207.938 382.33 209.232 380.003 210.131C377.896 210.953 375.726 211.602 373.512 212.071C369.255 213.001 364.927 213.577 360.574 213.795C358.055 213.925 355.532 213.949 353.014 213.882C352.012 213.853 350.996 213.805 349.976 213.72C347.963 213.569 345.972 213.202 344.039 212.624C341.646 211.949 339.478 210.647 337.76 208.854C334.659 205.487 333.854 200.655 333.402 196.106C332.742 189.458 332.588 182.47 335.385 176.398C336.161 174.72 337.259 173.05 338.959 172.32C340.277 171.815 341.732 171.785 343.07 172.237ZM379.618 186.679C379.618 183.005 374.855 180.024 368.976 180.024C363.097 180.024 358.334 183 358.334 186.679C358.334 190.359 363.097 193.332 368.976 193.332C374.856 193.332 379.618 190.354 379.618 186.679Z" fill="black"/>
<path d="M343.512 113.095C348.518 115.979 352.917 119.822 356.463 124.408C355.188 122.578 354.304 120.5 353.87 118.306C353.435 116.112 353.459 113.851 353.939 111.667C354.266 110.199 355.461 108.458 356.837 109.03C357.352 109.312 357.768 109.75 358.024 110.282C361.255 115.54 364.485 120.797 367.714 126.052C368.892 124.702 369.12 122.789 369.843 121.15C370.567 119.512 372.373 117.986 373.986 118.739C375.004 119.219 375.479 120.416 375.634 121.542C375.789 122.667 375.716 123.835 376.079 124.907C376.961 127.496 379.955 128.604 382.625 129.099C385.296 129.593 388.266 129.935 390.087 131.964C391.376 133.392 391.812 135.38 392.204 137.271C394.133 146.632 396.065 155.994 398 165.355C396.105 163.952 394.209 162.551 392.311 161.154C392.408 162.807 393.721 164.084 394.54 165.522C395.359 166.96 395.403 169.264 393.852 169.811C392.965 170.129 392.011 169.68 391.178 169.239C389.167 168.183 387.158 167.126 385.15 166.069L385.014 166.05C385.736 161.348 386.112 156.599 386.138 151.841C386.162 148.789 385.988 145.546 384.273 143.033C382.127 139.902 378.139 138.709 374.418 138.121C366.365 136.85 358.097 137.412 350.069 135.994C349.003 135.803 347.937 135.574 346.871 135.29C339.933 133.455 333.319 129.606 330.278 123.164C330.127 122.937 330.035 122.677 330.008 122.406C329.981 122.135 330.02 121.861 330.123 121.609C330.442 121.086 331.179 121.061 331.79 121.113C335.796 121.462 339.72 122.46 343.413 124.067C341.555 121.633 340.328 118.77 339.842 115.737C339.663 114.588 339.726 113.148 340.744 112.597C341.608 112.136 342.659 112.605 343.512 113.095Z" fill="black"/>
<path d="M350.829 225.881C350.371 225.855 349.935 225.683 349.589 225.394C348.974 224.829 348.974 223.9 349.015 223.082C349.167 220.103 349.321 217.124 349.478 214.144L349.5 213.918C350.605 214.009 351.704 214.059 352.787 214.088C355.513 214.158 358.243 214.133 360.969 213.998L361 214.494C360.994 217.268 360.991 220.041 360.989 222.814C360.984 223.652 360.948 224.585 360.333 225.182C359.777 225.625 359.069 225.852 358.347 225.819C358.191 225.829 358.04 225.834 357.889 225.834C355.851 225.859 353.808 225.89 351.771 225.914C351.457 225.926 351.141 225.914 350.829 225.881Z" fill="black" fill-opacity="0.15"/>
<path d="M357.53 225.933C357.678 225.933 357.826 225.928 357.98 225.918L358 226.265C357.852 228.285 357.705 230.305 357.561 232.327C357.569 232.992 357.406 233.649 357.085 234.24C356.969 234.418 356.825 234.577 356.657 234.713C355.814 235.297 354.783 235.579 353.745 235.508C352.594 235.504 351.374 235.382 350.327 235.796C350.235 235.83 350.148 235.874 350.056 235.918C349.895 232.595 350.08 229.265 350.608 225.977C350.915 226.01 351.224 226.021 351.532 226.011C353.533 225.987 355.533 225.957 357.53 225.933Z" fill="black" fill-opacity="0.15"/>
<path d="M272.019 181.592C274.814 185.21 275.143 190.141 274.957 194.716C274.057 216.88 263.71 238.075 248.556 254.225C237.863 265.63 224.442 274.905 209.243 278.451C194.045 281.997 176.994 279.208 165.08 269.096L164.273 269.17C162.516 249.641 160.377 230.151 157.856 210.701C157.578 208.543 157.293 206.386 157 204.232L157.063 204.222C160.23 213.572 164.939 222.603 172.115 229.351C179.29 236.098 189.195 240.345 198.969 239.213C209.671 237.977 218.905 230.513 224.672 221.383C230.439 212.253 233.221 201.571 235.404 190.986C236.211 187.086 237.072 182.921 239.86 180.089C241.747 178.164 244.219 177.145 246.875 176.598C249.115 176.181 251.388 175.962 253.666 175.944C258.219 175.827 263.23 176.047 267.244 177.892C269.114 178.714 270.754 179.985 272.019 181.592Z" fill="black" fill-opacity="0.15"/>
<path d="M170.808 124.776C173.204 127.446 171.714 132.093 168.768 134.114C165.823 136.135 162.056 136.275 158.502 136.342L157.716 136.357C148.107 136.543 138.496 136.732 128.883 136.922C125.807 136.981 122.413 137.172 120.219 139.37C117.755 141.839 117.789 145.827 117.924 149.347C118.256 157.943 118.206 166.54 117.774 175.138L117.673 175.133C114.934 175.104 114.298 179.195 111.632 179.842C109.847 180.274 107.982 178.819 107.509 177.016C107.037 175.214 107.722 173.25 108.859 171.785C109.997 170.319 111.54 169.248 113.059 168.2C111.039 167.807 109.221 169.346 107.403 170.319C105.586 171.293 102.712 171.347 102.099 169.346C101.632 167.807 102.91 166.354 103.936 165.127C106.147 162.455 107.544 159.181 107.956 155.71C108.693 149.406 106.181 142.557 109.007 136.902C111.244 132.427 116.285 130.101 121.162 129.442C126.038 128.783 130.993 129.452 135.911 129.276C140.829 129.1 146.041 127.885 149.426 124.246C151.2 122.343 152.584 119.727 155.075 119.068C155.984 118.822 156.947 118.88 157.821 119.234C158.696 119.588 159.436 120.219 159.932 121.034C160.429 121.848 160.656 122.804 160.58 123.761C160.504 124.717 160.129 125.623 159.51 126.346C159.091 126.69 158.681 127.044 158.271 127.398C158.749 127.136 159.17 126.778 159.51 126.346C160.892 125.11 162.481 124.141 164.202 123.483C166.454 122.726 169.206 122.997 170.808 124.776Z" fill="black"/>
<path d="M163.773 269.192C165.596 289.401 167.005 309.643 168 329.918C163.675 328.483 158.714 328.653 154.049 328.697C152.06 328.717 150.071 328.697 148.077 328.624L148.096 328.031C148.378 294.977 148.662 261.921 148.947 228.864C148.976 225.122 148.86 220.976 146.296 218.246L146 218.207C146.72 217.098 146.836 215.604 146.89 214.241C146.914 213.59 146.938 212.972 146.963 212.373H146.997C150.382 212.401 153.752 211.926 156.997 210.967L157.357 210.918C159.876 230.299 162.015 249.724 163.773 269.192Z" fill="black" fill-opacity="0.15"/>
<path d="M147 211.917C147.131 208.329 147.225 205.518 147.281 201.604L147.379 200.918C150.28 201.432 153.157 202.062 156.011 202.808L156.064 202.803C156.102 203.115 156.139 203.422 156.176 203.735C156.457 205.962 156.732 208.187 157 210.411L156.653 210.461C153.531 211.455 150.29 211.946 147.034 211.917H147Z" fill="black" fill-opacity="0.15"/>
<path d="M147 201.371L146.9 202.04C146.844 205.865 146.748 208.609 146.615 212.113C146.592 212.718 146.568 213.343 146.544 214.002C146.491 215.38 146.378 216.89 145.676 218.012C145.514 218.275 145.317 218.513 145.092 218.721C144.081 219.641 142.638 219.774 141.295 219.868C139.832 219.966 138.205 220 137.013 219.208C136.826 219.078 136.651 218.93 136.491 218.765C135.829 217.942 135.394 216.949 135.233 215.891C134.925 214.533 134.675 213.163 134.484 211.782C133.942 207.919 133.855 204.001 134.223 200.115L134.233 199.918C136.858 200.071 139.474 200.312 142.08 200.642C143.725 200.849 145.366 201.092 147 201.371Z" fill="black"/>
<path d="M134 211.812L133.41 211.918C121.282 210.898 109.36 208.173 97.9998 203.823C99.7839 203.004 101.673 202.434 103.613 202.128C107.358 201.404 111.129 200.86 114.926 200.496C121.179 199.891 127.47 199.761 133.743 200.108L133.733 200.302C133.354 204.135 133.443 208 134 211.812Z" fill="black" fill-opacity="0.15"/>
<path d="M133 175.791L132.814 176.18C129.421 177.374 127.273 181 128.175 184.588L128.103 184.918C127.581 184.797 127.078 184.599 126.609 184.331C125.571 183.677 124.702 182.774 124.075 181.697C123.449 180.62 123.083 179.403 123.011 178.149C122.901 175.624 123.595 173.131 124.987 171.053C125.813 169.755 127.273 168.472 128.662 169.069C129.936 169.617 130.179 171.319 130.657 172.662C131.121 173.921 131.937 175.01 133 175.791Z" fill="black"/>
<path d="M137 169.204C137.766 170.389 139.756 169.987 140.542 168.823C141.327 167.658 141.274 166.129 141.187 164.723C140.879 159.7 140.572 154.678 140.264 149.657C140.182 148.376 140.115 147.043 140.636 145.871C141.353 144.271 143.064 143.304 144.789 143.028C146.514 142.753 148.273 143.047 150 143.343" stroke="black" stroke-linecap="round" stroke-linejoin="round"/>
<path d="M134 143.562C133.641 143.034 133.11 142.6 132.467 142.311C131.824 142.021 131.095 141.887 130.364 141.924C129.633 141.962 128.929 142.169 128.335 142.522C127.739 142.874 127.277 143.358 127 143.918" stroke="black" stroke-linecap="round" stroke-linejoin="round"/>
<path d="M132 153.918V149.918" stroke="black" stroke-linecap="round" stroke-linejoin="round"/>
<path d="M148 154.918V149.918" stroke="black" stroke-linecap="round" stroke-linejoin="round"/>
<path d="M139 176.947C138.018 177.151 137.003 177.147 136.024 176.934C135.043 176.721 134.12 176.305 133.314 175.713C132.218 174.942 131.377 173.865 130.897 172.62C130.405 171.292 130.154 169.609 128.84 169.067C127.407 168.477 125.901 169.746 125.049 171.029C123.614 173.084 122.898 175.549 123.011 178.045C123.086 179.286 123.463 180.49 124.109 181.554C124.755 182.619 125.652 183.512 126.723 184.159C127.206 184.424 127.725 184.62 128.264 184.74C129.207 184.98 130.198 184.978 131.14 184.733C132.082 184.488 132.946 184.008 133.649 183.339" stroke="black" stroke-linecap="round" stroke-linejoin="round"/>
<path d="M128.213 183.918C127.282 180.505 129.498 177.054 133 175.918" stroke="black" stroke-linecap="round" stroke-linejoin="round"/>
<path d="M142.094 199.918C141.977 197.127 141.86 194.297 142.468 191.574C143.077 188.852 144.504 186.192 146.861 184.706C149.573 183.005 153.347 182.889 155.271 180.321C156.332 178.909 156.561 177.056 156.736 175.291C158.014 162.542 158.323 149.714 157.662 136.918" stroke="black" stroke-linecap="round" stroke-linejoin="round"/>
<path d="M159.908 126.346C160.531 125.623 160.909 124.717 160.985 123.76C161.062 122.804 160.834 121.848 160.333 121.033C159.833 120.219 159.088 119.588 158.207 119.234C157.327 118.88 156.358 118.822 155.442 119.068C152.932 119.727 151.539 122.343 149.754 124.246C146.346 127.884 141.098 129.099 136.145 129.276C131.193 129.453 126.208 128.785 121.294 129.442C116.381 130.1 111.308 132.427 109.055 136.901C106.211 142.556 108.74 149.406 107.997 155.709C107.582 159.181 106.176 162.454 103.95 165.126C102.916 166.355 101.629 167.806 102.1 169.345C102.717 171.346 105.605 171.297 107.441 170.319C109.276 169.34 111.101 167.806 113.135 168.199C111.604 169.247 110.048 170.314 108.907 171.784C107.766 173.254 107.076 175.206 107.547 177.016C108.018 178.825 109.902 180.276 111.698 179.841C114.383 179.191 115.024 175.101 117.781 175.132" stroke="black" stroke-linecap="round" stroke-linejoin="round"/>
<path d="M160 125.918C159.661 126.245 159.33 126.582 159 126.918C159.386 126.669 159.726 126.328 160 125.918Z" stroke="black" stroke-linecap="round" stroke-linejoin="round"/>
<path d="M115 198.918C116.104 190.856 116.862 182.754 117.273 174.613C117.706 166.082 117.756 157.544 117.423 148.999C117.287 145.503 117.253 141.543 119.74 139.091C121.954 136.908 125.379 136.717 128.484 136.659C138.188 136.469 147.888 136.281 157.585 136.097L158.378 136.083C161.964 136.014 165.77 135.877 168.739 133.87C171.708 131.864 173.216 127.248 170.798 124.597C169.181 122.829 166.403 122.561 164.13 123.312C162.394 123.965 160.79 124.928 159.395 126.155" stroke="black" stroke-linecap="round" stroke-linejoin="round"/>
<path d="M113.255 253.332C108.896 255.714 105.058 258.944 101.967 262.832C98.8757 266.72 96.5931 271.188 95.2535 275.972C93.9145 280.757 93.5453 285.76 94.1685 290.69C94.7917 295.619 96.3945 300.373 98.8823 304.674C104.156 313.784 113.189 320.337 123.045 324.03C126.453 325.294 129.959 326.277 133.528 326.968C138.342 327.886 143.221 328.424 148.12 328.575C150.117 328.648 152.108 328.668 154.099 328.648C158.769 328.604 163.736 328.434 168.065 329.871C169.556 330.353 170.964 331.064 172.238 331.976C174.847 333.942 176.796 336.658 177.823 339.761C179.479 344.292 179.82 349.612 179.951 354.509C180.082 359.697 180.116 365.252 177.757 369.777C177.452 370.372 177.104 370.944 176.715 371.488C172.118 377.943 163.085 379.156 155.167 378.883C140.758 378.382 126.627 374.877 112.744 370.986C99.2268 367.195 85.5632 362.898 74.1055 354.786C61.2209 345.666 51.818 332.03 46.7729 317.068C41.7278 302.106 40.9034 285.893 43.2621 270.282C45.1421 257.849 49.0862 245.562 56.1714 235.179C63.2566 224.797 73.6864 216.427 85.8309 213.207C88.441 212.515 91.2946 211.959 93.1268 209.972C94.2025 208.803 94.7873 207.263 95.795 206.035C96.5673 205.114 97.5246 204.367 98.6047 203.84C100.386 203.017 102.271 202.444 104.208 202.135C107.948 201.409 111.714 200.863 115.505 200.498C121.75 199.891 128.032 199.76 134.297 200.108C136.99 200.259 139.673 200.497 142.346 200.825C144.035 201.029 145.718 201.27 147.392 201.546C150.412 202.042 153.406 202.651 156.377 203.373" stroke="black" stroke-linecap="round" stroke-linejoin="round"/>
<path d="M156 202.918C156.005 202.953 156.01 202.982 156.015 203.016C156.055 203.319 156.095 203.616 156.135 203.919C156.436 206.075 156.731 208.23 157.018 210.384C159.616 229.818 161.821 249.297 163.632 268.819C165.512 289.083 166.965 309.382 167.99 329.713C167.995 329.782 167.995 329.85 168 329.918" stroke="black" stroke-linecap="round" stroke-linejoin="round"/>
<path d="M157 204.222C160.169 213.572 164.881 222.603 172.06 229.35C179.24 236.098 189.15 240.345 198.929 239.212C209.638 237.977 218.877 230.512 224.647 221.383C230.417 212.253 233.201 201.571 235.385 190.986C236.193 187.086 237.054 182.921 239.843 180.089C241.732 178.164 244.205 177.145 246.862 176.598C249.104 176.181 251.378 175.962 253.657 175.944C258.213 175.827 263.226 176.047 267.243 177.892C269.112 178.715 270.753 179.985 272.018 181.593C274.814 185.211 275.143 190.141 274.957 194.716C274.057 216.881 263.704 238.075 248.541 254.225C237.842 265.63 224.414 274.905 209.206 278.451C193.999 281.997 176.939 279.208 165.018 269.097" stroke="black" stroke-linecap="round" stroke-linejoin="round"/>
<path d="M246.543 176.071C239.715 171.011 228.089 159.766 230.267 156.714C231.524 154.954 237.695 158.251 240.885 160.31C244.075 162.368 246.708 165.186 248.551 168.513C245.534 155.537 238.713 128.935 243.964 128.935C249.299 128.213 252.427 150.645 255.066 161.976C253.843 151.245 251.396 129.679 255.076 129.679C260.397 128.933 259.241 151.635 260.999 164.629C262.149 155.784 263.141 130.571 266.643 129.753C270.145 128.935 271.782 161.76 267.157 177.918" stroke="black" stroke-linecap="round" stroke-linejoin="round"/>
<path d="M310.173 325.57C299.674 340.425 286.717 353.377 271.861 363.866C271.751 363.949 271.636 364.027 271.524 364.106C267.272 367.084 262.14 369.985 257.154 368.532C253.43 367.446 250.805 364.184 248.65 360.955C248.029 360.019 247.424 359.068 246.847 358.094C243.924 353.163 241.749 347.724 242.023 342.059C242.253 338.319 243.416 334.697 245.405 331.523C247.772 327.774 250.754 324.452 254.227 321.697C255.375 320.753 256.553 319.867 257.745 319.031C265.629 313.503 274.582 309.268 281.117 302.19C288.174 294.545 291.708 284.337 294.415 274.285C297.123 264.233 299.244 253.878 304.17 244.707C309.097 235.536 317.479 227.515 327.786 226.11C331.92 225.548 336.32 226.032 340.097 224.261C343.874 222.49 346.773 215.77 343.724 212.918" stroke="black" stroke-linecap="round" stroke-linejoin="round"/>
<path d="M380.342 209.918C378.412 212.111 379.743 216.605 382.021 218.444C384.299 220.283 387.314 220.823 390.162 221.505C415.802 227.622 435.261 249.187 446.893 272.822C454.425 288.129 459.434 305.198 457.631 322.161C455.059 346.375 438.522 367.675 417.61 380.179C396.879 392.57 372.318 397.2 348.16 397.873C347.939 397.883 347.723 397.888 347.503 397.893C342.342 398.025 336.612 397.77 332.915 394.169C331.424 392.678 330.356 390.817 329.821 388.778C328.849 385.393 328.928 381.508 329.119 377.922C329.35 373.546 329.728 368.833 331.638 365.021C332.318 363.624 333.243 362.36 334.368 361.288C336.548 359.237 339.239 358.182 342.16 357.633C344.05 357.298 345.962 357.103 347.881 357.05C350.169 356.956 352.477 356.961 354.696 356.868C357.043 356.769 359.38 356.511 361.693 356.097C368.982 354.842 375.942 352.127 382.154 348.116C388.367 344.106 393.704 338.882 397.845 332.759C401.985 326.636 404.845 319.739 406.251 312.484C407.656 305.23 407.58 297.765 406.026 290.54" stroke="black" stroke-linecap="round" stroke-linejoin="round"/>
<path d="M297.675 378.918C288.808 379.869 280.696 381.142 281.008 383.468C281.58 387.727 302.083 385.214 313.097 382.953C304.763 384.722 296.427 386.491 288.091 388.26C286.968 388.414 285.899 388.82 284.97 389.443C284.105 390.136 283.63 391.41 284.224 392.328C284.781 393.194 285.984 393.397 287.043 393.5C301.089 394.885 316.663 392.748 330 388.311" stroke="black" stroke-linecap="round" stroke-linejoin="round"/>
<path d="M298 378.918C302.705 378.907 307.396 378.237 312 376.918C308.01 377.566 302.884 378.167 298 378.918Z" stroke="black" stroke-linecap="round" stroke-linejoin="round"/>
<path d="M312 368.918C300.115 368.995 281.101 372.644 282.033 377.139C282.033 379.601 292.283 378.796 297.477 378.78" stroke="black" stroke-linecap="round" stroke-linejoin="round"/>
<path d="M312 368.918C312.999 368.918 314 368.918 315 368.918C314.064 368.918 313.058 368.918 312 368.918Z" stroke="black" stroke-linecap="round" stroke-linejoin="round"/>
<path d="M332 364.801C324.259 364.098 316.965 362.749 309.23 362.047C308.581 361.989 307.928 361.93 307.274 361.923C306.368 361.891 305.464 362.029 304.605 362.33C303.144 362.889 301.871 364.34 302.01 365.963C302.01 368.007 308.722 368.659 312.311 368.918" stroke="black" stroke-linecap="round" stroke-linejoin="round"/>
<path d="M322 252.918C316.672 276.884 312.664 301.103 309.993 325.475C308.667 337.557 307.669 349.704 307 361.918" stroke="black" stroke-linecap="round" stroke-linejoin="round"/>
<path d="M367.645 175.918C365.431 175.47 363.216 175.021 361 174.57C361.745 165.221 363.363 155.963 365.833 146.918C370.555 147.488 375.277 148.055 380 148.622" stroke="black" stroke-linecap="round" stroke-linejoin="round"/>
<path d="M361 146.918C357.729 145.695 354.303 145.593 351 146.619" stroke="black" stroke-linecap="round" stroke-linejoin="round"/>
<path d="M369 192.918C375.075 192.918 380 190.008 380 186.418C380 182.829 375.075 179.918 369 179.918C362.924 179.918 358 182.829 358 186.418C358 190.008 362.924 192.918 369 192.918Z" stroke="black" stroke-linecap="round" stroke-linejoin="round"/>
<path d="M383.811 173.429C381.586 173.463 379.385 173.884 377.306 174.673C373.738 175.922 370.073 177.833 366.226 178.006C362.137 178.13 358.053 177.628 354.116 176.517C351.76 175.879 349.466 175.033 347.259 173.991C345.914 173.292 344.513 172.706 343.071 172.238C341.732 171.786 340.278 171.814 338.958 172.319C337.258 173.049 336.161 174.721 335.385 176.397C332.588 182.469 332.742 189.458 333.402 196.106C333.855 200.654 334.659 205.487 337.76 208.854C339.478 210.647 341.646 211.949 344.038 212.624C345.971 213.202 347.962 213.57 349.975 213.72C350.996 213.806 352.012 213.854 353.013 213.882C355.531 213.949 358.054 213.925 360.573 213.795C364.926 213.577 369.253 213.001 373.511 212.071C375.724 211.602 377.895 210.953 380.002 210.13C382.329 209.232 384.483 207.939 386.367 206.307C390.845 202.311 392.94 196.249 393.71 190.307C394.11 187.247 394.198 184.084 393.305 181.128C392.412 178.171 390.436 175.431 387.599 174.196C386.401 173.689 385.112 173.427 383.811 173.429Z" stroke="black" stroke-linecap="round" stroke-linejoin="round"/>
<path d="M383.8 172.918C384.275 170.693 384.682 168.497 385.011 166.31C385.733 161.587 386.109 156.817 386.136 152.037C386.16 148.972 385.986 145.714 384.27 143.189C382.124 140.044 378.136 138.845 374.415 138.255C366.363 136.978 358.095 137.543 350.068 136.118C349.002 135.927 347.936 135.696 346.87 135.411C339.933 133.568 333.319 129.702 330.278 123.231C330.127 123.003 330.035 122.742 330.008 122.469C329.981 122.197 330.02 121.922 330.123 121.668C330.442 121.143 331.179 121.118 331.789 121.17C335.795 121.522 339.72 122.524 343.413 124.137C341.555 121.693 340.328 118.817 339.842 115.77C339.663 114.616 339.726 113.169 340.743 112.615C341.61 112.149 342.662 112.62 343.515 113.114C348.52 116.011 352.919 119.871 356.465 124.478C355.19 122.64 354.306 120.553 353.872 118.349C353.437 116.145 353.461 113.873 353.941 111.679C354.269 110.205 355.463 108.456 356.839 109.03C357.354 109.314 357.769 109.754 358.026 110.289C361.257 115.57 364.487 120.85 367.716 126.129C368.893 124.773 369.121 122.852 369.845 121.206C370.568 119.56 372.374 118.027 373.987 118.784C375.005 119.265 375.48 120.468 375.635 121.599C375.79 122.729 375.717 123.903 376.08 124.979C376.962 127.58 379.955 128.693 382.626 129.19C385.297 129.686 388.266 130.03 390.088 132.068C391.377 133.503 391.812 135.5 392.205 137.399C394.133 146.802 396.065 156.206 398 165.61C396.105 164.2 394.209 162.793 392.312 161.39C392.408 163.05 393.722 164.333 394.54 165.777C395.359 167.222 395.403 169.536 393.853 170.086C392.966 170.406 392.011 169.954 391.178 169.512C389.167 168.45 387.158 167.388 385.151 166.327" stroke="black" stroke-linecap="round" stroke-linejoin="round"/>
<path d="M347 135.918C344.905 147.787 343.57 159.78 343.005 171.822C343.005 171.855 343 171.884 343 171.918" stroke="black" stroke-linecap="round" stroke-linejoin="round"/>
<path d="M364 185.037C365.35 186.036 366.731 187.059 368.375 187.588C370.02 188.117 372.015 188.063 373.345 187.045C374.044 186.438 374.605 185.716 375 184.918" stroke="black" stroke-linecap="round" stroke-linejoin="round"/>
<path d="M178 339.421C185.12 335.388 192.352 331.318 200.339 329.24C208.029 327.241 216.633 327.288 223.597 330.923C223.865 331.063 224.133 331.211 224.396 331.36C225.413 331.941 226.445 332.669 226.839 333.74C227.535 335.626 225.866 337.682 223.885 338.32C221.904 338.957 219.743 338.603 217.665 338.375C211.328 337.676 204.908 338.201 198.786 339.918" stroke="black" stroke-linecap="round" stroke-linejoin="round"/>
<path d="M209.364 338.918C202.126 342.781 196.75 349.291 194.414 357.021C193.987 358.479 193.698 360.151 194.543 361.425C195.354 362.644 197.034 363.101 198.506 362.854C199.967 362.521 201.322 361.844 202.453 360.883C204.8 359.101 206.863 356.989 208.575 354.616C209.962 352.696 211.275 350.475 213.522 349.634C215.252 348.987 217.181 349.305 219.031 349.415C223.365 349.657 227.684 348.724 231.51 346.718C232.743 346.082 233.911 345.333 235 344.482" stroke="black" stroke-linecap="round" stroke-linejoin="round"/>
<path d="M224 330.349C230.907 328.264 238.186 328.461 245 330.918" stroke="black" stroke-linecap="round" stroke-linejoin="round"/>
<path d="M231.632 347.215C232.759 347.181 233.925 346.678 234.978 347.062C235.518 347.23 235.996 347.544 236.354 347.968C236.713 348.391 236.937 348.906 236.999 349.449C237.044 351.116 235.156 352.144 233.53 352.707C226.949 354.98 219.989 356.063 213 355.903" stroke="black" stroke-linecap="round" stroke-linejoin="round"/>
<path d="M233.672 352.939C234.637 353.062 235.628 352.7 236.485 353.16C236.923 353.37 237.296 353.694 237.563 354.096C237.83 354.499 237.981 354.966 238 355.447C237.932 356.083 237.672 356.684 237.252 357.171C236.436 358.219 235.422 359.1 234.266 359.766C232.952 360.529 231.563 361.16 230.121 361.647C223.674 363.946 216.853 365.051 210 364.906C210.193 364.901 210.39 364.901 210.584 364.896" stroke="black" stroke-linecap="round" stroke-linejoin="round"/>
<path d="M213 369.918C216.807 369.529 227.401 368.191 230.882 366.653C232.306 366.023 233.764 365.235 234.545 363.925C234.934 363.252 235.079 362.473 234.958 361.711C234.914 361.342 234.782 360.988 234.572 360.677C234.363 360.366 234.081 360.106 233.75 359.918" stroke="black" stroke-linecap="round" stroke-linejoin="round"/>
<path d="M235 361.918C239.247 361.542 243.353 360.174 247 357.918" stroke="black" stroke-linecap="round" stroke-linejoin="round"/>
<path d="M178 369.918C179.802 369.918 188.157 369.918 190 369.918" stroke="black" stroke-linecap="round" stroke-linejoin="round"/>
<path d="M191 369.48C192.206 367.62 193.925 366.154 195.946 365.263C196.733 364.924 197.72 364.703 198.385 365.249C199.001 365.755 199.03 366.68 198.986 367.482C198.947 368.135 198.889 368.789 198.796 369.439C198.687 370.319 198.487 371.186 198.199 372.025C198.088 372.351 197.959 372.671 197.814 372.984C197.44 373.852 196.89 374.633 196.2 375.276C195.51 375.92 194.696 376.412 193.806 376.722C193.101 376.934 192.356 376.975 191.632 376.841C190.908 376.707 190.226 376.401 189.642 375.95C188.416 374.947 189.242 373.501 189.691 372.168C190.011 371.219 190.451 370.316 191 369.48Z" stroke="black" stroke-linecap="round" stroke-linejoin="round"/>
<path d="M197.469 372.061C197.259 373.264 196.613 375.316 197.327 376.287C197.579 376.575 197.936 376.767 198.33 376.827C200.194 377.227 202.65 376.265 203.82 374.862C204.028 374.61 204.22 374.346 204.392 374.072C205.13 372.782 205.64 371.39 205.903 369.95C205.918 369.887 205.933 369.824 205.943 369.756C206.05 369.171 206.005 368.57 205.813 368.004C205.621 367.438 205.286 366.923 204.837 366.501C202.597 364.64 199.226 367.681 198.194 369.433C198.149 369.51 198.105 369.592 198.066 369.674C197.76 370.374 197.571 371.113 197.504 371.866C197.494 371.929 197.484 371.993 197.469 372.061Z" stroke="black" stroke-linecap="round" stroke-linejoin="round"/>
<path d="M204.65 374.244C204.605 374.352 204.561 374.456 204.521 374.561C204.199 375.257 204.022 376.008 204 376.77C203.99 377.21 204.116 377.643 204.363 378.012C204.609 378.381 204.965 378.67 205.384 378.839C206.177 379.085 207.035 378.719 207.745 378.291C210.009 376.907 211.729 374.827 212.63 372.382C212.839 371.847 212.961 371.284 212.992 370.713C213.031 370.203 212.921 369.693 212.675 369.241C212.34 368.738 211.852 368.348 211.279 368.125C210.706 367.903 210.076 367.858 209.475 367.999C208.276 368.316 207.238 369.049 206.559 370.059" stroke="black" stroke-linecap="round" stroke-linejoin="round"/>
<path d="M134.225 199.918C133.854 203.843 133.941 207.799 134.488 211.701C134.679 213.098 134.931 214.481 135.243 215.851C135.404 216.92 135.843 217.923 136.51 218.753C136.671 218.921 136.847 219.071 137.037 219.201C138.237 220.001 139.878 219.966 141.351 219.867C142.705 219.773 144.159 219.638 145.177 218.709C145.404 218.5 145.602 218.259 145.766 217.993C146.474 216.86 146.589 215.335 146.641 213.943C146.665 213.277 146.689 212.646 146.713 212.035C146.847 208.496 146.943 205.723 147 201.862" stroke="black" stroke-linecap="round" stroke-linejoin="round"/>
<path d="M137 218.918C134.322 228.316 134.268 238.384 134.237 248.264C134.16 274.482 134.081 300.701 134 326.918" stroke="black" stroke-linecap="round" stroke-linejoin="round"/>
<path d="M146 217.918C148.897 220.654 149.029 224.808 148.996 228.557C148.672 261.681 148.351 294.801 148.034 327.918" stroke="black" stroke-linecap="round" stroke-linejoin="round"/>
<path d="M349.478 213.918C349.322 216.955 349.168 219.991 349.015 223.027C348.974 223.86 348.974 224.806 349.589 225.383C349.935 225.678 350.371 225.852 350.828 225.879C351.142 225.913 351.456 225.925 351.772 225.915C353.809 225.889 355.851 225.857 357.889 225.833C358.04 225.833 358.191 225.828 358.348 225.818C359.069 225.852 359.776 225.62 360.332 225.168C360.947 224.56 360.984 223.61 360.989 222.756C360.989 219.93 360.993 217.103 361 214.277" stroke="black" stroke-linecap="round" stroke-linejoin="round"/>
<path d="M350.613 225.918C350.609 225.934 350.608 225.951 350.608 225.967C350.08 229.259 349.895 232.592 350.056 235.918C350.148 235.874 350.235 235.83 350.327 235.796C351.374 235.381 352.595 235.503 353.745 235.508C354.783 235.579 355.814 235.297 356.657 234.712C356.825 234.577 356.969 234.417 357.085 234.238C357.406 233.647 357.569 232.989 357.561 232.323C357.709 230.301 357.855 228.278 358 226.256" stroke="black" stroke-linecap="round" stroke-linejoin="round"/>
<path d="M351 235.918C350.995 235.918 350.995 235.923 350.989 235.923C348.132 237.146 346.212 239.819 345.274 242.643C344.337 245.467 344.276 248.475 344.214 251.435C343.479 286.598 342.741 321.759 342 356.918" stroke="black" stroke-linecap="round" stroke-linejoin="round"/>
<path d="M357 234.918H357.01C358.465 234.909 359.737 236.029 360.361 237.349C360.901 238.714 361.177 240.169 361.174 241.638C363.412 279.36 363.593 317.176 361.715 354.918" stroke="black" stroke-linecap="round" stroke-linejoin="round"/>
<path d="M373 258.918C375.283 259.314 377.575 259.674 379.874 259.998C382.128 260.323 384.387 260.609 386.646 260.861C390.759 261.321 394.876 261.674 399 261.918" stroke="black" stroke-linecap="round" stroke-linejoin="round"/>
<path d="M372.182 258.918C371.756 265.813 372.078 272.734 373.143 279.558C373.528 282.034 374.085 284.645 375.806 286.455C377.291 288.017 379.47 288.758 381.616 288.907C383.764 288.97 385.912 288.767 388.012 288.3C391.094 287.749 394.551 286.948 396.154 284.232C396.977 282.84 397.15 281.169 397.303 279.558C397.87 273.674 398.435 267.789 399 261.902" stroke="black" stroke-linecap="round" stroke-linejoin="round"/>
<path d="M386.804 260.537C387.034 258.67 387.242 256.675 386.311 254.999C385.38 253.323 382.85 252.26 381.202 253.382C380.057 254.166 379.796 255.616 379.651 256.92C379.533 257.954 379.433 258.988 379.35 260.022C378.885 265.646 378.883 271.294 379.345 276.918" stroke="black" stroke-linecap="round" stroke-linejoin="round"/>
<path d="M254.001 321.918C253.904 337.4 260.518 351.86 272 362.918" stroke="black" stroke-linecap="round" stroke-linejoin="round"/>
<path d="M347.69 356.918C345.34 370.484 345.441 384.308 347.989 397.844C347.989 397.869 347.993 397.894 348 397.918" stroke="black" stroke-linecap="round" stroke-linejoin="round"/>
<path d="M97.9998 203.918C98.165 203.98 98.3368 204.045 98.5031 204.102C109.891 208.302 121.842 210.934 134 211.918" stroke="black" stroke-linecap="round" stroke-linejoin="round"/>
<path d="M147 211.918C150.384 211.937 153.754 211.6 157 210.918" stroke="black" stroke-linecap="round" stroke-linejoin="round"/>
<path d="M358 155.918C357.76 155.334 357.407 154.841 356.977 154.49C356.547 154.14 356.055 153.944 355.549 153.921C355.043 153.898 354.541 154.05 354.094 154.361C353.647 154.673 353.269 155.132 353 155.695" stroke="black" stroke-linecap="round" stroke-linejoin="round"/>
<path d="M368 156.744C368.315 156.172 368.763 155.702 369.298 155.382C369.833 155.062 370.436 154.902 371.046 154.92C371.656 154.937 372.251 155.132 372.769 155.483C373.289 155.834 373.713 156.329 374 156.918" stroke="black" stroke-linecap="round" stroke-linejoin="round"/>
<path d="M455.661 219.918C451.123 231.127 450.793 243.579 454.73 255.009C458.669 266.44 466.613 276.089 477.12 282.203C482.195 285.156 488.178 287.615 490.742 292.866C493.097 297.691 491.789 303.475 489.729 308.431C488.259 311.965 486.33 315.47 483.234 317.75C480.138 320.029 475.637 320.783 472.414 318.683C469.191 316.584 468.379 311.26 471.423 308.911C471.991 308.443 472.677 308.14 473.408 308.035C474.138 307.93 474.883 308.027 475.561 308.314C476.875 308.969 477.571 310.772 476.78 312.003" stroke="black" stroke-linecap="round" stroke-linejoin="round"/>
<path d="M427 385.918C431.774 385.643 436.399 384.118 440.427 381.491C444.456 378.864 447.752 375.222 450 370.918" stroke="black" stroke-linecap="round" stroke-linejoin="round"/>
<path d="M189 391.283C201.279 397.169 217.041 395.809 228 387.918" stroke="black" stroke-linecap="round" stroke-linejoin="round"/>
<path d="M203 402.918L213 400.918" stroke="black" stroke-linecap="round" stroke-linejoin="round"/>
<path d="M197 321.918C199.71 320 202.806 318.965 205.97 318.92C209.133 318.875 212.25 319.821 215 321.661" stroke="black" stroke-linecap="round" stroke-linejoin="round"/>
<path d="M56.9998 363.918C44.3052 361.916 33.7997 350.535 32.9998 337.918" stroke="black" stroke-linecap="round" stroke-linejoin="round"/>
<path d="M16.9998 287.918C14.1333 285.76 11.7498 283.036 9.99976 279.918" stroke="black" stroke-linecap="round" stroke-linejoin="round"/>
<path d="M7.99976 289.918L14.9998 281.918" stroke="black" stroke-linecap="round" stroke-linejoin="round"/>
<path d="M19.8302 251.924C21.7532 247.629 29.1361 248.509 30.6859 252.955C32.2357 257.402 28.2559 262.521 23.6146 262.892C18.9734 263.262 14.6045 259.731 12.9515 255.322C11.2986 250.914 11.9632 245.901 13.6849 241.518C16.0835 235.459 20.3436 230.343 25.8351 226.926C35.098 221.198 48.0955 219.932 53.1837 210.224C55.0522 206.659 55.3747 202.063 53.1946 198.683C51.0145 195.304 46.0289 193.829 42.7853 196.174C40.3002 197.97 39.4113 201.535 40.3117 204.487C41.212 207.439 43.6497 209.753 46.453 210.978C52.4738 213.607 60.2337 211.06 63.5882 205.353C67.0654 199.435 65.7557 191.999 65.5691 185.115C65.3825 178.231 67.5091 169.97 73.9998 167.918" stroke="black" stroke-linecap="round" stroke-linejoin="round"/>
<path d="M98.0092 137.918C97.907 135.714 98.634 133.541 100.077 131.734C101.522 129.927 103.602 128.587 106 127.918" stroke="black" stroke-linecap="round" stroke-linejoin="round"/>
<path d="M160 106.918C161.126 103.775 163.209 100.998 166 98.9184" stroke="black" stroke-linecap="round" stroke-linejoin="round"/>
<path d="M167 105.918L156 96.9184" stroke="black" stroke-linecap="round" stroke-linejoin="round"/>
<path d="M183 119.918L188 115.918" stroke="black" stroke-linecap="round" stroke-linejoin="round"/>
<path d="M188 120.918L184 114.918" stroke="black" stroke-linecap="round" stroke-linejoin="round"/>
<path d="M281.643 142.918C282.308 139.968 282.039 136.912 280.867 134.088C279.694 131.264 277.663 128.783 275 126.918" stroke="black" stroke-linecap="round" stroke-linejoin="round"/>
<path d="M288 135.918L285 129.918" stroke="black" stroke-linecap="round" stroke-linejoin="round"/>
<path d="M390 107.918L389 99.9184" stroke="black" stroke-linecap="round" stroke-linejoin="round"/>
<path d="M385 104.918L392 102.918" stroke="black" stroke-linecap="round" stroke-linejoin="round"/>
<path d="M406 124.918L420 112.918" stroke="black" stroke-linecap="round" stroke-linejoin="round"/>
<path d="M417 123.918L408 111.918" stroke="black" stroke-linecap="round" stroke-linejoin="round"/>
<path d="M447 180.918L440 172.918" stroke="black" stroke-linecap="round" stroke-linejoin="round"/>
<path d="M439 180.918C442.749 179.121 445.873 176.345 448 172.918" stroke="black" stroke-linecap="round" stroke-linejoin="round"/>
<path d="M336 251.918L332 246.918" stroke="black" stroke-linecap="round" stroke-linejoin="round"/>
<path d="M365 222.918C369.106 221.894 373.119 220.556 377 218.918" stroke="black" stroke-linecap="round" stroke-linejoin="round"/>
<path d="M347 222.918L345 221.918" stroke="black" stroke-linecap="round" stroke-linejoin="round"/>
<path d="M376 241.918L381 235.918" stroke="black" stroke-linecap="round" stroke-linejoin="round"/>
<path d="M407 243.918L404 239.918" stroke="black" stroke-linecap="round" stroke-linejoin="round"/>
<path d="M424 271.918L430 265.918" stroke="black" stroke-linecap="round" stroke-linejoin="round"/>
<path d="M418 292.918L414 285.918" stroke="black" stroke-linecap="round" stroke-linejoin="round"/>
<path d="M378 313.918L382 307.918" stroke="black" stroke-linecap="round" stroke-linejoin="round"/>
<path d="M388 327.918L386 322.918" stroke="black" stroke-linecap="round" stroke-linejoin="round"/>
<path d="M322 346.918L327 340.918L326.661 341.311" stroke="black" stroke-linecap="round" stroke-linejoin="round"/>
<path d="M328 315.918L324 308.918" stroke="black" stroke-linecap="round" stroke-linejoin="round"/>
<path d="M332 289.918L336 285.918" stroke="black" stroke-linecap="round" stroke-linejoin="round"/>
<path d="M302 290.918C300.541 289.908 299.488 288.505 299 286.918" stroke="black" stroke-linecap="round" stroke-linejoin="round"/>
<path d="M298 316.918L302 309.918" stroke="black" stroke-linecap="round" stroke-linejoin="round"/>
<path d="M280 340.918L278 334.918" stroke="black" stroke-linecap="round" stroke-linejoin="round"/>
<path d="M268 322.918C269.567 322.007 271.251 321.334 273 320.918" stroke="black" stroke-linecap="round" stroke-linejoin="round"/>
<path d="M429 317.918L437 312.918" stroke="black" stroke-linecap="round" stroke-linejoin="round"/>
<path d="M411 338.918L412 329.918" stroke="black" stroke-linecap="round" stroke-linejoin="round"/>
<path d="M437 340.918V334.918" stroke="black" stroke-linecap="round" stroke-linejoin="round"/>
<path d="M406 359.918H413" stroke="black" stroke-linecap="round" stroke-linejoin="round"/>
<path d="M377 367.918L379 361.918" stroke="black" stroke-linecap="round" stroke-linejoin="round"/>
<path d="M361 381.918L366 382.918" stroke="black" stroke-linecap="round" stroke-linejoin="round"/>
<path d="M476 268.918L478 261.918" stroke="black" stroke-linecap="round" stroke-linejoin="round"/>
<path d="M480 266.874C477.537 267.107 475.075 266.419 473 264.918" stroke="black" stroke-linecap="round" stroke-linejoin="round"/>
<path d="M227 280.918C233.769 278.584 239.707 274.044 244 267.918" stroke="black" stroke-linecap="round" stroke-linejoin="round"/>
<path d="M108 233.389L101.166 229.918C101.166 229.918 99.9998 234.083 99.9998 234.777C99.9998 235.471 108 233.389 108 233.389Z" stroke="black" stroke-linecap="round" stroke-linejoin="round"/>
<path d="M79.7436 275.918L72.9998 279.975L82.9998 283.918L79.7436 275.918Z" stroke="black" stroke-linecap="round" stroke-linejoin="round"/>
<path d="M68.9998 237.918L60.9998 241.482L68.9998 246.918V237.918Z" stroke="black" stroke-linecap="round" stroke-linejoin="round"/>
<path d="M123 279.918L116 282.423L120.549 288.918L123 279.918Z" stroke="black" stroke-linecap="round" stroke-linejoin="round"/>
<path d="M206.683 252.918L199 262.918H209L206.683 252.918Z" stroke="black" stroke-linecap="round" stroke-linejoin="round"/>
<path d="M248 218.918L257 219.474L253.308 227.918L248 218.918Z" stroke="black" stroke-linecap="round" stroke-linejoin="round"/>
<path d="M230.162 229.918L231 234.918L224 233.389L230.162 229.918Z" stroke="black" stroke-linecap="round" stroke-linejoin="round"/>
<path d="M164.484 337.918L168 344.918H153L164.484 337.918Z" stroke="black" stroke-linecap="round" stroke-linejoin="round"/>
<path d="M111 355.918L105.431 342.918L98.9998 352.898L111 355.918Z" stroke="black" stroke-linecap="round" stroke-linejoin="round"/>
<path d="M75.9998 316.918L69.7692 326.918L66.9998 316.918H75.9998Z" stroke="black" stroke-linecap="round" stroke-linejoin="round"/>
<path d="M160.361 300.918L155 305.548L162 308.918L160.361 300.918Z" stroke="black" stroke-linecap="round" stroke-linejoin="round"/>
<g opacity="0.1">
<path d="M157.985 134.345C149.737 132.712 140.865 133.128 132.484 133.418C125.626 133.656 120.101 136.594 119.582 144.035C119.307 147.991 119.704 152.058 119.779 156.021C119.865 160.604 119.792 165.186 119.558 169.766C119.163 178.68 118.301 187.567 116.975 196.39C116.486 199.5 121.112 200.925 121.802 197.721C125.123 182.303 126.693 166.505 125.455 150.737C125.222 147.781 123.914 142.941 125.969 140.372C127.768 138.123 131.415 138.175 134.011 138.097C142.008 137.856 150.141 138.301 157.985 136.534C159.05 136.294 159.086 134.562 157.985 134.345H157.985Z" fill="black"/>
</g>
<g opacity="0.1">
<path d="M112.573 198.34C107.67 200.117 103.052 202.775 98.4714 205.262C96.1218 206.538 93.7612 207.468 91.4942 208.914C89.1612 210.402 86.8304 211.894 84.5017 213.389C76.2378 218.695 67.8941 224.24 61.5736 231.874C49.7224 246.188 43.6589 265.288 42.9824 283.704C42.3313 301.441 46.7465 319.903 57.1205 334.485C68.2458 350.124 84.8595 360.285 102.588 366.93C124.941 375.209 148.83 378.517 172.592 376.623C175.273 376.413 177.571 374.485 177.571 371.644C177.571 369.105 175.288 366.463 172.592 366.665C152.995 368.173 133.29 365.995 114.497 360.242C98.0162 355.167 81.7575 347.331 70.0461 334.349C59.2053 322.331 53.7599 306.15 53.1402 290.134C52.5006 273.604 56.3494 256.243 65.3701 242.261C70.9289 233.647 78.8152 227.482 87.1699 221.745C91.6704 218.655 96.517 215.848 100.515 212.137C104.798 208.162 109.989 205.248 114.28 201.274C115.524 200.122 114.235 197.74 112.574 198.342L112.573 198.34Z" fill="black"/>
</g>
<g opacity="0.1">
<path d="M346.275 214.031C348.54 219.727 340.789 222.012 336.67 222.163C331.151 222.362 325.773 223.611 321.063 226.611C311.262 232.856 305.893 243.797 302.625 254.568C299.099 266.192 297.785 278.865 291.466 289.458C286.424 297.911 278.154 303.613 270.254 309.154C265.704 312.347 261.138 315.557 256.95 319.219C252.953 322.712 247.576 327.474 246.61 332.916C245.918 336.811 249.935 338.97 252.948 336.604C254.933 335.046 256.273 332.855 257.934 330.956C259.615 329.055 261.422 327.269 263.344 325.611C267.154 322.285 271.332 319.424 275.469 316.529C283.96 310.585 292.509 304.439 298.31 295.67C305.586 284.663 307.374 271.34 310.715 258.863C313.584 248.146 318.355 237.127 328.737 231.781C334.261 228.937 341.461 229.724 346.527 225.906C350.727 222.74 352.921 216.589 349.338 212.249C348.202 210.873 345.608 212.352 346.276 214.031H346.275Z" fill="black"/>
</g>
<g opacity="0.1">
<path d="M325.938 251.232C322.349 253.303 321.995 258.987 321.095 262.643C319.98 267.17 319.109 271.762 318.288 276.351C316.672 285.401 315.437 294.535 314.299 303.657C313.164 312.754 312.228 321.875 311.492 331.017C311.117 335.677 310.795 340.34 310.524 345.005C310.4 347.159 310.286 349.314 310.183 351.468C310.066 353.945 309.597 356.656 310.469 359.009C311.542 361.906 316.291 363.448 317.872 359.976C319.74 355.875 319.122 350.549 319.361 346.08C319.602 341.593 319.891 337.109 320.227 332.628C320.915 323.487 321.803 314.365 322.891 305.26C323.955 296.363 325.307 287.516 326.677 278.662C327.392 274.03 328.166 269.406 328.791 264.762C329.286 261.074 331.336 255.284 328.936 252.017C328.633 251.525 328.152 251.17 327.593 251.023C327.035 250.877 326.442 250.95 325.936 251.23L325.938 251.232Z" fill="black"/>
</g>
<g opacity="0.1">
<path d="M334.408 367.473C336.106 367.23 337.714 366.385 339.335 365.837C341.434 365.146 343.57 364.572 345.732 364.116C350.415 363.083 355.266 363.173 360.034 362.945C368.836 362.591 377.461 360.364 385.335 356.413C393.035 352.497 399.778 346.933 405.085 340.118C410.393 333.302 414.135 325.402 416.046 316.976C417.153 312.055 417.649 307.016 417.524 301.974C417.377 296.939 417.162 290.841 413.928 286.778C412.133 284.521 407.708 285.716 407.244 288.542C406.566 292.683 408.07 296.904 408.267 301.079C408.901 313.341 405.103 325.422 397.568 335.117C392.646 341.217 386.413 346.131 379.332 349.493C371.647 353.194 363.685 354.087 355.281 354.509C350.208 354.764 344.846 355.152 340.27 357.558C337.091 359.229 332.943 362.468 333.101 366.478C333.105 366.636 333.145 366.79 333.216 366.931C333.288 367.071 333.39 367.194 333.516 367.289C333.641 367.385 333.786 367.451 333.941 367.483C334.095 367.515 334.255 367.511 334.408 367.473Z" fill="black"/>
</g>
</svg>
