<svg width="500" height="500" viewBox="0 0 500 500" fill="none" xmlns="http://www.w3.org/2000/svg">
<mask id="mask0_10_4724" style="mask-type:luminance" maskUnits="userSpaceOnUse" x="49" y="67" width="402" height="366">
<path d="M451 67.1902H49.0005V432.81H451V67.1902Z" fill="white"/>
</mask>
<g mask="url(#mask0_10_4724)">
<path fill-rule="evenodd" clip-rule="evenodd" d="M333.266 231.316C333.457 231.503 333.59 231.627 333.654 231.682C333.534 231.55 333.404 231.428 333.266 231.316ZM323.222 167.983C327.273 171.733 330.534 174.367 330.676 174.481C328.471 172.013 325.967 169.831 323.222 167.983ZM308.301 143.066C303.28 147.945 314.909 160.292 323.213 167.974C319.367 165.519 314.894 164.178 311.991 168.245C306.147 176.425 330.68 203.012 331.919 204.347C331.015 203.431 318.417 190.92 312.82 198.799C307.451 206.353 329.803 228.032 333.251 231.306C331.984 230.241 328.138 227.927 323.579 233.959C319.696 239.086 327.612 249.767 332.835 255.828C331.101 254.863 328.897 254.644 326.378 256.619C323.282 259.048 326.528 266.336 330.589 273.063C332.96 276.982 335.597 280.709 337.417 283.173C338.715 284.934 339.597 286.055 339.675 286.146C341.303 285.885 343.323 285.574 345.506 285.272C347.6 284.98 349.836 284.696 352.009 284.477C351.898 284.106 346.43 265.353 350.586 260.291C353.934 256.208 356.801 258.371 357.825 259.409C355.539 256.725 344.166 242.915 347.463 237.098C351.025 230.813 359.435 240.242 359.869 240.736C359.302 239.952 343.082 217.362 350.586 208.267C358.09 199.172 369.229 216.466 369.618 217.07C369.142 216.215 352.405 185.798 359.886 179.431C362.154 177.503 364.779 177.494 367.344 178.431C368.793 163.752 357.792 167.813 357.792 167.813C357.792 167.813 378.666 145.864 372.854 138.977C367.134 132.195 352.647 148.791 352.209 149.294C352.733 148.576 373.164 120.521 364.032 107.992C354.775 95.2942 337.995 124.989 337.995 124.989C337.995 124.989 329.386 98.9531 319.276 106.914C309.275 114.786 329.774 146.841 330.241 147.572L330.246 147.58C329.9 147.3 315.739 135.837 308.301 143.066ZM336.909 260.282C336.819 260.095 335.309 257.205 332.835 255.828C335.035 258.394 336.759 260.131 336.909 260.282ZM342.072 134.862C342.07 134.485 341.763 134.181 341.386 134.183C341.009 134.185 340.706 134.492 340.708 134.869L341.39 134.865C340.708 134.869 340.708 134.87 340.708 134.871V134.875V134.894L340.708 134.969L340.71 135.264C340.712 135.524 340.714 135.909 340.717 136.413C340.723 137.421 340.733 138.9 340.747 140.786C340.774 144.558 340.817 149.956 340.879 156.464C341.002 169.479 341.202 186.93 341.507 204.675C341.811 222.42 342.22 240.462 342.763 254.656C343.035 261.753 343.34 267.893 343.683 272.556C343.854 274.887 344.035 276.856 344.227 278.393C344.416 279.909 344.622 281.065 344.86 281.732C344.987 282.087 345.377 282.272 345.733 282.145C346.087 282.018 346.272 281.628 346.145 281.273C345.964 280.766 345.771 279.75 345.581 278.224C345.393 276.72 345.214 274.777 345.043 272.456C344.703 267.817 344.398 261.695 344.127 254.604C343.584 240.424 343.175 222.393 342.871 204.652C342.566 186.911 342.366 169.464 342.243 156.451C342.181 149.944 342.139 144.547 342.111 140.776C342.098 138.891 342.088 137.412 342.081 136.405C342.078 135.901 342.076 135.515 342.075 135.255L342.073 134.961L342.072 134.887V134.868V134.863C342.072 134.862 342.072 134.862 341.39 134.865L342.072 134.862Z" fill="black"/>
<path d="M385.795 277.381C387.99 278.584 389.211 279.919 389.211 281.323C389.211 281.401 389.206 281.479 389.197 281.557C388.97 283.962 385.169 286.143 379.069 287.794C377.587 286.102 375.177 284.89 372.202 284.039L372.092 283.728C375.951 282.339 381.283 280.102 384.969 277.267L385.795 277.381Z" fill="black"/>
<path d="M357.96 259.566C358.084 259.713 358.166 259.813 358.203 259.85C358.171 259.809 358.088 259.704 357.96 259.566ZM402.773 195.136C403.007 195.031 408.343 192.598 415.202 188.854C422.093 186.22 429.515 185.136 430.74 191.913C433.073 204.84 389.074 224.027 387.733 224.609C388.74 224.252 412.957 215.775 416.537 224.623C420.195 233.663 383.399 244.208 383.399 244.208C383.399 244.208 405.133 242.484 406.422 251.414C407.684 260.139 376.082 262.911 374.628 263.034C375.556 262.984 389.005 262.366 389.21 270.634C389.27 273.071 387.514 275.312 384.967 277.269C381.281 280.104 375.949 282.34 372.09 283.73C369.241 284.759 367.193 285.322 367.193 285.322L367.079 285.555C365.342 284.769 363.483 284.291 361.582 284.141C359.296 283.904 355.752 284.105 352.007 284.485C351.897 284.114 346.428 265.361 350.584 260.299C353.932 256.216 356.799 258.379 357.823 259.417C355.537 256.734 344.164 242.923 347.461 237.106C351.024 230.819 359.433 240.248 359.867 240.744C359.3 239.957 343.076 217.364 350.584 208.275C358.093 199.186 369.229 216.474 369.616 217.078C369.141 216.223 352.404 185.805 359.885 179.439C362.153 177.51 364.778 177.501 367.342 178.439C373.254 180.598 378.857 187.777 379.062 188.037C378.683 187.488 362.605 164.09 373.497 156.202C379.739 151.679 389.209 171.694 389.209 171.694C389.209 171.694 385.276 136.617 390.791 133.388C396.178 130.242 402.246 158.84 402.539 160.235C402.191 158.397 393.512 111.549 404.272 106.062C415.246 100.465 422.778 131.024 422.778 131.024C422.778 131.024 446.016 119.62 450.022 129.085C453.904 138.263 416.78 164.829 414.496 166.458C416.509 165.14 445.61 146.379 446.231 160.505C446.652 170.007 428.192 181.777 415.201 188.86C410.881 190.581 406.722 192.681 402.773 195.136Z" fill="black" fill-opacity="0.15"/>
<path d="M324.049 274.368C326.002 273.906 328.146 273.499 330.451 273.152L330.587 273.069C332.956 276.988 335.594 280.715 337.415 283.18L337.154 283.372C333.088 283.815 330.45 284.231 330.45 284.231L324.049 274.368Z" fill="black"/>
<path d="M330.675 174.481C330.533 174.367 327.273 171.733 323.221 167.983C325.966 169.831 328.47 172.014 330.675 174.481Z" fill="black"/>
<path d="M294.724 256.626L274.366 258.098L274.279 258.103C274.16 254.202 273.949 249.927 273.675 245.496L285.441 244.207C285.441 244.207 297.541 250.416 294.724 256.626Z" fill="black" fill-opacity="0.15"/>
<path d="M262.496 387.036H262.45C262.465 387.031 262.481 387.031 262.496 387.036Z" fill="black"/>
<path d="M287.696 269.543L273.333 289.234H239.114L259.13 269.543H261.312L261.756 269.525L261.312 259.447L260.773 247.26L258.482 195.624L262.195 191.911L268.976 193.85C268.976 193.85 272.218 221.899 273.677 245.494C273.95 249.925 274.162 254.201 274.281 258.101C274.404 262.477 274.409 266.383 274.249 269.516L274.866 269.543L287.696 269.543Z" fill="black"/>
<path d="M328.526 408.422L316.422 410.599V384.937L262.496 387.035C262.481 387.031 262.465 387.031 262.45 387.035L245.979 387.68C248.7 363.01 250.355 318.614 250.52 305.535C250.561 302.417 249.5 300.067 247.73 298.283L335.788 292.462L330.566 375.864L328.526 408.422Z" fill="black"/>
<path d="M250.52 305.536C250.355 318.614 248.701 363.011 245.979 387.681L67.5595 394.622V431.904H56.4181L50.1284 311.343L247.73 298.284C249.5 300.068 250.56 302.417 250.52 305.536Z" fill="black"/>
<path d="M278.495 86.5246L271.938 121.657L257.836 104.87L239.225 121.657L230.884 109.201L222.978 120.797L216.521 112.296L211.882 115.62L214.26 83.3004L278.495 86.5246ZM250.661 99.8128C250.661 98.8124 250.365 97.8347 249.809 97.0025C249.253 96.1707 248.464 95.5227 247.54 95.1398C246.615 94.7569 245.598 94.6564 244.617 94.8515C243.636 95.0466 242.735 95.5286 242.027 96.2358C241.32 96.9429 240.838 97.8442 240.643 98.8256C240.448 99.8065 240.548 100.823 240.931 101.748C241.314 102.672 241.962 103.462 242.794 104.017C243.625 104.573 244.603 104.87 245.604 104.87C246.268 104.87 246.926 104.74 247.539 104.485C248.153 104.231 248.711 103.859 249.18 103.389C249.65 102.92 250.022 102.362 250.277 101.748C250.53 101.135 250.661 100.477 250.661 99.8128Z" fill="black" fill-opacity="0.15"/>
<path d="M239.225 121.656L257.836 104.869L271.939 121.656L269.456 134.945L210.71 131.552L211.885 115.62L216.521 112.296L222.978 120.797L230.885 109.2L239.225 121.656Z" fill="black"/>
<path d="M202.639 180.796C202.904 180.975 208.401 184.692 206.407 188.689C204.363 192.777 198.853 185.621 198.853 185.621H198.848C199.182 180.997 199.424 175.268 199.584 170.503C199.758 174.801 207.701 174.914 207.701 178.574C207.701 182.132 202.904 180.87 202.639 180.796Z" fill="black"/>
<path d="M165.407 215.292C174.315 214.849 187.229 214.61 198.66 214.483C212.348 214.336 223.906 214.346 223.906 214.346L224.428 249.854L260.772 247.262L261.311 259.449L238.626 260.4L238.521 260.697C229.677 257.643 199.845 260.67 199.845 260.67L199.676 260.679L200.297 274.987L200.49 279.391C200.49 279.391 136.663 287.4 111.38 272.223L111.115 272.173L112.743 263.814C112.842 263.566 112.893 263.303 112.894 263.036C112.894 260.508 108.197 258.304 101.261 257.16L101.288 256.996C98.9196 222.997 147.341 218.167 155.301 216.23C156.883 215.845 160.546 215.539 165.407 215.292Z" fill="black" fill-opacity="0.15"/>
<path d="M168.087 184.097C168.069 184.129 168.046 184.184 168.014 184.253C168.046 184.184 168.073 184.129 168.087 184.097ZM167.951 184.381C167.45 185.327 165.797 187.98 163.478 186.644C160.68 185.03 165.197 180.618 166.707 176.529C168.216 172.441 165.632 166.843 165.524 162.002C165.417 157.161 186.129 156.839 186.129 156.839C186.129 156.839 183.601 148.339 186.129 147.694C188.58 147.067 190.885 153.629 191.022 154.022C190.921 153.501 188.731 142.097 191.777 142.097C194.9 142.097 196.404 153.501 196.404 153.501C196.404 153.501 197.264 139.838 199.848 140.377C202.358 140.903 201.005 152.815 200.927 153.474C201.05 152.883 203.231 142.582 208.563 144.466C214.05 146.405 199.848 162.542 199.848 162.542H199.815C199.839 161.587 199.848 161.037 199.848 161.037C199.848 161.037 172.407 161.037 172.411 172.657C172.416 175.885 172.639 181.231 172.845 186.896C172.695 187.39 171.158 192.109 167.893 191.671C164.886 191.267 167.287 185.775 167.95 184.38L167.951 184.381Z" fill="black"/>
<path d="M198.659 214.485C187.228 214.612 174.314 214.848 165.407 215.294C165.365 215.116 164.263 210.081 166.061 209.13C166.568 208.86 169.238 208.7 172.842 208.609C178.123 208.472 185.398 208.485 190.753 208.522C194.91 208.554 197.905 208.595 197.905 208.595L198.659 214.485Z" fill="black" fill-opacity="0.15"/>
<path d="M136.631 151.082L138.41 162.702L135.602 162.862L128.35 163.269L124.042 163.511L125.656 151.082H136.631Z" fill="black"/>
<path d="M112.743 263.814C111.454 267.152 101.942 269.74 90.405 269.74C79.1517 269.74 69.8282 267.276 68.182 264.056L67.9214 263.036C67.9214 259.332 77.9857 256.328 90.405 256.328C94.0403 256.313 97.6705 256.592 101.261 257.16C108.198 258.303 112.894 260.507 112.894 263.036L112.743 263.814Z" fill="black"/>
<path d="M111.115 272.173L106.022 298.361C106.022 300.739 99.5191 302.664 91.4991 302.664C83.4791 302.664 76.9711 300.739 76.9711 298.361L75.1521 291.246H75.1475L71.3249 276.311L70.4286 272.827L68.1816 264.057C69.8278 267.276 79.1517 269.741 90.405 269.741C101.942 269.741 111.454 267.153 112.743 263.815L111.115 272.173Z" fill="black" fill-opacity="0.15"/>
<path d="M50.1284 311.344L56.4203 431.904H67.5595V394.622L245.979 387.681L262.45 387.036H262.495L316.422 384.937V410.599L328.526 408.423L330.566 375.865L335.787 292.462L247.73 298.284L50.1284 311.344Z" stroke="black" stroke-linecap="round" stroke-linejoin="round"/>
<path d="M261.311 269.544H259.13L239.114 289.234H273.333L287.696 269.544H274.865" stroke="black" stroke-linecap="round" stroke-linejoin="round"/>
<path d="M262.194 279.389L261.755 269.525L261.311 259.447L260.771 247.26L258.48 195.624L262.194 191.911C262.194 191.911 266.419 267.658 265.907 279.388" stroke="black" stroke-linecap="round" stroke-linejoin="round"/>
<path d="M262.194 191.913L268.975 193.851C268.975 193.851 272.217 221.901 273.676 245.496C273.949 249.927 274.161 254.203 274.279 258.103C274.403 262.479 274.408 266.385 274.248 269.517C274.101 272.421 273.809 274.662 273.333 276.002" stroke="black" stroke-linecap="round" stroke-linejoin="round"/>
<path d="M260.771 247.261L224.427 249.854L223.906 214.346L222.978 151.082L295.762 166.575V243.077L285.442 244.207L273.676 245.496H273.671" stroke="black" stroke-linecap="round" stroke-linejoin="round"/>
<path d="M129.05 68.0687L130.984 149.953" stroke="black" stroke-linecap="round" stroke-linejoin="round"/>
<path d="M135.602 162.862L138.41 162.702L136.631 151.082H125.656L124.042 163.511L128.35 163.269L135.602 162.862Z" stroke="black" stroke-linecap="round" stroke-linejoin="round"/>
<path d="M128.35 163.268V168.568L129.745 168.495L135.269 168.207L136.686 168.134L135.602 162.861" stroke="black" stroke-linecap="round" stroke-linejoin="round"/>
<path d="M129.744 168.495L129.049 171.792C129.049 171.792 120.009 172.172 121.353 182.232C122.697 192.292 134.268 191.697 134.427 191.645C134.585 191.593 145.186 190.031 143.897 181.53C142.608 173.03 135.341 171.685 135.341 171.685L135.286 168.566" stroke="black" stroke-linecap="round" stroke-linejoin="round"/>
<path d="M131.226 172.656L129.264 179.972L126.735 184.595L130.928 182.766L133.997 185.62L136.685 182.606L140.453 183.201L133 172.656" stroke="black" stroke-linecap="round" stroke-linejoin="round"/>
<path d="M111.38 272.223C136.665 287.4 200.49 279.389 200.49 279.389L200.297 274.985L199.676 260.677L199.415 254.751C199.415 254.751 133.421 264.706 130.014 251.093C128.35 244.421 136.686 242.697 136.686 242.697" stroke="black" stroke-linecap="round" stroke-linejoin="round"/>
<path d="M223.906 214.348C223.906 214.348 212.347 214.338 198.66 214.484C187.229 214.612 174.315 214.848 165.407 215.293C160.546 215.54 156.883 215.846 155.301 216.231C147.341 218.167 98.9196 222.997 101.288 256.996" stroke="black" stroke-linecap="round" stroke-linejoin="round"/>
<path d="M165.407 215.297V215.293C165.366 215.115 164.264 210.08 166.061 209.129C166.569 208.859 169.239 208.699 172.843 208.608C178.124 208.471 185.399 208.484 190.754 208.521C194.911 208.553 197.906 208.594 197.906 208.594L198.659 214.484V214.489" stroke="black" stroke-linecap="round" stroke-linejoin="round"/>
<path d="M190.754 208.52C190.754 208.52 187.686 201.492 191.239 198.908C194.792 196.325 196.511 198.263 197.906 193.421C198.281 192.123 198.592 189.205 198.848 185.62C199.182 180.997 199.424 175.267 199.584 170.502C199.698 167.109 199.772 164.206 199.812 162.541C199.835 161.586 199.844 161.037 199.844 161.037C199.844 161.037 172.403 161.037 172.407 172.656C172.412 175.885 172.635 181.23 172.842 186.896C173.148 195.396 173.418 204.624 172.837 208.496" stroke="black" stroke-linecap="round" stroke-linejoin="round"/>
<path d="M202.639 180.796C202.904 180.87 207.701 182.132 207.701 178.574C207.701 174.916 199.758 174.8 199.584 170.503" stroke="black" stroke-linecap="round" stroke-linejoin="round"/>
<path d="M198.852 185.621C198.852 185.621 204.362 192.777 206.406 188.689C208.4 184.692 202.904 180.975 202.638 180.796C202.636 180.794 202.633 180.792 202.629 180.792" stroke="black" stroke-linecap="round" stroke-linejoin="round"/>
<path d="M167.95 184.38C167.287 185.774 164.885 191.266 167.89 191.669C171.155 192.107 172.691 187.388 172.842 186.894L172.856 186.853" stroke="black" stroke-linecap="round" stroke-linejoin="round"/>
<path d="M168.087 184.098C168.069 184.13 168.046 184.185 168.014 184.254" stroke="black" stroke-linecap="round" stroke-linejoin="round"/>
<path d="M168.014 184.254C168.046 184.185 168.074 184.13 168.087 184.098C168.094 184.09 168.098 184.08 168.101 184.07C168.104 184.068 168.106 184.065 168.106 184.061" stroke="black" stroke-linecap="round" stroke-linejoin="round"/>
<path d="M168.014 184.253C167.995 184.287 167.978 184.323 167.963 184.359C167.958 184.366 167.953 184.375 167.949 184.383" stroke="black" stroke-linecap="round" stroke-linejoin="round"/>
<path d="M191.019 154.023C190.883 153.629 188.577 147.068 186.126 147.694C183.598 148.339 186.126 156.839 186.126 156.839C186.126 156.839 165.416 157.158 165.521 162.002C165.626 166.847 168.21 172.442 166.704 176.53C165.197 180.617 160.676 185.03 163.475 186.645C165.794 187.98 167.449 185.326 167.947 184.381" stroke="black" stroke-linecap="round" stroke-linejoin="round"/>
<path d="M200.924 153.474C201.001 152.815 202.355 140.904 199.844 140.377C197.261 139.838 196.401 153.501 196.401 153.501C196.401 153.501 194.897 142.096 191.773 142.096C188.727 142.096 190.918 153.501 191.019 154.022C191.021 154.028 191.023 154.034 191.024 154.04" stroke="black" stroke-linecap="round" stroke-linejoin="round"/>
<path d="M199.844 162.541C199.844 162.541 214.047 146.405 208.56 144.465C203.228 142.581 201.047 152.884 200.923 153.474C200.921 153.483 200.919 153.492 200.919 153.501" stroke="black" stroke-linecap="round" stroke-linejoin="round"/>
<path d="M183.273 193.851C183.273 193.851 176.926 195.25 176.171 190.838" stroke="black" stroke-linecap="round" stroke-linejoin="round"/>
<path d="M183.707 185.62C183.707 185.62 187.254 186.644 187.685 185.62C188.116 184.596 186.826 167.919 186.826 167.919C186.826 167.919 193.387 166.739 195.326 167.919" stroke="black" stroke-linecap="round" stroke-linejoin="round"/>
<path d="M191.884 172.656V175.56" stroke="black" stroke-linecap="round" stroke-linejoin="round"/>
<path d="M180.909 172.656L181.339 175.56" stroke="black" stroke-linecap="round" stroke-linejoin="round"/>
<path d="M50.1284 311.344L64.9715 286.811L71.323 276.312" stroke="black" stroke-linecap="round" stroke-linejoin="round"/>
<path d="M235.535 81.3207L206.516 80.3921V137.364L277.366 138.009L282.209 82.8159L254.297 81.9242L235.535 81.3207Z" stroke="black" stroke-linecap="round" stroke-linejoin="round"/>
<path d="M271.939 121.656L278.496 86.5241L214.263 83.3004L211.885 115.62L210.71 131.552L269.456 134.945L271.939 121.656Z" stroke="black" stroke-linecap="round" stroke-linejoin="round"/>
<path d="M235.566 80.3918L246.377 73.9353L254.297 81.9193" stroke="black" stroke-linecap="round" stroke-linejoin="round"/>
<path d="M226.156 264.598C232.676 264.402 240.811 263.99 240.944 263.143C241.113 262.068 240.194 261.272 238.52 260.696C229.677 257.642 199.844 260.668 199.844 260.668" stroke="black" stroke-linecap="round" stroke-linejoin="round"/>
<path d="M226.156 264.598C222.004 264.543 218.094 264.758 218.094 264.758C218.094 264.758 221.76 264.724 226.156 264.598Z" stroke="black" stroke-linecap="round" stroke-linejoin="round"/>
<path d="M227.404 269.448C231.77 268.739 235.886 267.737 235.886 266.475C235.886 265.044 230.861 264.651 226.155 264.596" stroke="black" stroke-linecap="round" stroke-linejoin="round"/>
<path d="M227.395 269.448C223.963 269.641 220.547 270.052 217.166 270.676C217.166 270.676 222.443 270.248 227.395 269.448Z" stroke="black" stroke-linecap="round" stroke-linejoin="round"/>
<path d="M227.395 269.448H227.404" stroke="black" stroke-linecap="round" stroke-linejoin="round"/>
<path d="M200.296 274.985C200.296 274.985 204.256 275.068 209.501 275.022C215.377 274.972 222.867 274.757 228.231 274.08C232.406 273.559 235.291 272.754 235.136 271.533C234.894 269.669 231.309 269.293 227.405 269.448" stroke="black" stroke-linecap="round" stroke-linejoin="round"/>
<path d="M209.502 275.036L210.174 277.992C216.39 278.419 222.63 278.338 228.831 277.75C236.047 276.963 243.03 275.088 244.927 270.891C245.151 270.399 245.344 269.896 245.508 269.381C247.474 263.052 240.945 263.144 240.945 263.144" stroke="black" stroke-linecap="round" stroke-linejoin="round"/>
<path d="M235.887 266.476C244.603 265.726 245.032 269.544 245.032 269.544C245.032 269.544 245.211 269.48 245.508 269.379C247.095 268.844 252.056 267.321 251.059 269.544C249.877 272.178 248.371 278.849 237.072 280.249C225.772 281.648 215.552 281.973 216.521 288.32C217.317 293.514 239.742 290.204 247.73 298.284C249.5 300.067 250.561 302.417 250.52 305.536C250.355 318.614 248.701 363.011 245.979 387.681C245.124 395.477 244.155 401.303 243.098 403.552C238.687 412.912 206.406 409.199 208.45 418.024C210.495 426.849 249.281 422.309 253.478 421.897C274.422 419.83 263.648 387.563 262.496 387.035C262.481 387.03 262.465 387.03 262.45 387.035" stroke="black" stroke-linecap="round" stroke-linejoin="round"/>
<path d="M228.821 277.669L228.232 274.079" stroke="black" stroke-linecap="round" stroke-linejoin="round"/>
<path d="M238.626 260.398L261.312 259.448" stroke="black" stroke-linecap="round" stroke-linejoin="round"/>
<path d="M335.788 292.462L334.187 289.998L330.451 284.231L324.049 274.368L311.744 255.396L294.724 256.626L274.367 258.098" stroke="black" stroke-linecap="round" stroke-linejoin="round"/>
<path d="M285.441 244.207C285.441 244.207 297.541 250.416 294.724 256.626" stroke="black" stroke-linecap="round" stroke-linejoin="round"/>
<path d="M211.885 115.62L216.521 112.296L222.978 120.797L230.885 109.2L239.225 121.656L257.836 104.869L271.939 121.656" stroke="black" stroke-linecap="round" stroke-linejoin="round"/>
<path d="M245.604 104.87C248.397 104.87 250.661 102.605 250.661 99.8123C250.661 97.0192 248.397 94.755 245.604 94.755C242.811 94.755 240.546 97.0192 240.546 99.8123C240.546 102.605 242.811 104.87 245.604 104.87Z" stroke="black" stroke-linecap="round" stroke-linejoin="round"/>
<path d="M330.566 375.864C330.566 375.864 377.268 385.421 379.851 370.011C382.388 354.838 389.001 283.77 389.207 281.556C389.209 281.538 389.211 281.519 389.211 281.501" stroke="black" stroke-linecap="round" stroke-linejoin="round"/>
<path d="M385.795 277.381C387.99 278.584 389.211 279.919 389.211 281.323C389.211 281.401 389.206 281.479 389.197 281.556C388.97 283.961 385.169 286.143 379.069 287.794C372.008 289.703 361.861 290.903 350.585 290.903C345.106 290.913 339.631 290.611 334.187 289.997L333.954 289.97" stroke="black" stroke-linecap="round" stroke-linejoin="round"/>
<path d="M324.049 274.368C326.002 273.906 328.146 273.499 330.451 273.151" stroke="black" stroke-linecap="round" stroke-linejoin="round"/>
<path d="M360.069 283.801C364.532 214.081 421.705 138.978 421.705 138.978" stroke="black" stroke-linecap="round" stroke-linejoin="round"/>
<path d="M372.2 284.04C375.177 284.89 377.587 286.102 379.067 287.794" stroke="black" stroke-linecap="round" stroke-linejoin="round"/>
<path d="M330.451 284.231C330.451 284.231 333.089 283.815 337.155 283.372" stroke="black" stroke-linecap="round" stroke-linejoin="round"/>
<path d="M374.579 263.036C374.596 263.036 374.612 263.035 374.629 263.032C375.557 262.982 389.006 262.364 389.211 270.632C389.271 273.069 387.515 275.31 384.968 277.267C381.282 280.102 375.95 282.338 372.091 283.728C369.242 284.757 367.194 285.32 367.194 285.32" stroke="black" stroke-linecap="round" stroke-linejoin="round"/>
<path d="M387.702 224.621C387.702 224.621 387.711 224.617 387.734 224.608C388.74 224.251 412.957 215.773 416.538 224.621C420.196 233.662 383.399 244.207 383.399 244.207C383.399 244.207 405.133 242.483 406.423 251.413C407.685 260.138 376.083 262.909 374.629 263.032" stroke="black" stroke-linecap="round" stroke-linejoin="round"/>
<path d="M402.765 195.14C402.768 195.14 402.771 195.139 402.774 195.136C406.723 192.678 410.882 190.576 415.202 188.853C422.093 186.219 429.515 185.135 430.74 191.912C433.073 204.839 389.074 224.027 387.734 224.609" stroke="black" stroke-linecap="round" stroke-linejoin="round"/>
<path d="M414.389 166.524C414.389 166.524 414.425 166.501 414.498 166.451C416.511 165.132 445.611 146.372 446.233 160.497C446.654 169.999 428.194 181.769 415.203 188.853C408.343 192.598 403.007 195.03 402.774 195.136" stroke="black" stroke-linecap="round" stroke-linejoin="round"/>
<path d="M402.549 160.283C402.545 160.268 402.542 160.253 402.54 160.237V160.229C402.193 158.391 393.513 111.543 404.273 106.056C415.248 100.458 422.779 131.018 422.779 131.018C422.779 131.018 446.017 119.613 450.024 129.079C453.906 138.257 416.781 164.823 414.498 166.452" stroke="black" stroke-linecap="round" stroke-linejoin="round"/>
<path d="M379.068 188.039C379.068 188.036 379.066 188.032 379.064 188.03C378.684 187.481 362.606 164.083 373.499 156.194C379.74 151.672 389.211 171.687 389.211 171.687C389.211 171.687 385.278 136.61 390.793 133.381C396.18 130.235 402.247 158.833 402.54 160.228" stroke="black" stroke-linecap="round" stroke-linejoin="round"/>
<path d="M369.627 217.09C369.622 217.085 369.619 217.078 369.617 217.072C369.142 216.217 352.405 185.799 359.885 179.433C362.154 177.504 364.778 177.495 367.343 178.433C373.255 180.591 378.858 187.771 379.063 188.031" stroke="black" stroke-linecap="round" stroke-linejoin="round"/>
<path d="M359.886 240.763C359.881 240.758 359.876 240.752 359.872 240.745L359.868 240.741C359.3 239.954 343.076 217.36 350.585 208.272C358.093 199.183 369.229 216.471 369.616 217.074" stroke="black" stroke-linecap="round" stroke-linejoin="round"/>
<path d="M357.821 259.413C355.535 256.73 344.163 242.92 347.46 237.103C351.023 230.815 359.431 240.245 359.866 240.741" stroke="black" stroke-linecap="round" stroke-linejoin="round"/>
<path d="M358.203 259.849C358.166 259.813 358.084 259.713 357.96 259.566" stroke="black" stroke-linecap="round" stroke-linejoin="round"/>
<path d="M357.96 259.566C358.088 259.702 358.171 259.808 358.203 259.849C358.212 259.859 358.212 259.863 358.216 259.868L358.221 259.872" stroke="black" stroke-linecap="round" stroke-linejoin="round"/>
<path d="M357.963 259.567L357.842 259.433C357.838 259.428 357.833 259.419 357.824 259.415" stroke="black" stroke-linecap="round" stroke-linejoin="round"/>
<path d="M352.007 284.488V284.483C351.897 284.113 346.428 265.36 350.585 260.298C353.932 256.214 356.8 258.377 357.824 259.415" stroke="black" stroke-linecap="round" stroke-linejoin="round"/>
<path d="M341.39 134.863C341.39 134.863 332.473 205.649 345.505 285.279" stroke="black" stroke-linecap="round" stroke-linejoin="round"/>
<path d="M352.199 149.308L352.208 149.298V149.294C352.647 148.791 367.133 132.195 372.854 138.977C378.665 145.864 357.791 167.813 357.791 167.813C357.791 167.813 368.793 163.753 367.344 178.431" stroke="black" stroke-linecap="round" stroke-linejoin="round"/>
<path d="M330.25 147.584L330.246 147.58C329.93 147.086 309.236 114.816 319.275 106.914C329.386 98.9531 337.995 124.989 337.995 124.989C337.995 124.989 354.775 95.2942 364.032 107.992C373.163 120.521 352.732 148.576 352.208 149.294" stroke="black" stroke-linecap="round" stroke-linejoin="round"/>
<path d="M323.213 167.974C314.909 160.292 303.28 147.946 308.301 143.067C315.741 135.836 329.907 147.306 330.246 147.58" stroke="black" stroke-linecap="round" stroke-linejoin="round"/>
<path d="M330.68 174.486L330.675 174.481C330.533 174.367 327.273 171.733 323.221 167.983" stroke="black" stroke-linecap="round" stroke-linejoin="round"/>
<path d="M323.221 167.983C325.966 169.831 328.47 172.014 330.675 174.481" stroke="black" stroke-linecap="round" stroke-linejoin="round"/>
<path d="M323.222 167.983C323.222 167.978 323.217 167.978 323.212 167.973" stroke="black" stroke-linecap="round" stroke-linejoin="round"/>
<path d="M331.919 204.346C330.68 203.011 306.147 176.424 311.991 168.244C314.895 164.179 319.367 165.518 323.213 167.974" stroke="black" stroke-linecap="round" stroke-linejoin="round"/>
<path d="M331.969 204.396L331.965 204.391L331.947 204.373" stroke="black" stroke-linecap="round" stroke-linejoin="round"/>
<path d="M331.947 204.373L331.966 204.392" stroke="black" stroke-linecap="round" stroke-linejoin="round"/>
<path d="M331.947 204.372C331.94 204.361 331.93 204.352 331.919 204.345" stroke="black" stroke-linecap="round" stroke-linejoin="round"/>
<path d="M333.249 231.306C329.802 228.032 307.45 206.353 312.818 198.799C318.415 190.92 331.013 203.431 331.918 204.347" stroke="black" stroke-linecap="round" stroke-linejoin="round"/>
<path d="M333.652 231.681C333.588 231.626 333.455 231.503 333.263 231.315" stroke="black" stroke-linecap="round" stroke-linejoin="round"/>
<path d="M333.265 231.315C333.403 231.428 333.533 231.55 333.654 231.681C333.661 231.692 333.671 231.701 333.681 231.709C333.686 231.713 333.69 231.713 333.69 231.718L333.695 231.722" stroke="black" stroke-linecap="round" stroke-linejoin="round"/>
<path d="M333.265 231.315C333.261 231.315 333.256 231.311 333.251 231.306" stroke="black" stroke-linecap="round" stroke-linejoin="round"/>
<path d="M336.917 260.298C336.917 260.298 336.917 260.293 336.908 260.289C336.757 260.138 335.033 258.4 332.834 255.835C327.612 249.767 319.696 239.087 323.579 233.959C328.138 227.927 331.984 230.241 333.25 231.307" stroke="black" stroke-linecap="round" stroke-linejoin="round"/>
<path d="M339.674 286.156V286.152C339.596 286.061 338.714 284.94 337.415 283.179C335.596 280.715 332.959 276.988 330.588 273.069C326.527 266.342 323.281 259.053 326.377 256.625C328.896 254.65 331.1 254.869 332.834 255.834C335.308 257.211 336.817 260.101 336.908 260.288" stroke="black" stroke-linecap="round" stroke-linejoin="round"/>
<path d="M112.893 263.036C112.893 263.303 112.841 263.567 112.742 263.814C111.453 267.152 101.941 269.74 90.4042 269.74C79.1509 269.74 69.8274 267.276 68.1812 264.056C68.0119 263.743 67.9224 263.392 67.9207 263.036C67.9207 259.332 77.985 256.328 90.4042 256.328C94.0395 256.313 97.6698 256.592 101.26 257.16C108.197 258.304 112.893 260.508 112.893 263.036Z" stroke="black" stroke-linecap="round" stroke-linejoin="round"/>
<path d="M106.021 298.361C106.021 300.739 99.5183 302.664 91.4983 302.664C83.4783 302.664 76.9703 300.739 76.9703 298.361" stroke="black" stroke-linecap="round" stroke-linejoin="round"/>
<path d="M112.894 263.037L112.743 263.815L111.115 272.173L106.021 298.362" stroke="black" stroke-linecap="round" stroke-linejoin="round"/>
<path d="M75.1503 291.247L76.9702 298.362" stroke="black" stroke-linecap="round" stroke-linejoin="round"/>
<path d="M67.9214 263.037L68.182 264.057L70.4271 272.827L71.3234 276.312L75.146 291.246" stroke="black" stroke-linecap="round" stroke-linejoin="round"/>
<path d="M70.4266 272.829C70.4266 272.829 54.8655 279.729 64.9696 286.813C67.096 288.303 70.3561 289.803 75.1437 291.248H75.1483" stroke="black" stroke-linecap="round" stroke-linejoin="round"/>
<path d="M335.788 286.81C335.788 286.81 337.32 286.531 339.675 286.152C341.303 285.891 343.324 285.58 345.505 285.278C347.599 284.986 349.835 284.702 352.008 284.483C355.753 284.103 359.297 283.901 361.583 284.139C363.484 284.288 365.344 284.767 367.08 285.553C369.229 286.604 369.682 287.793 369.682 287.793" stroke="black" stroke-linecap="round" stroke-linejoin="round"/>
<path d="M112.893 175.56L101.289 172.655" stroke="black" stroke-linecap="round" stroke-linejoin="round"/>
<path d="M114.845 187.395L92.8962 202.566" stroke="black" stroke-linecap="round" stroke-linejoin="round"/>
<path d="M126.735 197.402L124.045 203.857" stroke="black" stroke-linecap="round" stroke-linejoin="round"/>
<path d="M142.604 195.495L151.965 208.184" stroke="black" stroke-linecap="round" stroke-linejoin="round"/>
<path d="M147.284 186.074L153.256 187.395" stroke="black" stroke-linecap="round" stroke-linejoin="round"/>
<path d="M147.284 174.108L157.775 167.395" stroke="black" stroke-linecap="round" stroke-linejoin="round"/>
<path d="M163.291 135.865L161.364 138.75C161.306 138.837 161.223 138.904 161.126 138.942C161.028 138.981 160.921 138.988 160.819 138.964C160.718 138.94 160.625 138.885 160.556 138.806C160.486 138.728 160.442 138.63 160.43 138.526L160.018 135.082C160.006 134.981 159.964 134.887 159.899 134.81C159.833 134.733 159.745 134.677 159.648 134.65L156.309 133.709C156.209 133.681 156.119 133.622 156.052 133.541C155.986 133.46 155.946 133.361 155.938 133.257C155.93 133.152 155.953 133.048 156.006 132.958C156.059 132.867 156.138 132.795 156.233 132.751L159.382 131.296C159.473 131.253 159.551 131.185 159.603 131.098C159.656 131.012 159.683 130.912 159.679 130.811L159.542 127.344C159.538 127.24 159.566 127.137 159.623 127.049C159.679 126.961 159.761 126.892 159.858 126.851C159.955 126.811 160.061 126.802 160.163 126.824C160.266 126.846 160.359 126.9 160.43 126.976L162.787 129.52C162.856 129.595 162.945 129.647 163.044 129.67C163.142 129.694 163.246 129.688 163.341 129.653L166.594 128.451C166.693 128.415 166.799 128.41 166.901 128.437C167.002 128.463 167.093 128.519 167.161 128.599C167.229 128.679 167.271 128.777 167.281 128.881C167.292 128.986 167.27 129.09 167.219 129.182L165.528 132.21C165.479 132.299 165.457 132.4 165.465 132.501C165.473 132.602 165.511 132.698 165.573 132.777L167.722 135.501C167.786 135.583 167.824 135.683 167.83 135.787C167.836 135.891 167.81 135.995 167.756 136.084C167.701 136.173 167.621 136.243 167.526 136.285C167.43 136.328 167.324 136.339 167.221 136.319L163.819 135.647C163.719 135.627 163.615 135.637 163.521 135.676C163.427 135.715 163.347 135.78 163.291 135.865Z" fill="black"/>
<path d="M190.37 118.746L194.05 113.38" stroke="black" stroke-linecap="round" stroke-linejoin="round"/>
<path d="M194.651 118.138L189.476 113.631" stroke="black" stroke-linecap="round" stroke-linejoin="round"/>
<path d="M112.693 150.813L115.491 145.862" stroke="black" stroke-linecap="round" stroke-linejoin="round"/>
<path d="M116.594 150.344L111.424 146.692" stroke="black" stroke-linecap="round" stroke-linejoin="round"/>
<path d="M211.895 166.092C212.706 164.412 213.798 162.883 215.124 161.572" stroke="black" stroke-linecap="round" stroke-linejoin="round"/>
<path d="M215.531 165.262C214.097 164.274 212.867 163.018 211.908 161.564" stroke="black" stroke-linecap="round" stroke-linejoin="round"/>
<path d="M375.007 104.117L380.171 98.952" stroke="black" stroke-linecap="round" stroke-linejoin="round"/>
<path d="M379.468 103.838L375.603 98.6704" stroke="black" stroke-linecap="round" stroke-linejoin="round"/>
<path d="M346.556 100.223L349.148 94.741" stroke="black" stroke-linecap="round" stroke-linejoin="round"/>
<path d="M350.502 97.9181L345.66 95.9822" stroke="black" stroke-linecap="round" stroke-linejoin="round"/>
<path d="M366.906 79.88L370.142 76.3367" stroke="black" stroke-linecap="round" stroke-linejoin="round"/>
<path d="M370.191 80.2084L366.319 76.0117" stroke="black" stroke-linecap="round" stroke-linejoin="round"/>
<path d="M187.467 214.831C187.588 228.504 187.142 242.167 186.131 255.821" stroke="black" stroke-linecap="round" stroke-linejoin="round"/>
<path d="M216.208 225.637L214.108 223.057" stroke="black" stroke-linecap="round" stroke-linejoin="round"/>
<path d="M198.637 240.514L201.529 236.47" stroke="black" stroke-linecap="round" stroke-linejoin="round"/>
<path d="M216.578 253.02L214.143 250.776" stroke="black" stroke-linecap="round" stroke-linejoin="round"/>
<path d="M173.591 235.812L170.202 232.583" stroke="black" stroke-linecap="round" stroke-linejoin="round"/>
<path d="M147.802 226.795L149.749 223.574" stroke="black" stroke-linecap="round" stroke-linejoin="round"/>
<path d="M151.536 250.91L148.591 248.702" stroke="black" stroke-linecap="round" stroke-linejoin="round"/>
<path d="M126.482 236.573C125.349 236.14 124.355 235.405 123.608 234.447" stroke="black" stroke-linecap="round" stroke-linejoin="round"/>
<path d="M123.265 265.684L125.539 261.333" stroke="black" stroke-linecap="round" stroke-linejoin="round"/>
<path d="M148.102 274.533C147.008 273.666 146.105 272.582 145.448 271.35" stroke="black" stroke-linecap="round" stroke-linejoin="round"/>
<path d="M166.869 265.702L168.819 262.321" stroke="black" stroke-linecap="round" stroke-linejoin="round"/>
<path d="M188.587 273.921L185.485 271.381" stroke="black" stroke-linecap="round" stroke-linejoin="round"/>
<path d="M94.0092 238.788C94.6558 236.025 95.8527 233.421 97.5285 231.131C99.2042 228.842 101.324 226.913 103.762 225.461" stroke="black" stroke-linecap="round" stroke-linejoin="round"/>
<g opacity="0.1">
<path d="M198.113 162.213C193.5 160.606 187.105 161.383 182.563 163.015C177.815 164.721 174.145 167.584 172.777 172.619C171.286 178.108 172.66 184.131 172.954 189.691L173.416 198.44C173.521 200.433 174.414 204.418 172.539 205.836C171.753 206.43 170.402 206.606 169.501 206.998C168.503 207.4 167.608 208.019 166.88 208.81C165.313 210.558 165.119 213.323 163.235 214.765C161.486 216.104 158.835 216.206 156.744 216.562C153.8 217.062 150.863 217.618 147.928 218.173C137.297 220.186 126.318 222.739 117.213 228.869C108.152 234.968 101.314 244.041 100.182 255.108C99.993 256.954 101.894 258.54 103.614 258.54C105.626 258.54 106.857 256.96 107.046 255.108C107.939 246.37 114.094 239.015 121.143 234.243C129.591 228.526 139.699 226.111 149.551 224.066C154.452 223.049 159.716 222.474 164.321 220.428C166.213 219.586 167.919 218.317 168.914 216.462C169.352 215.544 169.712 214.592 169.99 213.614C170.549 211.952 171.099 211.727 172.682 211.19C177.362 209.603 178.849 206.142 178.726 201.391C178.58 195.738 178.194 190.098 178.166 184.442C178.139 178.811 177.189 173.255 181.272 168.736C183.251 166.547 186.078 165.546 188.909 165.033C191.953 164.482 195.15 164.851 198.109 163.981C198.297 163.922 198.463 163.805 198.58 163.646C198.697 163.487 198.761 163.294 198.761 163.097C198.761 162.899 198.697 162.706 198.58 162.547C198.463 162.389 198.297 162.271 198.109 162.213L198.113 162.213Z" fill="black"/>
</g>
<g opacity="0.1">
<path d="M109.669 272.025C110.305 272.858 110.581 273.611 111.465 274.284C112.17 274.786 112.95 275.172 113.777 275.427C115.625 276.085 117.545 276.62 119.442 277.117C122.981 278.044 126.546 278.862 130.139 279.573C137.781 281.091 145.506 282.159 153.273 282.773C168.611 284.023 184.047 283.285 199.195 280.579C200.988 280.255 201.963 278.096 201.533 276.462C201.021 274.522 199.199 273.885 197.416 274.125C182.93 276.11 168.274 276.549 153.694 275.435C146.447 274.857 139.241 273.847 132.114 272.409C128.527 271.685 124.965 270.85 121.424 269.928C119.79 269.501 118.154 269.08 116.518 268.664C115.675 268.398 114.809 268.219 113.93 268.13C112.734 268.077 112.007 268.547 110.943 268.895C109.781 269.274 108.782 270.869 109.67 272.026L109.669 272.025Z" fill="black"/>
</g>
</g>
</svg>
