<svg width="500" height="500" viewBox="0 0 500 500" fill="none" xmlns="http://www.w3.org/2000/svg">
<mask id="mask0_21_14331" style="mask-type:luminance" maskUnits="userSpaceOnUse" x="19" y="56" width="462" height="388">
<path d="M480.208 56.25H19.7917V443.75H480.208V56.25Z" fill="white"/>
</mask>
<g mask="url(#mask0_21_14331)">
<path fill-rule="evenodd" clip-rule="evenodd" d="M264.086 241.179C264.086 241.179 271.945 232.695 282.228 234.051C292.511 235.406 300.614 241.332 304.425 249.81C304.425 249.81 307.043 255.179 310.259 263.195C315.249 275.601 321.682 294.356 322.086 309.39C322.26 315.398 321.461 320.808 319.228 324.985C318.21 326.948 316.78 328.668 315.034 330.027C313.29 331.385 311.271 332.35 309.118 332.855C295.154 336.506 287.524 333.806 283.367 329.634C278.065 324.321 278.387 316.613 278.387 316.613L278.244 316.603C278.05 319.471 277.532 322.308 276.699 325.06C275.663 328.615 273.762 331.858 271.167 334.5C266.667 338.918 259.549 341.459 248.479 340.072C244.875 339.679 241.394 338.532 238.262 336.708C237.209 336.083 236.211 335.369 235.281 334.572C229.027 329.254 226.123 320.797 225.146 311.499C225.146 311.499 210.583 316.613 199.677 311.198C188.771 305.783 192.391 273.732 192.391 273.732L192.385 273.711C195.131 272.965 197.594 272.244 199.677 271.61V271.615L205.169 278.354H210.942C210.942 278.354 230.071 227.097 249.564 229.986C256.446 231.008 261.033 235.625 264.086 241.179ZM258.433 239.446C258.797 239.214 259.28 239.32 259.512 239.683C266.37 250.409 279.178 281.706 276.039 321.676C276.006 322.106 275.629 322.427 275.199 322.393C274.769 322.36 274.448 321.983 274.482 321.554C277.593 281.94 264.88 250.98 258.196 240.525C257.964 240.161 258.07 239.678 258.433 239.446ZM293.348 240.958C293.102 240.605 292.614 240.519 292.26 240.766C291.907 241.013 291.821 241.501 292.068 241.854C296.372 248.009 302.762 259.126 307.891 272.41C313.022 285.7 316.869 301.102 316.147 315.847C316.126 316.278 316.458 316.645 316.889 316.666C317.32 316.687 317.686 316.355 317.707 315.923C318.444 300.878 314.521 285.246 309.348 271.847C304.174 258.444 297.725 247.217 293.348 240.958Z" fill="black"/>
<path d="M382.573 189.2C411.628 191.189 406.755 219.64 406.755 219.64H350.446C350.446 219.64 353.514 187.216 382.573 189.2Z" fill="black" fill-opacity="0.15"/>
<path d="M342.76 345.701C344.703 349.009 345.573 351.822 345.092 353.461C343.65 358.427 331.859 369.191 317.664 369.671C303.469 370.152 284.457 344.406 281.57 340.453C280.052 338.377 280.63 335.493 281.514 333.222C281.514 333.222 307.495 365.523 316.884 364.797C326.272 364.071 345 353.494 342.76 345.701Z" fill="black" fill-opacity="0.15"/>
<path d="M299.736 203.998L299.767 204.811L221.409 207.971L212.588 246.209L211.975 246.066L193.582 249.267L194.702 229.99L165.208 238.984V238.99L162.217 239.899L154.092 223.761L147.419 210.497C152.927 208.084 158.395 205.966 163.825 204.143C175.494 200.207 187.492 197.327 199.675 195.537C210.753 193.902 221.941 193.129 233.138 193.226C246.718 193.321 260.262 194.635 273.607 197.153C289.924 200.23 299.736 203.998 299.736 203.998Z" fill="black" fill-opacity="0.15"/>
<path d="M235.993 137.381C236.269 137.259 247.022 132.406 248.939 135.602C250.883 138.844 243.76 142.081 238.253 143.216C232.745 144.35 210.563 142.244 205.706 144.509C202.955 145.793 203.113 159.548 203.768 171.232C203.768 171.232 198.742 178.841 195.991 177.056C193.301 175.318 197.1 169.412 197.279 169.135C197.1 169.269 188.745 175.701 192.426 170.097C196.149 164.426 197.933 141.109 201.493 137.223C205.052 133.337 226.313 134.306 226.313 134.306C226.313 134.306 229.509 123.783 232.909 124.754C236.31 125.725 232.423 134.628 232.423 134.628C232.423 134.628 239.874 126.856 242.788 128.799C245.662 130.719 236.25 137.207 235.993 137.381Z" fill="black"/>
<path d="M238.263 336.711C238.263 336.711 235.666 361.732 244.333 364.621C253 367.51 278.107 372.372 279.421 357.753C279.896 361.655 279.738 365.132 278.388 367.269C273.52 374.97 249.325 372.562 240.181 368.952C231.036 365.341 235.282 334.577 235.282 334.577C236.212 335.372 237.21 336.087 238.263 336.711Z" fill="black" fill-opacity="0.15"/>
<path d="M233.14 193.219V193.224C221.942 193.127 210.755 193.9 199.677 195.535V190.284L233.14 189.2V193.219Z" fill="black" fill-opacity="0.15"/>
<path d="M165.208 238.99L162.217 239.899L154.092 223.761L147.419 210.497C152.927 208.084 158.395 205.966 163.825 204.143C175.494 200.207 187.492 197.327 199.675 195.537C210.753 193.902 221.941 193.129 233.138 193.226C246.718 193.321 260.262 194.635 273.607 197.153C289.924 200.231 299.736 204 299.736 204" stroke="black" stroke-linecap="round" stroke-linejoin="round"/>
<path d="M193.582 249.267L194.702 229.99L165.208 238.984" stroke="black" stroke-linecap="round" stroke-linejoin="round"/>
<path d="M211.975 246.066L193.582 249.267L179.904 251.645L190.039 260.082" stroke="black" stroke-linecap="round" stroke-linejoin="round"/>
<path d="M147.418 210.498C143.506 213.331 139.756 216.383 136.189 219.641C123.037 231.575 104.772 252.878 119.262 269.333C129.115 280.526 148.648 281.329 166.786 278.961C175.424 277.776 183.975 276.023 192.383 273.715C195.129 272.968 197.592 272.247 199.675 271.613C204.252 270.207 207.013 269.195 207.013 269.195" stroke="black" stroke-linecap="round" stroke-linejoin="round"/>
<path d="M210.144 255.092L203.001 258.503C203.001 258.503 208.053 254.171 206.611 251.461C205.169 248.752 193.976 257.051 193.976 257.051L190.038 260.083L184.593 264.281C178.76 266.709 172.675 268.481 166.45 269.563V269.568C155.416 271.409 142.31 270.79 136.225 259.949C135.856 259.298 135.521 258.627 135.223 257.94C126.581 238.366 154.091 223.762 154.091 223.762" stroke="black" stroke-linecap="round" stroke-linejoin="round"/>
<path d="M199.677 271.619L205.169 278.358L207.271 269.251L210.518 255.179L212.588 246.21L221.409 207.972L299.767 204.812L319.949 203.999L317.388 219.641L311.732 254.223L310.26 263.197L310.204 263.555" stroke="black" stroke-linecap="round" stroke-linejoin="round"/>
<path d="M192.391 273.735C192.391 273.735 188.775 305.786 199.677 311.201C210.579 316.617 225.146 311.503 225.146 311.503" stroke="black" stroke-linecap="round" stroke-linejoin="round"/>
<path d="M231.518 262.112C231.518 262.112 222.8 289.209 225.147 311.503C226.124 320.799 229.028 329.257 235.282 334.576C236.212 335.372 237.209 336.087 238.263 336.711C241.395 338.536 244.876 339.682 248.48 340.076C259.55 341.462 266.668 338.921 271.168 334.503C273.763 331.862 275.664 328.619 276.7 325.064C277.532 322.312 278.05 319.474 278.245 316.606C278.622 310.307 278.08 303.987 276.634 297.845" stroke="black" stroke-linecap="round" stroke-linejoin="round"/>
<path d="M205.169 278.358H210.942C210.942 278.358 230.071 227.101 249.563 229.99C256.446 231.008 261.033 235.625 264.086 241.179C269.685 251.344 270.833 263.281 270.833 263.281" stroke="black" stroke-linecap="round" stroke-linejoin="round"/>
<path d="M264.086 241.179C264.086 241.179 271.945 232.695 282.228 234.05C292.511 235.406 300.613 241.332 304.425 249.81C304.425 249.81 307.043 255.179 310.259 263.195C315.249 275.6 321.682 294.356 322.086 309.39C322.26 315.398 321.461 320.808 319.228 324.985C318.21 326.949 316.779 328.669 315.034 330.027C313.289 331.385 311.271 332.35 309.118 332.855C295.154 336.506 287.524 333.806 283.367 329.634C278.065 324.321 278.387 316.613 278.387 316.613" stroke="black" stroke-linecap="round" stroke-linejoin="round"/>
<path d="M235.282 334.575C235.282 334.575 231.038 365.342 240.181 368.95C249.323 372.558 273.52 374.969 278.388 367.268C279.738 365.132 279.898 361.653 279.421 357.752C278.189 347.607 272.666 334.574 272.666 334.574" stroke="black" stroke-linecap="round" stroke-linejoin="round"/>
<path d="M283.368 329.635C282.631 330.767 282.009 331.969 281.512 333.225C280.627 335.495 280.05 338.381 281.568 340.455C284.457 344.408 303.464 370.158 317.662 369.673C331.86 369.189 343.648 358.429 345.09 353.464C345.571 351.823 344.702 349.01 342.758 345.703C338.831 339.02 330.492 330.312 319.946 325.162" stroke="black" stroke-linecap="round" stroke-linejoin="round"/>
<path d="M199.677 195.531V190.284L233.14 189.2V193.219" stroke="black" stroke-linecap="round" stroke-linejoin="round"/>
<path d="M197.285 169.126C197.284 169.127 197.284 169.129 197.283 169.131C197.282 169.132 197.281 169.134 197.28 169.135C197.101 169.412 193.302 175.318 195.991 177.056C198.742 178.841 203.768 171.232 203.768 171.232" stroke="black" stroke-linecap="round" stroke-linejoin="round"/>
<path d="M235.993 137.381C236.248 137.207 245.662 130.719 242.788 128.801C239.872 126.858 232.424 134.63 232.424 134.63C232.424 134.63 236.31 125.728 232.91 124.756C229.509 123.784 226.313 134.308 226.313 134.308C226.313 134.308 205.057 133.336 201.493 137.225C197.929 141.114 196.149 164.428 192.427 170.099C188.745 175.703 197.1 169.271 197.28 169.138" stroke="black" stroke-linecap="round" stroke-linejoin="round"/>
<path d="M205.057 187.907C205.057 187.907 204.264 180.175 203.768 171.232C203.114 159.548 202.955 145.793 205.706 144.509C210.564 142.244 232.746 144.346 238.253 143.216C243.759 142.085 250.883 138.844 248.94 135.602C247.022 132.406 236.269 137.259 235.993 137.381L235.988 137.386" stroke="black" stroke-linecap="round" stroke-linejoin="round"/>
<path d="M221.9 189.2C221.9 189.2 221.251 183.371 223.358 181.913C225.466 180.456 230.159 181.913 232.424 177.219C234.69 172.525 236.956 151.913 235.176 143.517" stroke="black" stroke-linecap="round" stroke-linejoin="round"/>
<path d="M166.793 278.997L167.268 290.987L174.258 303.715L229.714 404.684L241.265 401.504L354.235 370.388L375.175 364.621L322.092 309.391" stroke="black" stroke-linecap="round" stroke-linejoin="round"/>
<path d="M165.208 238.985V238.991L165.893 256.038L166.435 269.487" stroke="black" stroke-linecap="round" stroke-linejoin="round"/>
<path d="M273.607 197.147L270.14 110.879L160.273 114.488L163.827 204.142" stroke="black" stroke-linecap="round" stroke-linejoin="round"/>
<path d="M208.299 170.741C208.299 170.741 207.215 177.112 215.1 176.785" stroke="black" stroke-linecap="round" stroke-linejoin="round"/>
<path d="M216.501 167.396C216.501 167.396 220.387 167.59 221.358 166.358C222.33 165.126 221.358 147.101 221.358 147.101H231.074" stroke="black" stroke-linecap="round" stroke-linejoin="round"/>
<path d="M210.242 153.902C210.242 153.902 212.721 150.446 215.851 153.902" stroke="black" stroke-linecap="round" stroke-linejoin="round"/>
<path d="M225.786 154.982C225.786 154.982 228.266 152.065 230.422 154.982" stroke="black" stroke-linecap="round" stroke-linejoin="round"/>
<path d="M317.388 219.64H350.446H406.755H479.058" stroke="black" stroke-linecap="round" stroke-linejoin="round"/>
<path d="M38.5895 219.64H136.189" stroke="black" stroke-linecap="round" stroke-linejoin="round"/>
<path d="M311.732 254.222C364.211 255.767 420.847 259.893 479.058 268.069" stroke="black" stroke-linecap="round" stroke-linejoin="round"/>
<path d="M135.223 257.94C144.954 257.249 155.173 256.616 165.883 256.037" stroke="black" stroke-linecap="round" stroke-linejoin="round"/>
<path d="M20.7235 270.365C20.7235 270.365 55.9396 264.418 113.935 259.583" stroke="black" stroke-linecap="round" stroke-linejoin="round"/>
<path d="M350.446 219.64C350.446 219.64 353.514 187.216 382.573 189.2C411.633 191.184 406.755 219.64 406.755 219.64" stroke="black" stroke-linecap="round" stroke-linejoin="round"/>
<path d="M382.21 166.824L380.947 176.749" stroke="black" stroke-linecap="round" stroke-linejoin="round"/>
<path d="M366.87 180.718L351.172 151.06" stroke="black" stroke-linecap="round" stroke-linejoin="round"/>
<path d="M352.793 189.113L346.115 183.427" stroke="black" stroke-linecap="round" stroke-linejoin="round"/>
<path d="M347.199 203.999L315.256 192.366" stroke="black" stroke-linecap="round" stroke-linejoin="round"/>
<path d="M400.261 184.69L416.864 161.951" stroke="black" stroke-linecap="round" stroke-linejoin="round"/>
<path d="M410.007 195.531L417.585 191.369" stroke="black" stroke-linecap="round" stroke-linejoin="round"/>
<path d="M414.696 205.804L442.129 204.377" stroke="black" stroke-linecap="round" stroke-linejoin="round"/>
<path d="M238.263 336.711C238.263 336.711 235.666 361.732 244.333 364.621C253 367.51 278.107 372.372 279.421 357.753" stroke="black" stroke-linecap="round" stroke-linejoin="round"/>
<path d="M281.51 333.224C281.51 333.224 307.492 365.525 316.88 364.799C326.269 364.073 345 353.494 342.76 345.701" stroke="black" stroke-linecap="round" stroke-linejoin="round"/>
<path d="M166.435 330.33L174.258 303.715" stroke="black" stroke-linecap="round" stroke-linejoin="round"/>
<path d="M241.265 442.948V401.504" stroke="black" stroke-linecap="round" stroke-linejoin="round"/>
<path d="M361.818 408.295L354.235 370.388" stroke="black" stroke-linecap="round" stroke-linejoin="round"/>
<path d="M120.868 105.892C114.517 110.013 109.189 115.53 105.291 122.02C101.394 128.511 99.028 135.806 98.3744 143.349C97.8483 150.045 99.2598 157.753 104.937 161.341C110.021 164.553 117.576 162.829 120.763 157.728C123.211 153.814 122.468 147.68 118.276 145.749C114.654 144.079 110.064 146.405 108.391 150.025C106.718 153.646 107.486 158.014 109.399 161.514C111.312 165.014 114.239 167.83 117.091 170.619C119.942 173.408 122.813 176.298 124.569 179.88C128.232 187.352 125.893 197.263 119.274 202.309C116.785 204.207 113.679 205.462 110.56 205.189C107.441 204.916 104.391 202.888 103.46 199.9C102.529 196.911 104.237 193.194 107.272 192.424C110.306 191.654 113.776 194.683 113.009 197.718" stroke="black" stroke-linecap="round" stroke-linejoin="round"/>
<path d="M82.8962 179.409L78.9322 171.826" stroke="black" stroke-linecap="round" stroke-linejoin="round"/>
<path d="M77.3183 178.268L84.2761 173.356" stroke="black" stroke-linecap="round" stroke-linejoin="round"/>
<path d="M140.558 120.624L137.67 114.489" stroke="black" stroke-linecap="round" stroke-linejoin="round"/>
<path d="M135.828 119.83L141.958 116.569" stroke="black" stroke-linecap="round" stroke-linejoin="round"/>
<path d="M219.607 100.046L210.99 89.5405" stroke="black" stroke-linecap="round" stroke-linejoin="round"/>
<path d="M230.592 99.2942L227.979 57.475" stroke="black" stroke-linecap="round" stroke-linejoin="round"/>
<path d="M242.604 97.8197L248.057 88.8192" stroke="black" stroke-linecap="round" stroke-linejoin="round"/>
<path d="M352.286 224.602C371.141 222.178 390.234 222.243 409.072 224.795" stroke="black" stroke-linecap="round" stroke-linejoin="round"/>
<path d="M360.735 229.592L400.439 229.504" stroke="black" stroke-linecap="round" stroke-linejoin="round"/>
<path d="M370.36 235.479L387.205 235.461" stroke="black" stroke-linecap="round" stroke-linejoin="round"/>
<path d="M444.063 119.101C439.94 128.642 438.693 139.18 440.477 149.42C441.053 152.683 441.972 155.971 443.915 158.658C445.857 161.344 448.977 163.353 452.289 163.246C456.465 163.112 459.866 159.778 461.989 156.18C463.451 153.703 464.457 150.361 462.666 148.11C460.677 145.61 456.477 146.322 454.156 148.521C450.188 152.282 450.047 158.549 451.053 163.923C451.778 167.802 453.382 172.087 457.061 173.515C460.311 174.776 464.201 173.359 467.351 174.851C468.353 175.363 469.214 176.115 469.855 177.04C470.496 177.965 470.899 179.034 471.027 180.153C471.252 182.412 470.587 184.67 469.174 186.447C467.643 188.431 465.076 189.85 462.645 189.238C460.215 188.626 458.61 185.384 460.156 183.411" stroke="black" stroke-linecap="round" stroke-linejoin="round"/>
<path d="M301.14 176.886L294.161 163.892" stroke="black" stroke-linecap="round" stroke-linejoin="round"/>
<path d="M293.079 174.23L303.519 166.414" stroke="black" stroke-linecap="round" stroke-linejoin="round"/>
<path d="M316.728 151.422L316.504 145.165" stroke="black" stroke-linecap="round" stroke-linejoin="round"/>
<path d="M313.813 148.775L320.31 147.813" stroke="black" stroke-linecap="round" stroke-linejoin="round"/>
<path d="M468.548 137.942L465.464 132.383" stroke="black" stroke-linecap="round" stroke-linejoin="round"/>
<path d="M464.359 136.624L470.456 132.162" stroke="black" stroke-linecap="round" stroke-linejoin="round"/>
<path d="M260.914 202.75L259.275 200.052" stroke="black" stroke-linecap="round" stroke-linejoin="round"/>
<path d="M240.175 200.208L242.16 197.499" stroke="black" stroke-linecap="round" stroke-linejoin="round"/>
<path d="M223.389 204.727L221.403 201.84" stroke="black" stroke-linecap="round" stroke-linejoin="round"/>
<path d="M208.411 222.4C209.562 221.724 210.558 220.811 211.33 219.721" stroke="black" stroke-linecap="round" stroke-linejoin="round"/>
<path d="M199.531 206.57L197.396 204.375" stroke="black" stroke-linecap="round" stroke-linejoin="round"/>
<path d="M204.084 241.539L206.25 238.831" stroke="black" stroke-linecap="round" stroke-linejoin="round"/>
<path d="M187.614 225.52L185.108 222.794" stroke="black" stroke-linecap="round" stroke-linejoin="round"/>
<path d="M175.432 213.237L177.768 210.165" stroke="black" stroke-linecap="round" stroke-linejoin="round"/>
<path d="M169.583 229.855L164.942 226.536" stroke="black" stroke-linecap="round" stroke-linejoin="round"/>
<path d="M156.259 215.731L158.064 213.205" stroke="black" stroke-linecap="round" stroke-linejoin="round"/>
<path d="M246.49 355.752C254.22 354.279 262.115 353.876 269.954 354.554" stroke="black" stroke-linecap="round" stroke-linejoin="round"/>
<path d="M247.031 347.773C253.918 346.912 260.867 346.665 267.798 347.035" stroke="black" stroke-linecap="round" stroke-linejoin="round"/>
<path d="M309.824 349.614C316.245 345.757 323.058 342.595 330.148 340.182" stroke="black" stroke-linecap="round" stroke-linejoin="round"/>
<path d="M304.323 342.527C310.142 338.356 316.719 335.361 323.686 333.711" stroke="black" stroke-linecap="round" stroke-linejoin="round"/>
<path d="M109.788 246.962C111.312 242.147 113.828 237.705 117.173 233.92" stroke="black" stroke-linecap="round" stroke-linejoin="round"/>
<g opacity="0.1">
<path d="M208.132 188.718C209.243 183.338 208.632 177.559 208.561 172.104C208.487 166.403 208.254 160.64 208.551 154.944C208.66 152.847 208.939 150.35 210.86 149.082C212.781 147.815 215.674 147.993 217.859 147.832L226.481 147.194C229.207 146.992 232.182 147.266 234.033 144.912C234.71 144.048 234.922 142.824 234.033 141.977C231.613 139.674 228.512 140.458 225.466 140.693C222.152 140.948 218.829 141.148 215.521 141.463C209.8 142.008 205.052 144.412 203.636 150.351C202.26 156.127 203.102 162.681 203.307 168.555C203.536 175.082 203.211 182.443 205.259 188.718C205.685 190.023 207.817 190.243 208.131 188.718H208.132Z" fill="black"/>
</g>
<g opacity="0.1">
<path d="M194.739 226.767L194.611 226.517C194.009 225.341 192.669 225.065 191.494 225.248C182.294 226.687 173.213 229.644 164.44 232.712C160.314 234.155 162.089 240.761 166.257 239.304C175.099 236.211 184.147 233.717 192.962 230.572C193.538 230.399 194.044 230.048 194.408 229.57C194.772 229.092 194.975 228.511 194.988 227.91C194.999 227.514 194.913 227.122 194.739 226.767Z" fill="black"/>
</g>
<g opacity="0.1">
<path d="M126.469 231.27C124.938 232.716 123.262 233.724 121.947 235.415C120.629 237.116 119.422 238.901 118.334 240.758C116.127 244.384 114.64 248.403 113.955 252.593C112.716 260.975 115.845 268.283 122.669 273.301C129.492 278.318 138.211 279.468 146.471 279.444C155.883 279.416 165.302 278.293 174.564 276.678C185.059 274.848 195.401 272.263 205.688 269.516C210.39 268.261 208.396 260.968 203.676 262.218C183.861 267.466 162.934 272.834 142.255 271.652C134.208 271.192 124.643 268.326 121.005 260.317C118.901 255.681 119.589 250.392 121.614 245.867C122.649 243.64 123.868 241.504 125.26 239.481C126.666 237.372 127.491 235.178 128.693 232.986C128.857 232.689 128.909 232.343 128.84 232.01C128.771 231.679 128.585 231.382 128.317 231.174C128.048 230.967 127.715 230.863 127.376 230.88C127.037 230.896 126.716 231.034 126.469 231.267V231.27Z" fill="black"/>
</g>
<g opacity="0.1">
<path d="M206.022 192.792L206.027 192.447C206.027 191.93 205.89 191.421 205.631 190.974C205.372 190.527 204.999 190.155 204.551 189.898C204.102 189.641 203.594 189.506 203.077 189.508C202.559 189.51 202.052 189.648 201.605 189.909L201.263 190.061C200.784 190.341 200.387 190.741 200.112 191.223C199.837 191.705 199.693 192.25 199.695 192.805C199.697 193.359 199.845 193.904 200.124 194.383C200.403 194.862 200.803 195.26 201.284 195.536C201.765 195.812 202.31 195.957 202.865 195.956C203.42 195.955 203.964 195.808 204.444 195.53C204.924 195.251 205.322 194.852 205.6 194.372C205.877 193.891 206.022 193.346 206.022 192.792Z" fill="black"/>
</g>
</g>
</svg>
