<svg width="500" height="500" viewBox="0 0 500 500" fill="none" xmlns="http://www.w3.org/2000/svg">
<mask id="mask0_21_15526" style="mask-type:luminance" maskUnits="userSpaceOnUse" x="19" y="65" width="462" height="371">
<path d="M480.208 65.1042H19.7917V435.417H480.208V65.1042Z" fill="white"/>
</mask>
<g mask="url(#mask0_21_15526)">
<path fill-rule="evenodd" clip-rule="evenodd" d="M288.371 257.578L328.906 259.614L329.354 251.511L330.51 230.667C330.612 228.817 329.975 227.002 328.74 225.621C327.505 224.241 325.771 223.407 323.922 223.303L297.348 221.832C295.498 221.73 293.683 222.366 292.303 223.602C290.922 224.837 290.088 226.57 289.985 228.42L288.539 254.534L288.371 257.578ZM315.526 225.192L315.557 225.973C315.526 225.192 315.525 225.192 315.526 225.192H315.527H315.529L315.535 225.192L315.558 225.191C315.577 225.191 315.605 225.19 315.641 225.189C315.712 225.187 315.817 225.185 315.948 225.183C316.212 225.181 316.589 225.181 317.045 225.194C317.955 225.219 319.191 225.294 320.481 225.491C321.765 225.686 323.142 226.009 324.315 226.55C325.477 227.085 326.547 227.885 327.032 229.095C327.996 231.5 328.151 233.403 327.985 236.014C327.918 237.076 327.796 238.269 327.655 239.658L327.654 239.666C327.624 239.957 327.594 240.256 327.563 240.565C327.382 242.36 327.18 244.492 327.01 247.121C326.982 247.551 326.61 247.878 326.18 247.85C325.749 247.822 325.423 247.451 325.45 247.02C325.622 244.365 325.826 242.211 326.008 240.408C326.04 240.092 326.071 239.788 326.101 239.494L326.101 239.49C326.243 238.1 326.36 236.945 326.425 235.915C326.582 233.459 326.434 231.803 325.582 229.677C325.309 228.998 324.656 228.427 323.661 227.969C322.676 227.515 321.46 227.22 320.246 227.035C319.038 226.851 317.871 226.78 317.001 226.756C316.568 226.744 316.211 226.743 315.964 226.746C315.841 226.747 315.745 226.749 315.681 226.751C315.649 226.752 315.624 226.752 315.609 226.753L315.592 226.753L315.588 226.754H315.587C315.156 226.77 314.793 226.435 314.776 226.004C314.759 225.572 315.095 225.209 315.526 225.192Z" fill="black"/>
<path d="M375.871 179.133C375.871 179.133 442.329 173.969 441.776 187.604C441.367 193.935 440.563 200.234 439.372 206.466C405.688 192.425 371.43 201.192 371.43 201.192C374.283 189.023 375.871 179.133 375.871 179.133Z" fill="black" fill-opacity="0.15"/>
<path d="M293.576 289.864C291.727 289.759 289.994 288.925 288.759 287.545C287.524 286.164 286.887 284.35 286.989 282.501L288.37 257.578L328.906 259.614L327.513 284.747C327.409 286.597 326.575 288.329 325.194 289.565C323.814 290.8 321.999 291.437 320.15 291.336L293.576 289.864Z" fill="black"/>
<path d="M371.43 201.192C371.43 201.192 405.689 192.425 439.372 206.466C434.778 231.869 422.741 273.338 395.608 293.487C375.573 308.367 323.747 309.87 323.747 309.87L321.146 356.682L303.196 356.734L306.234 301.894C314.573 302.31 322.042 302.627 322.042 302.627C322.042 302.627 331.895 299.814 333.441 292.072C334.559 286.481 336.479 262.898 337.465 250.186C345.599 248.557 351.517 246.363 354.653 243.408C361.904 236.579 367.732 216.968 371.43 201.192Z" fill="black" fill-opacity="0.15"/>
<path d="M276.197 288.897L278.086 254.797C281.087 254.745 284.563 254.655 288.371 254.523L288.54 254.533L288.371 257.577L286.988 282.5C286.887 284.349 287.523 286.164 288.759 287.544C289.994 288.924 291.726 289.758 293.575 289.863L320.149 291.334C321.999 291.436 323.813 290.799 325.194 289.564C326.574 288.329 327.408 286.596 327.512 284.746L328.905 259.613L329.354 251.511L329.496 251.516C332.344 251.12 335.008 250.678 337.464 250.187C336.479 262.899 334.558 286.482 333.44 292.073C331.895 299.816 322.042 302.627 322.042 302.627C322.042 302.627 314.573 302.311 306.234 301.894C298.459 301.504 289.919 301.024 285.984 300.628C277.825 299.8 276.197 288.897 276.197 288.897Z" fill="black" fill-opacity="0.15"/>
<path d="M343.109 419.587C343.109 427.741 321.969 434.356 295.885 434.356C269.802 434.356 248.667 427.741 248.667 419.587C248.667 411.432 269.808 404.813 295.885 404.813C297.452 404.813 299.003 404.839 300.527 404.881C324.432 405.614 343.109 411.917 343.109 419.587Z" fill="black"/>
<path d="M235.208 204.535C230.915 207.226 233.646 216.789 233.646 216.789L233.651 217.184C222.69 217.316 226.605 197.601 230.233 201.772C231.532 203.229 233.285 204.203 235.208 204.535Z" fill="black"/>
<path d="M288.437 356.782L287.925 356.925C287.625 355.831 286.512 354.92 284.829 354.161C277.85 351.001 261.046 350.453 251.71 350.405C264.1 350.179 289.777 349.034 289.492 343.379C289.118 335.931 245.185 338.912 245.185 338.912C245.185 338.912 259.706 326.62 254.495 322.154C249.284 317.688 232.642 333.144 232.642 333.144L232.382 333.176C231.717 327.29 229.792 322.967 226.569 321.788C222.455 320.277 210.059 320.084 195.665 319.957V320.068C196.409 363.402 185.992 388.193 185.992 388.193V388.199C154.576 389.565 107.721 381.563 85.4415 355.617C77.7139 346.619 72.9415 335.461 72.7983 321.785C72.0545 251.417 210.555 251.785 210.555 251.785H210.93V243.969C210.93 243.969 209.068 239.501 215.582 239.317C222.096 239.132 259.145 238.383 259.145 238.383C259.145 238.383 265.291 236.706 265.291 244.713V254.892H266.409C266.409 254.892 270.903 254.929 278.082 254.797L276.198 288.898C276.198 288.898 277.827 299.801 285.989 300.629C289.924 301.025 298.464 301.504 306.239 301.895L303.201 356.735L288.437 356.782Z" fill="black" fill-opacity="0.15"/>
<path d="M232.623 336.675C232.971 348.749 228.904 365.311 220.712 375.934C219.069 378.099 217.159 380.046 215.026 381.731C210.547 385.202 199.751 387.596 185.995 388.197V388.192C185.995 388.192 196.412 363.396 195.669 320.067V319.956C210.063 320.083 222.459 320.278 226.573 321.787C229.796 322.968 231.721 327.288 232.385 333.175C232.507 334.285 232.586 335.456 232.623 336.675Z" fill="black" fill-opacity="0.15"/>
<path d="M257.271 130.027C257.613 129.541 270.278 111.686 281.117 117.378C292.099 123.148 260.451 144.558 271.992 137.11C283.533 129.663 298.059 128.55 299.362 132.458C300.665 136.366 297.499 139.347 292.656 143.065C287.812 146.783 228.986 152.006 219.682 159.079C214.998 162.64 214.46 182.282 215.082 200.912L213.536 200.964C213.536 200.964 209.63 213.808 204.786 207.294C200.234 201.165 206.39 191.908 207.13 190.832C206.17 192.087 196.609 204.356 193.247 198.176C189.706 191.656 203.67 181.418 203.67 181.418C203.67 181.418 201.438 159.639 204.419 147.908C207.399 136.178 231.224 135.065 231.224 135.065C231.224 135.065 229.737 116.445 237.992 114.03C246.246 111.614 245.93 128.177 245.93 128.177C245.93 128.177 255.615 104.721 261.385 107.142C267.086 109.531 257.503 129.546 257.271 130.027Z" fill="black"/>
<path d="M210.558 251.786C210.558 251.786 72.0578 251.417 72.8016 321.785C72.9438 335.463 77.7172 346.619 85.4448 355.617C107.724 381.563 154.579 389.565 185.995 388.199C199.751 387.597 210.548 385.203 215.026 381.732C217.158 380.047 219.069 378.099 220.712 375.935C228.904 365.31 232.97 348.747 232.622 336.676C232.585 335.457 232.506 334.287 232.385 333.174C231.72 327.288 229.795 322.965 226.572 321.785C222.458 320.275 210.062 320.082 195.668 319.955C170.981 319.734 140.427 319.707 135.72 313.594C128.272 303.915 137.208 295.35 137.208 295.35" stroke="black" stroke-linecap="round" stroke-linejoin="round"/>
<path d="M244.243 362.599C255.589 363.37 287.743 366.234 286.514 373.908C285.026 383.218 220.712 375.934 220.712 375.934" stroke="black" stroke-linecap="round" stroke-linejoin="round"/>
<path d="M240.344 362.368C240.344 362.368 240.413 362.373 240.553 362.378C240.567 362.378 240.581 362.379 240.595 362.383C241.08 362.405 242.267 362.468 243.96 362.584" stroke="black" stroke-linecap="round" stroke-linejoin="round"/>
<path d="M243.957 362.584C242.264 362.495 241.078 362.416 240.593 362.384" stroke="black" stroke-linecap="round" stroke-linejoin="round"/>
<path d="M243.957 362.585C243.979 362.584 244 362.585 244.021 362.59C244.095 362.59 244.168 362.595 244.242 362.601" stroke="black" stroke-linecap="round" stroke-linejoin="round"/>
<path d="M251.711 350.405C261.047 350.452 277.852 351 284.83 354.16C286.513 354.92 287.626 355.832 287.926 356.924C287.98 357.12 288.006 357.322 288.006 357.525C288.006 364.277 255.625 363.191 244.242 362.599" stroke="black" stroke-linecap="round" stroke-linejoin="round"/>
<path d="M251.653 350.405C247.755 350.474 245.186 350.452 245.186 350.452C245.186 350.452 247.765 350.384 251.653 350.405Z" stroke="black" stroke-linecap="round" stroke-linejoin="round"/>
<path d="M251.653 350.405H251.711" stroke="black" stroke-linecap="round" stroke-linejoin="round"/>
<path d="M232.644 333.141C232.644 333.141 249.285 317.687 254.497 322.152C259.708 326.616 245.187 338.91 245.187 338.91C245.187 338.91 289.119 335.929 289.494 343.377C289.778 349.031 264.101 350.176 251.711 350.403" stroke="black" stroke-linecap="round" stroke-linejoin="round"/>
<path d="M288.37 254.524C284.561 254.656 281.085 254.745 278.084 254.798C270.905 254.93 266.411 254.893 266.411 254.893" stroke="black" stroke-linecap="round" stroke-linejoin="round"/>
<path d="M321.141 356.782L321.147 356.682L323.747 309.87C323.747 309.87 375.57 308.367 395.608 293.487C422.744 273.338 434.777 231.869 439.372 206.466C440.563 200.234 441.366 193.935 441.777 187.604C442.331 173.969 375.871 179.133 375.871 179.133C375.871 179.133 374.283 189.023 371.43 201.192C367.732 216.968 361.903 236.579 354.651 243.409C351.518 246.364 345.6 248.558 337.463 250.188C335.006 250.678 332.342 251.121 329.495 251.517" stroke="black" stroke-linecap="round" stroke-linejoin="round"/>
<path d="M210.933 254.951V243.969C210.933 243.969 209.072 239.501 215.586 239.317C222.1 239.132 259.149 238.383 259.149 238.383C259.149 238.383 265.295 236.706 265.295 244.713V256.997" stroke="black" stroke-linecap="round" stroke-linejoin="round"/>
<path d="M207.131 190.833C206.392 191.909 200.236 201.166 204.787 207.295C209.631 213.809 213.537 200.966 213.537 200.966" stroke="black" stroke-linecap="round" stroke-linejoin="round"/>
<path d="M257.265 130.037C257.266 130.033 257.268 130.029 257.271 130.027C257.503 129.546 267.086 109.529 261.385 107.14C255.615 104.719 245.931 128.175 245.931 128.175C245.931 128.175 246.243 111.607 237.992 114.029C229.741 116.45 231.225 135.064 231.225 135.064C231.225 135.064 207.394 136.182 204.419 147.907C201.444 159.633 203.67 181.417 203.67 181.417C203.67 181.417 189.708 191.655 193.247 198.177C196.607 204.359 206.17 192.09 207.13 190.833C207.142 190.826 207.151 190.814 207.156 190.802C207.161 190.792 207.166 190.783 207.172 190.775C207.198 190.744 207.209 190.728 207.209 190.728" stroke="black" stroke-linecap="round" stroke-linejoin="round"/>
<path d="M217.447 236.705C217.447 236.705 215.702 219.299 215.084 200.912C214.459 182.281 215 162.639 219.684 159.079C228.988 152.005 287.816 146.787 292.658 143.065C297.5 139.342 300.665 136.366 299.362 132.457C298.059 128.548 283.538 129.662 271.992 137.11C260.446 144.558 292.099 123.148 281.117 117.377C270.278 111.686 257.614 129.541 257.271 130.026" stroke="black" stroke-linecap="round" stroke-linejoin="round"/>
<path d="M241.71 196.122C241.71 196.122 247.739 197.863 248.668 196.745C249.596 195.627 246.162 163.42 246.162 163.42L260.388 162.492" stroke="black" stroke-linecap="round" stroke-linejoin="round"/>
<path d="M256.543 172.355L257.039 179.122" stroke="black" stroke-linecap="round" stroke-linejoin="round"/>
<path d="M232.655 171.179V178.564" stroke="black" stroke-linecap="round" stroke-linejoin="round"/>
<path d="M235.208 204.535C233.286 204.203 231.533 203.229 230.234 201.772C226.606 197.599 222.692 217.316 233.653 217.184C235.652 217.087 237.611 216.594 239.418 215.734" stroke="black" stroke-linecap="round" stroke-linejoin="round"/>
<path d="M242.022 204.193C239.805 204.808 237.48 204.926 235.212 204.536" stroke="black" stroke-linecap="round" stroke-linejoin="round"/>
<path d="M233.645 216.788C233.645 216.788 230.913 207.225 235.208 204.535H235.213" stroke="black" stroke-linecap="round" stroke-linejoin="round"/>
<path d="M247.423 236.706C247.423 236.706 243.699 226.964 249.533 222.496C255.367 218.029 261.691 222.992 264.175 215.919C266.66 208.845 269.761 149.896 269.761 149.896" stroke="black" stroke-linecap="round" stroke-linejoin="round"/>
<path d="M419.531 168.758C419.532 168.75 419.533 168.741 419.536 168.732V168.716C419.536 168.711 419.542 168.706 419.542 168.695C419.802 166.928 425.465 128.582 432.285 129.943C439.264 131.34 428.002 178.172 428.002 178.172" stroke="black" stroke-linecap="round" stroke-linejoin="round"/>
<path d="M409.143 165.794C409.354 157.007 410.562 124.003 417.018 124.731C424.297 125.549 419.74 166.854 419.54 168.695" stroke="black" stroke-linecap="round" stroke-linejoin="round"/>
<path d="M409.133 166.475C409.133 166.301 409.138 166.11 409.143 165.91" stroke="black" stroke-linecap="round" stroke-linejoin="round"/>
<path d="M409.111 167.63C409.111 167.419 409.117 167.097 409.128 166.675" stroke="black" stroke-linecap="round" stroke-linejoin="round"/>
<path d="M409.128 166.675C409.122 167.097 409.117 167.419 409.111 167.63C409.111 167.82 409.106 167.92 409.106 167.92" stroke="black" stroke-linecap="round" stroke-linejoin="round"/>
<path d="M409.126 166.675C409.132 166.612 409.132 166.543 409.132 166.475" stroke="black" stroke-linecap="round" stroke-linejoin="round"/>
<path d="M409.143 165.91C409.143 166.11 409.138 166.301 409.133 166.475" stroke="black" stroke-linecap="round" stroke-linejoin="round"/>
<path d="M409.143 165.909V165.794" stroke="black" stroke-linecap="round" stroke-linejoin="round"/>
<path d="M392.628 178.173C392.628 178.173 376.245 163.732 381.367 159.639C386.489 155.545 399.612 167.456 399.612 167.456C399.612 167.456 392.628 123.523 401.469 123.149C409.154 122.822 409.248 156.859 409.143 165.794" stroke="black" stroke-linecap="round" stroke-linejoin="round"/>
<path d="M20.6725 356.782L85.4447 355.616" stroke="black" stroke-linecap="round" stroke-linejoin="round"/>
<path d="M288.439 356.782L303.197 356.735L321.147 356.682L479.006 356.202" stroke="black" stroke-linecap="round" stroke-linejoin="round"/>
<path d="M185.995 388.192C185.995 388.192 196.412 363.396 195.669 320.067" stroke="black" stroke-linecap="round" stroke-linejoin="round"/>
<path d="M371.43 201.192C371.43 201.192 405.688 192.425 439.372 206.466" stroke="black" stroke-linecap="round" stroke-linejoin="round"/>
<path d="M343.109 419.587C343.109 427.741 321.969 434.356 295.885 434.356C269.802 434.356 248.667 427.741 248.667 419.587C248.667 411.432 269.808 404.813 295.885 404.813C297.452 404.813 299.003 404.839 300.527 404.881C324.432 405.614 343.109 411.917 343.109 419.587Z" stroke="black" stroke-linecap="round" stroke-linejoin="round"/>
<path d="M328.906 259.614L327.514 284.747C327.409 286.597 326.575 288.329 325.195 289.565C323.815 290.8 322 291.436 320.151 291.335L293.577 289.864C291.727 289.759 289.995 288.925 288.759 287.545C287.524 286.164 286.887 284.35 286.989 282.501L288.37 257.578L288.539 254.534L289.984 228.42C290.088 226.57 290.921 224.837 292.302 223.602C293.683 222.366 295.497 221.73 297.347 221.832L323.921 223.303C325.771 223.407 327.504 224.241 328.74 225.621C329.975 227.002 330.611 228.817 330.509 230.667L329.354 251.511L328.906 259.614Z" stroke="black" stroke-linecap="round" stroke-linejoin="round"/>
<path d="M278.87 240.573L278.084 254.798L276.197 288.898C276.197 288.898 277.827 299.801 285.989 300.629C289.924 301.024 298.463 301.504 306.238 301.895C314.577 302.311 322.046 302.628 322.046 302.628C322.046 302.628 331.899 299.815 333.445 292.073C334.563 286.482 336.483 262.899 337.469 250.188C337.849 245.277 338.086 241.985 338.086 241.985" stroke="black" stroke-linecap="round" stroke-linejoin="round"/>
<path d="M299.953 415.263L300.528 404.882L303.197 356.735L306.235 301.895" stroke="black" stroke-linecap="round" stroke-linejoin="round"/>
<path d="M288.37 257.578L328.905 259.614" stroke="black" stroke-linecap="round" stroke-linejoin="round"/>
<path d="M59.2702 336.622C56.7196 325.212 58.33 313.267 63.8108 302.94" stroke="black" stroke-linecap="round" stroke-linejoin="round"/>
<path d="M324.472 214.915L330.425 205.232" stroke="black" stroke-linecap="round" stroke-linejoin="round"/>
<path d="M308.781 212.691L309.117 182.161" stroke="black" stroke-linecap="round" stroke-linejoin="round"/>
<path d="M296.47 214.254L290.943 206.765" stroke="black" stroke-linecap="round" stroke-linejoin="round"/>
<path d="M446.347 155.968C448.464 151.553 449.585 146.727 449.627 141.83C449.67 136.934 448.635 132.089 446.595 127.638" stroke="black" stroke-linecap="round" stroke-linejoin="round"/>
<path d="M108.662 228.614L101.52 218.984" stroke="black" stroke-linecap="round" stroke-linejoin="round"/>
<path d="M101.103 227.591L108.59 219.436" stroke="black" stroke-linecap="round" stroke-linejoin="round"/>
<path d="M134.104 161.003L129.704 152.031" stroke="black" stroke-linecap="round" stroke-linejoin="round"/>
<path d="M127.058 159.691L135.663 153.043" stroke="black" stroke-linecap="round" stroke-linejoin="round"/>
<path d="M365.448 134.876L360.98 127.428" stroke="black" stroke-linecap="round" stroke-linejoin="round"/>
<path d="M358.759 134.89L366.644 127.138" stroke="black" stroke-linecap="round" stroke-linejoin="round"/>
<path d="M378.089 76.4318L372.493 66.3849" stroke="black" stroke-linecap="round" stroke-linejoin="round"/>
<path d="M371.354 74.5188L377.718 66.7277" stroke="black" stroke-linecap="round" stroke-linejoin="round"/>
<path d="M390.893 306.942C407.176 300 420.084 286.945 426.842 270.584" stroke="black" stroke-linecap="round" stroke-linejoin="round"/>
<path d="M99.5682 146.845C92.2797 154.618 92.1567 167.328 97.3125 176.653C102.469 185.978 111.903 192.268 121.82 196.166C128.96 198.973 136.799 200.902 142.327 206.222C151.048 214.617 150.89 229.545 144.164 239.607C137.437 249.669 125.66 255.375 113.795 257.773C101.25 260.308 87.5156 259.444 76.6765 252.638C65.8375 245.832 58.8125 232.228 62.1375 219.869C63.0354 216.53 64.6937 213.306 67.3458 211.09C69.9979 208.873 73.7484 207.815 77.0333 208.892C83.089 210.878 84.9661 218.711 83.9604 225.004C83.6515 226.934 83.1317 228.907 81.8849 230.412C80.638 231.917 78.502 232.831 76.6698 232.151C74.8375 231.47 73.8625 228.865 75.1546 227.398" stroke="black" stroke-linecap="round" stroke-linejoin="round"/>
<path d="M335.454 137.769C330.472 127.413 336.131 114.251 345.697 107.881C355.264 101.512 367.531 100.694 378.943 102.048C390.355 103.402 401.481 106.7 412.919 107.817C421.522 108.656 430.501 108.185 438.324 104.507C446.147 100.829 452.615 93.4766 453.464 84.8714C453.968 79.7604 452.336 74.3224 448.564 70.837C444.791 67.3516 438.802 66.2125 434.299 68.6813C429.795 71.15 427.571 77.3792 430.043 81.8823C432.515 86.3854 439.619 87.6323 443.097 83.8542" stroke="black" stroke-linecap="round" stroke-linejoin="round"/>
<path d="M258.887 253.274L258.798 245.332" stroke="black" stroke-linecap="round" stroke-linejoin="round"/>
<path d="M245.909 253.281L246.1 245.833" stroke="black" stroke-linecap="round" stroke-linejoin="round"/>
<path d="M231.175 253.277L231.182 246.079" stroke="black" stroke-linecap="round" stroke-linejoin="round"/>
<path d="M218.397 253.274L218.331 247.069" stroke="black" stroke-linecap="round" stroke-linejoin="round"/>
<path d="M426.842 212.691L419.56 216.788" stroke="black" stroke-linecap="round" stroke-linejoin="round"/>
<path d="M412.361 236.894C411.651 234.816 410.509 232.913 409.01 231.309" stroke="black" stroke-linecap="round" stroke-linejoin="round"/>
<path d="M389.649 221.628L394.862 217.16" stroke="black" stroke-linecap="round" stroke-linejoin="round"/>
<path d="M378.108 240.245L374.757 234.66" stroke="black" stroke-linecap="round" stroke-linejoin="round"/>
<path d="M382.258 258.962L388.253 255.68" stroke="black" stroke-linecap="round" stroke-linejoin="round"/>
<path d="M390.394 283.434L388.906 277.849" stroke="black" stroke-linecap="round" stroke-linejoin="round"/>
<path d="M358.615 286.629L364.275 281.878" stroke="black" stroke-linecap="round" stroke-linejoin="round"/>
<path d="M349.811 265.191L346.832 261.84" stroke="black" stroke-linecap="round" stroke-linejoin="round"/>
<path d="M341.62 300.19L342.737 294.232" stroke="black" stroke-linecap="round" stroke-linejoin="round"/>
<path d="M310.671 323.233L316.236 316.886" stroke="black" stroke-linecap="round" stroke-linejoin="round"/>
<path d="M315.557 340.028L313.323 337.05" stroke="black" stroke-linecap="round" stroke-linejoin="round"/>
<path d="M294.289 316.227L290.868 310.686" stroke="black" stroke-linecap="round" stroke-linejoin="round"/>
<path d="M271.653 328.519L277.611 322.935" stroke="black" stroke-linecap="round" stroke-linejoin="round"/>
<path d="M266.782 304.657L264.178 300.189" stroke="black" stroke-linecap="round" stroke-linejoin="round"/>
<path d="M252.994 281.557L257.52 278.097" stroke="black" stroke-linecap="round" stroke-linejoin="round"/>
<path d="M235.163 297.566L232.743 293.47" stroke="black" stroke-linecap="round" stroke-linejoin="round"/>
<path d="M210.188 308.939L213.268 305.829C213.349 305.73 213.202 305.559 213.093 305.625C212.984 305.69 213.065 305.9 213.189 305.876" stroke="black" stroke-linecap="round" stroke-linejoin="round"/>
<path d="M215.965 281.951L218.949 278.417" stroke="black" stroke-linecap="round" stroke-linejoin="round"/>
<path d="M191.965 297.564L188.796 294.217" stroke="black" stroke-linecap="round" stroke-linejoin="round"/>
<path d="M166.102 311.392L169.294 308.067" stroke="black" stroke-linecap="round" stroke-linejoin="round"/>
<path d="M169.094 281.808L173.355 277.694" stroke="black" stroke-linecap="round" stroke-linejoin="round"/>
<path d="M189.159 266.488L185.617 262.581" stroke="black" stroke-linecap="round" stroke-linejoin="round"/>
<path d="M135.521 282.895L130.87 278.982" stroke="black" stroke-linecap="round" stroke-linejoin="round"/>
<path d="M104.274 302.806C105.559 301.189 106.516 299.338 107.092 297.354" stroke="black" stroke-linecap="round" stroke-linejoin="round"/>
<path d="M95.303 330.191L91.3113 327.133" stroke="black" stroke-linecap="round" stroke-linejoin="round"/>
<path d="M124.006 327.559C124.821 325.245 125.939 323.05 127.331 321.029" stroke="black" stroke-linecap="round" stroke-linejoin="round"/>
<path d="M114.872 358.085L110.218 353.99" stroke="black" stroke-linecap="round" stroke-linejoin="round"/>
<path d="M155.2 340.125C153.732 339.057 152.441 337.764 151.378 336.293" stroke="black" stroke-linecap="round" stroke-linejoin="round"/>
<path d="M143.561 372.624L148.946 366.655" stroke="black" stroke-linecap="round" stroke-linejoin="round"/>
<path d="M179.071 351.734C180.414 350.115 181.644 348.404 182.749 346.615" stroke="black" stroke-linecap="round" stroke-linejoin="round"/>
<path d="M177.043 376.722C176.349 376.435 175.724 376.002 175.212 375.452C174.7 374.903 174.312 374.249 174.074 373.536" stroke="black" stroke-linecap="round" stroke-linejoin="round"/>
<path d="M62.9391 200.122L60.1948 194.917" stroke="black" stroke-linecap="round" stroke-linejoin="round"/>
<path d="M58.4281 199.441L64.5088 194.121" stroke="black" stroke-linecap="round" stroke-linejoin="round"/>
<path d="M330.268 110.763L328.207 107.081" stroke="black" stroke-linecap="round" stroke-linejoin="round"/>
<path d="M326.735 110.081C328.345 109.525 329.788 108.572 330.934 107.313" stroke="black" stroke-linecap="round" stroke-linejoin="round"/>
<path d="M204.356 128.174L199.64 122.713" stroke="black" stroke-linecap="round" stroke-linejoin="round"/>
<path d="M199.155 128.185L204.967 121.826" stroke="black" stroke-linecap="round" stroke-linejoin="round"/>
<path d="M340.141 179.627L334.285 181.071C334.108 181.115 333.922 181.104 333.753 181.039C333.582 180.973 333.436 180.857 333.334 180.707C333.232 180.556 333.179 180.378 333.181 180.195C333.183 180.013 333.242 179.837 333.347 179.688L336.858 174.784C336.961 174.641 337.019 174.47 337.024 174.294C337.03 174.118 336.983 173.944 336.89 173.794L333.707 168.671C333.611 168.517 333.565 168.337 333.575 168.155C333.584 167.973 333.649 167.799 333.761 167.655C333.873 167.512 334.026 167.406 334.2 167.352C334.373 167.297 334.559 167.298 334.733 167.353L340.482 169.176C340.65 169.229 340.83 169.231 340.998 169.182C341.168 169.134 341.319 169.036 341.432 168.901L345.32 164.291C345.438 164.152 345.595 164.053 345.771 164.005C345.947 163.958 346.133 163.966 346.304 164.028C346.475 164.09 346.623 164.203 346.728 164.351C346.833 164.5 346.891 164.677 346.892 164.859L346.934 170.89C346.936 171.066 346.989 171.238 347.088 171.383C347.186 171.529 347.326 171.642 347.489 171.708L353.076 173.982C353.244 174.051 353.388 174.169 353.487 174.322C353.586 174.475 353.636 174.654 353.631 174.835C353.625 175.017 353.564 175.193 353.455 175.339C353.346 175.485 353.196 175.594 353.023 175.652L347.301 177.556C347.134 177.612 346.986 177.716 346.879 177.855C346.77 177.994 346.706 178.162 346.693 178.338L346.257 184.353C346.244 184.534 346.176 184.708 346.061 184.849C345.946 184.991 345.791 185.094 345.617 185.144C345.442 185.195 345.255 185.191 345.083 185.132C344.91 185.074 344.76 184.964 344.652 184.817L341.073 179.963C340.968 179.821 340.824 179.714 340.658 179.654C340.492 179.594 340.312 179.585 340.141 179.627Z" fill="black"/>
<path d="M269.281 87.012L265.422 87.9636C265.306 87.9922 265.183 87.9844 265.071 87.9417C264.959 87.8985 264.863 87.8224 264.795 87.723C264.728 87.624 264.693 87.5063 264.694 87.386C264.696 87.2662 264.734 87.1495 264.804 87.0521L267.118 83.8198C267.185 83.725 267.223 83.6131 267.227 83.4969C267.231 83.3813 267.2 83.2667 267.139 83.1683L265.041 79.7922C264.978 79.6901 264.947 79.5709 264.954 79.4511C264.96 79.3313 265.003 79.2162 265.076 79.1214C265.15 79.0266 265.251 78.9568 265.366 78.9209C265.481 78.8855 265.604 78.886 265.718 78.923L269.507 80.1245C269.618 80.1589 269.736 80.1605 269.847 80.1282C269.959 80.0959 270.058 80.0318 270.132 79.9433L272.695 76.9053C272.773 76.8136 272.876 76.748 272.992 76.7167C273.108 76.686 273.231 76.6912 273.344 76.7318C273.456 76.7724 273.554 76.8469 273.623 76.9448C273.693 77.0427 273.73 77.1594 273.731 77.2797L273.759 81.2542C273.76 81.3698 273.795 81.4829 273.859 81.5792C273.924 81.675 274.016 81.7495 274.123 81.7938L277.805 83.2922C277.917 83.3375 278.011 83.4157 278.076 83.5162C278.142 83.6172 278.174 83.7349 278.17 83.8552C278.167 83.975 278.126 84.0907 278.054 84.187C277.983 84.2834 277.883 84.3553 277.769 84.3933L273.997 85.648C273.887 85.6844 273.791 85.7532 273.72 85.8443C273.648 85.936 273.606 86.0469 273.597 86.1625L273.31 90.1271C273.301 90.2464 273.256 90.3605 273.181 90.4537C273.105 90.5469 273.003 90.6146 272.887 90.648C272.772 90.6813 272.65 90.6787 272.536 90.6401C272.422 90.6016 272.323 90.5292 272.252 90.4328L269.893 87.2334C269.824 87.1401 269.73 87.0693 269.621 87.0303C269.512 86.9907 269.394 86.9844 269.281 87.012Z" fill="black"/>
<path d="M164.154 176.751L161.087 180.08C160.995 180.181 160.874 180.25 160.74 180.28C160.607 180.309 160.468 180.297 160.342 180.245C160.215 180.193 160.108 180.104 160.034 179.989C159.96 179.875 159.923 179.74 159.928 179.603L160.093 175.08C160.097 174.948 160.063 174.818 159.994 174.705C159.924 174.593 159.823 174.503 159.704 174.449L155.589 172.562C155.465 172.504 155.361 172.41 155.292 172.293C155.223 172.175 155.192 172.039 155.202 171.903C155.212 171.767 155.264 171.638 155.351 171.532C155.436 171.426 155.553 171.349 155.684 171.312L160.037 170.071C160.164 170.034 160.277 169.962 160.363 169.86C160.448 169.76 160.502 169.637 160.518 169.505L161.039 165.009C161.054 164.873 161.111 164.746 161.202 164.644C161.292 164.542 161.412 164.469 161.545 164.438C161.678 164.405 161.817 164.415 161.944 164.464C162.071 164.514 162.18 164.601 162.257 164.714L164.782 168.47C164.856 168.579 164.96 168.665 165.082 168.715C165.205 168.766 165.339 168.778 165.469 168.752L169.906 167.861C170.04 167.834 170.179 167.848 170.304 167.903C170.429 167.957 170.534 168.049 170.606 168.165C170.678 168.281 170.712 168.417 170.705 168.553C170.697 168.69 170.647 168.82 170.564 168.928L167.772 172.491C167.69 172.594 167.641 172.72 167.631 172.852C167.621 172.984 167.65 173.116 167.715 173.231L169.934 177.176C170.001 177.294 170.03 177.431 170.017 177.567C170.004 177.703 169.949 177.832 169.861 177.936C169.772 178.04 169.654 178.115 169.522 178.149C169.39 178.184 169.251 178.178 169.122 178.131L164.871 176.576C164.747 176.531 164.614 176.524 164.486 176.555C164.358 176.586 164.243 176.654 164.154 176.751Z" fill="black"/>
<g opacity="0.1">
<path d="M378.119 180.261C374.405 181.156 374.48 187.061 373.856 190.078C373.006 194.19 372.105 198.311 371.099 202.388C369.158 210.421 366.702 218.322 363.75 226.042C361.13 232.8 358.131 239.921 352.741 244.966C350.293 247.281 347.267 248.895 343.98 249.641C342.536 249.969 341.047 250.054 339.574 249.892C337.595 249.659 336.059 248.874 334.011 249.447C333.478 249.602 332.987 249.875 332.574 250.246C332.162 250.618 331.839 251.078 331.63 251.592C331.42 252.106 331.331 252.661 331.366 253.215C331.402 253.769 331.563 254.308 331.837 254.791C334.094 258.5 339.616 258.65 343.524 258.182C347.762 257.672 351.807 256.119 355.298 253.664C362.683 248.458 366.886 240.382 370.285 232.246C374.059 223.315 377.028 214.066 379.159 204.607C380.207 199.83 380.989 194.999 381.502 190.135C381.777 187.572 383.141 179.046 378.117 180.257L378.119 180.261Z" fill="black"/>
</g>
<g opacity="0.1">
<path d="M265.904 147.785C263.839 148.086 261.678 147.907 259.602 148.172C257.223 148.549 254.866 149.048 252.539 149.667C248.359 150.648 244.181 151.639 239.997 152.598C232.966 154.213 224.04 155.157 219.287 161.241C214.844 166.929 215.053 174.279 215.04 181.133C215.024 189.854 215.248 198.577 215.383 207.297C215.46 212.256 215.598 217.215 215.657 222.175C215.687 224.739 215.682 227.305 215.695 229.87C215.707 232.381 215.434 235.062 216.22 237.474C216.443 238.199 216.892 238.833 217.503 239.284C218.112 239.734 218.851 239.977 219.609 239.977C220.368 239.977 221.106 239.734 221.716 239.284C222.327 238.833 222.776 238.199 222.999 237.474C223.809 234.898 223.468 232.029 223.456 229.357C223.443 226.621 223.414 223.885 223.429 221.149C223.458 216.019 223.528 210.889 223.557 205.758C223.614 195.769 223.453 185.764 223.594 175.778C223.641 172.523 223.681 168.324 225.761 165.602C228.105 162.533 232.894 161.791 236.369 160.747C241.302 159.266 246.208 157.694 251.125 156.164C253.749 155.348 256.386 154.571 258.978 153.656C261.641 152.715 263.946 151.151 266.54 150.092C266.831 149.996 267.075 149.791 267.22 149.52C267.365 149.249 267.4 148.933 267.318 148.636C267.236 148.34 267.044 148.087 266.781 147.928C266.518 147.77 266.204 147.719 265.904 147.785H265.904Z" fill="black"/>
</g>
<g opacity="0.1">
<path d="M211.305 244.992C212.45 246.56 211.919 248.43 210.58 249.762C208.523 251.807 205.062 251.873 202.344 251.937C195.053 252.109 187.855 252.139 180.59 252.918C165.787 254.476 151.187 257.567 137.023 262.141C111.913 270.308 83.1557 283.343 74.4989 310.614C70.3275 323.754 73.1025 337.931 80.4885 349.385C87.8869 360.858 99.1812 369.233 111.221 375.345C135.937 387.891 164.392 392.038 191.703 387.553C199.657 386.247 207.215 383.901 214.838 381.339C218.588 380.078 222.218 378.527 226.14 377.858C229.947 377.162 233.815 376.843 237.685 376.905C253.123 377.374 270.07 382.397 285.019 376.56C287.794 375.476 286.776 371.407 283.773 372.04C269.875 374.97 256.294 373.055 242.321 371.862C235.158 371.25 228.237 371.033 221.084 371.796C214.1 372.54 207.509 374.67 200.732 376.399C174.832 383.005 146.949 381.146 122.338 370.527C110.5 365.418 98.7343 358.432 90.6807 348.141C83.0728 338.42 79.415 325.86 82.964 313.809C86.5796 301.531 95.9926 292.025 106.582 285.344C118.329 277.933 131.637 272.881 144.895 268.91C160.399 264.268 176.058 261.952 192.134 260.555C199.082 259.951 207.653 261.138 213.788 257.145C219.185 253.632 221.421 245.783 216.709 240.818C214.083 238.052 208.959 241.776 211.302 244.99L211.305 244.992Z" fill="black"/>
</g>
</g>
</svg>
