<svg width="1200" height="241" viewBox="0 0 1200 241" fill="none" xmlns="http://www.w3.org/2000/svg">
<path d="M161.794 23.4883C149.207 18.4774 134.429 15.6588 117.336 15.6588C100.243 15.6588 85.4578 18.4774 72.8785 23.4883H41.5398C60.6669 8.58887 86.0915 0 117.344 0C148.597 0 174.006 8.58887 193.148 23.4883H161.794ZM15.6459 116.815V117.433C15.6459 146.167 24.2981 171.535 40.9531 189.629C57.5064 207.621 82.6728 219.208 117.336 219.208C152 219.208 177.166 207.621 193.719 189.629C210.375 171.535 219.027 146.175 219.027 117.433V116.823C224.875 112.137 229.835 106.438 233.671 99.9974C234.339 105.718 234.673 111.53 234.673 117.433C234.673 149.229 225.074 178.66 205.227 200.237C185.279 221.917 155.7 234.867 117.336 234.867C78.9726 234.867 49.3862 221.917 29.4377 200.237C9.59092 178.667 0 149.229 0 117.433C0 111.514 0.333779 105.695 1.00134 99.9739C4.83575 106.42 9.79604 112.124 15.6459 116.815Z" fill="white"/>
<path d="M84.5973 136.389C83.3755 134.765 81.5709 133.681 79.5651 133.366C77.5593 133.05 75.5094 133.527 73.8486 134.696C72.1877 135.865 71.0462 137.635 70.6652 139.631C70.2842 141.627 70.6935 143.693 71.8068 145.392L71.8146 145.416L71.8302 145.431L71.8537 145.471L71.9319 145.572C72.1789 145.92 72.4398 146.257 72.7142 146.582C73.2149 147.185 73.9111 147.984 74.8264 148.9C76.657 150.74 79.3637 153.089 83.0483 155.398C90.4801 160.057 101.69 164.418 117.344 164.418C132.99 164.418 144.2 160.057 151.64 155.398C154.612 153.546 157.367 151.366 159.854 148.9C160.825 147.935 161.732 146.907 162.569 145.823L162.67 145.69L162.764 145.572L162.827 145.471L162.858 145.431L162.874 145.416L162.881 145.4C164.077 143.703 164.549 141.6 164.195 139.553C163.84 137.507 162.688 135.686 160.992 134.49C159.296 133.294 157.195 132.821 155.15 133.176C153.106 133.53 151.286 134.683 150.091 136.381L149.903 136.616C149.55 137.048 149.174 137.461 148.777 137.853C147.681 138.949 145.906 140.515 143.34 142.12C138.278 145.298 129.923 148.759 117.344 148.759C104.765 148.759 96.4099 145.298 91.3485 142.12C89.3843 140.903 87.5609 139.471 85.9115 137.853C85.4429 137.39 85.004 136.906 84.5973 136.389ZM78.2294 31.3177H31.2918C22.9927 31.3177 15.0335 34.6172 9.16515 40.4904C3.2968 46.3636 0 54.3294 0 62.6354V67.9124C0.00179835 78.0896 2.83498 88.0653 8.18213 96.7219C13.5293 105.378 21.1792 112.374 30.2748 116.925L37.5892 120.597C43.0419 123.3 48.9822 124.879 55.0568 125.238C61.1314 125.597 67.2161 124.729 72.9489 122.687C94.7436 114.897 109.521 94.1488 109.521 70.9894V70.4648C109.521 68.3883 110.345 66.3969 111.812 64.9286C113.28 63.4603 115.269 62.6354 117.344 62.6354C119.419 62.6354 121.409 63.4603 122.876 64.9286C124.343 66.3969 125.167 68.3883 125.167 70.4648V70.9894C125.167 94.1488 139.945 114.897 161.739 122.687C167.472 124.729 173.557 125.597 179.631 125.238C185.706 124.879 191.646 123.3 197.099 120.597L204.421 116.932C213.517 112.38 221.166 105.383 226.511 96.7249C231.857 88.0669 234.689 78.0901 234.688 67.9124V58.7207C234.688 51.4529 231.804 44.4829 226.669 39.3438C221.534 34.2048 214.57 31.3177 207.308 31.3177H152.547C143.754 31.3177 135.931 35.4673 130.917 41.9187V41.8874L130.526 42.2789C129.032 43.8213 125.973 46.9452 123.133 46.9687H109.49C106.642 46.9452 103.591 43.8213 102.089 42.2789L101.698 41.8874V41.9109C98.7609 38.5803 95.1491 35.9132 91.1028 34.0868C87.0565 32.2604 82.6682 31.3165 78.2294 31.3177ZM89.1033 72.5631C84.5112 77.1511 75.8434 75.9062 69.7337 69.7915C63.624 63.6767 62.3801 55.0017 66.9722 50.4136C71.5486 45.8334 80.2243 47.0705 86.334 53.1853C92.4359 59.2922 93.6875 67.975 89.1033 72.5631ZM211.485 53.1853C217.603 59.2922 218.839 67.975 214.255 72.5631C209.67 77.1511 201.003 75.9062 194.893 69.7915C188.791 63.6845 187.539 55.0017 192.131 50.4136C196.708 45.8334 205.383 47.0705 211.485 53.1853Z" fill="white"/>
<path d="M403.108 203.168C392.261 203.168 382.581 202.083 374.07 199.911C365.725 197.573 358.632 194.232 352.791 189.89C347.117 185.38 342.778 179.868 339.774 173.354C336.937 166.673 335.602 158.989 335.769 150.304L360.051 143.79C359.717 152.141 361.303 159.073 364.807 164.585C368.312 170.097 373.486 174.272 380.328 177.112C387.337 179.784 395.348 181.121 404.36 181.121C413.205 181.121 420.632 180.035 426.64 177.864C432.648 175.692 437.154 172.769 440.158 169.095C443.329 165.253 444.914 160.91 444.914 156.066C444.914 150.555 442.995 146.212 439.157 143.038C435.485 139.698 430.562 137.109 424.387 135.272C418.212 133.267 411.286 131.43 403.609 129.76C395.765 128.089 388.005 126.168 380.328 123.997C372.651 121.826 365.642 118.986 359.3 115.479C353.125 111.804 348.118 107.127 344.28 101.448C340.608 95.7695 338.773 88.5873 338.773 79.9018C338.773 69.8802 341.276 61.2783 346.283 54.0961C351.289 46.9139 358.382 41.3185 367.561 37.3098C376.907 33.3011 387.921 31.2968 400.605 31.2968C413.289 31.2968 424.387 33.3011 433.9 37.3098C443.579 41.1514 451.173 46.8304 456.68 54.3466C462.354 61.6958 465.275 70.6318 465.442 81.1545L440.408 87.6686C440.408 81.9897 439.407 76.9789 437.404 72.6361C435.568 68.2934 432.898 64.7023 429.393 61.8629C425.889 59.0234 421.717 56.9355 416.877 55.5993C412.037 54.0961 406.53 53.3444 400.355 53.3444C393.179 53.3444 386.92 54.4301 381.58 56.6015C376.239 58.6058 372.067 61.4453 369.063 65.1199C366.226 68.6275 364.807 72.8032 364.807 77.647C364.807 83.66 366.893 88.4203 371.066 91.9278C375.405 95.2684 381.079 98.0244 388.088 100.196C395.098 102.2 402.608 104.121 410.618 105.958C417.795 107.461 424.887 109.299 431.897 111.47C439.073 113.474 445.582 116.23 451.423 119.738C457.431 123.246 462.187 127.839 465.692 133.518C469.364 139.197 471.199 146.462 471.199 155.315C471.199 165.002 468.612 173.437 463.439 180.62C458.432 187.802 450.922 193.397 440.909 197.406C430.896 201.247 418.295 203.168 403.108 203.168Z" fill="white"/>
<path d="M501.902 241V69.6296H525.434L524.683 103.954L528.688 104.204C530.524 96.3541 533.278 89.673 536.949 84.161C540.621 78.4821 545.294 74.1394 550.968 71.1329C556.809 67.9594 563.735 66.3726 571.746 66.3726C583.428 66.3726 593.274 69.2956 601.285 75.1416C609.463 80.9875 615.554 89.0884 619.559 99.4441C623.732 109.8 625.818 121.659 625.818 135.021C625.818 148.049 623.815 159.741 619.81 170.097C615.971 180.285 610.13 188.386 602.286 194.399C594.443 200.245 584.846 203.168 573.498 203.168C564.653 203.168 557.31 201.414 551.469 197.907C545.627 194.232 540.871 189.472 537.199 183.626C533.528 177.613 530.691 171.015 528.688 163.833H524.182C525.183 168.343 526.018 173.02 526.685 177.864C527.353 182.54 527.937 187.217 528.438 191.894C528.938 196.571 529.189 200.997 529.189 205.173V241H501.902ZM565.487 180.369C572.33 180.369 578.087 178.448 582.76 174.607C587.6 170.598 591.272 165.169 593.775 158.321C596.278 151.473 597.53 143.623 597.53 134.77C597.53 125.584 596.195 117.65 593.525 110.969C591.021 104.288 587.35 99.11 582.51 95.4354C577.67 91.5938 571.912 89.673 565.237 89.673C559.396 89.673 554.222 91.0092 549.716 93.6816C545.21 96.3541 541.372 99.8616 538.201 104.204C535.197 108.38 532.86 113.057 531.191 118.235C529.689 123.246 528.938 128.173 528.938 133.017V136.775C528.938 140.115 529.439 143.706 530.44 147.548C531.442 151.39 532.86 155.231 534.696 159.073C536.699 162.915 539.119 166.506 541.956 169.846C544.96 173.02 548.381 175.609 552.22 177.613C556.225 179.45 560.647 180.369 565.487 180.369Z" fill="white"/>
<path d="M714.221 203.168C703.874 203.168 694.695 201.665 686.684 198.659C678.673 195.485 671.914 191.059 666.407 185.38C660.9 179.534 656.728 172.602 653.89 164.585C651.053 156.401 649.635 147.214 649.635 137.025C649.635 126.837 651.053 117.483 653.89 108.965C656.728 100.279 660.733 92.763 665.906 86.4159C671.247 80.0689 677.756 75.1416 685.432 71.634C693.276 68.1264 702.121 66.3726 711.968 66.3726C721.147 66.3726 729.324 67.8758 736.501 70.8823C743.844 73.8888 750.019 78.4821 755.025 84.6621C760.032 90.6751 763.787 98.2749 766.29 107.461C768.794 116.481 769.712 127.087 769.044 139.28L667.158 140.032V122.995L753.023 122.243L743.51 132.766C744.511 122.744 743.677 114.477 741.007 107.962C738.336 101.448 734.498 96.6046 729.491 93.4311C724.485 90.2576 718.727 88.6708 712.218 88.6708C704.875 88.6708 698.45 90.5916 692.942 94.4332C687.602 98.1078 683.43 103.536 680.426 110.718C677.422 117.901 675.92 126.503 675.92 136.524C675.92 151.557 679.258 162.915 685.933 170.598C692.609 178.114 702.121 181.872 714.471 181.872C719.645 181.872 724.067 181.288 727.739 180.118C731.41 178.782 734.498 177.112 737.001 175.108C739.505 172.936 741.507 170.431 743.009 167.591C744.678 164.585 746.013 161.495 747.015 158.321L770.796 163.833C769.294 170.013 766.958 175.525 763.787 180.369C760.783 185.046 756.945 189.138 752.272 192.645C747.599 195.986 742.091 198.575 735.75 200.412C729.575 202.25 722.398 203.168 714.221 203.168Z" fill="white"/>
<path d="M830.437 203.168C823.26 203.168 816.835 201.832 811.161 199.16C805.487 196.32 800.981 192.144 797.643 186.633C794.472 181.121 792.886 174.272 792.886 166.088C792.886 159.574 794.055 153.979 796.391 149.302C798.894 144.458 802.566 140.449 807.406 137.276C812.413 133.935 818.754 131.263 826.431 129.259C834.108 127.087 843.204 125.25 853.718 123.747C859.559 122.911 864.315 122.076 867.987 121.241C871.825 120.406 874.579 119.07 876.248 117.233C878.083 115.395 879.001 112.639 879.001 108.965C879.001 103.286 876.999 98.4419 872.993 94.4332C869.155 90.2576 862.897 88.1697 854.218 88.1697C849.379 88.1697 844.539 89.0048 839.699 90.6751C835.026 92.3454 830.937 95.1014 827.433 98.943C824.095 102.618 821.842 107.628 820.673 113.975L796.141 106.209C797.643 99.8617 800.063 94.2662 803.4 89.4224C806.738 84.4116 810.91 80.2359 815.917 76.8953C820.924 73.3878 826.682 70.7988 833.19 69.1286C839.866 67.2912 847.125 66.3726 854.969 66.3726C866.485 66.3726 875.997 68.2934 883.507 72.1351C891.017 75.9767 896.608 81.9062 900.28 89.9235C904.118 97.7738 906.037 107.879 906.037 120.239V146.796C906.037 152.308 906.121 158.154 906.288 164.334C906.622 170.347 906.955 176.444 907.289 182.624C907.79 188.637 908.374 194.399 909.041 199.911H884.258C883.758 194.9 883.257 189.723 882.756 184.378C882.423 179.033 882.089 173.604 881.755 168.092H878C875.664 174.439 872.326 180.285 867.987 185.63C863.814 190.975 858.557 195.234 852.216 198.408C846.041 201.581 838.781 203.168 830.437 203.168ZM839.949 182.123C843.454 182.123 846.959 181.538 850.463 180.369C854.135 179.2 857.723 177.446 861.228 175.108C864.899 172.602 868.237 169.429 871.241 165.587C874.412 161.745 877.166 157.152 879.502 151.807L879.252 128.256L885.76 129.509C882.923 132.014 879.335 133.935 874.996 135.272C870.824 136.608 866.234 137.693 861.228 138.529C856.221 139.197 851.214 140.032 846.208 141.034C841.368 141.869 836.862 143.122 832.69 144.792C828.684 146.295 825.43 148.467 822.927 151.306C820.59 154.146 819.422 158.071 819.422 163.082C819.422 169.262 821.341 174.022 825.18 177.362C829.018 180.536 833.941 182.123 839.949 182.123Z" fill="white"/>
<path d="M942.432 199.911V23.0289H969.217V122.995C975.392 119.654 981.233 115.813 986.741 111.47C992.415 106.96 997.589 102.284 1002.26 97.4397C1007.1 92.5959 1011.27 87.8357 1014.78 83.1589C1018.45 78.3151 1021.29 73.8053 1023.29 69.6296H1054.83C1051.83 75.9767 1047.99 82.3237 1043.32 88.6708C1038.81 94.8508 1033.64 100.697 1027.8 106.209C1021.95 111.554 1015.53 116.23 1008.52 120.239C1001.68 124.081 994.501 126.753 986.991 128.256V131.513C996.337 130.511 1004.35 131.263 1011.02 133.768C1017.7 136.274 1023.46 140.032 1028.3 145.043C1033.14 150.053 1037.39 155.899 1041.06 162.581C1044.9 169.095 1048.49 175.776 1051.83 182.624L1058.84 199.911H1028.8L1023.79 188.136C1020.12 179.617 1016.2 172.101 1012.02 165.587C1008.02 158.906 1003.18 153.645 997.505 149.803C991.998 145.961 985.155 144.04 976.978 144.04H969.217V199.911H942.432Z" fill="white"/>
<path d="M1135.91 203.168C1123.4 203.168 1112.3 200.496 1102.62 195.151C1092.94 189.806 1085.35 182.039 1079.84 171.851C1074.5 161.662 1071.83 149.135 1071.83 134.269C1071.83 119.07 1074.67 106.459 1080.34 96.4376C1086.01 86.4159 1093.61 78.8997 1103.12 73.8888C1112.8 68.878 1123.65 66.3726 1135.66 66.3726C1148.01 66.3726 1159.03 68.9615 1168.71 74.1394C1178.39 79.3172 1185.98 87.0005 1191.49 97.1892C1197.16 107.378 1200 120.072 1200 135.272C1200 150.304 1197.16 162.915 1191.49 173.103C1185.98 183.125 1178.39 190.641 1168.71 195.652C1159.03 200.663 1148.1 203.168 1135.91 203.168ZM1136.92 181.622C1144.43 181.622 1150.85 179.868 1156.19 176.36C1161.53 172.853 1165.62 167.675 1168.46 160.827C1171.3 153.979 1172.71 145.794 1172.71 136.274C1172.71 126.419 1171.21 117.984 1168.21 110.969C1165.2 103.787 1160.86 98.2749 1155.19 94.4332C1149.68 90.5916 1142.92 88.6708 1134.91 88.6708C1127.74 88.6708 1121.4 90.4246 1115.89 93.9322C1110.55 97.2727 1106.46 102.367 1103.62 109.215C1100.78 115.896 1099.37 124.081 1099.37 133.768C1099.37 148.968 1102.7 160.743 1109.38 169.095C1116.05 177.446 1125.23 181.622 1136.92 181.622Z" fill="white"/>
</svg>
