<svg width="500" height="500" viewBox="0 0 500 500" fill="none" xmlns="http://www.w3.org/2000/svg">
<path fill-rule="evenodd" clip-rule="evenodd" d="M131.223 455.232V319.951C131.223 318.081 130.479 316.288 129.157 314.966C127.835 313.643 126.041 312.9 124.171 312.899H39.2581C37.388 312.9 35.5946 313.643 34.2722 314.966C32.9498 316.288 32.2066 318.081 32.2061 319.951V455.232C32.2076 457.102 32.9511 458.895 34.2732 460.217C35.5954 461.54 37.3883 462.283 39.2581 462.284H124.171C126.041 462.283 127.834 461.54 129.156 460.217C130.478 458.895 131.222 457.102 131.223 455.232ZM124.832 325.585C123.626 322.911 120.681 320.508 117.474 321.132C116.977 321.228 116.652 321.71 116.749 322.207C116.845 322.705 117.327 323.03 117.824 322.933C119.89 322.531 122.157 324.117 123.159 326.34C124.164 328.567 124.141 331.144 124.078 333.865L123.744 348.426C123.732 348.933 124.133 349.353 124.639 349.365C125.146 349.376 125.566 348.975 125.578 348.468L125.913 333.907C125.974 331.258 126.036 328.255 124.832 325.585Z" fill="black"/>
<path fill-rule="evenodd" clip-rule="evenodd" d="M262.267 434.694C267.702 380.309 267.669 325.516 262.169 271.138C234.789 272.259 207.404 272.715 180.011 272.507V272.679C179.632 281.708 179.277 290.979 178.916 300.409C177.156 346.431 175.251 396.232 169.65 439.98C171.198 440.445 172.794 440.891 174.421 441.301C183.755 443.66 194.213 444.94 203.455 443.087C204.723 442.839 205.976 442.522 207.21 442.139C207.811 435.341 208.405 428.337 209.011 421.188C212.697 377.736 216.838 328.924 225.651 288.356L225.877 288.405C220.642 339.627 218.049 391.084 218.11 442.572C219.967 443.147 221.845 443.667 223.735 444.119C232.149 446.159 240.809 447.009 249.46 446.646C250.377 446.603 251.311 446.541 252.249 446.425C255.032 446.077 257.742 445.251 259.558 443.19C261.557 440.921 261.967 437.703 262.267 434.694ZM256.991 284.487C256.959 283.981 256.523 283.597 256.018 283.629C255.512 283.661 255.127 284.096 255.159 284.602C257.792 326.608 258.419 368.675 257.042 410.804C257.025 411.311 257.422 411.735 257.929 411.752C258.435 411.768 258.859 411.371 258.875 410.865C260.255 368.677 259.627 326.551 256.991 284.487Z" fill="black"/>
<path fill-rule="evenodd" clip-rule="evenodd" d="M242.743 185.394C245.922 192.3 248.786 199.332 251.336 206.487L251.245 206.517C248.133 213.265 245.018 220.016 241.899 226.768C241.51 227.807 240.898 228.749 240.107 229.528C239.262 230.249 237.96 230.551 237.042 229.926C235.88 229.136 235.929 227.43 236.161 226.042C236.993 221.522 238.451 217.141 240.493 213.023C238.578 216.676 236.658 220.248 234.425 223.753C233.924 224.676 233.222 225.474 232.37 226.089C231.477 226.633 230.204 226.707 229.459 225.973C228.474 225.011 228.896 223.373 229.397 222.095C231.314 217.262 233.505 212.543 235.96 207.96C231.66 215.502 226.718 223.569 223.268 221.41C219.727 219.196 230.174 202.303 236.95 194.847C235.432 194.912 233.588 195.472 231.746 196.032C228.063 197.15 224.382 198.268 223.293 195.434C222.098 192.333 234.598 185.276 241.941 185.758L242.743 185.394ZM145.047 208.732C154.649 206.201 164.123 202.677 172.766 197.827L172.817 197.91L172.744 199.444C171.522 224.939 170.471 246.867 167.526 272.364C171.689 272.427 175.85 272.474 180.01 272.505C207.413 272.71 234.8 272.254 262.17 271.135C265.398 271.002 268.623 270.859 271.846 270.707C272.985 254.797 272.971 238.827 271.803 222.92L271.626 222.008C282.225 219.955 292.602 216.889 302.615 212.852C317.338 206.852 330.946 198.534 342.286 187.402C345.028 184.827 347.446 181.927 349.485 178.766C350.374 177.352 351.113 175.849 351.693 174.283C355.259 164.619 351.497 153.248 344.109 146.068C336.72 138.889 326.316 135.475 316.047 134.662C305.777 133.849 295.484 135.406 285.3 136.968C270 139.303 254.701 141.641 239.403 143.983C238.657 145.048 237.495 145.488 235.978 145.5C234.007 145.515 232.019 145.374 230.033 145.234C228.649 145.136 227.266 145.038 225.892 144.993C218.911 144.771 211.935 144.84 204.962 145.201L204.745 145.212C202.594 145.322 200.397 145.434 198.326 144.836C197.505 144.661 196.772 144.199 196.259 143.534C196.207 143.452 196.16 143.366 196.118 143.278L195.775 143.296C185.748 144.867 177.249 150.755 168.788 156.616C166.148 158.445 163.511 160.271 160.833 161.963C133.658 179.137 98.4706 182.985 68.2258 172.079C68.0368 172.585 67.8451 173.088 67.6529 173.593C67.5852 173.771 67.517 173.949 67.4488 174.128C64.1154 182.968 60.7764 191.81 57.4305 200.655C55.8222 204.914 54.2133 209.175 52.6047 213.438L52.25 214.011C58.3191 217.503 65.4305 218.824 72.4336 218.941C78.8144 219.046 85.1649 218.203 91.4894 217.362C92.106 217.281 92.7232 217.199 93.3394 217.118C96.5889 216.689 99.843 216.283 103.098 215.877C117.202 214.117 131.316 212.355 145.047 208.732ZM345.242 159.946C345.153 159.447 344.677 159.115 344.178 159.204C343.679 159.293 343.347 159.769 343.436 160.268C344.886 168.408 341.303 176.912 335.671 183.224C330.034 189.542 322.587 193.974 315.046 198.199C314.604 198.447 314.447 199.006 314.694 199.448C314.942 199.891 315.501 200.048 315.943 199.801C323.474 195.581 331.174 191.019 337.04 184.446C342.911 177.867 346.823 168.815 345.242 159.946Z" fill="black" fill-opacity="0.15"/>
<path d="M327.234 36.3022L445.095 64.3637C445.095 64.3637 429.119 127.827 428.689 129.124L371.454 115.746L364.458 114.107L316.004 102.786L277.581 69.9778L327.234 36.3022Z" fill="black" fill-opacity="0.15"/>
<path d="M427.394 329.016L364.096 356.985L356.506 360.337L334.573 370.031L293.557 350.173C293.557 350.173 327.661 306.135 328.524 304.844C328.842 304.367 342.108 298.496 358.781 291.242C361.185 290.196 363.656 289.126 366.17 288.037C393.803 276.061 426.534 262.099 426.534 262.099L427.394 329.016Z" fill="black"/>
<path d="M269.807 459.44C271.121 460.269 272.15 461.479 272.755 462.908L271.974 463.177C268.078 467.202 261.68 467.098 256.12 466.431C244.789 465.071 233.629 462.544 222.817 458.89L222.126 459.055C221.769 457.595 221.615 456.092 221.667 454.59C221.759 451.226 222.676 447.942 223.594 444.7L223.735 444.119C232.15 446.158 240.809 447.009 249.46 446.645C250.378 446.602 251.314 446.541 252.249 446.425L252.322 446.994C255.365 451.262 259.484 454.648 264.262 456.804C266.131 457.648 268.101 458.303 269.807 459.44Z" fill="black" fill-opacity="0.15"/>
<path d="M240.224 81.3541C237.728 82.2379 235.153 82.8807 232.536 83.2749C225.296 84.4004 217.868 84.1603 210.663 85.5254C209.544 85.7338 208.339 86.0395 207.605 86.9077C206.89 87.752 206.772 88.9322 206.688 90.0275C205.954 99.5379 205.226 108.743 204.504 118.022L204.413 118.016C202.358 119.312 201.752 122.523 199.391 123.098C197.189 123.63 195.207 121.135 195.342 118.866C195.476 116.596 196.975 114.676 198.415 112.915C196.781 114.862 194.769 116.457 192.5 117.602C191.203 118.263 189.301 118.605 188.555 117.351C187.748 116 189.185 114.477 190.304 113.37C193.919 109.785 195.283 104.495 195.656 99.4187C196.029 94.3421 195.552 89.2166 196.206 84.1645C196.571 81.3265 197.363 78.4088 199.296 76.2999C201.601 73.7796 205.161 72.8135 208.566 72.5322C211.972 72.251 215.423 72.5322 218.793 71.951C220.371 71.676 222.016 71.1562 223.038 69.9197C224.567 68.0848 224.218 65.3937 224.732 63.0635C225.213 60.8926 226.473 58.9734 228.274 57.6687C229.142 57.0437 230.365 56.5801 231.252 57.1921C231.949 57.6609 232.138 58.5864 232.225 59.4182C232.489 61.952 232.351 64.5119 231.815 67.0025C231.741 67.2629 231.68 67.5286 231.625 67.7973C231.692 67.5369 231.753 67.2656 231.815 67.0025C232.7 63.5406 234.512 60.3859 237.056 57.877C237.925 57.0265 239.05 56.2072 240.237 56.4458C242.029 56.8004 242.506 59.1307 242.402 60.9473C242.159 64.9817 240.964 68.901 238.916 72.3848L238.989 72.4275C241.301 70.4374 243.777 68.6452 246.39 67.0697C247.943 66.1281 249.888 65.2593 251.491 66.0973C252.721 66.7458 253.308 68.2562 253.185 69.639C252.991 71.0187 252.425 72.3192 251.546 73.4004C248.774 77.2067 244.699 79.7327 240.224 81.3541Z" fill="black"/>
<path d="M239.404 143.985C238.658 145.05 237.495 145.49 235.979 145.502C232.633 145.527 229.239 145.104 225.893 144.994C218.914 144.768 211.937 144.837 204.963 145.203C202.743 145.313 200.467 145.454 198.327 144.838C197.505 144.663 196.772 144.201 196.259 143.536C196.207 143.453 196.16 143.367 196.119 143.279C195.87 142.624 195.763 141.923 195.806 141.224C195.794 139.573 195.849 137.744 196.986 136.551C198.1 135.383 199.88 135.224 201.488 135.193C202.051 135.181 202.614 135.181 203.177 135.181C209.825 135.23 216.467 136.16 223.103 135.793C224.008 135.744 224.914 135.67 225.819 135.584C228.553 135.324 231.281 134.93 234.021 134.704C235.375 134.593 236.81 134.539 238.009 135.172C240.645 136.567 240.821 140.225 240.009 142.739C239.876 143.184 239.671 143.605 239.404 143.985Z" fill="black" fill-opacity="0.15"/>
<path d="M203.452 443.085L203.562 443.618C202.186 447.08 202.907 450.957 203.301 454.663C203.503 456.334 203.522 458.022 203.356 459.697L202.995 459.661C186.071 466.59 167.782 469.542 149.537 468.291C148.236 466.844 147.53 464.958 147.561 463.012C147.72 459.783 150.301 457.135 153.163 455.636C156.026 454.137 159.257 453.483 162.246 452.25C167.25 450.174 171.461 446.555 174.265 441.92L174.417 441.302C183.751 443.66 194.21 444.938 203.452 443.085Z" fill="black" fill-opacity="0.15"/>
<path d="M114.93 462.719C119.468 462.64 120.582 469.068 117.671 471.734C117.004 472.321 116.218 472.756 115.366 473.007C114.515 473.258 113.619 473.321 112.741 473.19C111.556 473.047 110.463 472.48 109.664 471.594C106.661 468.034 110.979 462.786 114.93 462.719Z" fill="black" fill-opacity="0.15"/>
<path d="M102.845 292.869C105.071 294.979 102.918 296.997 100.802 297.284C99.591 297.44 98.3717 297.524 97.1504 297.535C94.5571 297.584 91.8899 297.419 89.3827 297.474C81.3337 297.639 73.2847 297.806 65.2353 297.975C65.1191 297.975 65.0092 297.982 64.8926 297.982C63.7806 298.064 62.6634 297.92 61.6082 297.56C60.4769 297.095 59.4983 296.012 59.553 294.789C59.6248 294.225 59.8519 293.693 60.2082 293.25C60.5644 292.807 61.0363 292.472 61.5717 292.281C62.6452 291.915 63.779 291.757 64.9113 291.817C74.1821 291.694 83.453 291.574 92.7238 291.456C94.7665 291.431 96.8092 291.407 98.8462 291.547C100.276 291.651 101.805 291.877 102.845 292.869Z" fill="black" fill-opacity="0.15"/>
<path d="M47.6501 462.719C52.1881 462.64 53.3016 469.068 50.3902 471.734C49.724 472.321 48.9377 472.756 48.0862 473.007C47.2348 473.258 46.3386 473.321 45.4605 473.19C44.2759 473.047 43.183 472.48 42.3839 471.594C39.3808 468.034 43.699 462.786 47.6501 462.719Z" fill="black" fill-opacity="0.15"/>
<path d="M234.51 86.0327L222.73 87.6473C223.721 94.6202 224.71 101.597 225.699 108.578C223.999 108.401 222.282 108.473 220.604 108.792" stroke="black" stroke-linecap="round" stroke-linejoin="round"/>
<path d="M217.194 93.1157C216.912 92.7818 216.554 92.5204 216.15 92.3516C215.747 92.1834 215.309 92.1136 214.873 92.1475C214.437 92.1813 214.015 92.3188 213.643 92.5475C213.27 92.7766 212.957 93.0907 212.729 93.4641C212.827 93.299 212.931 93.1339 213.035 92.9626" stroke="black" stroke-linecap="round" stroke-linejoin="round"/>
<path d="M232.223 94.706C232.018 94.3607 231.734 94.0685 231.394 93.8549C231.054 93.6414 230.668 93.5117 230.268 93.4768C229.868 93.4419 229.465 93.5034 229.093 93.6554C228.722 93.8075 228.392 94.0461 228.131 94.3513" stroke="black" stroke-linecap="round" stroke-linejoin="round"/>
<path d="M217.03 117.997C216.37 118.043 215.707 117.952 215.084 117.727C214.462 117.503 213.893 117.152 213.414 116.695C212.934 116.239 212.556 115.688 212.302 115.077C212.047 114.465 211.924 113.808 211.938 113.146" stroke="black" stroke-linecap="round" stroke-linejoin="round"/>
<path d="M225.728 134.505C226.196 132.126 225.752 129.661 225.765 127.232C225.777 124.804 226.419 122.126 228.413 120.731C230.162 119.514 232.541 119.569 234.364 118.468C236.823 116.988 237.655 113.862 238.144 111.037C239.844 101.251 240.04 91.2809 240.223 81.3538V81.2012" stroke="black" stroke-linecap="round" stroke-linejoin="round"/>
<path d="M203.177 135.025C203.623 129.269 204.062 123.63 204.504 118.021C205.226 108.743 205.953 99.5376 206.687 90.0272C206.773 88.9334 206.889 87.7517 207.605 86.9074C208.339 86.0392 209.543 85.7334 210.663 85.5251C217.868 84.1615 225.293 84.4001 232.538 83.2746C235.155 82.8803 237.73 82.2376 240.226 81.3537C244.705 79.7329 248.776 77.2069 251.547 73.3964C252.426 72.3152 252.992 71.0147 253.186 69.635C253.309 68.2527 252.722 66.7423 251.492 66.0933C249.889 65.2553 247.944 66.124 246.391 67.0657C243.778 68.6412 241.302 70.4334 238.99 72.4235" stroke="black" stroke-linecap="round" stroke-linejoin="round"/>
<path d="M231.814 66.9988C232.35 64.5082 232.488 61.9483 232.224 59.4144C232.138 58.5811 231.948 57.6592 231.251 57.1884C230.366 56.5764 229.141 57.0415 228.273 57.6649C226.472 58.9696 225.212 60.8889 224.731 63.0597C224.217 65.3899 224.566 68.0811 223.037 69.916C222.015 71.1519 220.37 71.6717 218.792 71.9472C215.422 72.5285 211.973 72.2472 208.565 72.5285C205.158 72.8097 201.599 73.7785 199.295 76.2962C197.362 78.4061 196.573 81.3238 196.205 84.1608C195.551 89.2128 196.022 94.3384 195.655 99.4149C195.288 104.491 193.918 109.78 190.303 113.366C189.184 114.473 187.747 115.996 188.554 117.348C189.3 118.601 191.202 118.259 192.499 117.598C194.768 116.453 196.78 114.858 198.414 112.911C196.976 114.672 195.478 116.593 195.341 118.862C195.204 121.131 197.188 123.626 199.39 123.095C201.751 122.522 202.359 119.309 204.412 118.012" stroke="black" stroke-linecap="round" stroke-linejoin="round"/>
<path d="M231.813 66.999C231.739 67.2594 231.678 67.5251 231.623 67.7938C231.69 67.5308 231.751 67.262 231.813 66.999Z" stroke="black" stroke-linecap="round" stroke-linejoin="round"/>
<path d="M238.785 72.6042L238.914 72.3838C240.963 68.9 242.157 64.9807 242.4 60.9463C242.504 59.1297 242.027 56.7995 240.235 56.4448C239.048 56.2062 237.923 57.0255 237.054 57.876C234.51 60.3849 232.698 63.5401 231.812 67.0016" stroke="black" stroke-linecap="round" stroke-linejoin="round"/>
<path d="M239.403 143.985C239.671 143.604 239.876 143.182 240.009 142.735C240.822 140.221 240.645 136.564 238.009 135.169C236.811 134.533 235.373 134.588 234.021 134.7C231.281 134.926 228.552 135.318 225.819 135.581C224.914 135.666 224.008 135.74 223.103 135.789C216.467 136.156 209.825 135.227 203.177 135.178C202.614 135.178 202.051 135.178 201.488 135.19C199.88 135.221 198.103 135.379 196.986 136.548C195.849 137.74 195.794 139.568 195.806 141.221C195.763 141.92 195.87 142.621 196.119 143.276C196.16 143.364 196.207 143.45 196.259 143.532C196.772 144.198 197.505 144.659 198.327 144.835C200.467 145.452 202.743 145.312 204.963 145.199C211.935 144.838 218.911 144.769 225.893 144.991C229.239 145.101 232.633 145.523 235.979 145.499C237.495 145.49 238.656 145.052 239.403 143.985Z" stroke="black" stroke-linecap="round" stroke-linejoin="round"/>
<path d="M195.776 143.294C182.619 145.355 172.093 154.848 160.833 161.961C133.659 179.136 98.471 182.983 68.2288 172.077C67.9715 172.763 67.7148 173.441 67.4517 174.126C64.1184 182.971 60.7788 191.813 57.4335 200.653C55.8309 204.916 54.2226 209.177 52.6074 213.436" stroke="black" stroke-linecap="round" stroke-linejoin="round"/>
<path d="M52.25 214.01C58.317 217.5 65.4368 218.824 72.4336 218.94C79.4305 219.056 86.4034 218.028 93.3394 217.117C110.667 214.83 128.147 213.19 145.047 208.732C154.649 206.2 164.123 202.676 172.766 197.826C179.353 194.188 185.396 189.643 190.717 184.323" stroke="black" stroke-linecap="round" stroke-linejoin="round"/>
<path d="M66.5681 173.796C66.2723 173.597 66.0228 173.337 65.8368 173.033C65.6514 172.729 65.5332 172.389 65.4915 172.034C65.4082 171.329 65.441 170.614 65.5895 169.918C66.452 164.664 68.2983 159.582 68.7092 154.279C68.8275 153.345 68.7629 152.398 68.5191 151.49C68.4181 151.027 68.1947 150.6 67.8723 150.253C67.5499 149.906 67.141 149.652 66.6868 149.517C66.2332 149.381 65.7514 149.369 65.2921 149.483C64.8322 149.597 64.4113 149.831 64.0728 150.163C63.3743 150.776 62.79 151.509 62.3478 152.328C58.0603 159.38 55.4921 167.368 53.9629 175.472" stroke="black" stroke-linecap="round" stroke-linejoin="round"/>
<path d="M52.9415 175.539C49.3941 173.594 42.8618 172.708 41.2087 172.542C39.3131 172.292 37.3916 172.315 35.5025 172.609C33.5976 172.907 31.8392 173.81 30.4868 175.184C29.9933 175.669 29.6476 176.284 29.49 176.958C29.4155 177.294 29.4324 177.644 29.539 177.971C29.6455 178.298 29.8377 178.59 30.0957 178.818C30.5912 179.131 31.1668 179.294 31.753 179.286C31.8447 179.293 31.9306 179.298 32.0223 179.311C38.2671 179.837 44.5137 180.365 50.7624 180.895C51.1051 180.925 51.4394 180.95 51.7837 180.956C52.1643 180.977 52.5461 180.954 52.9217 180.889C53.2801 180.839 53.6249 180.719 53.9364 180.535C54.2484 180.351 54.5208 180.107 54.7379 179.818C55.9567 178.028 54.9109 176.622 52.9415 175.539Z" stroke="black" stroke-linecap="round" stroke-linejoin="round"/>
<path d="M32.0046 179.558C31.0349 179.762 30.1194 180.17 29.3184 180.753C28.5173 181.336 27.8488 182.083 27.3566 182.943C26.8515 183.727 26.6777 184.679 26.8733 185.591C27.0139 186 27.2383 186.375 27.5321 186.692C27.8259 187.009 28.1826 187.261 28.5796 187.433C29.3152 187.75 30.0947 187.954 30.8915 188.038C30.953 188.05 31.0139 188.063 31.0749 188.069C35.828 188.748 40.6309 189.016 45.4301 188.87C47.3077 188.827 49.1801 188.717 51.0447 188.552C52.0217 188.52 52.9851 188.313 53.889 187.94C54.3551 187.777 54.7655 187.484 55.0713 187.096C55.3775 186.709 55.5671 186.241 55.6176 185.75C55.6687 185.259 55.578 184.763 55.3577 184.321C55.1369 183.878 54.7952 183.508 54.3723 183.253C53.5728 182.705 52.6884 182.294 51.7546 182.036" stroke="black" stroke-linecap="round" stroke-linejoin="round"/>
<path d="M30.7817 188.763C29.6729 188.959 28.6187 189.389 27.6894 190.025C26.7602 190.661 25.9774 191.488 25.3931 192.451C24.8853 193.301 24.5369 194.359 24.9161 195.277C25.3504 196.341 26.5551 196.83 27.6562 197.161C33.7469 199.035 40.2138 199.334 46.4515 198.029C47.4433 197.841 48.4064 197.525 49.316 197.087C49.6114 196.935 49.8938 196.76 50.1603 196.561C50.7147 196.182 51.163 195.669 51.4628 195.068C51.7625 194.467 51.9037 193.8 51.8728 193.13C51.7259 191.784 50.6556 190.682 49.4202 190.133C48.1544 189.65 46.8046 189.425 45.4504 189.472" stroke="black" stroke-linecap="round" stroke-linejoin="round"/>
<path d="M56.7024 200.378C54.2701 199.279 51.7387 198.414 49.1423 197.796C49.0568 197.778 48.9652 197.754 48.8818 197.735" stroke="black" stroke-linecap="round" stroke-linejoin="round"/>
<path d="M239.354 143.991C239.373 143.991 239.385 143.985 239.403 143.985C254.701 141.643 270 139.305 285.3 136.97C295.484 135.407 305.778 133.85 316.047 134.663C326.316 135.476 336.721 138.89 344.109 146.07C351.498 153.249 355.259 164.62 351.693 174.284C351.113 175.851 350.374 177.354 349.485 178.768C347.446 181.929 345.028 184.829 342.286 187.404C330.947 198.535 317.338 206.854 302.616 212.854C292.603 216.891 282.225 219.957 271.626 222.01C266.887 222.947 262.115 223.704 257.345 224.297" stroke="black" stroke-linecap="round" stroke-linejoin="round"/>
<path d="M257.141 224.891C255.435 218.689 253.5 212.554 251.337 206.487C248.786 199.332 245.921 192.3 242.743 185.394C242.204 184.213 241.654 183.037 241.092 181.864C261.616 177.709 281.2 169.811 298.865 158.566" stroke="black" stroke-linecap="round" stroke-linejoin="round"/>
<path d="M240.492 213.026C238.451 217.142 236.993 221.523 236.161 226.042C235.929 227.43 235.88 229.136 237.042 229.925C237.96 230.55 239.263 230.249 240.107 229.528C240.898 228.749 241.51 227.807 241.899 226.768C245.018 220.016 248.133 213.265 251.245 206.517" stroke="black" stroke-linecap="round" stroke-linejoin="round"/>
<path d="M240.491 213.026C242.045 210.066 243.592 207.069 245.31 204.016C243.598 206.989 241.937 209.974 240.491 213.026Z" stroke="black" stroke-linecap="round" stroke-linejoin="round"/>
<path d="M235.96 207.962C233.505 212.545 231.314 217.263 229.398 222.096C228.896 223.375 228.474 225.013 229.459 225.974C230.205 226.708 231.478 226.635 232.371 226.091C233.222 225.475 233.924 224.677 234.425 223.754C236.658 220.249 238.579 216.678 240.493 213.025" stroke="black" stroke-linecap="round" stroke-linejoin="round"/>
<path d="M239.972 200.99C238.59 203.235 237.277 205.516 236.033 207.834" stroke="black" stroke-linecap="round" stroke-linejoin="round"/>
<path d="M236.033 207.833C237.439 205.363 238.78 202.953 239.972 200.989L240.412 200.273" stroke="black" stroke-linecap="round" stroke-linejoin="round"/>
<path d="M236.033 207.833L235.96 207.962" stroke="black" stroke-linecap="round" stroke-linejoin="round"/>
<path d="M241.941 185.759C234.598 185.277 222.098 192.334 223.292 195.435C224.926 199.687 232.394 195.044 236.95 194.848C230.174 202.304 219.727 219.197 223.268 221.411C226.718 223.57 231.66 215.503 235.96 207.962" stroke="black" stroke-linecap="round" stroke-linejoin="round"/>
<path d="M172.815 197.913C171.561 224.066 170.528 246.36 167.524 272.367C171.683 272.428 175.844 272.475 180.008 272.507C207.404 272.716 234.79 272.259 262.168 271.138C265.392 271.003 268.617 270.86 271.844 270.709C272.983 254.8 272.968 238.83 271.802 222.922" stroke="black" stroke-linecap="round" stroke-linejoin="round"/>
<path d="M262.113 270.599C262.132 270.777 262.15 270.96 262.168 271.138C267.669 325.516 267.702 380.309 262.266 434.694C261.967 437.703 261.557 440.92 259.558 443.19C257.741 445.251 255.032 446.077 252.249 446.425C251.311 446.541 250.377 446.603 249.459 446.645C240.808 447.009 232.149 446.158 223.734 444.119C221.844 443.667 219.967 443.147 218.109 442.572C218.049 391.084 220.641 339.627 225.877 288.405" stroke="black" stroke-linecap="round" stroke-linejoin="round"/>
<path d="M180.01 272.679C177.784 325.768 176.401 387.268 169.649 439.979C171.197 440.443 172.793 440.89 174.42 441.3C183.754 443.66 194.211 444.939 203.454 443.085C204.722 442.837 205.975 442.52 207.209 442.138C211.46 394.02 215.386 335.597 225.65 288.355C225.675 288.251 225.693 288.146 225.718 288.042" stroke="black" stroke-linecap="round" stroke-linejoin="round"/>
<path d="M223.593 444.7C222.675 447.942 221.758 451.227 221.665 454.59C221.612 456.092 221.767 457.595 222.124 459.055C222.538 460.883 223.383 462.586 224.589 464.022C227.421 467.3 231.947 468.432 236.18 469.392C245.654 471.539 255.488 473.698 264.994 471.697C268.889 470.884 273.348 468.352 273.085 464.382C273.052 463.877 272.94 463.38 272.755 462.908C272.149 461.479 271.12 460.269 269.807 459.441C268.1 458.303 266.131 457.648 264.259 456.804C259.482 454.648 255.362 451.262 252.32 446.994" stroke="black" stroke-linecap="round" stroke-linejoin="round"/>
<path d="M203.561 443.618C202.185 447.08 202.907 450.957 203.301 454.664C203.503 456.334 203.522 458.022 203.356 459.697C203.207 461.748 202.39 463.695 201.032 465.239C199.222 467.159 196.543 467.947 194.001 468.658C182.19 471.942 169.793 475.251 157.835 472.564C155.352 472.007 152.869 471.164 150.881 469.579C150.395 469.192 149.946 468.76 149.541 468.289C148.24 466.842 147.534 464.956 147.565 463.01C147.725 459.781 150.306 457.133 153.168 455.634C156.031 454.135 159.262 453.481 162.251 452.248C167.255 450.172 171.465 446.553 174.27 441.918" stroke="black" stroke-linecap="round" stroke-linejoin="round"/>
<path d="M222.816 458.89C233.628 462.544 244.789 465.071 256.12 466.431C261.68 467.098 268.077 467.202 271.974 463.178" stroke="black" stroke-linecap="round" stroke-linejoin="round"/>
<path d="M149.378 468.281C149.433 468.288 149.482 468.288 149.537 468.293C167.782 469.544 186.07 466.592 202.994 459.664" stroke="black" stroke-linecap="round" stroke-linejoin="round"/>
<path d="M371.454 115.746L428.691 129.123C429.119 127.826 445.097 64.3627 445.097 64.3627L327.234 36.3022L277.581 69.9788L316.004 102.787L364.458 114.108L371.454 115.746Z" stroke="black" stroke-linecap="round" stroke-linejoin="round"/>
<path d="M302.621 212.879L301.759 251.736L360.341 252.409L367.032 252.488L452.434 253.467L483.09 217.632L441.639 177.478L369.057 178.499L362.604 178.585L349.484 178.769L349.252 178.774" stroke="black" stroke-linecap="round" stroke-linejoin="round"/>
<path d="M364.097 356.986L427.395 329.017L426.532 262.099C426.532 262.099 393.804 276.062 366.168 288.036C363.654 289.125 361.183 290.195 358.779 291.241C342.106 298.496 328.84 304.366 328.522 304.844C327.659 306.135 293.555 350.172 293.555 350.172L334.571 370.032L356.504 360.337L364.097 356.986Z" stroke="black" stroke-linecap="round" stroke-linejoin="round"/>
<path d="M362.599 178.194C363.063 156.536 363.675 135.74 364.409 114.309" stroke="black" stroke-linecap="round" stroke-linejoin="round"/>
<path d="M358.776 291.431C358.776 291.37 358.783 291.303 358.783 291.242C359.199 278.409 359.688 265.584 360.336 252.764" stroke="black" stroke-linecap="round" stroke-linejoin="round"/>
<path d="M353.785 471.061C355.112 434.217 355.112 397.52 356.77 360.931" stroke="black" stroke-linecap="round" stroke-linejoin="round"/>
<path d="M353.785 471.061C354.011 471.019 354.243 470.976 354.47 470.939C354.247 471.004 354.017 471.045 353.785 471.061Z" stroke="black" stroke-linecap="round" stroke-linejoin="round"/>
<path d="M364.495 357.879C364.286 395.684 362.452 432.994 360.617 470.915C358.169 472.138 356.336 470.303 353.785 471.061" stroke="black" stroke-linecap="round" stroke-linejoin="round"/>
<path d="M367.033 252.415V252.488C366.917 264.336 366.556 276.19 366.171 288.036C366.165 288.077 366.163 288.118 366.164 288.159" stroke="black" stroke-linecap="round" stroke-linejoin="round"/>
<path d="M371.357 116.162C369.791 136.964 369.791 157.148 369.051 177.9" stroke="black" stroke-linecap="round" stroke-linejoin="round"/>
<path d="M317.515 471.636L402.14 472.175" stroke="black" stroke-linecap="round" stroke-linejoin="round"/>
<path d="M100.459 312.899H124.172C126.042 312.9 127.836 313.643 129.158 314.966C130.48 316.288 131.224 318.081 131.224 319.951V455.232C131.223 457.102 130.479 458.895 129.157 460.217C127.835 461.54 126.042 462.283 124.172 462.284H39.2591C37.3893 462.283 35.5964 461.54 34.2742 460.217C32.952 458.895 32.2085 457.102 32.207 455.232V319.951C32.2076 318.081 32.9507 316.288 34.2731 314.966C35.5956 313.643 37.389 312.9 39.2591 312.899H100.457H100.459Z" stroke="black" stroke-linecap="round" stroke-linejoin="round"/>
<path d="M100.459 312.478C100.795 308.734 101.134 304.991 101.474 301.248" stroke="black" stroke-linecap="round" stroke-linejoin="round"/>
<path d="M91.3887 312.484C91.8053 308.881 92.222 305.281 92.6387 301.682" stroke="black" stroke-linecap="round" stroke-linejoin="round"/>
<path d="M101.425 300.893C99.9659 300.733 98.4945 300.723 97.0336 300.863C95.5982 300.991 94.1799 301.266 92.8008 301.682" stroke="black" stroke-linecap="round" stroke-linejoin="round"/>
<path d="M59.9628 312.728C59.6581 309.109 59.8393 305.466 60.5013 301.895" stroke="black" stroke-linecap="round" stroke-linejoin="round"/>
<path d="M67.6387 312.465C67.822 308.936 68.0038 305.411 68.1829 301.892" stroke="black" stroke-linecap="round" stroke-linejoin="round"/>
<path d="M60.7764 301.817C62.0425 301.422 63.3649 301.238 64.691 301.272C65.7243 301.294 66.7514 301.442 67.7493 301.713" stroke="black" stroke-linecap="round" stroke-linejoin="round"/>
<path d="M97.1504 297.535C94.5571 297.584 91.8899 297.419 89.3827 297.474C81.3337 297.639 73.2847 297.806 65.2353 297.975C65.1191 297.975 65.0092 297.982 64.8926 297.982C63.7806 298.064 62.6634 297.92 61.6082 297.56C60.4769 297.095 59.4983 296.012 59.553 294.789C59.6248 294.225 59.8519 293.693 60.2082 293.25C60.5644 292.807 61.0363 292.472 61.5717 292.281C62.6452 291.915 63.779 291.757 64.9113 291.817C74.1821 291.694 83.453 291.574 92.7238 291.456C94.7665 291.431 96.8092 291.407 98.8462 291.547C100.277 291.651 101.806 291.877 102.846 292.869C105.072 294.979 102.92 296.997 100.803 297.284C99.592 297.441 98.3722 297.524 97.1504 297.535Z" stroke="black" stroke-linecap="round" stroke-linejoin="round"/>
<path d="M64.6982 300.808L64.8998 298.22" stroke="black" stroke-linecap="round" stroke-linejoin="round"/>
<path d="M96.9482 299.951L97.1503 297.578" stroke="black" stroke-linecap="round" stroke-linejoin="round"/>
<path d="M109.664 471.594C110.463 472.48 111.556 473.047 112.741 473.19C113.619 473.321 114.515 473.258 115.366 473.007C116.218 472.756 117.004 472.321 117.671 471.734C120.582 469.068 119.468 462.64 114.93 462.719C110.979 462.786 106.661 468.034 109.664 471.594Z" stroke="black" stroke-linecap="round" stroke-linejoin="round"/>
<path d="M42.3839 471.594C43.183 472.48 44.2759 473.047 45.4605 473.19C46.3386 473.321 47.2348 473.258 48.0862 473.007C48.9377 472.756 49.724 472.321 50.3902 471.734C53.3016 469.068 52.1881 462.64 47.6501 462.719C43.699 462.786 39.3808 468.034 42.3839 471.594Z" stroke="black" stroke-linecap="round" stroke-linejoin="round"/>
<path d="M158.935 129.699L147.122 116.235" stroke="black" stroke-linecap="round" stroke-linejoin="round"/>
<path d="M145.701 130.231L158.878 116.195" stroke="black" stroke-linecap="round" stroke-linejoin="round"/>
<path d="M149.786 77.3139L143.31 70.1904" stroke="black" stroke-opacity="0.15" stroke-linecap="round" stroke-linejoin="round"/>
<path d="M142.662 77.3139L147.843 70.1904" stroke="black" stroke-opacity="0.15" stroke-linecap="round" stroke-linejoin="round"/>
<path d="M204.808 51.4324L197.045 43.0063" stroke="black" stroke-linecap="round" stroke-linejoin="round"/>
<path d="M195.869 50.8639L203.612 43.0645" stroke="black" stroke-linecap="round" stroke-linejoin="round"/>
<path d="M278.66 115.521L273.479 110.99" stroke="black" stroke-linecap="round" stroke-linejoin="round"/>
<path d="M272.185 117.466L278.013 109.695" stroke="black" stroke-linecap="round" stroke-linejoin="round"/>
<path d="M39.7882 292.285C38.6071 289.188 36.5382 286.509 33.8408 284.583" stroke="black" stroke-linecap="round" stroke-linejoin="round"/>
<path d="M32.7158 291.808L39.8413 284.039" stroke="black" stroke-linecap="round" stroke-linejoin="round"/>
<path d="M332.412 57.8857L417.249 77.3139" stroke="black" stroke-linecap="round" stroke-linejoin="round"/>
<path d="M336.946 213.96H434.088" stroke="black" stroke-linecap="round" stroke-linejoin="round"/>
<path d="M338.889 229.287H388.97" stroke="black" stroke-linecap="round" stroke-linejoin="round"/>
<path d="M360.907 84.438L410.126 94.7994" stroke="black" stroke-linecap="round" stroke-linejoin="round"/>
<path d="M395.23 296.854L343.421 319.52" stroke="black" stroke-opacity="0.15" stroke-linecap="round" stroke-linejoin="round"/>
<path d="M406.24 311.749L332.412 346.072" stroke="black" stroke-opacity="0.15" stroke-linecap="round" stroke-linejoin="round"/>
<path d="M265.283 39.0267L270.722 41.1527C270.768 41.1706 270.808 41.2021 270.835 41.2431C270.862 41.2841 270.877 41.3326 270.876 41.3819C270.875 41.4312 270.859 41.4792 270.83 41.5191C270.801 41.5591 270.76 41.5891 270.714 41.6053L265.199 43.5261C265.153 43.542 265.114 43.5708 265.086 43.6089C265.057 43.6469 265.04 43.6926 265.037 43.7402L264.698 49.5699C264.695 49.6191 264.677 49.6662 264.647 49.705C264.616 49.7437 264.575 49.7722 264.527 49.7866C264.481 49.8009 264.43 49.8005 264.383 49.7853C264.336 49.7701 264.295 49.7409 264.265 49.7017L260.734 45.0506C260.705 45.0126 260.666 44.984 260.621 44.9684C260.576 44.9528 260.527 44.951 260.481 44.9631L254.831 46.4402C254.783 46.4532 254.732 46.4511 254.686 46.4342C254.639 46.4173 254.599 46.3865 254.57 46.3459C254.542 46.3053 254.526 46.2569 254.526 46.2073C254.527 46.1578 254.542 46.1094 254.571 46.0689L257.904 41.2735C257.931 41.2343 257.946 41.1879 257.947 41.1402C257.948 41.0924 257.934 41.0455 257.909 41.0053L254.758 36.0886C254.732 36.0471 254.718 35.9984 254.72 35.9492C254.722 35.8999 254.739 35.8524 254.769 35.8131C254.799 35.7738 254.839 35.7445 254.886 35.7291C254.933 35.7137 254.984 35.7131 255.031 35.7272L260.622 37.4147C260.667 37.4284 260.716 37.4284 260.761 37.4145C260.807 37.4006 260.848 37.3734 260.878 37.3366L264.581 32.8209C264.612 32.7829 264.654 32.7553 264.701 32.742C264.749 32.7286 264.799 32.7301 264.846 32.7462C264.893 32.7623 264.933 32.7922 264.962 32.832C264.991 32.8718 265.007 32.9196 265.009 32.9689L265.132 38.8074C265.132 38.8548 265.147 38.9009 265.174 38.9399C265.201 38.979 265.239 39.0091 265.283 39.0267Z" fill="black" fill-opacity="0.15"/>
<path d="M68.5171 261.913L73.9561 264.038C74.0025 264.056 74.0415 264.088 74.0692 264.129C74.0968 264.17 74.1108 264.218 74.1098 264.268C74.1093 264.317 74.0931 264.365 74.0639 264.405C74.0353 264.445 73.9947 264.475 73.9478 264.491L68.4327 266.412C68.3879 266.428 68.3483 266.457 68.3197 266.495C68.291 266.533 68.2744 266.578 68.2712 266.626L67.9301 272.456C67.9275 272.505 67.9093 272.552 67.8791 272.59C67.8483 272.63 67.8067 272.658 67.7598 272.672C67.7124 272.687 67.6624 272.686 67.615 272.671C67.5681 272.656 67.527 272.626 67.4973 272.587L63.966 267.936C63.9374 267.898 63.8978 267.87 63.853 267.854C63.8077 267.838 63.7593 267.837 63.7129 267.849L58.0629 269.326C58.015 269.338 57.9645 269.336 57.9181 269.319C57.8718 269.302 57.8317 269.272 57.8035 269.231C57.7749 269.19 57.7598 269.143 57.7598 269.093C57.7593 269.044 57.7744 268.995 57.8025 268.955L61.1358 264.159C61.1629 264.12 61.178 264.074 61.1791 264.026C61.1796 263.978 61.1666 263.931 61.1405 263.891L57.99 258.974C57.9634 258.933 57.9504 258.884 57.9525 258.835C57.9546 258.786 57.9712 258.738 58.0009 258.699C58.0306 258.66 58.0718 258.63 58.1186 258.615C58.1655 258.599 58.216 258.599 58.2629 258.613L63.8535 260.3C63.8994 260.314 63.9478 260.314 63.9936 260.3C64.0395 260.286 64.0796 260.259 64.1098 260.222L67.8124 255.707C67.8436 255.669 67.8863 255.641 67.9337 255.627C67.9811 255.614 68.0311 255.616 68.078 255.632C68.1244 255.648 68.165 255.678 68.1942 255.718C68.2233 255.758 68.2395 255.805 68.2405 255.855L68.3629 261.693C68.3645 261.741 68.3796 261.787 68.4072 261.826C68.4343 261.865 68.4728 261.896 68.5171 261.913Z" fill="black" fill-opacity="0.15"/>
<path d="M246.065 253.033L234.84 243.247L231.386 257.35L246.065 253.033Z" stroke="black" stroke-linecap="round" stroke-linejoin="round"/>
<path d="M189.65 245.261L196.558 235.763L185.62 234.324L189.65 245.261Z" stroke="black" stroke-linecap="round" stroke-linejoin="round"/>
<path d="M198.861 211.297L205.48 219.069C205.48 219.069 212.1 207.844 211.236 207.844C210.373 207.844 198.861 211.297 198.861 211.297Z" stroke="black" stroke-linecap="round" stroke-linejoin="round"/>
<path d="M206.919 163.23L215.841 168.699L216.417 155.459L206.919 163.23Z" stroke="black" stroke-linecap="round" stroke-linejoin="round"/>
<path d="M277.149 162.943L264.485 152.869L260.743 168.123L277.149 162.943Z" stroke="black" stroke-linecap="round" stroke-linejoin="round"/>
<path d="M311.688 162.943L312.552 174.744L298.736 168.124L311.688 162.943Z" stroke="black" stroke-linecap="round" stroke-linejoin="round"/>
<path d="M296.722 201.799L282.043 192.589L277.438 205.253L296.722 201.799Z" stroke="black" stroke-linecap="round" stroke-linejoin="round"/>
<path d="M164.609 179.061L159.14 192.013L147.627 181.939L164.609 179.061Z" stroke="black" stroke-linecap="round" stroke-linejoin="round"/>
<path d="M109.634 196.331L103.589 204.677L96.6816 196.618L109.634 196.331Z" stroke="black" stroke-linecap="round" stroke-linejoin="round"/>
<path d="M76.5342 180.212L82.291 186.544L71.3535 190.286L76.5342 180.212Z" stroke="black" stroke-linecap="round" stroke-linejoin="round"/>
<path d="M213.827 267.136L210.949 251.593L197.421 261.667L213.827 267.136Z" stroke="black" stroke-linecap="round" stroke-linejoin="round"/>
<path d="M318.885 141.067L298.449 148.839L303.054 139.628L318.885 141.067Z" stroke="black" stroke-linecap="round" stroke-linejoin="round"/>
<path d="M246.352 165.533L238.005 175.031L233.399 165.821L246.352 165.533Z" stroke="black" stroke-linecap="round" stroke-linejoin="round"/>
<path d="M185.621 157.186L188.499 166.109L176.41 164.67L185.621 157.186Z" stroke="black" stroke-linecap="round" stroke-linejoin="round"/>
<g opacity="0.1">
<path d="M54.9313 216.189C74.5178 219.796 94.5709 217.09 114.113 214.554C132.992 212.107 151.897 208.457 169.085 199.942C178.038 195.583 186.166 189.703 193.11 182.566C198 177.459 190.243 169.678 185.342 174.798C160.659 200.583 121.774 202.871 88.5485 207.574C78.1719 209.043 67.5917 209.597 57.1896 207.997C54.925 207.649 52.6218 208.57 51.964 210.965C51.3968 213.03 52.6629 215.773 54.9329 216.191L54.9313 216.189Z" fill="black"/>
</g>
<g opacity="0.1">
<path d="M173.101 197.659C170.202 202.752 170.625 209.281 170.253 214.982C169.883 220.664 169.666 226.358 169.391 232.046L167.74 266.171C167.579 269.504 170.695 272.348 173.917 272.348C177.394 272.348 179.935 269.516 180.094 266.171L181.709 232.046C181.969 226.531 182.29 221.017 182.464 215.5C182.653 209.504 183.565 203.271 181.067 197.659C179.625 194.418 174.677 194.886 173.099 197.659H173.101Z" fill="black"/>
</g>
<g opacity="0.1">
<path d="M208.46 86.07C205.576 93.7747 204.935 102.086 204.124 110.213C203.721 114.253 203.342 118.294 202.988 122.338C202.644 126.2 201.165 130.947 202.848 134.548C203.915 136.834 207.095 136.344 208.287 134.548C210.291 131.524 209.512 126.381 209.774 122.844C210.075 118.799 210.445 114.757 210.816 110.718C211.556 102.677 212.682 94.5757 211.72 86.5111C211.499 84.6585 209.141 84.2476 208.459 86.07H208.46Z" fill="black"/>
</g>
</svg>
