<svg width="500" height="500" viewBox="0 0 500 500" fill="none" xmlns="http://www.w3.org/2000/svg">
<g clip-path="url(#clip0_20_26790)">
<mask id="mask0_20_26790" style="mask-type:luminance" maskUnits="userSpaceOnUse" x="0" y="0" width="500" height="500">
<path d="M500 0H0V500H500V0Z" fill="white"/>
</mask>
<g mask="url(#mask0_20_26790)">
<mask id="mask1_20_26790" style="mask-type:luminance" maskUnits="userSpaceOnUse" x="30" y="19" width="440" height="462">
<path d="M469.271 19.7917H30.729V480.729H469.271V19.7917Z" fill="white"/>
</mask>
<g mask="url(#mask1_20_26790)">
<path fill-rule="evenodd" clip-rule="evenodd" d="M180.391 407.17C177.642 390.151 177.145 372.723 176.667 355.44C181.342 352.753 184.972 348.21 186.022 342.901C189.015 344.776 192.466 345.791 195.998 345.834C199.529 345.877 203.004 344.947 206.042 343.146C211.453 339.837 214.348 333.514 214.348 327.172C217.505 335.578 220.677 344.065 222.036 352.936C223.408 361.839 222.839 371.283 218.777 379.318C216.228 384.376 212.448 388.624 208.666 392.877C207.08 394.66 205.494 396.443 203.998 398.287C201.835 400.903 199.97 403.75 198.436 406.777L198.587 406.846C201.07 406.351 203.588 406.052 206.118 405.953C217.776 405.479 229.249 408.985 238.652 415.894C243.395 419.445 247.473 423.805 250.701 428.773L250.839 428.679C260.233 414.661 260.409 399.115 254.338 383.367C253.384 380.898 252.244 378.493 251.105 376.09C249.034 371.721 246.966 367.358 246.033 362.637C245.122 358.032 245.341 353.331 245.561 348.621C245.714 345.353 245.866 342.079 245.642 338.83C244.39 320.81 230.636 304.697 213.391 299.305C196.146 293.914 176.421 298.815 162.724 310.599C149.027 322.383 141.319 340.396 140.734 358.46C140.693 359.725 140.684 360.999 140.675 362.274C140.641 366.915 140.607 371.576 139.067 375.919C137.797 379.495 135.59 382.603 133.381 385.715C132.372 387.135 131.362 388.557 130.441 390.025C121.174 404.792 121.558 425.039 131.379 439.441C134.964 433.516 139.597 428.292 145.051 424.024C153.23 417.57 162.768 413.122 172.634 409.649C175.068 408.787 177.529 407.989 179.989 407.233L180.391 407.17ZM222.33 307.462C221.915 307.147 221.323 307.228 221.008 307.643C220.692 308.058 220.774 308.651 221.189 308.966C226.572 313.052 230.939 318.327 233.948 324.379C236.956 330.431 238.527 337.097 238.535 343.856C238.536 344.377 238.959 344.799 239.48 344.798C240.001 344.797 240.424 344.374 240.423 343.853C240.414 336.804 238.776 329.852 235.638 323.539C232.499 317.227 227.945 311.724 222.33 307.462Z" fill="black"/>
<path fill-rule="evenodd" clip-rule="evenodd" d="M403.094 294.675C403.038 294.006 402.982 293.331 402.854 292.685C402.774 292.241 402.642 291.807 402.461 291.393C401.052 288.197 396.809 287.694 393.319 287.656C392.441 287.644 391.564 287.635 390.687 287.626C390.032 287.619 389.377 287.612 388.72 287.604C379.982 287.514 371.248 287.421 362.515 287.327L355.5 287.252C353.266 287.227 350.988 287.208 348.843 287.843C346.929 288.345 345.266 289.534 344.175 291.184C344.035 291.423 343.911 291.671 343.803 291.927C343.53 292.581 343.38 293.284 343.23 293.984C343.018 294.982 342.806 295.973 342.241 296.809C341.522 297.797 340.457 298.48 339.259 298.721C338.074 298.987 336.855 299.061 335.647 298.942C334.24 298.829 332.844 298.609 331.45 298.39C329.662 298.109 327.877 297.828 326.071 297.771C322.856 297.671 319.408 298.419 317.206 300.76C315.212 302.874 314.563 305.9 314.217 308.788C313.602 313.94 313.669 319.151 314.419 324.284L314.098 324.781C330.294 335.151 349.153 340.595 368.385 340.452C387.615 340.309 406.391 334.585 422.431 323.976C423.822 319.754 423.155 309.706 420.644 306.082C419.433 304.366 417.863 302.932 416.043 301.881C414.224 300.829 412.198 300.185 410.106 299.991C409.873 299.971 409.634 299.953 409.401 299.946C409.136 299.938 408.866 299.934 408.594 299.931C407.165 299.914 405.688 299.897 404.61 299.009C403.369 297.98 403.234 296.347 403.094 294.675ZM412.382 304.548C411.927 304.294 411.352 304.458 411.099 304.914C410.846 305.369 411.009 305.944 411.464 306.197C416.056 308.754 418.277 314.959 416.35 319.849C416.159 320.334 416.397 320.882 416.882 321.073C417.367 321.264 417.915 321.026 418.106 320.541C420.379 314.771 417.801 307.565 412.382 304.548Z" fill="black" fill-opacity="0.15"/>
<path fill-rule="evenodd" clip-rule="evenodd" d="M249.733 201.619L249.141 201.192C229.965 189.426 207.623 183.867 185.17 185.278C185.087 186.164 184.768 187.011 184.245 187.731C182.785 189.656 180.03 189.895 177.613 189.965C160.076 190.484 142.537 191.003 124.996 191.519C123.114 191.576 121.038 191.569 119.597 190.348C119.187 189.999 118.848 189.575 118.597 189.098L117.555 189.627C100.523 193.253 84.8123 201.483 72.1353 213.422C83.9358 225.558 98.2321 234.986 114.035 241.053C129.838 247.119 146.771 249.68 163.661 248.557C180.551 247.434 196.996 242.656 211.858 234.551C226.719 226.447 239.642 215.21 249.733 201.619ZM190.6 191.726C206.459 191.585 222.134 195.137 236.384 202.098C236.852 202.327 237.418 202.133 237.647 201.665C237.875 201.196 237.681 200.631 237.213 200.403C222.699 193.313 206.735 189.696 190.583 189.838C190.062 189.843 189.643 190.269 189.648 190.79C189.652 191.311 190.078 191.73 190.6 191.726Z" fill="black" fill-opacity="0.15"/>
<path d="M410.133 299.74L410.108 299.991C409.875 299.972 409.636 299.954 409.403 299.947C407.743 299.89 405.893 300.066 404.609 299.009C402.873 297.569 403.3 294.947 402.854 292.686C404.346 292.585 405.838 292.487 407.333 292.39C408.736 292.296 410.309 292.258 411.347 293.208C412.303 294.089 412.473 295.586 412.096 296.832C411.719 298.079 410.937 298.72 410.133 299.74Z" fill="black" fill-opacity="0.15"/>
<path d="M400.986 232.536C407.504 234.814 411.179 243.057 408.523 249.43C405.868 255.802 397.413 258.987 391.209 255.948L390.208 255.942C390.303 246.744 390.084 237.55 389.554 228.359C389.359 224.955 389.051 221.356 387.054 218.588C384.997 215.738 381.524 214.31 378.164 213.271C366.752 209.766 354.648 209.145 342.937 211.466C342.956 214.07 342.975 216.672 342.994 219.273C338.955 220.274 334.5 220.016 330.858 217.99C327.19 215.952 324.504 211.994 324.535 207.797C324.566 203.601 327.66 199.473 331.795 198.756C329.644 194.031 328.738 188.476 330.606 183.631C332.475 178.786 337.641 175.037 342.756 175.922C347.663 176.778 351.004 181.235 353.823 185.334C353.433 180.238 357.56 175.337 362.588 174.406C367.615 173.475 372.981 176.275 375.523 180.716C378.066 185.157 377.87 190.903 375.479 195.427C379.003 193.117 383.199 191.62 387.396 191.972C391.593 192.325 395.726 194.76 397.444 198.604C399.161 202.447 397.916 207.582 394.26 209.677C400.136 208.268 406.78 212.111 408.485 217.913C410.191 223.714 406.686 230.542 400.986 232.536Z" fill="black"/>
<path d="M343.807 291.924C343.146 293.509 343.209 295.384 342.244 296.806C341.525 297.795 340.46 298.478 339.262 298.719L339.218 298.555C338.318 298.347 335.988 298.071 335.185 297.612C334.771 297.4 334.408 297.104 334.117 296.742C333.827 296.379 333.616 295.959 333.499 295.51C333.235 294.208 334.124 292.88 335.286 292.244C336.496 291.681 337.831 291.441 339.161 291.546C340.486 291.647 341.819 291.596 343.132 291.395L344.173 291.181C344.035 291.42 343.913 291.669 343.807 291.924Z" fill="black" fill-opacity="0.15"/>
<path d="M161.838 61.673C162.511 57.5896 163.316 53.3677 165.858 50.115C168.488 46.7551 173.616 44.9306 177.145 47.3343C179.593 49.0009 180.6 52.2355 180.329 55.1865C180.059 58.1375 178.719 60.8677 177.296 63.4677C179.882 60.3532 182.569 57.1657 186.162 55.2907C189.754 53.4157 194.511 53.1828 197.587 55.8193C201.136 58.8709 201.111 64.6401 198.814 68.7172C196.518 72.7943 192.512 75.5688 188.647 78.2053L189.503 78.8657C191.699 79.3943 193.97 78.5886 196.203 78.224C198.437 77.8594 201.136 78.1485 202.319 80.0802C203.502 81.999 202.47 84.6667 200.658 86.0068C198.846 87.3469 196.499 87.6865 194.252 87.9339C191.752 88.2042 189.256 88.3995 186.745 88.5443C170.387 89.4881 153.865 88.2318 137.62 90.4761C133.562 91.036 129.107 92.074 126.787 95.4464C124.842 98.2589 124.912 101.946 125.063 105.362C125.528 116.272 125.996 127.18 126.466 138.085L125.887 138.11C123.987 142.741 117.116 144.327 113.373 140.998C109.913 137.926 110.303 131.718 113.826 128.868C114.166 128.7 114.481 128.486 114.764 128.233C114.433 128.417 114.119 128.629 113.826 128.868C110.561 130.592 105.76 128.504 104.607 124.835C103.406 120.985 105.784 116.631 109.383 114.783C109.56 114.713 109.732 114.631 109.899 114.538C109.723 114.614 109.553 114.694 109.383 114.783C106.615 115.929 103.085 114.45 101.594 111.801C100.015 108.982 100.487 105.32 102.198 102.571C103.909 99.8214 106.677 97.8896 109.597 96.4995C106.42 95.1782 104.985 91.1203 105.923 87.8105C106.86 84.5006 109.679 81.9844 112.818 80.5709C115.958 79.1573 119.418 78.6896 122.828 78.2302C121.935 74.3042 121.897 70.0698 123.47 66.3578C125.043 62.6459 128.418 59.5756 132.411 59.0532C135.852 58.6 139.577 60.3808 141.181 63.3818C141.337 63.9094 141.537 64.423 141.779 64.9172C141.643 64.3829 141.442 63.8672 141.181 63.3818C140.708 61.8625 140.582 60.2563 140.813 58.6818C141.043 57.1073 141.625 55.6047 142.515 54.2855C143.405 52.9662 144.579 51.8638 145.953 51.0597C147.326 50.2555 148.862 49.7702 150.448 49.6398C152.034 49.5093 153.629 49.7369 155.115 50.3058C156.601 50.8747 157.94 51.7704 159.033 52.9266C160.127 54.0829 160.946 55.4698 161.431 56.9855C161.916 58.5011 162.055 60.1058 161.836 61.6823L161.838 61.673Z" fill="black"/>
<path d="M185.173 185.279C185.092 186.166 184.772 187.013 184.248 187.733C182.79 189.66 180.033 189.897 177.617 189.966C160.083 190.482 142.543 191.001 124.999 191.52C123.118 191.577 121.041 191.572 119.601 190.35C119.192 190.001 118.852 189.577 118.6 189.1C117.845 187.691 117.757 185.866 117.745 184.212C117.72 181.632 117.782 178.807 119.45 176.838C121.35 174.604 124.616 174.27 127.541 174.107H127.988C135.475 174.076 143.1 173.295 150.525 172.44C154.879 171.996 159.257 171.85 163.631 172C167.525 172.081 171.42 172.251 175.245 172.27C177.233 172.282 179.341 172.327 181.027 173.377C183.587 174.969 184.342 178.284 184.877 181.248C185.166 182.571 185.266 183.928 185.173 185.279Z" fill="black" fill-opacity="0.15"/>
<path d="M172.697 409.818C172.573 417.169 174.074 424.457 177.095 431.16C178.592 434.457 180.48 437.634 183.097 440.144C185.713 442.655 189.118 444.448 192.736 444.643C197.977 444.932 203.029 441.748 205.873 437.338C208.717 432.928 209.579 427.472 209.27 422.234C208.962 416.995 207.546 411.89 206.149 406.832L206.118 405.957C217.777 405.483 229.25 408.989 238.653 415.898C243.395 419.449 247.473 423.809 250.701 428.777C255.211 435.648 257.996 443.507 258.817 451.685L259.465 452.409C241.236 468.922 217.742 478.434 193.16 479.254C168.578 480.074 144.501 472.149 125.212 456.888L125.473 456.567C126.199 450.502 128.213 444.663 131.381 439.441C134.966 433.516 139.599 428.292 145.053 424.024C153.23 417.569 162.77 413.12 172.635 409.649L172.697 409.818Z" fill="black" fill-opacity="0.15"/>
<path d="M154.844 131.542C157.283 131.897 159.772 131.47 161.954 130.321C160.267 121.909 158.581 113.497 156.895 105.085C156.486 103.066 156.114 100.839 157.141 99.0516C158.38 96.8938 161.167 96.2329 163.659 96.0756C168.466 95.7777 173.278 96.574 177.733 98.4037" stroke="black" stroke-linecap="round" stroke-linejoin="round"/>
<path d="M164.6 107.344C166.086 106.605 167.723 106.22 169.382 106.221C171.042 106.222 172.678 106.609 174.163 107.35" stroke="black" stroke-linecap="round" stroke-linejoin="round"/>
<path d="M150.072 108.351C149.297 107.601 148.378 107.017 147.37 106.635C146.362 106.253 145.286 106.081 144.21 106.129C143.133 106.178 142.077 106.445 141.107 106.916C140.138 107.387 139.274 108.051 138.57 108.867" stroke="black" stroke-linecap="round" stroke-linejoin="round"/>
<path d="M149.461 146.107C148.506 146.484 147.486 146.665 146.459 146.641C145.433 146.617 144.422 146.389 143.485 145.968C142.549 145.548 141.706 144.944 141.006 144.194C140.306 143.443 139.763 142.559 139.409 141.596" stroke="black" stroke-linecap="round" stroke-linejoin="round"/>
<path d="M163.646 171.193C163.193 168.739 162.74 166.254 162.922 163.768C163.105 161.283 163.986 158.754 165.829 157.08C168.793 154.388 173.423 154.482 176.727 152.217C181.005 149.285 181.848 143.427 182.314 138.261C183.792 121.74 185.273 105.219 186.756 88.7016" stroke="black" stroke-linecap="round" stroke-linejoin="round"/>
<path d="M127.988 173.558C127.479 161.735 126.971 149.909 126.466 138.079C126 127.169 125.532 116.261 125.063 105.355C124.912 101.939 124.842 98.2521 126.787 95.4396C129.108 92.0672 133.563 91.0292 137.62 90.4693C153.865 88.2229 170.387 89.4797 186.745 88.5375C189.256 88.3927 191.754 88.1979 194.252 87.9271C196.498 87.6818 198.838 87.3422 200.658 86C202.478 84.6578 203.502 81.9922 202.319 80.0735C201.136 78.1417 198.437 77.8526 196.203 78.2172C193.969 78.5818 191.698 79.3875 189.503 78.8589" stroke="black" stroke-linecap="round" stroke-linejoin="round"/>
<path d="M113.826 128.862C110.302 131.712 109.912 137.924 113.373 140.992C117.116 144.32 123.987 142.734 125.887 138.104" stroke="black" stroke-linecap="round" stroke-linejoin="round"/>
<path d="M113.826 128.861C114.165 128.693 114.481 128.48 114.763 128.226C114.432 128.41 114.119 128.622 113.826 128.861Z" stroke="black" stroke-linecap="round" stroke-linejoin="round"/>
<path d="M109.383 114.775C105.784 116.625 103.406 120.978 104.607 124.827C105.759 128.495 110.559 130.583 113.826 128.859" stroke="black" stroke-linecap="round" stroke-linejoin="round"/>
<path d="M109.383 114.775C109.56 114.704 109.733 114.622 109.899 114.529C109.723 114.605 109.553 114.688 109.383 114.775Z" stroke="black" stroke-linecap="round" stroke-linejoin="round"/>
<path d="M141.182 63.3709C139.578 60.3699 135.853 58.5891 132.411 59.0423C128.416 59.5631 125.043 62.6412 123.47 66.3469C121.897 70.0527 121.935 74.2933 122.829 78.222C119.419 78.6813 115.954 79.1469 112.819 80.5626C109.684 81.9782 106.86 84.4949 105.923 87.8022C104.985 91.1095 106.42 95.1699 109.597 96.4912C106.681 97.8818 103.91 99.8193 102.199 102.563C100.487 105.306 100.015 108.974 101.594 111.793C103.085 114.442 106.615 115.92 109.383 114.775" stroke="black" stroke-linecap="round" stroke-linejoin="round"/>
<path d="M141.181 63.3708C141.336 63.8985 141.536 64.4125 141.779 64.9063C141.643 64.3719 141.442 63.8563 141.181 63.3708Z" stroke="black" stroke-linecap="round" stroke-linejoin="round"/>
<path d="M161.837 61.6724C162.057 60.0959 161.92 58.4896 161.435 56.973C160.951 55.4563 160.132 54.0677 159.038 52.9105C157.945 51.7534 156.605 50.8569 155.118 50.2873C153.631 49.7177 152.035 49.4897 150.449 49.6202C148.862 49.7507 147.324 50.2363 145.951 51.0411C144.577 51.8459 143.402 52.949 142.512 54.2693C141.622 55.5901 141.041 57.0933 140.81 58.6688C140.58 60.2443 140.707 61.8511 141.182 63.3709" stroke="black" stroke-linecap="round" stroke-linejoin="round"/>
<path d="M188.646 78.2011C192.509 75.5646 196.51 72.7844 198.813 68.7131C201.116 64.6417 201.135 58.8693 197.586 55.8152C194.509 53.1787 189.746 53.4115 186.16 55.2865C182.574 57.1615 179.881 60.3511 177.295 63.4636C178.717 60.8652 180.056 58.1282 180.328 55.1824C180.6 52.2365 179.592 48.9972 177.144 47.3301C173.614 44.9264 168.487 46.7514 165.857 50.1108C163.315 53.3636 162.509 57.5855 161.836 61.6688C161.811 61.8136 161.792 61.9584 161.767 62.1032" stroke="black" stroke-linecap="round" stroke-linejoin="round"/>
<path d="M127.988 174.106H127.541C124.616 174.269 121.35 174.603 119.45 176.837C117.783 178.806 117.72 181.631 117.745 184.21C117.757 185.865 117.845 187.69 118.6 189.099C118.852 189.575 119.191 190 119.601 190.349C121.042 191.57 123.118 191.576 124.999 191.519C142.541 191.003 160.08 190.485 177.617 189.965C180.033 189.896 182.789 189.657 184.248 187.732C184.772 187.012 185.092 186.164 185.173 185.278C185.266 183.927 185.167 182.569 184.878 181.245C184.343 178.282 183.588 174.966 181.027 173.375C179.341 172.324 177.233 172.281 175.246 172.267C171.42 172.248 167.526 172.079 163.631 171.996C159.258 171.845 154.879 171.993 150.525 172.438C143.1 173.294 135.475 174.075 127.988 174.106Z" stroke="black" stroke-linecap="round" stroke-linejoin="round"/>
<path d="M71.916 213.63C71.9915 213.56 72.0608 213.491 72.1363 213.421C84.8134 201.482 100.524 193.252 117.556 189.626" stroke="black" stroke-linecap="round" stroke-linejoin="round"/>
<path d="M184.783 185.305C184.915 185.299 185.044 185.286 185.173 185.28C207.626 183.869 229.966 189.426 249.141 201.192" stroke="black" stroke-linecap="round" stroke-linejoin="round"/>
<path d="M348.493 217.323C354.062 217.839 359.63 218.357 365.198 218.878C363.518 226.415 361.841 233.95 360.165 241.482C359.724 243.457 359.479 245.961 361.159 247.081C362.889 248.233 365.55 247.025 367.148 248.358" stroke="black" stroke-linecap="round" stroke-linejoin="round"/>
<path d="M371.125 259.471C370.786 259.465 370.439 259.453 370.1 259.446C371.131 259.879 372.239 260.104 373.358 260.107C374.477 260.11 375.586 259.893 376.62 259.467C377.655 259.04 378.596 258.414 379.388 257.624C380.18 256.833 380.808 255.893 381.236 254.859" stroke="black" stroke-linecap="round" stroke-linejoin="round"/>
<path d="M374.013 227.497C374.234 226.164 374.456 224.83 374.68 223.495" stroke="black" stroke-linecap="round" stroke-linejoin="round"/>
<path d="M355.616 228.378C355.492 226.885 355.81 225.389 356.528 224.075" stroke="black" stroke-linecap="round" stroke-linejoin="round"/>
<path d="M362.524 286.495C363.449 282.745 364.374 278.932 364.248 275.076C364.122 271.219 362.801 267.223 359.881 264.688C356.327 261.599 351.016 261.114 347.556 257.917C343.51 254.18 343.195 248.002 343.158 242.496C343.101 234.757 343.046 227.016 342.994 219.273C342.976 216.669 342.957 214.067 342.938 211.466C354.649 209.145 366.753 209.765 378.165 213.271C381.524 214.309 384.997 215.738 387.055 218.588C389.049 221.356 389.357 224.955 389.555 228.359C390.084 237.544 390.302 246.739 390.209 255.942C390.115 266.355 389.622 276.753 388.73 287.136" stroke="black" stroke-linecap="round" stroke-linejoin="round"/>
<path d="M343.083 219.255L342.995 219.273C338.956 220.274 334.501 220.016 330.859 217.99C327.191 215.952 324.505 211.994 324.536 207.797C324.567 203.601 327.661 199.473 331.796 198.756C329.645 194.031 328.739 188.476 330.607 183.631C332.476 178.786 337.642 175.037 342.757 175.922C347.664 176.778 351.005 181.235 353.824 185.335C353.434 180.239 357.561 175.335 362.588 174.406C367.616 173.478 372.982 176.275 375.524 180.717C378.067 185.158 377.871 190.903 375.48 195.427C379.004 193.118 383.2 191.62 387.397 191.972C391.594 192.325 395.727 194.76 397.445 198.604C399.162 202.447 397.917 207.582 394.261 209.677C400.137 208.268 406.781 212.112 408.486 217.913C410.192 223.714 406.687 230.541 400.986 232.535C407.505 234.813 411.179 243.056 408.524 249.428C405.869 255.801 397.413 258.985 391.209 255.946" stroke="black" stroke-linecap="round" stroke-linejoin="round"/>
<path d="M314.427 324.283C313.678 319.149 313.61 313.938 314.226 308.787C314.572 305.899 315.22 302.872 317.214 300.758C319.416 298.418 322.864 297.669 326.079 297.769C329.294 297.87 332.447 298.682 335.655 298.94C336.863 299.059 338.082 298.984 339.267 298.72C340.465 298.478 341.529 297.795 342.249 296.807C343.212 295.386 343.149 293.51 343.812 291.925C343.918 291.669 344.043 291.421 344.183 291.183C345.275 289.532 346.937 288.343 348.851 287.842C350.997 287.206 353.274 287.225 355.508 287.25L362.523 287.326C371.256 287.42 379.991 287.512 388.728 287.602C390.264 287.621 391.792 287.633 393.328 287.654C396.817 287.692 401.06 288.195 402.469 291.392C402.648 291.807 402.779 292.242 402.86 292.688C403.306 294.947 402.878 297.57 404.615 299.012C405.898 300.068 407.748 299.892 409.409 299.949C409.642 299.955 409.881 299.974 410.114 299.993C412.206 300.187 414.231 300.831 416.051 301.882C417.87 302.934 419.44 304.367 420.652 306.083C423.163 309.707 423.829 319.756 422.439 323.978C422.433 323.99 422.433 324.008 422.427 324.021" stroke="black" stroke-linecap="round" stroke-linejoin="round"/>
<path d="M339.219 298.556C338.319 298.347 335.989 298.071 335.186 297.612C334.772 297.401 334.408 297.104 334.118 296.742C333.828 296.38 333.617 295.96 333.5 295.51C333.236 294.208 334.125 292.881 335.287 292.245C336.497 291.682 337.832 291.441 339.162 291.546C340.487 291.648 341.82 291.597 343.133 291.395" stroke="black" stroke-linecap="round" stroke-linejoin="round"/>
<path d="M402.647 292.698C402.716 292.692 402.786 292.692 402.855 292.686C404.346 292.585 405.84 292.487 407.334 292.39C408.738 292.296 410.311 292.258 411.349 293.208C412.305 294.089 412.475 295.586 412.098 296.832C411.72 298.078 410.938 298.719 410.134 299.74" stroke="black" stroke-linecap="round" stroke-linejoin="round"/>
<path d="M131.417 439.497L131.379 439.44C121.558 425.039 121.174 404.792 130.442 390.025C133.38 385.344 137.218 381.129 139.068 375.919C141.031 370.382 140.547 364.329 140.735 358.459C141.319 340.396 149.027 322.383 162.724 310.598C176.421 298.814 196.146 293.913 213.391 299.305C230.637 304.696 244.391 320.81 245.643 338.829C246.19 346.763 244.491 354.835 246.033 362.637C247.48 369.954 251.652 376.409 254.338 383.366C260.41 399.114 260.234 414.661 250.84 428.679" stroke="black" stroke-linecap="round" stroke-linejoin="round"/>
<path d="M164.857 357.868C168.954 358.4 173.112 357.545 176.666 355.439C181.341 352.752 184.972 348.21 186.022 342.905C189.015 344.78 192.466 345.795 195.998 345.838C199.529 345.882 203.004 344.952 206.042 343.151C211.453 339.841 214.348 333.516 214.348 327.176C214.348 326.478 214.31 325.779 214.243 325.087" stroke="black" stroke-linecap="round" stroke-linejoin="round"/>
<path d="M214.322 327.107C214.328 327.132 214.341 327.152 214.347 327.177C217.506 335.582 220.677 344.07 222.036 352.941C223.407 361.844 222.841 371.288 218.776 379.322C215.159 386.501 209.062 392.051 203.997 398.292C201.836 400.907 199.971 403.754 198.437 406.78C198.385 406.884 198.336 406.988 198.286 407.092C196.292 411.259 195.215 415.731 195.914 420.255" stroke="black" stroke-linecap="round" stroke-linejoin="round"/>
<path d="M176.667 355.395V355.439C177.145 372.722 177.642 390.151 180.391 407.17C181.337 413.162 182.612 419.098 184.21 424.95C185.173 428.44 186.356 432.047 188.935 434.585C191.515 437.124 195.919 438.172 198.795 435.976C200.934 434.346 201.67 431.478 201.978 428.81C202.84 421.354 201.865 413.804 198.398 407.147" stroke="black" stroke-linecap="round" stroke-linejoin="round"/>
<path d="M201.714 363.121C203.269 363.096 205.169 362.857 205.777 361.422C206.186 360.472 205.821 359.383 205.456 358.415C204.342 355.439 203.229 352.465 202.115 349.493" stroke="black" stroke-linecap="round" stroke-linejoin="round"/>
<path d="M193.566 350.632C192.62 349.867 191.413 349.5 190.201 349.608C188.989 349.718 187.867 350.295 187.073 351.217" stroke="black" stroke-linecap="round" stroke-linejoin="round"/>
<path d="M214.996 348.757C214.593 348.405 214.123 348.137 213.615 347.968C213.107 347.8 212.57 347.733 212.036 347.773C211.502 347.814 210.982 347.96 210.505 348.204C210.028 348.447 209.604 348.783 209.258 349.192" stroke="black" stroke-linecap="round" stroke-linejoin="round"/>
<path d="M200.601 376.554C199.718 376.849 198.784 376.96 197.856 376.881C196.929 376.802 196.027 376.534 195.207 376.094C194.387 375.654 193.665 375.051 193.087 374.321C192.508 373.592 192.084 372.753 191.842 371.854" stroke="black" stroke-linecap="round" stroke-linejoin="round"/>
<path d="M179.989 407.233C177.529 407.988 175.069 408.787 172.634 409.649C162.768 413.122 153.23 417.57 145.051 424.024C139.597 428.291 134.964 433.515 131.379 439.44C128.212 444.663 126.197 450.502 125.471 456.566" stroke="black" stroke-linecap="round" stroke-linejoin="round"/>
<path d="M198.587 406.848C201.071 406.353 203.589 406.055 206.119 405.955C217.778 405.481 229.25 408.986 238.653 415.896C243.395 419.447 247.474 423.807 250.701 428.775C255.212 435.646 257.996 443.505 258.818 451.683" stroke="black" stroke-linecap="round" stroke-linejoin="round"/>
<path d="M172.697 409.818C172.573 417.169 174.075 424.457 177.095 431.16C178.592 434.457 180.48 437.634 183.097 440.144C185.714 442.655 189.118 444.448 192.736 444.643C197.977 444.932 203.029 441.748 205.873 437.338C208.717 432.928 209.579 427.472 209.27 422.234C208.962 416.995 207.547 411.89 206.15 406.832" stroke="black" stroke-linecap="round" stroke-linejoin="round"/>
<path d="M72.1355 213.422C51.6883 192.397 40.251 164.225 40.2563 134.896C40.2563 71.9792 92.0558 20.9783 155.949 20.9783C219.841 20.9783 271.641 71.9792 271.641 134.896C271.661 158.908 263.982 182.293 249.733 201.619C239.642 215.21 226.719 226.447 211.858 234.551C196.996 242.656 180.552 247.434 163.662 248.557C146.771 249.68 129.839 247.119 114.036 241.053C98.2324 234.986 83.936 225.559 72.1355 213.422Z" stroke="black" stroke-linecap="round" stroke-linejoin="round"/>
<path d="M125.213 456.887C112.906 447.168 102.963 434.784 96.1326 420.668C89.3019 406.553 85.7613 391.071 85.7769 375.39C85.7769 317.99 132.303 271.463 189.703 271.463C247.102 271.463 293.624 317.99 293.624 375.39C293.622 394.918 288.119 414.05 277.745 430.595C267.37 447.139 252.544 460.426 234.966 468.932C217.388 477.439 197.769 480.82 178.358 478.69C158.946 476.559 140.528 469.003 125.213 456.887Z" stroke="black" stroke-linecap="round" stroke-linejoin="round"/>
<path d="M314.103 324.78C300.078 315.804 288.539 303.442 280.549 288.832C272.56 274.223 268.377 257.837 268.388 241.186C268.388 186.366 312.826 141.928 367.646 141.928C422.466 141.928 466.911 186.366 466.911 241.186C466.91 258.998 462.116 276.483 453.033 291.805C443.949 307.128 430.91 319.724 415.283 328.273C399.656 336.822 382.016 341.008 364.214 340.394C346.412 339.779 329.103 334.386 314.103 324.78Z" stroke="black" stroke-linecap="round" stroke-linejoin="round"/>
<path d="M173.903 420.173L181.369 416.791" stroke="black" stroke-linecap="round" stroke-linejoin="round"/>
<path d="M177.037 430.671C179.064 429.096 181.266 427.759 183.599 426.688" stroke="black" stroke-linecap="round" stroke-linejoin="round"/>
<path d="M183.882 440.852L188.825 435.688" stroke="black" stroke-linecap="round" stroke-linejoin="round"/>
<path d="M194.979 444.228C195.024 442.118 195.068 440.007 195.111 437.897" stroke="black" stroke-linecap="round" stroke-linejoin="round"/>
<path d="M200.552 434.436C202.365 435.061 204.237 435.504 206.139 435.758" stroke="black" stroke-linecap="round" stroke-linejoin="round"/>
<path d="M202.492 426.724C204.477 425.699 206.6 424.966 208.794 424.546" stroke="black" stroke-linecap="round" stroke-linejoin="round"/>
<path d="M201.927 416.069L207.244 414.904" stroke="black" stroke-linecap="round" stroke-linejoin="round"/>
<path d="M194.89 444.462C195.903 455.65 196.684 466.856 197.234 478.081" stroke="black" stroke-linecap="round" stroke-linejoin="round"/>
<path d="M169.067 445.886L166.838 441.782" stroke="black" stroke-linecap="round" stroke-linejoin="round"/>
<path d="M165.372 446.204L170.595 442.658" stroke="black" stroke-linecap="round" stroke-linejoin="round"/>
<path d="M234.94 450.972C233.525 449.914 232.168 448.781 230.874 447.58" stroke="black" stroke-linecap="round" stroke-linejoin="round"/>
<path d="M231.454 452.019L231.234 452.036L234.532 446.764" stroke="black" stroke-linecap="round" stroke-linejoin="round"/>
<path d="M226.449 426.8C225.052 425.65 223.756 424.383 222.573 423.014" stroke="black" stroke-linecap="round" stroke-linejoin="round"/>
<path d="M222.982 427.443L226.416 421.843" stroke="black" stroke-linecap="round" stroke-linejoin="round"/>
<path d="M215.073 466.062C213.598 464.956 212.23 463.715 210.987 462.355" stroke="black" stroke-linecap="round" stroke-linejoin="round"/>
<path d="M215.013 461.511L211.406 466.615" stroke="black" stroke-linecap="round" stroke-linejoin="round"/>
<path d="M179.822 471.32C181.895 469.283 183.734 467.02 185.305 464.573" stroke="black" stroke-linecap="round" stroke-linejoin="round"/>
<path d="M184.866 470.943C183.301 469.096 181.735 467.249 180.17 465.403" stroke="black" stroke-linecap="round" stroke-linejoin="round"/>
<path d="M142.743 451.781C143.598 450.346 144.584 448.993 145.686 447.738" stroke="black" stroke-linecap="round" stroke-linejoin="round"/>
<path d="M145.67 451.407C144.395 450.295 143.298 448.995 142.416 447.553" stroke="black" stroke-linecap="round" stroke-linejoin="round"/>
<path d="M395.175 298.112C395.106 296.224 395.038 294.337 394.971 292.449" stroke="black" stroke-linecap="round" stroke-linejoin="round"/>
<path d="M386.603 298.005C386.825 296.199 386.825 294.373 386.603 292.567" stroke="black" stroke-linecap="round" stroke-linejoin="round"/>
<path d="M377.747 297.455C378 295.725 378.076 293.973 377.976 292.228" stroke="black" stroke-linecap="round" stroke-linejoin="round"/>
<path d="M368.986 296.892C369.033 295.226 369.08 293.559 369.126 291.892" stroke="black" stroke-linecap="round" stroke-linejoin="round"/>
<path d="M359.972 296.576C360.385 295.28 360.51 293.91 360.337 292.562" stroke="black" stroke-linecap="round" stroke-linejoin="round"/>
<path d="M350.946 297.002L351.159 292.338" stroke="black" stroke-linecap="round" stroke-linejoin="round"/>
<path d="M366.387 302.247C366.059 302.105 365.688 302.095 365.352 302.218C365.017 302.342 364.741 302.59 364.584 302.91C364.426 303.232 364.398 303.601 364.506 303.942C364.613 304.283 364.847 304.57 365.161 304.743C365.474 304.916 365.842 304.961 366.187 304.87C366.533 304.779 366.831 304.558 367.018 304.254C367.206 303.95 367.269 303.584 367.194 303.234C367.12 302.884 366.913 302.577 366.618 302.375" stroke="black" stroke-linecap="round" stroke-linejoin="round"/>
<path d="M385.26 302.248C384.932 302.105 384.561 302.094 384.225 302.217C383.889 302.341 383.613 302.588 383.455 302.909C383.297 303.23 383.269 303.6 383.376 303.942C383.483 304.283 383.717 304.57 384.031 304.744C384.344 304.917 384.712 304.963 385.058 304.872C385.404 304.781 385.702 304.56 385.89 304.256C386.078 303.951 386.141 303.586 386.067 303.236C385.993 302.885 385.786 302.578 385.491 302.376" stroke="black" stroke-linecap="round" stroke-linejoin="round"/>
<path d="M365.609 303.331C364.027 305.166 363.682 307.802 364.041 310.198C364.399 312.594 365.379 314.844 366.184 317.129C366.989 319.414 367.634 321.842 367.291 324.24C366.947 326.639 365.403 329.002 363.072 329.664" stroke="black" stroke-linecap="round" stroke-linejoin="round"/>
<path d="M384.524 303.738C386.335 305.367 387.712 307.422 388.531 309.718C389.349 312.013 389.583 314.475 389.212 316.883C388.932 318.582 388.348 320.222 388.118 321.929C387.888 323.635 388.066 325.503 389.137 326.848" stroke="black" stroke-linecap="round" stroke-linejoin="round"/>
<path d="M175.972 189.744C175.842 184.119 175.712 178.494 175.583 172.869" stroke="black" stroke-linecap="round" stroke-linejoin="round"/>
<path d="M165.351 190.192C165.575 184.368 165.8 178.544 166.025 172.72" stroke="black" stroke-linecap="round" stroke-linejoin="round"/>
<path d="M154.498 190.337C154.323 184.612 154.147 178.887 153.971 173.162" stroke="black" stroke-linecap="round" stroke-linejoin="round"/>
<path d="M142.048 190.632C141.758 184.963 141.629 179.288 141.66 173.607" stroke="black" stroke-linecap="round" stroke-linejoin="round"/>
<path d="M130.871 190.93L130.79 175.089" stroke="black" stroke-linecap="round" stroke-linejoin="round"/>
<path d="M123.656 190.781C123.509 185.649 123.361 180.517 123.213 175.385" stroke="black" stroke-linecap="round" stroke-linejoin="round"/>
<path d="M218.068 210.153C218.23 209.631 218.287 209.082 218.235 208.539C218.184 207.994 218.024 207.466 217.766 206.984C217.508 206.503 217.156 206.077 216.732 205.733C216.308 205.388 215.819 205.131 215.295 204.978C213.883 204.631 212.415 205.082 210.999 205.411C209.583 205.739 207.989 205.927 206.764 205.143C205.42 204.283 204.97 202.559 204.659 200.993" stroke="black" stroke-linecap="round" stroke-linejoin="round"/>
<path d="M193.061 234.403C193.578 233.688 193.825 232.811 193.756 231.93C193.686 231.05 193.307 230.222 192.684 229.596C191.947 228.9 190.949 228.543 190.176 227.887C189.404 227.23 188.903 226.012 189.529 225.217" stroke="black" stroke-linecap="round" stroke-linejoin="round"/>
<path d="M162.563 221.95C162.037 220.954 161.652 219.89 161.417 218.789C161.303 218.237 161.304 217.667 161.419 217.115C161.534 216.563 161.762 216.041 162.088 215.581C162.656 214.862 163.513 214.439 164.195 213.826C164.845 213.226 165.322 212.463 165.578 211.616C165.833 210.77 165.858 209.87 165.649 209.011" stroke="black" stroke-linecap="round" stroke-linejoin="round"/>
<path d="M132.868 233.857C132.576 232.54 131.744 231.42 131.122 230.223C130.501 229.026 130.086 227.567 130.668 226.349C131.174 225.292 132.292 224.697 133.139 223.886C133.847 223.196 134.374 222.341 134.672 221.398C134.971 220.455 135.032 219.453 134.851 218.48" stroke="black" stroke-linecap="round" stroke-linejoin="round"/>
<path d="M113.914 214.334C113.644 213.263 113.559 212.153 113.663 211.053C113.72 210.504 113.916 209.978 114.23 209.523C114.545 209.069 114.969 208.701 115.463 208.453C116.098 208.188 116.817 208.204 117.472 207.996C118.059 207.77 118.587 207.413 119.014 206.952C119.442 206.491 119.759 205.938 119.941 205.336C120.295 204.13 120.461 202.877 120.433 201.621" stroke="black" stroke-linecap="round" stroke-linejoin="round"/>
<path d="M90.4845 217.4C90.3449 216.501 90.3288 215.588 90.4366 214.684C90.4928 214.232 90.6402 213.797 90.8699 213.404C91.0991 213.01 91.4059 212.668 91.771 212.396C92.4491 212.049 93.1658 211.782 93.9064 211.602C94.6783 211.31 95.3699 210.839 95.9241 210.227C96.4777 209.615 96.8783 208.88 97.0923 208.083" stroke="black" stroke-linecap="round" stroke-linejoin="round"/>
<path d="M205.654 95.5402L215.957 84.3318" stroke="black" stroke-linecap="round" stroke-linejoin="round"/>
<path d="M207.217 103.858C217.22 102.285 227.039 99.7141 236.529 96.1839" stroke="black" stroke-linecap="round" stroke-linejoin="round"/>
<path d="M204.427 113.287C207.052 115.888 210.199 117.904 213.658 119.201" stroke="black" stroke-linecap="round" stroke-linejoin="round"/>
<path d="M107.307 64.0521C108.563 61.9042 109.819 59.7563 111.074 57.6078" stroke="black" stroke-linecap="round" stroke-linejoin="round"/>
<path d="M111.862 63.9896C110.28 61.6157 108.261 59.5646 105.913 57.9454" stroke="black" stroke-linecap="round" stroke-linejoin="round"/>
<path d="M95.3813 88.0141L91.3511 79.8141" stroke="black" stroke-linecap="round" stroke-linejoin="round"/>
<path d="M89.085 87.5761C91.3251 85.123 93.873 82.9693 96.6652 81.1699" stroke="black" stroke-linecap="round" stroke-linejoin="round"/>
<path d="M318.528 224.375C317.804 222.431 316.735 220.634 315.372 219.071" stroke="black" stroke-linecap="round" stroke-linejoin="round"/>
<path d="M314.46 224.127L319.095 219.215" stroke="black" stroke-linecap="round" stroke-linejoin="round"/>
<path d="M321.298 250.986C318.537 249.627 315.966 247.909 313.653 245.879" stroke="black" stroke-linecap="round" stroke-linejoin="round"/>
<path d="M314.284 253.257L320.395 241.995" stroke="black" stroke-linecap="round" stroke-linejoin="round"/>
<path d="M262.051 415.119C265.027 407.949 265.347 399.952 262.954 392.567" stroke="black" stroke-linecap="round" stroke-linejoin="round"/>
<path d="M118.779 405.384C119.574 399.302 121.963 393.538 125.706 388.678" stroke="black" stroke-linecap="round" stroke-linejoin="round"/>
<path d="M142.847 316.542C144.123 314.596 145.786 312.933 147.732 311.656" stroke="black" stroke-linecap="round" stroke-linejoin="round"/>
<path d="M146.691 317.835L142.472 310.283" stroke="black" stroke-linecap="round" stroke-linejoin="round"/>
<path d="M126.811 329.419C126.94 326.458 127.069 323.496 127.198 320.534" stroke="black" stroke-linecap="round" stroke-linejoin="round"/>
<path d="M121.748 325.597L131.524 324.777" stroke="black" stroke-linecap="round" stroke-linejoin="round"/>
<path d="M80.5534 397.989C78.1915 392.844 76.9019 387.272 76.7639 381.613C76.6258 375.954 77.6425 370.326 79.7514 365.072" stroke="black" stroke-linecap="round" stroke-linejoin="round"/>
<path d="M444.062 318.4C455.208 308.525 463.468 295.811 467.962 281.615" stroke="black" stroke-linecap="round" stroke-linejoin="round"/>
<path d="M45.0119 195.453C37.2653 184.517 32.8079 171.593 32.1655 158.207" stroke="black" stroke-linecap="round" stroke-linejoin="round"/>
<path d="M314.654 69.9834C308.933 75.4454 305.352 82.7714 304.555 90.6407C304.016 96.1745 305.455 102.645 310.385 105.216C314.911 107.575 321.255 105.067 322.945 100.251C323.561 98.4954 323.505 96.2928 322.108 95.0626C320.389 93.5475 317.632 94.2959 315.779 95.6459C313.809 97.1298 312.309 99.1496 311.456 101.463C310.603 103.777 310.435 106.288 310.97 108.694C311.908 112.614 314.646 115.815 317.29 118.856C319.935 121.897 322.661 125.111 323.572 129.037C324.483 132.962 322.902 137.782 319.106 139.137" stroke="black" stroke-linecap="round" stroke-linejoin="round"/>
<path d="M73.9258 246.522C81.4748 248.244 87.269 255.747 87.0279 263.486C86.7868 271.225 80.5357 278.352 72.8946 279.601C69.8133 280.104 66.3482 279.613 64.1638 277.382C61.9795 275.151 61.8498 270.909 64.4566 269.191C67.3659 267.272 71.3836 269.515 73.2289 272.472C76.48 277.668 75.8253 284.511 73.4284 290.153C71.0316 295.794 67.1138 300.625 63.8222 305.796C60.5305 310.968 57.7743 316.848 58.1644 322.966" stroke="black" stroke-linecap="round" stroke-linejoin="round"/>
<path d="M321.771 413.674C328.164 401.668 338.461 392.202 350.96 386.838C354.47 385.345 359.196 384.478 361.549 387.48C362.964 389.284 362.87 391.922 361.919 394.008C360.968 396.094 359.302 397.755 357.67 399.366C356.188 400.829 354.625 402.343 352.636 402.959C350.646 403.576 348.11 402.97 347.228 401.084C346.058 398.577 348.316 395.865 350.473 394.132C359.851 386.622 371.02 381.68 382.885 379.789" stroke="black" stroke-linecap="round" stroke-linejoin="round"/>
<path d="M293.626 70.2766C293.182 68.0542 292.738 65.8334 292.294 63.6146" stroke="black" stroke-linecap="round" stroke-linejoin="round"/>
<path d="M288.278 68.4417L298.044 65.3167" stroke="black" stroke-linecap="round" stroke-linejoin="round"/>
<path d="M52.9686 264.786C52.1103 261.71 51.2517 258.634 50.3931 255.558" stroke="black" stroke-linecap="round" stroke-linejoin="round"/>
<path d="M46.3838 263.26L55.2085 258.271" stroke="black" stroke-linecap="round" stroke-linejoin="round"/>
<path d="M374.924 407.387C377.089 404.987 378.605 402.073 379.327 398.923" stroke="black" stroke-linecap="round" stroke-linejoin="round"/>
<path d="M373.139 402.882L382 406.051" stroke="black" stroke-linecap="round" stroke-linejoin="round"/>
<path d="M350.918 370.947C351.018 368.004 351.777 365.12 353.139 362.509" stroke="black" stroke-linecap="round" stroke-linejoin="round"/>
<path d="M346.474 367.079L355.354 367.22" stroke="black" stroke-linecap="round" stroke-linejoin="round"/>
<g opacity="0.1">
<path d="M166.802 89.2365C164.105 88.8031 161.376 88.6115 158.646 88.6636C156.264 88.7719 153.895 89.0182 151.51 89.0474C146.704 89.1057 141.652 89.1959 136.894 89.861C133.15 90.3849 129.404 92.437 127.253 95.6151C125.038 98.8865 125.017 103.401 125.103 107.212C125.564 127.588 127.286 147.97 128.523 168.313C128.931 175.025 139.432 175.071 139.021 168.313C137.899 149.863 137.244 131.312 135.538 112.908C135.209 109.361 134.38 105.408 134.86 101.843C134.986 100.902 135.208 99.3328 135.771 98.5922C136.604 97.4985 139.205 97.0964 140.463 96.7729C149.317 94.4943 158.425 93.6729 166.927 90.1464C167.03 90.111 167.117 90.0417 167.174 89.949C167.231 89.8568 167.254 89.7474 167.24 89.6396C167.225 89.5323 167.173 89.4328 167.094 89.3594C167.015 89.2854 166.912 89.2412 166.804 89.2349L166.802 89.2365Z" fill="black"/>
</g>
<g opacity="0.1">
<path d="M119.469 176.15C118.535 178.927 118.323 181.844 118.072 184.748C117.94 186.282 117.883 187.842 117.675 189.367C117.671 189.78 117.598 190.189 117.461 190.577C117.601 190.32 118.001 190.145 117.503 190.351C115.425 191.208 112.756 191.247 110.558 191.764C108.038 192.355 105.538 193.055 103.085 193.883C98.318 195.488 93.7149 197.544 89.3394 200.024C84.9258 202.534 81.1456 205.759 76.9743 208.603C74.3289 210.406 73.406 213.824 75.4675 216.495C77.2852 218.851 81.3675 219.525 83.4831 217.039C86.8727 213.057 91.7034 210.059 96.2185 207.515C100.865 204.87 105.812 202.791 110.954 201.322C115.817 199.956 122.569 200.138 125.433 195.236C127.016 192.528 126.726 189.303 126.725 186.288C126.725 182.873 126.803 179.491 125.99 176.15C125.16 172.742 120.482 173.135 119.469 176.15Z" fill="black"/>
</g>
<g opacity="0.1">
<path d="M184.835 345.488C184.862 348.352 183.148 349.62 181.433 351.595C179.886 353.34 178.532 355.248 177.395 357.285C174.589 362.425 175.586 368.53 175.798 374.175C176.256 386.386 177.335 398.574 178.218 410.762L182.035 405.747C169.877 408.192 158.445 413.402 148.622 420.973C143.72 424.675 139.246 428.914 135.286 433.61C133.165 436.15 131.194 438.81 129.381 441.579C127.636 444.264 125.568 447.256 124.995 450.448C124.581 452.748 125.269 455.083 127.384 456.32C129.281 457.43 132.183 457.229 133.686 455.507C135.714 453.186 136.89 450.414 138.464 447.787C139.811 445.513 141.293 443.322 142.9 441.225C146.392 436.713 150.426 432.648 154.91 429.123C163.647 422.321 173.904 417.742 184.8 415.777C186.887 415.392 188.774 412.877 188.618 410.762C187.713 398.564 187.003 386.335 185.674 374.175C185.367 371.357 185.06 368.539 184.734 365.723C184.453 363.301 183.692 360.27 184.199 357.895C184.646 355.797 186.051 353.802 186.856 351.808C187.705 349.706 188.468 347.798 188.253 345.488C188.053 343.338 184.816 343.248 184.835 345.488Z" fill="black"/>
</g>
<g opacity="0.1">
<path d="M344.311 212.005C343.028 215.463 343.406 219.774 343.081 223.433C342.726 227.433 342.352 231.44 342.063 235.445C341.639 241.331 342.779 248.354 345.566 253.611C346.998 256.311 349.193 258.932 351.885 260.437C354.505 261.903 357.426 262.768 360.041 264.279C366.929 268.259 364.347 277.081 360.966 282.711C358.425 286.943 365.91 290.144 367.169 285.326C368.992 278.346 371.97 271.367 368.129 264.407C366.679 261.781 364.431 259.663 362.072 257.871C359.617 256.063 357.329 254.039 355.234 251.822C353.21 249.638 351.484 247.265 350.63 244.397C349.821 241.47 349.293 238.473 349.053 235.446C348.654 231.435 349.032 227.446 349.108 223.433C349.18 219.649 349.538 214.902 347.435 211.597C347.259 211.316 347.006 211.092 346.705 210.95C346.405 210.808 346.07 210.756 345.741 210.799C345.413 210.842 345.103 210.979 344.849 211.193C344.595 211.407 344.408 211.689 344.31 212.006L344.311 212.005Z" fill="black"/>
</g>
<g opacity="0.1">
<path d="M351.557 288.447C347.765 286.83 344.395 291.603 343.218 294.571C342.236 297.048 341.465 299.415 338.415 299.342C335.501 299.272 332.646 297.988 329.792 297.49C324.509 296.569 317.878 298.21 315.335 303.39C312.574 309.015 314.541 314.771 313.477 320.633C312.321 327.004 321.081 329.528 323.223 323.32C324.942 318.335 322.858 313.219 323.836 308.202C324.048 307.261 324.387 306.355 324.844 305.507C325.195 304.815 325.217 305.172 325.023 305.278C325.539 305.036 326.089 304.878 326.654 304.809C329.133 304.396 331.53 305.102 333.945 305.548C338.537 306.396 343.479 306.051 346.105 301.604C347.205 299.74 347.62 297.606 348.128 295.533C348.334 294.412 348.618 293.308 348.977 292.228C349.545 290.802 350.368 290.27 351.555 289.462C351.874 289.244 351.994 288.637 351.555 288.45L351.557 288.447Z" fill="black"/>
</g>
</g>
</g>
</g>
<defs>
<clipPath id="clip0_20_26790">
<rect width="500" height="500" fill="white"/>
</clipPath>
</defs>
</svg>
