<svg width="500" height="500" viewBox="0 0 500 500" fill="none" xmlns="http://www.w3.org/2000/svg">
<g clip-path="url(#clip0_20_26424)">
<mask id="mask0_20_26424" style="mask-type:luminance" maskUnits="userSpaceOnUse" x="0" y="0" width="500" height="500">
<path d="M500 0H0V500H500V0Z" fill="white"/>
</mask>
<g mask="url(#mask0_20_26424)">
<mask id="mask1_20_26424" style="mask-type:luminance" maskUnits="userSpaceOnUse" x="19" y="41" width="462" height="418">
<path d="M480.729 41.6667H19.7917V458.854H480.729V41.6667Z" fill="white"/>
</mask>
<g mask="url(#mask1_20_26424)">
<path fill-rule="evenodd" clip-rule="evenodd" d="M178.391 174.03C177.939 171.849 177.756 169.621 177.846 167.396C177.941 165.048 178.804 162.795 180.304 160.986C181.873 159.233 184.102 158.259 186.262 157.331C188.302 156.46 190.338 155.589 192.369 154.718L192.821 154.569C193.738 156.466 194.655 158.36 195.571 160.253L209.206 188.467C213.095 196.516 216.987 204.567 220.881 212.619C227.536 193.592 228.384 173.015 223.316 153.505C223.138 152.817 222.955 152.141 222.76 151.459C222.466 150.658 222.351 149.801 222.422 148.95C222.447 148.785 222.49 148.624 222.548 148.469C222.872 147.771 223.402 147.19 224.066 146.802C225.614 145.762 227.425 145.186 229.289 145.14C231.152 145.094 232.99 145.581 234.585 146.544C236.182 147.507 237.47 148.905 238.299 150.574C239.128 152.244 239.463 154.115 239.265 155.969C300.883 154.829 372.951 176.793 404.733 229.4C397.75 226.622 390.154 226.223 382.58 226.421L382.575 226.238C383.319 224.794 382.638 222.932 381.4 221.884C380.163 220.835 378.495 220.446 376.885 220.24C373.494 219.81 370.063 220.057 366.66 220.303C364.254 220.481 361.767 220.676 359.642 221.809C357.517 222.943 355.821 225.27 356.21 227.647L356.216 227.745C347.744 228.192 339.273 228.636 330.804 229.079L330.775 228.547C327.343 221.369 323.91 214.191 320.475 207.012L319.724 206.405C321.225 206.033 322.881 205.534 323.654 204.194C324.702 202.395 323.477 199.96 321.643 198.975C319.81 197.99 317.61 198.047 315.531 198.127C293.435 199.015 271.341 199.9 249.248 200.783C244.356 200.978 233.623 204.725 239.831 211.176C240.452 211.797 241.182 212.298 241.984 212.654L241.916 213.141L228.957 234.159L228.975 234.44C224.581 234.675 220.185 234.906 215.787 235.133L215.77 234.79C216.755 232.509 215.501 229.738 213.49 228.265C211.479 226.792 208.918 226.351 206.443 226.093C202.863 225.727 199.258 225.669 195.668 225.921C192.133 226.168 188.513 226.758 185.493 228.614C182.474 230.47 179.553 233.455 179.833 236.989V237.023L179.784 237.027C179.764 237.028 179.743 237.029 179.722 237.03L179.696 237.032L179.644 237.034L179.581 237.038C179.497 237.042 179.413 237.046 179.329 237.052C170.742 237.505 161.656 238.146 153.893 241.441L153.847 241.336C141.777 244.602 125.857 250.816 118.805 261.141C111.529 271.802 112.927 285.923 114.617 298.721L114.416 299.472C119.767 300.887 125.725 302.474 128.521 307.229C129.011 308.074 129.39 308.979 129.649 309.921C130.44 312.74 130.296 315.868 130.113 318.847C129.483 329.257 128.855 339.666 128.23 350.075C128.205 350.494 128.18 350.914 128.154 351.334C128.126 351.805 128.097 352.276 128.069 352.745C127.92 355.208 127.743 357.769 126.54 359.917C124.431 363.681 119.797 365.188 115.512 365.657L115.151 365.692C96.3433 367.571 78.1027 355.036 69.0282 338.429C59.8964 321.719 58.6709 301.736 60.6876 282.796C62.7152 263.794 67.9688 244.786 78.7443 229.003C89.6818 212.974 105.819 201.024 123.263 192.528C140.706 184.032 159.526 178.773 178.339 174.042L178.391 174.03ZM255.239 161.934C298.288 160.163 341.785 176.458 373.076 206.076C373.421 206.402 373.436 206.945 373.109 207.29C372.783 207.635 372.24 207.65 371.895 207.323C340.941 178.026 297.895 161.899 255.31 163.652C254.835 163.671 254.435 163.303 254.416 162.829C254.396 162.354 254.765 161.954 255.239 161.934ZM236.179 151.459C236.052 151.002 235.578 150.734 235.12 150.861C234.663 150.989 234.395 151.463 234.522 151.92C238.334 165.632 238.665 180.08 235.483 193.952C235.377 194.415 235.666 194.876 236.128 194.982C236.591 195.088 237.052 194.799 237.158 194.336C240.404 180.185 240.067 165.448 236.179 151.459ZM192.589 164.243C193.015 164.034 193.53 164.21 193.739 164.636C198.484 174.329 203.229 184.021 207.973 193.713C208.182 194.139 208.005 194.654 207.579 194.862C207.153 195.071 206.638 194.895 206.429 194.468C201.685 184.777 196.94 175.084 192.195 165.393C191.986 164.966 192.163 164.452 192.589 164.243ZM100.18 291.836C100.068 291.375 99.6027 291.092 99.1417 291.204C98.6808 291.316 98.398 291.781 98.51 292.242C99.7657 297.402 102.788 301.958 107.054 305.121C111.319 308.284 116.557 309.853 121.858 309.556C122.332 309.53 122.695 309.124 122.669 308.65C122.642 308.176 122.237 307.814 121.763 307.84C116.862 308.115 112.02 306.664 108.077 303.741C104.135 300.817 101.341 296.605 100.18 291.836Z" fill="black"/>
<path d="M447.069 281.593C448.954 286.973 448.806 292.879 447.769 298.488C446.772 303.896 444.916 309.246 441.576 313.617C438.27 317.954 433.372 321.242 427.964 321.861C427.769 317.966 427.548 314.074 427.299 310.186L427.203 309.71C427.307 309.693 427.414 309.67 427.517 309.647C431.521 308.788 437.989 307.751 439.757 304.056C440.937 301.587 440.611 298.688 440.21 295.983C438.92 287.219 437.169 278.53 434.963 269.951L435.583 269.792C441.042 271.431 445.19 276.214 447.069 281.593Z" fill="black"/>
<path d="M330.776 228.545L330.805 229.078C328.674 229.192 326.548 229.301 324.417 229.416L324.371 228.511C321.547 221.768 318.725 215.024 315.904 208.282L315.692 207.36C317.038 207.051 318.385 206.735 319.725 206.403L320.476 207.01C323.907 214.189 327.34 221.367 330.776 228.545Z" fill="black" fill-opacity="0.15"/>
<path d="M324.371 228.511L324.417 229.416C294.307 231.003 264.196 232.588 234.086 234.171L234.08 234.073C238.143 227.48 242.206 220.886 246.271 214.292L246.339 213.833C252.206 214.67 259.819 213.656 263.726 213.599C281.219 213.349 298.637 211.258 315.692 207.36L315.904 208.282C318.728 215.025 321.55 221.768 324.371 228.511Z" fill="black"/>
<path d="M246.34 213.833L246.271 214.292C242.203 220.886 238.139 227.48 234.08 234.073L234.086 234.171C232.385 234.263 230.677 234.348 228.976 234.44L228.958 234.159C233.278 227.153 237.598 220.147 241.917 213.141L241.986 212.654C243.372 213.255 244.839 213.652 246.34 213.833Z" fill="black" fill-opacity="0.15"/>
<path d="M179.926 125.456C179.835 126.152 179.529 126.801 179.05 127.314C178.571 127.827 177.944 128.177 177.256 128.315C175.497 128.612 173.693 127.429 173 125.788C172.737 125.153 172.609 124.47 172.627 123.783C173.085 123.425 173.419 122.934 173.584 122.378C173.749 121.821 173.734 121.227 173.544 120.678C172.969 121.614 172.653 122.685 172.627 123.783C172.09 124.27 171.403 124.563 170.679 124.614C168.777 124.705 167.064 123.291 166.217 121.583C165.369 119.876 165.214 117.922 165.088 116.027C164.624 109.209 164.303 102.363 164.756 95.5458C165.008 91.6963 165.529 87.8005 167.076 84.2719C168.622 80.7432 171.321 77.5693 174.913 76.1599C177.76 75.0427 180.911 75.1057 183.958 74.8135C187.006 74.5213 190.243 73.7307 192.254 71.4219C195.13 68.1224 195.044 62.2792 199.059 60.5364C200.067 60.1255 201.182 60.0557 202.233 60.338C203.284 60.6198 204.214 61.2385 204.88 62.0989C205.519 62.9901 205.835 64.0739 205.773 65.1693C205.263 66.0916 204.888 67.0838 204.662 68.114C205.353 67.2854 205.744 66.2479 205.773 65.1693C206.641 63.5515 208.002 62.2531 209.658 61.463C212.276 60.2771 215.736 60.8786 217.438 63.1989C219.139 65.5193 218.394 69.3802 215.759 70.526C218.245 69.7583 219.763 67.3291 221.711 65.5989C223.659 63.8687 227.125 63.0271 228.568 65.1922C229.313 66.3036 229.17 67.7875 228.769 69.0651C227.428 73.3614 223.722 76.3234 219.442 78.0135V78.0193C217.74 78.6922 215.969 79.1745 214.16 79.4568C207.939 80.4422 201.54 79.6859 195.313 80.6547C189.086 81.6234 182.572 84.9802 180.647 90.9781C179.393 94.8844 180.327 99.1187 181.26 103.117C183.059 110.788 184.755 118.436 186.433 126.078L186.405 126.084C186.227 127.934 184.95 128.318 183.099 128.167C182.36 128.084 181.663 127.781 181.097 127.297C180.531 126.815 180.124 126.173 179.926 125.456ZM179.926 125.45C179.963 125.086 179.921 124.719 179.805 124.373C179.782 124.736 179.822 125.101 179.926 125.45Z" fill="black"/>
<path d="M211.023 168.646L210.982 168.64C208.364 165.329 205.746 162.019 203.128 158.712L203.111 158.643C208.347 157.474 213.555 156.185 218.736 154.776L218.765 154.885C217.968 159.199 215.711 163.833 214.915 168.147C217.848 174.472 222.448 180.527 226.138 186.445L226.315 186.456C225.679 195.381 223.852 204.18 220.884 212.62C216.995 204.571 213.103 196.52 209.209 188.467H209.215C209.516 181.839 210.119 175.232 211.023 168.646Z" fill="black" fill-opacity="0.15"/>
<path d="M158.609 456.934L158.603 456.974C152.748 456.344 140.111 452.173 134.6 450.122C129.089 448.071 123.927 444.428 121.274 439.175C119.08 434.838 118.76 429.826 118.485 424.973C117.356 405.048 116.33 386.115 115.196 366.19L115.15 365.692L115.511 365.657C119.797 365.189 124.431 363.681 126.539 359.917C127.742 357.769 127.92 355.208 128.069 352.745C128.121 351.859 128.178 350.963 128.229 350.075L128.361 350.081C130.033 349.955 131.706 349.806 133.374 349.617L133.397 349.812C135.264 376.388 137.372 402.162 139.245 428.731C139.784 436.402 140.58 444.703 145.759 450.392C149.128 454.093 153.665 455.99 158.609 456.934Z" fill="black" fill-opacity="0.15"/>
<path d="M128.522 307.23C125.726 302.475 119.768 300.888 114.417 299.473L114.618 298.722C112.928 285.924 111.53 271.803 118.806 261.142C125.858 250.819 141.778 244.603 153.849 241.338L153.894 241.442C150.964 242.652 148.242 244.314 145.828 246.368C134.383 256.212 133.231 273.225 132.933 288.32L133.208 288.693C133.094 288.786 132.985 288.885 132.881 288.991C131.579 290.296 131.002 292.147 130.567 293.939C129.289 299.154 129.024 304.566 129.786 309.882L129.648 309.922C129.389 308.98 129.011 308.076 128.522 307.23Z" fill="black" fill-opacity="0.15"/>
<path d="M221.888 148.835C219.402 146.205 218.056 142.407 219.265 138.998C220.473 135.59 222.662 132.622 224.14 129.323C227.663 121.486 226.998 112.411 225.194 104.013C223.39 95.6146 220.513 87.4052 219.786 78.8464" stroke="black" stroke-linecap="round" stroke-linejoin="round"/>
<path d="M179.926 125.456C180.122 126.173 180.53 126.816 181.096 127.3C181.661 127.784 182.359 128.088 183.099 128.171C184.949 128.32 186.227 127.936 186.405 126.088" stroke="black" stroke-linecap="round" stroke-linejoin="round"/>
<path d="M179.926 125.45C179.963 125.086 179.922 124.719 179.806 124.373C179.782 124.736 179.823 125.101 179.926 125.45Z" stroke="black" stroke-linecap="round" stroke-linejoin="round"/>
<path d="M179.926 125.45V125.456" stroke="black" stroke-linecap="round" stroke-linejoin="round"/>
<path d="M172.627 123.783C172.61 124.47 172.737 125.153 173 125.788C173.692 127.427 175.5 128.613 177.256 128.315C177.944 128.177 178.572 127.827 179.05 127.314C179.529 126.801 179.835 126.152 179.926 125.456" stroke="black" stroke-linecap="round" stroke-linejoin="round"/>
<path d="M172.628 123.783C173.085 123.425 173.42 122.934 173.584 122.378C173.749 121.821 173.735 121.227 173.544 120.678C172.97 121.614 172.653 122.685 172.628 123.783Z" stroke="black" stroke-linecap="round" stroke-linejoin="round"/>
<path d="M205.773 65.1719C205.835 64.0766 205.519 62.9927 204.88 62.1016C204.214 61.2412 203.284 60.6224 202.233 60.3406C201.182 60.0583 200.067 60.1281 199.059 60.5391C195.044 62.2807 195.13 68.124 192.254 71.4245C190.243 73.7333 187.006 74.5182 183.958 74.8162C180.91 75.1141 177.76 75.0453 174.913 76.1625C171.319 77.5719 168.622 80.7396 167.076 84.2745C165.529 87.8094 165.008 91.699 164.756 95.5484C164.303 102.366 164.624 109.211 165.088 116.029C165.214 117.925 165.369 119.883 166.216 121.586C167.064 123.289 168.777 124.708 170.679 124.616C171.403 124.566 172.09 124.273 172.627 123.785" stroke="black" stroke-linecap="round" stroke-linejoin="round"/>
<path d="M205.774 65.1719C205.263 66.0943 204.888 67.0865 204.662 68.1167C205.353 67.288 205.744 66.2505 205.774 65.1719Z" stroke="black" stroke-linecap="round" stroke-linejoin="round"/>
<path d="M192.821 154.569C190.592 145.048 188.525 135.567 186.433 126.08C184.755 118.438 183.059 110.79 181.261 103.119C180.327 99.1203 179.393 94.8865 180.648 90.9797C182.572 84.9818 189.091 81.6302 195.313 80.6563C201.535 79.6823 207.939 80.4443 214.161 79.4584C215.969 79.1761 217.74 78.6938 219.442 78.0209V78.0151C223.722 76.325 227.428 73.363 228.769 69.0667C229.17 67.7891 229.313 66.3063 228.568 65.1938C227.125 63.0287 223.653 63.8703 221.711 65.6005C219.769 67.3308 218.245 69.7599 215.759 70.5276C218.394 69.3818 219.139 65.5203 217.438 63.2005C215.737 60.8808 212.276 60.2787 209.658 61.4646C208.002 62.2552 206.641 63.5531 205.774 65.1709" stroke="black" stroke-linecap="round" stroke-linejoin="round"/>
<path d="M203.333 116.066C204.576 116.587 206.031 115.54 206.444 114.251C206.856 112.961 206.524 111.569 206.197 110.257C204.88 104.993 203.56 99.7297 202.239 94.4687C201.901 93.1172 201.638 91.4729 202.652 90.5104C203.196 90.0802 203.842 89.7979 204.527 89.6911C207.231 89.0437 209.935 88.3927 212.639 87.7375" stroke="black" stroke-linecap="round" stroke-linejoin="round"/>
<path d="M208.879 97.2073C209.466 96.4547 210.285 95.9172 211.209 95.6781C212.133 95.4386 213.11 95.5109 213.989 95.8839" stroke="black" stroke-linecap="round" stroke-linejoin="round"/>
<path d="M195.383 99.3844C193.887 98.0094 191.097 98.588 190.266 100.439" stroke="black" stroke-linecap="round" stroke-linejoin="round"/>
<path d="M196.659 127.472C197.164 128.122 197.81 128.648 198.55 129.009C199.289 129.371 200.101 129.558 200.923 129.558C201.746 129.557 202.557 129.369 203.296 129.006C204.034 128.644 204.68 128.117 205.184 127.467" stroke="black" stroke-linecap="round" stroke-linejoin="round"/>
<path d="M192.822 154.569C193.738 156.466 194.655 158.36 195.572 160.253C200.114 169.653 204.659 179.058 209.206 188.467C213.094 196.516 216.986 204.567 220.881 212.619C227.537 193.592 228.384 173.015 223.316 153.505C223.138 152.817 222.955 152.141 222.76 151.459C222.466 150.658 222.35 149.801 222.422 148.95C222.447 148.785 222.489 148.624 222.548 148.469C222.873 147.771 223.402 147.19 224.066 146.802C225.613 145.762 227.425 145.186 229.288 145.14C231.152 145.094 232.989 145.581 234.586 146.544C236.181 147.507 237.47 148.905 238.299 150.574C239.127 152.244 239.463 154.115 239.265 155.969C239.259 156.037 239.253 156.101 239.242 156.169" stroke="black" stroke-linecap="round" stroke-linejoin="round"/>
<path d="M192.369 154.718C190.336 155.589 188.3 156.46 186.262 157.331C184.102 158.259 181.874 159.233 180.304 160.986C178.804 162.795 177.941 165.048 177.847 167.396C177.756 169.622 177.939 171.85 178.391 174.03C178.414 174.134 178.431 174.242 178.448 174.345" stroke="black" stroke-linecap="round" stroke-linejoin="round"/>
<path d="M195.583 160.247C198.098 159.737 200.607 159.203 203.111 158.643C208.347 157.474 213.555 156.185 218.736 154.776C220.264 154.363 221.791 153.939 223.319 153.504C223.335 153.503 223.351 153.5 223.365 153.493" stroke="black" stroke-linecap="round" stroke-linejoin="round"/>
<path d="M218.761 154.884C217.965 159.198 215.707 163.833 214.911 168.147" stroke="black" stroke-linecap="round" stroke-linejoin="round"/>
<path d="M203.125 158.711C205.743 162.017 208.361 165.326 210.979 168.639" stroke="black" stroke-linecap="round" stroke-linejoin="round"/>
<path d="M209.212 188.467C209.515 181.839 210.118 175.231 211.022 168.645V168.628" stroke="black" stroke-linecap="round" stroke-linejoin="round"/>
<path d="M214.911 168.147C217.844 174.471 222.444 180.527 226.134 186.444" stroke="black" stroke-linecap="round" stroke-linejoin="round"/>
<path d="M178.339 174.042C159.526 178.773 140.707 184.032 123.263 192.528C105.818 201.024 89.6808 212.974 78.7443 229.003C67.9688 244.784 62.7152 263.795 60.6876 282.796C58.6709 301.736 59.8964 321.719 69.0282 338.429C78.1027 355.036 96.3433 367.571 115.151 365.692L115.512 365.657C119.797 365.189 124.431 363.681 126.54 359.917C127.743 357.769 127.92 355.208 128.069 352.745C128.121 351.859 128.178 350.963 128.23 350.075C128.86 339.666 129.488 329.257 130.114 318.848C130.297 315.869 130.441 312.741 129.65 309.922C129.391 308.98 129.012 308.076 128.522 307.23C125.726 302.475 119.768 300.888 114.417 299.473C114.343 299.456 114.268 299.433 114.194 299.416C108.786 297.995 102.731 295.623 100.943 290.324" stroke="black" stroke-linecap="round" stroke-linejoin="round"/>
<path d="M129.788 309.882C129.026 304.567 129.291 299.155 130.569 293.939C131.005 292.146 131.583 290.293 132.884 288.991C132.987 288.886 133.096 288.787 133.211 288.693C134.534 287.6 136.527 287.198 137.908 288.178C138.979 288.94 139.432 290.286 139.764 291.558C141.597 298.571 141.689 305.926 140.033 312.983" stroke="black" stroke-linecap="round" stroke-linejoin="round"/>
<path d="M128.361 350.081C130.033 349.955 131.706 349.806 133.374 349.617C143.411 348.517 153.306 346.367 162.894 343.201C166.595 342.063 170.166 340.541 173.55 338.658C176.941 336.762 179.84 334.095 182.011 330.872C182.485 330.235 182.773 329.48 182.844 328.69C182.867 327.509 182.007 326.461 180.994 325.86C178.914 324.634 176.365 324.886 173.976 325.488C173.535 325.596 173.1 325.722 172.67 325.848C166.603 327.664 160.782 330.223 154.767 332.213C148.752 334.203 142.424 335.627 136.109 335.06" stroke="black" stroke-linecap="round" stroke-linejoin="round"/>
<path d="M173.877 325.086C176.309 323.884 178.214 321.828 179.228 319.311C179.686 318.178 179.938 316.86 179.423 315.743C178.804 314.396 177.2 313.726 175.716 313.772C174.311 313.904 172.947 314.31 171.7 314.97C171.631 315.004 171.557 315.033 171.488 315.067C165.977 317.622 160.535 320.38 154.783 322.331C149.031 324.283 142.885 325.419 136.857 324.623" stroke="black" stroke-linecap="round" stroke-linejoin="round"/>
<path d="M171.556 314.654C172.851 313.451 174.077 312.099 174.672 310.438C175.268 308.777 175.102 306.74 173.865 305.49C172.364 303.967 169.901 304.035 167.804 304.465C162.946 305.45 158.478 307.742 153.877 309.581C149.277 311.42 144.9 313.889 140.031 312.983" stroke="black" stroke-linecap="round" stroke-linejoin="round"/>
<path d="M239.081 155.967H239.264C300.883 154.827 372.951 176.791 404.733 229.398" stroke="black" stroke-linecap="round" stroke-linejoin="round"/>
<path d="M422.574 298.636C415.115 300.212 410.566 301.501 400.512 301.189C398.868 301.136 394.13 301.452 392.859 302.501C391.587 303.549 390.745 305.273 391.215 306.848C391.944 309.318 398.8 311.443 401.366 311.536C411.008 311.885 417.824 311.692 427.203 309.713C427.307 309.696 427.415 309.673 427.518 309.65C431.522 308.791 437.99 307.754 439.758 304.059C440.938 301.59 440.611 298.691 440.21 295.986C438.921 287.222 437.169 278.533 434.963 269.954C434.859 269.53 434.745 269.112 434.636 268.688C433.221 263.292 431.462 257.672 427.401 253.851C425.711 252.264 422.978 251.084 421.145 252.384C421.071 252.441 420.989 252.504 420.916 252.567C419.489 253.793 419.562 255.976 419.753 257.849C420.378 263.979 421 270.109 421.62 276.239" stroke="black" stroke-linecap="round" stroke-linejoin="round"/>
<path d="M396.817 288.245C405.159 288.68 413.568 287.07 421.812 285.46" stroke="black" stroke-linecap="round" stroke-linejoin="round"/>
<path d="M421.043 276.357C410.851 276.397 400.189 276.546 391.196 281.347C389.666 282.16 388.005 283.535 388.337 285.237C388.663 286.904 390.663 287.563 392.347 287.809C393.831 288.027 395.315 288.172 396.799 288.245" stroke="black" stroke-linecap="round" stroke-linejoin="round"/>
<path d="M398.404 288.268C397.877 288.233 397.344 288.228 396.817 288.245C396.811 288.251 396.806 288.245 396.8 288.245C393.642 288.392 390.612 289.534 388.144 291.51C386.849 292.558 385.657 294.071 385.921 295.715C386.276 297.92 388.889 298.854 391.088 299.249C401.056 301.037 411.505 300.361 422.556 298.52C422.682 298.497 422.808 298.48 422.934 298.457" stroke="black" stroke-linecap="round" stroke-linejoin="round"/>
<path d="M132.932 288.319C133.23 273.224 134.382 256.209 145.828 246.367C148.242 244.313 150.964 242.651 153.894 241.441C161.654 238.146 170.742 237.505 179.33 237.052C179.496 237.041 179.668 237.035 179.834 237.023L215.788 235.133C220.181 234.904 224.577 234.673 228.975 234.44C230.677 234.348 232.384 234.263 234.085 234.171C264.195 232.59 294.306 231.005 324.416 229.416C326.547 229.301 328.673 229.192 330.804 229.078C339.277 228.631 347.747 228.186 356.217 227.743L375.435 226.729C377.801 226.603 380.19 226.483 382.579 226.42C390.153 226.219 397.749 226.62 404.732 229.398C413.916 233.054 421.764 242.055 420.762 251.89" stroke="black" stroke-linecap="round" stroke-linejoin="round"/>
<path d="M133.396 349.811C135.264 376.388 137.372 402.161 139.245 428.731C139.784 436.402 140.58 444.703 145.759 450.392C149.128 454.093 153.665 455.989 158.609 456.934C163.335 457.845 168.422 457.879 173.206 457.793C243.343 456.51 313.518 455.221 383.503 450.392C397.092 449.454 412.302 447.55 420.723 436.85C426.904 429.002 427.764 418.334 428.211 408.355C429.505 379.539 429.422 350.708 427.964 321.862C427.769 317.967 427.548 314.075 427.3 310.187" stroke="black" stroke-linecap="round" stroke-linejoin="round"/>
<path d="M153.849 241.338C141.778 244.603 125.858 250.817 118.806 261.142C111.53 271.803 112.928 285.924 114.618 298.722" stroke="black" stroke-linecap="round" stroke-linejoin="round"/>
<path d="M115.197 366.19C116.331 386.115 117.357 405.048 118.486 424.973C118.761 429.826 119.081 434.838 121.275 439.174C123.928 444.428 129.083 448.066 134.601 450.122C140.118 452.179 152.749 456.344 158.604 456.974" stroke="black" stroke-linecap="round" stroke-linejoin="round"/>
<path d="M179.834 236.989C179.554 233.455 182.469 230.47 185.494 228.614C188.519 226.758 192.134 226.166 195.669 225.921C199.259 225.669 202.864 225.727 206.444 226.093C208.919 226.354 211.485 226.798 213.491 228.265C215.496 229.731 216.756 232.509 215.771 234.79" stroke="black" stroke-linecap="round" stroke-linejoin="round"/>
<path d="M356.211 227.646C355.822 225.268 357.513 222.936 359.643 221.808C361.773 220.679 364.255 220.479 366.661 220.302C370.063 220.055 373.495 219.809 376.886 220.239C378.496 220.447 380.158 220.834 381.401 221.882C382.644 222.93 383.32 224.793 382.575 226.236" stroke="black" stroke-linecap="round" stroke-linejoin="round"/>
<path d="M228.959 234.159C233.279 227.153 237.599 220.147 241.918 213.141" stroke="black" stroke-linecap="round" stroke-linejoin="round"/>
<path d="M234.08 234.073C238.143 227.48 242.206 220.886 246.271 214.292" stroke="black" stroke-linecap="round" stroke-linejoin="round"/>
<path d="M324.37 228.511C321.547 221.768 318.724 215.024 315.904 208.282" stroke="black" stroke-linecap="round" stroke-linejoin="round"/>
<path d="M330.776 228.545C327.344 221.367 323.911 214.189 320.475 207.01" stroke="black" stroke-linecap="round" stroke-linejoin="round"/>
<path d="M319.725 206.403C321.226 206.031 322.882 205.533 323.655 204.192C324.703 202.393 323.478 199.958 321.644 198.973C319.811 197.988 317.611 198.045 315.532 198.126C293.436 199.013 271.342 199.898 249.25 200.782C244.357 200.977 233.622 204.723 239.832 211.174C240.452 211.795 241.182 212.296 241.986 212.652C243.373 213.253 244.839 213.651 246.34 213.832C252.206 214.668 259.819 213.655 263.727 213.597C281.219 213.348 298.638 211.257 315.692 207.358C317.038 207.051 318.386 206.735 319.725 206.403Z" stroke="black" stroke-linecap="round" stroke-linejoin="round"/>
<path d="M435.585 269.792C441.044 271.43 445.191 276.214 447.071 281.593C448.95 286.972 448.806 292.879 447.769 298.487C446.773 303.895 444.916 309.246 441.577 313.617C438.271 317.954 433.373 321.242 427.965 321.86L427.809 321.878" stroke="black" stroke-linecap="round" stroke-linejoin="round"/>
<path d="M91.5053 176.286C85.0267 168.815 76.111 163.208 66.3147 161.855C56.5183 160.502 45.9224 163.79 39.4693 171.282C33.0161 178.775 31.4911 190.491 36.7776 198.848C41.3005 205.998 49.8313 209.801 58.2402 210.735C63.7293 211.346 70.5319 210.058 72.3892 204.856C74.3209 199.439 69.1136 193.791 63.547 192.356C59.9621 191.494 56.2038 191.693 52.7303 192.929C49.2566 194.165 46.2172 196.384 43.9823 199.316C38.8406 206.299 39.1969 215.827 40.4766 224.402C41.7562 232.978 43.712 241.897 41.0703 250.157C38.4286 258.417 28.9984 265.261 21.1406 261.594" stroke="black" stroke-linecap="round" stroke-linejoin="round"/>
<path d="M438.827 185.031C430.645 201.358 430.698 221.563 438.964 237.847C443.509 246.802 451.672 255.166 461.716 255.191C469.137 255.21 476.295 250.105 478.695 243.083C480.414 238.056 479.354 231.652 474.856 228.824C468.242 224.667 459.515 230.763 456.315 237.89C452.063 247.366 453.093 258.45 456.211 268.359C459.328 278.268 464.377 287.443 468.19 297.103C475.015 314.458 477.772 333.146 476.245 351.732C475.682 358.517 474.444 365.515 470.526 371.083C466.607 376.651 459.384 380.378 452.874 378.385C446.6 376.464 442.72 369.81 442.092 363.281C441.698 359.182 442.74 354.402 446.363 352.447C449.986 350.493 455.657 354.302 453.86 358.008" stroke="black" stroke-opacity="0.15" stroke-linecap="round" stroke-linejoin="round"/>
<path d="M244.736 76.451H259.294" stroke="black" stroke-linecap="round" stroke-linejoin="round"/>
<path d="M239.444 66.3786C249.912 59.0338 260.38 51.6891 270.85 44.3443" stroke="black" stroke-linecap="round" stroke-linejoin="round"/>
<path d="M233.032 59.4135C234.66 53.9573 236.287 48.5011 237.915 43.0448" stroke="black" stroke-linecap="round" stroke-linejoin="round"/>
<path d="M156.137 57.8047C153.641 54.9193 150.235 52.9719 146.482 52.2839" stroke="black" stroke-linecap="round" stroke-linejoin="round"/>
<path d="M147.781 59.5062L154.497 48.1437" stroke="black" stroke-linecap="round" stroke-linejoin="round"/>
<path d="M145.851 154.108L135.066 145.45" stroke="black" stroke-linecap="round" stroke-linejoin="round"/>
<path d="M134.225 156.435C137.908 151.413 141.592 146.391 145.275 141.368" stroke="black" stroke-linecap="round" stroke-linejoin="round"/>
<path d="M344.756 128.666C341.463 124.434 337.417 120.847 332.822 118.084" stroke="black" stroke-opacity="0.15" stroke-linecap="round" stroke-linejoin="round"/>
<path d="M333.871 128.594C337.096 124.138 340.321 119.683 343.546 115.227" stroke="black" stroke-opacity="0.15" stroke-linecap="round" stroke-linejoin="round"/>
<path d="M270.462 123.102L278.58 125.556C278.649 125.577 278.709 125.618 278.753 125.674C278.798 125.731 278.824 125.799 278.828 125.87C278.832 125.942 278.815 126.013 278.777 126.074C278.74 126.135 278.685 126.184 278.619 126.213L270.856 129.626C270.792 129.654 270.739 129.7 270.702 129.758C270.665 129.817 270.646 129.885 270.648 129.954L270.822 138.433C270.824 138.505 270.803 138.576 270.763 138.635C270.724 138.694 270.667 138.741 270.6 138.767C270.534 138.793 270.46 138.798 270.39 138.782C270.321 138.765 270.258 138.728 270.21 138.674L264.564 132.344C264.518 132.292 264.458 132.255 264.391 132.238C264.324 132.22 264.253 132.223 264.187 132.246L256.177 135.032C256.109 135.055 256.036 135.057 255.967 135.038C255.899 135.018 255.838 134.978 255.792 134.923C255.747 134.868 255.719 134.8 255.714 134.729C255.708 134.657 255.724 134.586 255.76 134.524L260.035 127.2C260.069 127.14 260.086 127.071 260.082 127.002C260.078 126.933 260.053 126.867 260.011 126.811L254.886 120.054C254.843 119.997 254.818 119.928 254.815 119.857C254.812 119.785 254.831 119.714 254.87 119.654C254.909 119.594 254.965 119.546 255.031 119.519C255.097 119.492 255.17 119.485 255.24 119.501L263.527 121.303C263.595 121.317 263.665 121.311 263.73 121.286C263.794 121.261 263.85 121.217 263.889 121.16L268.733 114.198C268.774 114.139 268.832 114.094 268.899 114.07C268.966 114.045 269.04 114.041 269.109 114.059C269.178 114.077 269.24 114.116 269.287 114.17C269.334 114.224 269.363 114.292 269.37 114.363L270.217 122.801C270.223 122.869 270.25 122.935 270.293 122.989C270.337 123.042 270.395 123.082 270.462 123.102Z" fill="black"/>
<path d="M100.321 116.971L107.003 118.7C107.06 118.715 107.11 118.747 107.148 118.791C107.185 118.835 107.209 118.89 107.214 118.948C107.22 119.006 107.208 119.064 107.179 119.115C107.151 119.166 107.108 119.207 107.055 119.232L100.854 122.263C100.803 122.288 100.761 122.327 100.733 122.376C100.704 122.424 100.691 122.481 100.694 122.537L101.116 129.427C101.119 129.485 101.105 129.543 101.075 129.593C101.045 129.643 101 129.682 100.946 129.706C100.893 129.73 100.834 129.736 100.776 129.725C100.719 129.714 100.666 129.685 100.626 129.643L95.8263 124.682C95.7872 124.641 95.7367 124.613 95.6815 124.602C95.6268 124.59 95.569 124.594 95.5169 124.615L89.0945 127.144C89.0403 127.166 88.9804 127.17 88.9242 127.156C88.8674 127.143 88.8164 127.112 88.7773 127.068C88.7388 127.025 88.7138 126.971 88.707 126.913C88.7002 126.855 88.7106 126.796 88.7382 126.745L91.9731 120.647C91.9987 120.598 92.0096 120.542 92.0039 120.486C91.9981 120.431 91.9763 120.378 91.9409 120.335L87.5523 115.005C87.5153 114.96 87.4929 114.905 87.4877 114.847C87.483 114.789 87.4966 114.731 87.5257 114.68C87.5549 114.63 87.5992 114.59 87.6523 114.565C87.7049 114.541 87.7643 114.533 87.8216 114.543L94.62 115.736C94.6757 115.746 94.7325 115.739 94.7846 115.716C94.8362 115.693 94.8799 115.656 94.9101 115.608L98.619 109.786C98.6508 109.738 98.6961 109.701 98.7497 109.679C98.8034 109.657 98.8622 109.652 98.9185 109.664C98.9747 109.677 99.0263 109.706 99.0659 109.747C99.1054 109.79 99.131 109.843 99.1398 109.9L100.106 116.734C100.115 116.791 100.139 116.843 100.178 116.885C100.216 116.928 100.266 116.957 100.321 116.971Z" fill="black" fill-opacity="0.15"/>
<path d="M78.0032 363.783C64.011 355.748 54.4922 340.415 53.4995 324.31" stroke="black" stroke-linecap="round" stroke-linejoin="round"/>
<path d="M439.702 326.841C444.24 323.649 448.001 319.476 450.705 314.631C453.408 309.785 454.984 304.393 455.317 298.854" stroke="black" stroke-linecap="round" stroke-linejoin="round"/>
<g opacity="0.1">
<path d="M188.357 82.4349C183.195 84.2136 180.932 89.4209 179.842 94.3532C178.329 101.205 180.794 108.306 182.328 114.995C183.995 122.257 185.766 129.492 187.524 136.732C189.3 144.051 190.554 151.811 193.012 158.928C194.523 163.296 200.438 161.468 199.792 157.059C198.849 150.619 196.748 144.173 195.204 137.848C193.642 131.454 192.131 125.046 190.517 118.664C188.979 112.576 187.228 106.525 185.823 100.405C185.182 97.6125 184.355 94.5396 185.038 91.7073C185.602 89.0188 187.208 86.6625 189.504 85.1552C190.79 84.2506 190.064 81.8453 188.359 82.4334L188.357 82.4349Z" fill="black"/>
</g>
<g opacity="0.1">
<path d="M220.208 206.838C220.667 205.719 221.429 204.859 221.891 203.759C222.291 202.692 222.636 201.606 222.925 200.504C223.494 198.639 224.04 196.778 224.451 194.871C225.337 190.833 225.944 186.74 226.266 182.619C226.584 178.4 226.656 174.166 226.483 169.939C226.309 165.729 225.598 161.554 225.478 157.353C225.322 151.966 216.793 153.438 218.428 158.307C220.904 165.683 220.928 174.417 220.715 182.132C220.608 186.011 220.391 189.917 219.972 193.776C219.755 195.773 219.562 197.78 219.289 199.77C219.146 200.815 218.901 201.857 218.797 202.906C218.679 204.086 218.895 205.236 218.702 206.423C218.647 206.622 218.673 206.836 218.775 207.017C218.877 207.197 219.047 207.329 219.247 207.384C219.447 207.44 219.66 207.413 219.84 207.311C220.021 207.209 220.153 207.039 220.208 206.84V206.838Z" fill="black"/>
</g>
<g opacity="0.1">
<path d="M145.228 244.408C140.002 244.277 134.515 246.892 129.974 249.265C124.672 252.035 120.699 256.261 117.455 261.25C110.461 272.007 109.102 285.963 113.531 297.959C114.557 300.741 117.254 302.63 120.288 301.796C122.965 301.06 125.157 297.838 124.125 295.039C120.673 285.689 120.895 274.935 125.687 266.06C127.849 262.057 130.969 258.526 134.125 255.271C137.612 251.672 141.847 250.035 146.087 247.571C146.399 247.377 146.64 247.087 146.775 246.744C146.909 246.402 146.93 246.026 146.834 245.671C146.738 245.316 146.53 245.001 146.241 244.774C145.952 244.546 145.597 244.418 145.23 244.408H145.228Z" fill="black"/>
</g>
<g opacity="0.1">
<path d="M115.067 367.322C113.854 371.444 115.189 376.52 115.268 380.776C115.347 385.053 115.293 389.346 115.25 393.625C115.161 402.42 115.02 411.155 116.305 419.884C117.461 427.739 120.764 434.728 125.08 441.308C128.758 446.916 134.377 452.93 141.007 454.902C144.572 455.963 146.552 450.914 143.491 449.012C140.58 447.203 137.784 445.756 135.324 443.292C133.135 441.071 131.261 438.559 129.756 435.829C128.081 432.845 127.348 429.239 126.666 425.892C125.88 422.09 125.328 418.243 125.011 414.374C124.374 406.32 124.65 398.228 124.585 390.159C124.543 386.034 124.245 381.915 123.694 377.827C123.165 373.826 122.779 369.159 120.004 366.017C118.487 364.298 115.662 365.3 115.067 367.319V367.322Z" fill="black"/>
</g>
</g>
</g>
</g>
<defs>
<clipPath id="clip0_20_26424">
<rect width="500" height="500" fill="white"/>
</clipPath>
</defs>
</svg>
