<svg width="500" height="500" viewBox="0 0 500 500" fill="none" xmlns="http://www.w3.org/2000/svg">
<g clip-path="url(#clip0_20_27728)">
<mask id="mask0_20_27728" style="mask-type:luminance" maskUnits="userSpaceOnUse" x="0" y="0" width="500" height="500">
<path d="M500 0H0V500H500V0Z" fill="white"/>
</mask>
<g mask="url(#mask0_20_27728)">
<path fill-rule="evenodd" clip-rule="evenodd" d="M319.198 452.235C314.944 452.146 310.546 450.687 306.457 449.205C306.429 449.196 306.4 449.185 306.37 449.174L306.356 449.17C306.332 449.161 306.307 449.152 306.283 449.144C305.54 448.876 304.782 448.589 304.039 448.265C303.597 448.072 303.159 447.865 302.741 447.64C301.033 446.746 299.556 445.565 298.799 443.829C297.533 440.907 298.813 437.567 300.083 434.645C310.66 410.368 321.233 386.09 331.801 361.811C340.706 365.183 350.032 367.311 359.517 368.134L359.541 368.125C361.403 371.596 364.254 374.437 367.732 376.287C372.488 378.866 378.039 379.685 383.441 379.444C387.252 379.27 391.025 378.597 394.661 377.44C395.155 379.852 396.135 382.138 397.542 384.159C398.948 386.18 400.751 387.893 402.842 389.194C404.932 390.496 407.265 391.357 409.699 391.728C412.133 392.097 414.617 391.968 416.999 391.346C418.115 391.055 419.206 390.657 420.296 390.259C422.058 389.615 423.817 388.972 425.675 388.787C428.138 388.572 430.606 389.162 432.706 390.467C434.339 391.452 435.755 392.758 436.87 394.305C437.915 395.728 438.67 397.342 439.09 399.057C439.86 402.503 439.524 406.103 438.131 409.346C438.098 409.426 438.064 409.506 438.026 409.586C437.023 411.935 435.594 414.079 433.811 415.909C429.525 420.313 423.616 422.844 417.608 424.143C410.96 425.541 404.097 425.57 397.438 424.229C390.779 422.888 384.462 420.204 378.874 416.342C367.771 408.574 360.031 394.982 358.182 381.56C351.893 399.823 345.009 417.869 337.533 435.697C335.454 440.656 332.988 445.944 328.876 449.167C327.932 449.915 326.897 450.539 325.795 451.025C323.713 451.912 321.459 452.326 319.198 452.235ZM337.493 374.701C338.325 375.542 338.824 376.74 338.799 378.233V378.233C338.788 378.875 338.645 379.508 338.379 380.093C338.113 380.678 337.731 381.203 337.255 381.633C336.779 382.065 336.219 382.393 335.61 382.599C335.002 382.806 334.358 382.885 333.718 382.832C333.077 382.78 332.455 382.596 331.888 382.293C331.322 381.99 330.824 381.574 330.424 381.071C330.025 380.568 329.733 379.989 329.567 379.368C329.4 378.747 329.363 378.099 329.457 377.464C329.879 374.614 332.259 373.249 334.466 373.375C335.571 373.438 336.67 373.871 337.493 374.701ZM331.007 377.694C331.292 375.77 332.847 374.853 334.377 374.94C335.142 374.983 335.861 375.28 336.379 375.804C336.887 376.318 337.251 377.096 337.232 378.206C337.224 378.634 337.129 379.056 336.952 379.445C336.775 379.835 336.52 380.184 336.203 380.471C335.886 380.759 335.513 380.978 335.107 381.115C334.702 381.253 334.273 381.305 333.846 381.27C333.42 381.235 333.005 381.113 332.627 380.911C332.25 380.709 331.918 380.432 331.652 380.097C331.386 379.762 331.191 379.375 331.08 378.962C330.97 378.548 330.945 378.117 331.007 377.694ZM320.06 411.981C319.187 411.344 318.105 411.289 317.184 411.572C316.265 411.855 315.409 412.501 314.956 413.418C314.085 415.182 314.719 417.323 316.006 418.604C316.179 418.777 316.413 418.851 316.639 418.828C316.786 418.926 316.967 418.976 317.157 418.956C317.93 418.876 318.673 418.617 319.329 418.198C319.983 417.78 320.532 417.214 320.929 416.546L320.934 416.538L320.937 416.533L320.943 416.522C321.345 415.79 321.481 414.94 321.327 414.119C321.174 413.297 320.742 412.554 320.103 412.015C320.089 412.003 320.074 411.992 320.06 411.981ZM318.485 416.878C318.042 417.16 317.539 417.337 317.017 417.395C316.166 416.475 315.871 415.105 316.361 414.112C316.598 413.632 317.081 413.243 317.645 413.07C318.197 412.9 318.73 412.962 319.114 413.231C319.464 413.535 319.702 413.949 319.787 414.406C319.873 414.867 319.798 415.344 319.575 415.757C319.303 416.209 318.93 416.593 318.485 416.878ZM327.946 428.668C328.792 428.391 329.712 428.445 330.52 428.821C330.67 428.891 330.788 429.003 330.866 429.136C331.02 429.15 331.171 429.209 331.298 429.317C331.98 429.89 332.418 430.7 332.524 431.585C332.63 432.469 332.396 433.361 331.869 434.079C331.342 434.797 330.561 435.287 329.686 435.452C328.81 435.616 327.906 435.441 327.154 434.962C326.403 434.483 325.862 433.737 325.64 432.874C325.419 432.012 325.534 431.097 325.962 430.316C326.39 429.535 327.099 428.946 327.946 428.668ZM330.117 430.312C330.03 430.304 329.943 430.281 329.859 430.242C329.412 430.034 328.902 430.004 328.434 430.157C327.966 430.311 327.574 430.637 327.337 431.069C327.1 431.502 327.036 432.008 327.159 432.485C327.281 432.962 327.581 433.375 327.996 433.64C328.412 433.905 328.913 434.002 329.397 433.911C329.882 433.82 330.313 433.549 330.605 433.152C330.897 432.754 331.026 432.261 330.968 431.771C330.909 431.282 330.667 430.833 330.289 430.516C330.219 430.457 330.161 430.387 330.117 430.312ZM384.496 382.906C383.639 382.438 382.635 382.316 381.692 382.566C380.748 382.815 379.935 383.416 379.421 384.246C378.907 385.076 378.731 386.07 378.927 387.027C379.124 387.983 379.68 388.827 380.481 389.386C381.281 389.945 382.264 390.176 383.23 390.032C384.196 389.888 385.069 389.379 385.671 388.611C386.273 387.843 386.558 386.873 386.467 385.901C386.376 384.929 385.917 384.029 385.183 383.385C385.07 383.287 384.937 383.226 384.799 383.203C384.73 383.081 384.627 382.978 384.496 382.906ZM383.745 384.281C383.822 384.323 383.904 384.352 383.987 384.366C384.029 384.439 384.083 384.506 384.149 384.564C384.582 384.943 384.853 385.474 384.907 386.047C384.96 386.62 384.793 387.191 384.437 387.644C384.083 388.097 383.568 388.397 382.999 388.482C382.43 388.567 381.849 388.431 381.378 388.101C380.906 387.772 380.579 387.274 380.462 386.71C380.346 386.147 380.45 385.56 380.754 385.071C381.057 384.582 381.535 384.228 382.092 384.081C382.648 383.934 383.239 384.006 383.745 384.281ZM339.021 404.304C338.194 404.864 337.194 405.106 336.203 404.987C335.212 404.869 334.297 404.396 333.626 403.658C332.956 402.919 332.574 401.962 332.552 400.965C332.529 399.967 332.867 398.995 333.504 398.227C334.482 397.047 335.667 396.543 336.843 396.62C337.987 396.694 339.004 397.309 339.714 398.132C340.424 398.955 340.885 400.053 340.844 401.187C340.802 402.353 340.232 403.483 339.021 404.304ZM334.711 399.226C335.413 398.38 336.133 398.144 336.742 398.184C337.384 398.225 338.033 398.582 338.527 399.155C339.021 399.728 339.302 400.451 339.277 401.131C339.254 401.78 338.953 402.456 338.142 403.006L334.711 399.226ZM338.142 403.006C337.629 403.354 337.006 403.505 336.389 403.431C335.773 403.357 335.204 403.064 334.787 402.604C334.37 402.145 334.133 401.55 334.119 400.93C334.105 400.309 334.314 399.705 334.71 399.227L338.142 403.006ZM387.458 407.429C388.669 406.608 389.239 405.478 389.281 404.312C389.322 403.178 388.862 402.08 388.151 401.257C387.442 400.434 386.424 399.819 385.281 399.745C384.104 399.668 382.92 400.172 381.942 401.351C381.305 402.119 380.967 403.092 380.989 404.09C381.012 405.087 381.394 406.044 382.064 406.783C382.735 407.521 383.65 407.994 384.64 408.112C385.632 408.231 386.632 407.989 387.458 407.429ZM385.179 401.309C384.57 401.269 383.85 401.505 383.148 402.351L386.579 406.131L383.148 402.352C382.752 402.83 382.542 403.434 382.556 404.055C382.57 404.675 382.808 405.27 383.224 405.729C383.642 406.189 384.211 406.482 384.827 406.556C385.443 406.63 386.066 406.479 386.579 406.131C387.39 405.581 387.692 404.905 387.715 404.256C387.739 403.576 387.459 402.853 386.965 402.28C386.471 401.707 385.821 401.35 385.179 401.309ZM412.532 415.947C411.706 416.507 410.705 416.749 409.714 416.631C408.723 416.512 407.808 416.04 407.137 415.301C406.467 414.562 406.085 413.606 406.062 412.608C406.04 411.611 406.378 410.639 407.014 409.87H407.015C407.993 408.691 409.177 408.186 410.354 408.263C411.498 408.337 412.515 408.952 413.225 409.775C413.935 410.599 414.395 411.696 414.355 412.831C414.312 413.996 413.742 415.127 412.532 415.947ZM408.221 410.87C408.923 410.023 409.643 409.787 410.252 409.827C410.894 409.869 411.544 410.226 412.038 410.799C412.532 411.371 412.813 412.095 412.788 412.774C412.765 413.423 412.464 414.1 411.652 414.649L408.221 410.87ZM411.652 414.649C411.138 414.997 410.517 415.148 409.9 415.075C409.284 415.001 408.715 414.707 408.298 414.248C407.881 413.788 407.643 413.194 407.629 412.573C407.615 411.953 407.825 411.348 408.221 410.87L411.652 414.649ZM426.439 396.131C427.384 395.889 428.384 396.019 429.233 396.494C429.445 396.464 429.669 396.521 429.846 396.669C430.557 397.266 431.026 398.101 431.164 399.018C431.302 399.936 431.1 400.872 430.596 401.652C430.093 402.431 429.321 402.998 428.428 403.249C427.534 403.499 426.58 403.414 425.745 403.01C425.739 403.007 425.733 403.004 425.727 403.001C425.722 402.998 425.717 402.996 425.712 402.993C424.838 402.518 424.183 401.723 423.883 400.776C423.582 399.828 423.66 398.801 424.1 397.909C424.11 397.891 424.12 397.872 424.131 397.854C424.644 396.998 425.473 396.379 426.439 396.131ZM429.614 399.252C429.542 398.769 429.313 398.325 428.966 397.985C428.81 397.999 428.649 397.967 428.503 397.882C427.997 397.587 427.396 397.504 426.83 397.649C426.273 397.792 425.794 398.145 425.492 398.632C425.243 399.154 425.201 399.751 425.376 400.302C425.552 400.858 425.935 401.324 426.444 401.607C426.932 401.838 427.486 401.885 428.005 401.74C428.531 401.593 428.984 401.258 429.281 400.8C429.577 400.342 429.696 399.792 429.614 399.252Z" fill="black"/>
<path d="M268.177 382.235C256.881 383.542 236.596 383.833 224.309 382.235C221.561 381.877 219.279 380.25 219.279 377.802C219.291 377.172 219.435 376.551 219.7 375.979C219.966 375.407 220.347 374.897 220.82 374.48C221.293 374.063 221.847 373.75 222.448 373.559C223.048 373.367 223.682 373.303 224.309 373.369C247.15 376.421 254.901 375.695 268.177 373.369C270.902 372.892 273.208 375.354 273.208 377.802C273.207 380.25 270.931 381.916 268.177 382.235Z" fill="black" fill-opacity="0.15"/>
<path d="M273.264 367.182C259.792 368.757 235.6 369.107 220.948 367.182C217.671 366.752 214.949 364.794 214.949 361.848C214.949 358.902 217.672 356.071 220.948 356.513C248.187 360.187 257.432 359.312 273.264 356.513C276.514 355.94 279.263 358.902 279.263 361.848C279.263 364.792 276.549 366.798 273.264 367.182Z" fill="black" fill-opacity="0.15"/>
<path d="M274.191 351.837C260.51 353.411 235.942 353.764 221.063 351.837C217.734 351.406 214.969 349.448 214.969 346.502C214.987 345.741 215.163 344.992 215.486 344.302C215.808 343.613 216.271 342.997 216.844 342.496C217.417 341.994 218.088 341.617 218.814 341.389C219.54 341.16 220.306 341.084 221.063 341.167C248.726 344.841 258.113 343.966 274.191 341.167C277.491 340.594 280.285 343.556 280.285 346.502C280.283 349.448 277.527 351.453 274.191 351.837Z" fill="black" fill-opacity="0.15"/>
<path d="M258.434 131.744C220.128 129.356 186.939 161.7 184.303 203.983C181.666 246.267 210.582 282.485 248.886 284.874C262.842 285.706 276.692 281.993 288.361 274.291C286.557 268.931 286.775 262.697 289.564 257.838C288.679 254.389 285.863 251.82 283.798 249.045C282.261 246.98 279.951 244.119 279.979 241.905C279.982 241.658 280.049 241.416 280.174 241.202C280.299 240.989 280.477 240.812 280.692 240.688C280.907 240.565 281.15 240.5 281.397 240.5C281.645 240.499 281.888 240.564 282.102 240.686C284.354 241.871 286.386 243.432 288.11 245.303C288.715 245.97 289.253 246.695 289.717 247.466C289.159 246.317 288.497 245.234 288.178 244.628C286.96 242.312 285.191 240.239 284.157 237.857C283.439 236.206 284.99 235.124 286.233 236.618C286.709 237.118 287.152 237.647 287.561 238.203C287.75 238.314 287.911 238.465 288.033 238.646C289.517 240.81 291.344 242.931 292.542 245.197C292.444 244.824 292.166 244.291 292.045 243.925C290.985 240.74 288.734 237.759 288.696 234.321C288.685 233.28 290.162 232.69 291.069 233.268C294.081 235.192 295.594 238.939 296.408 242.279C296.734 243.612 296.609 245.369 296.694 246.833C299.554 245.039 303.145 243.063 306.34 244.088C307.003 244.301 307.615 245.093 307.326 245.824C306.295 248.428 303.089 249.961 300.403 251.129C303.208 251.411 306.644 252.75 308.437 254.795C317.099 242.358 322.145 227.765 323.017 212.633C325.653 170.348 296.738 134.132 258.434 131.744ZM232.795 220.065C230.429 225.482 226.02 229.5 222.029 233.718C221.911 233.852 221.766 233.959 221.603 234.034C221.441 234.108 221.265 234.148 221.086 234.15C220.908 234.153 220.73 234.117 220.566 234.047C220.402 233.977 220.254 233.873 220.132 233.743C219.599 234.337 219.049 234.915 218.459 235.462C217.127 236.696 215.125 234.703 216.463 233.465C216.592 233.345 216.716 233.22 216.842 233.097C216.688 232.96 216.572 232.786 216.505 232.592C216.439 232.397 216.424 232.188 216.462 231.985C216.163 231.957 215.877 231.842 215.642 231.654C215.407 231.466 215.232 231.214 215.137 230.928C214.905 230.967 214.667 230.948 214.445 230.873C214.222 230.797 214.022 230.667 213.862 230.495C213.702 230.322 213.587 230.113 213.529 229.885C213.47 229.657 213.469 229.419 213.526 229.19C213.597 228.921 213.682 228.658 213.754 228.392C212.869 229.04 211.355 228.478 211.458 227.31C211.416 227.251 211.377 227.189 211.343 227.123C211.258 226.945 211.168 226.769 211.083 226.593C210.293 227.02 209.291 226.499 209.16 225.291C208.877 222.673 207.468 220.372 207.583 217.653C207.653 215.994 209.224 216.108 209.774 217.568V217.572C210.058 217.635 210.311 217.795 210.489 218.024C211.491 219.222 213.009 221.008 213.891 222.301C215.325 218.472 216.685 214.041 219.903 212.074C221.459 211.123 222.876 213.566 221.328 214.512C221.308 214.524 221.289 214.538 221.269 214.551C220.374 216.927 219.784 219.417 218.929 221.811C218.886 221.934 218.842 222.055 218.798 222.176C220.637 219.78 222.689 217.556 224.931 215.531C226.304 214.354 228.308 216.343 226.927 217.528C226.778 217.656 226.633 217.788 226.487 217.919C226.444 218.212 226.308 218.482 226.097 218.69C224.576 220.266 223.722 222.171 222.65 224.085C225.067 221.365 227.662 219.037 231.2 217.991C232.489 217.61 233.255 219.01 232.795 220.065Z" fill="black" fill-opacity="0.15"/>
<path d="M450.54 404.531C449.973 403.785 449.36 403.075 448.705 402.405C448.376 402.062 448.037 401.728 447.694 401.398C444.568 398.397 440.935 395.974 436.962 394.242L436.873 394.308C435.757 392.761 434.341 391.455 432.708 390.469L432.769 390.365C433.968 389.051 435.313 387.88 436.78 386.875C438.262 385.867 440.047 385.401 441.832 385.558C444.228 385.87 446.155 387.61 447.864 389.313C452.605 394.024 456.988 399.083 460.975 404.448C462.025 405.854 463.074 407.351 463.394 409.077C463.765 411.1 463.081 413.151 462.415 415.1C461.55 417.617 460.439 420.406 457.993 421.454C455.753 422.409 453.17 421.548 450.992 420.457C448.743 419.327 446.623 417.957 444.668 416.373L444.89 416.105C446.37 416.538 447.96 416.399 449.344 415.717C450.727 415.035 451.805 413.859 452.365 412.422C452.919 410.61 452.777 408.657 451.966 406.945C451.582 406.09 451.104 405.28 450.54 404.531Z" fill="black" fill-opacity="0.15"/>
<path d="M365.144 259.125L365.008 259.275C362.096 262.455 362.138 267.466 363.724 271.479C365.309 275.492 368.155 278.851 370.531 282.455C371.637 284.135 372.672 286.186 372.347 288.091C372.291 288.427 372.193 288.754 372.055 289.065C371.68 289.867 371.063 290.532 370.291 290.966C369.681 291.327 369.007 291.569 368.306 291.676C367.925 291.738 367.539 291.766 367.153 291.761C365.949 291.724 364.757 291.508 363.615 291.121C360.517 290.166 357.682 288.509 355.33 286.277C353.468 284.523 352.055 282.346 351.209 279.93C349.351 274.462 351.36 267.609 356.446 264.866C355.236 263.168 354.401 261.232 353.998 259.186C353.595 257.14 353.632 255.032 354.107 253.001C355.149 248.974 358.318 245.483 362.331 244.382C366.344 243.281 370.977 244.401 373.326 247.831L373.335 247.845C375.431 246.07 377.904 244.795 380.566 244.117C383.227 243.439 386.009 243.375 388.699 243.932C391.388 244.487 393.916 245.648 396.091 247.326C398.266 249.004 400.03 251.155 401.25 253.616C403.828 258.801 403.772 264.832 404.181 270.605C404.59 276.378 405.739 282.578 409.954 286.549C416.922 293.107 428.74 290.612 436.747 295.85C441.48 298.95 444.227 304.422 445.352 309.974C446.476 315.526 446.175 321.241 446.058 326.901C445.94 332.561 446.015 338.339 447.841 343.697C449.666 349.055 453.518 354.005 458.887 355.798C464.256 357.59 472.597 355.614 474.817 350.406C473.487 354.304 471.22 357.815 468.214 360.632C465.209 363.448 461.557 365.482 457.58 366.555C453.604 367.629 449.425 367.71 445.411 366.79C441.396 365.87 437.669 363.977 434.557 361.278C429.598 356.974 426.61 351.041 424.404 344.768C423.449 342.067 422.64 339.299 421.882 336.577C419.36 327.525 416.83 317.998 410.351 311.19C405.307 305.892 398.288 302.727 392.251 298.61C390.445 297.41 388.744 296.06 387.165 294.573C385.886 293.367 384.739 292.026 383.745 290.574C383.585 290.339 383.433 290.105 383.284 289.864C378.743 282.501 379.139 272.358 384.333 265.418L384.323 265.371C381.577 266.029 378.711 266.002 375.977 265.291C371.91 264.253 368.281 261.938 365.144 259.125Z" fill="black" fill-opacity="0.15"/>
<path d="M369.327 301.75C367.991 298.598 367.452 295.173 367.153 291.762C367.539 291.766 367.925 291.738 368.306 291.677C369.007 291.569 369.681 291.328 370.291 290.966C370.689 293.112 371.302 295.211 372.122 297.233C372.96 299.289 374.404 301.041 376.261 302.258C378.148 303.396 380.613 303.702 382.575 302.7C383.976 301.914 385.078 300.689 385.713 299.213C386.338 297.747 386.8 296.217 387.091 294.65L387.162 294.574C388.739 296.061 390.441 297.412 392.248 298.611L392.238 298.625C391.105 302.761 389.693 307.282 386.047 309.53C383.074 311.37 379.116 311.187 376.035 309.545C372.954 307.902 370.691 304.967 369.327 301.75Z" fill="black"/>
<path d="M312.757 461.536C313.456 461.002 314.102 460.4 314.684 459.739C315.629 458.651 316.459 457.466 317.159 456.206C317.897 454.917 318.552 453.571 319.196 452.235C321.458 452.326 323.713 451.913 325.796 451.026C326.899 450.54 327.934 449.916 328.878 449.168C329.541 452.404 330.167 455.388 330.04 458.69C329.913 461.993 329.409 465.968 326.643 467.775C323.232 470.005 314.664 471.548 309.282 471.722C305.768 471.83 305.518 471.397 302.089 470.611C298.659 469.826 296.001 468.401 292.382 466.208C289.372 464.385 291.192 458.473 293.455 455.778C294.961 453.985 296.325 453.67 298.376 452.531C300.427 451.392 302.459 450 302.724 447.671L302.738 447.639C303.154 447.864 303.594 448.071 304.036 448.264L303.716 449.242C304.041 449.68 304.361 450.122 304.685 450.559C303.686 451.337 302.785 452.234 302.003 453.231C301.492 453.904 301.082 454.647 300.785 455.438C300.337 456.556 300.222 457.78 300.456 458.961C301.081 461.836 304.14 463.756 307.08 463.701C309.155 463.603 311.143 462.844 312.757 461.536Z" fill="black" fill-opacity="0.15"/>
<path d="M306.284 449.144C306.34 449.163 306.401 449.186 306.458 449.205C305.864 449.647 305.268 450.094 304.687 450.559C304.362 450.121 304.042 449.679 303.718 449.242L304.037 448.264C304.783 448.589 305.54 448.876 306.284 449.144Z" fill="black" fill-opacity="0.15"/>
<path d="M157.685 297.407C158.07 311.559 158.574 329.16 158.964 343.306C159.072 347.249 159.096 351.488 156.875 354.749C156.166 355.768 155.285 356.656 154.271 357.374C152.267 358.851 149.807 359.802 147.416 360.597C138.026 363.701 128.254 365.505 118.374 365.961C115.246 366.102 112.065 366.102 109.035 365.316C108.635 365.212 108.235 365.091 107.84 364.954C105.225 364.139 102.948 362.49 101.357 360.259C98.1388 355.437 99.6383 348.987 101.508 343.497C104.875 333.598 109.051 323.992 113.994 314.779C102.472 320.589 93.1805 330.935 90.3013 343.515C89.3977 347.467 88.7247 352.044 85.3143 354.238C83.6763 355.207 81.7695 355.625 79.8758 355.428C78.1971 355.293 76.5336 355.013 74.9029 354.59C72.8893 354.115 70.72 353.517 69.0081 352.422C67.9404 351.772 67.0737 350.839 66.5049 349.726C65.381 347.429 65.9122 344.701 66.5898 342.236C70.195 329.257 77.2706 317.507 87.0549 308.249C96.7987 299.065 110.545 292.027 123.639 289.232L123.634 289.199C124.321 289.046 124.992 288.835 125.643 288.569C130.616 286.692 135.587 284.817 140.557 282.944C142.101 282.309 143.585 281.534 144.989 280.629C146.165 279.888 147.4 279.246 148.682 278.71C151.745 277.496 154.751 276.127 157.678 274.617C160.585 273.12 163.415 271.485 166.167 269.71C168.962 267.908 171.664 265.976 174.274 263.914C184.67 255.732 193.377 245.608 199.91 234.104C201.09 232.006 202.215 229.847 203.805 228.04C205.197 226.356 207.102 225.176 209.23 224.68C209.466 224.634 209.705 224.601 209.945 224.582C213.309 224.304 216.334 226.45 219.021 228.491C220.565 229.597 222.002 230.846 223.311 232.222C224.321 233.3 225.088 234.582 225.56 235.981C226.55 239.063 225.649 242.417 224.487 245.438C219.067 259.528 207.983 270.862 195.384 279.175C190.81 282.166 186.055 284.872 181.147 287.277C173.535 291.051 165.612 294.274 157.685 297.407Z" fill="black"/>
<path d="M214.913 456.53C217.157 459.484 215.572 463.978 212.74 466.382C208.052 470.357 201.278 470.343 195.136 470.122C189.41 469.91 183.684 469.702 177.959 469.497C175.531 469.407 172.915 469.252 171.032 467.714C168.204 465.394 168.219 461.296 168.561 457.655L168.585 457.622C172.259 460.016 176.62 461.13 180.991 460.793C187.502 460.162 193.605 455.185 194.88 448.875L195.152 448.928C199.909 450.433 204.666 451.94 209.423 453.448C211.459 454.093 213.624 454.832 214.913 456.53Z" fill="black"/>
<path d="M145.984 276.17C146.652 277.615 146.041 279.383 144.93 280.527L144.991 280.625C143.587 281.529 142.103 282.304 140.56 282.94C135.587 284.817 130.615 286.692 125.646 288.565C124.995 288.831 124.323 289.042 123.637 289.195C123.34 289.258 123.037 289.293 122.734 289.3C122.229 289.331 121.726 289.235 121.27 289.019C120.813 288.804 120.418 288.476 120.123 288.067C119.492 287.061 119.798 285.681 120.532 284.741C121.327 283.851 122.296 283.132 123.378 282.628C124.168 282.196 124.954 281.743 125.74 281.288V281.282C127.459 280.289 129.177 279.282 130.958 278.469C132.905 277.575 134.968 277.208 136.895 276.154C137.155 276.013 137.408 275.872 137.667 275.738C138.878 274.99 140.216 274.47 141.614 274.204C143.307 273.973 145.265 274.617 145.984 276.17Z" fill="black" fill-opacity="0.15"/>
<path d="M136.753 238.763C136.655 238.902 136.569 239.048 136.492 239.2C136.579 239.054 136.667 238.906 136.753 238.763ZM138.583 236.382C137.862 237.075 137.248 237.871 136.76 238.744C137.365 237.845 138.542 236.563 138.583 236.382ZM138.583 236.377C138.72 236.26 138.861 236.147 139.007 236.039C140.1 235.243 141.688 234.956 142.809 235.724C144.324 236.765 144.188 239.196 143.021 240.612C141.853 242.028 140.019 242.677 138.278 243.268C137.135 243.653 135.986 244.044 134.84 244.429L127.882 246.787C124.739 247.85 121.338 249.116 119.625 251.957C118.251 254.235 118.266 257.133 119.052 259.673C119.839 262.213 121.315 264.465 122.774 266.693C122.855 267.481 122.999 268.262 123.207 269.027L123.15 269.031C123.117 270.561 122.786 272.724 121.457 273.477C120.981 273.727 120.432 273.802 119.907 273.689C119.381 273.575 118.912 273.28 118.582 272.856C118.368 272.556 118.235 272.206 118.196 271.84C118.672 271.186 119.02 270.428 118.869 269.925C118.617 270.17 118.425 270.471 118.308 270.803C118.191 271.136 118.153 271.49 118.196 271.84C117.879 272.299 117.483 272.697 117.025 273.016C116.617 273.253 116.145 273.353 115.675 273.302C115.207 273.25 114.767 273.049 114.421 272.729C114.116 272.395 113.894 271.997 113.77 271.563C113.646 271.129 113.624 270.672 113.705 270.229C113.771 269.809 113.884 269.399 114.044 269.005C114.23 268.844 114.378 268.645 114.479 268.421C114.58 268.197 114.632 267.954 114.63 267.709C114.422 268.131 114.214 268.565 114.042 269.006C113.714 269.357 113.302 269.619 112.845 269.769C112.442 269.86 112.021 269.807 111.653 269.618C111.286 269.43 110.997 269.119 110.836 268.739C110.653 268.069 110.698 267.357 110.963 266.716C111.496 265.018 112.298 263.417 113.339 261.974C112.404 259.052 111.945 255.998 111.979 252.931C112.017 251.038 112.446 249.173 113.239 247.454C114.033 245.735 115.174 244.199 116.59 242.943C119.432 240.459 123.393 238.694 127.143 239.151C126.725 238.081 126.548 236.932 126.622 235.787C126.778 234.648 127.582 233.519 128.721 233.382C130.061 233.218 131.221 234.512 131.412 235.848C131.463 236.206 131.469 236.569 131.43 236.93C131.091 237.854 130.822 238.802 130.626 239.767C131.023 238.862 131.294 237.908 131.43 236.93C131.655 236.351 131.953 235.804 132.316 235.302C133.266 234.009 134.946 233.114 136.483 233.575C137.685 233.931 138.854 235.156 138.583 236.377Z" fill="black"/>
<path d="M48.5634 395.929C50.0446 395.164 51.645 394.656 53.2961 394.428C57.8596 393.811 62.3997 395.341 66.9539 395.994C76.532 397.322 86.245 394.793 93.9591 388.963C97.7409 386.084 100.914 382.483 103.295 378.369C105.675 374.255 107.216 369.71 107.829 364.997L107.843 364.95C108.238 365.086 108.638 365.21 109.038 365.315C112.067 366.1 115.248 366.1 118.376 365.959C128.257 365.504 138.028 363.699 147.419 360.595C149.809 359.8 152.269 358.849 154.274 357.372L154.278 357.381C164.535 377.724 174.65 397.746 184.903 418.092C188.606 425.435 192.337 432.85 194.327 440.83C194.899 442.865 195.165 444.974 195.117 447.087C195.087 447.688 195.009 448.286 194.882 448.874C193.608 455.184 187.505 460.161 180.994 460.792C176.622 461.129 172.261 460.014 168.587 457.621C166.216 456.135 164.117 454.255 162.382 452.06C158.877 447.623 156.845 442.236 154.864 436.944C147.92 418.355 140.5 395.777 133.551 377.189C130.075 392.328 121.441 405.785 109.129 415.255C96.818 424.724 81.595 429.617 66.0716 429.092C61.3904 428.935 56.6669 428.268 52.3617 426.435C49.993 425.438 47.8069 424.054 45.8931 422.338C44.3142 420.92 42.9972 419.235 42.0025 417.36C40.8521 415.137 40.2275 412.679 40.1769 410.175C40.1263 407.672 40.6511 405.191 41.7108 402.922C43.1843 399.915 45.5872 397.463 48.5634 395.929Z" fill="black" fill-opacity="0.15"/>
<path d="M48.5633 395.929C45.5868 397.463 43.1832 399.914 41.7081 402.92C40.6487 405.189 40.124 407.67 40.1746 410.174C40.2251 412.677 40.8496 415.135 41.9998 417.359C42.9947 419.233 44.3117 420.918 45.8904 422.337C43.656 424.078 41.426 425.816 39.2003 427.552C35.2722 430.61 30.8211 433.838 25.8623 433.409C20.8185 432.977 16.5847 428.267 16.4873 423.205C16.3935 418.18 19.7342 413.824 22.9045 409.928C25.7274 406.465 28.5472 403.003 31.3638 399.54C32.9821 397.55 34.7039 395.48 37.0753 394.506C40.7388 392.993 44.8842 394.461 48.5633 395.929Z" fill="black"/>
<path d="M137.5 275.431C136.825 274.66 136.424 273.687 136.361 272.664C136.297 271.641 136.574 270.625 137.148 269.776C137.835 268.802 138.898 268.125 139.5 267.094C140.31 265.706 140.13 263.98 139.881 262.394C138.836 256.26 137.15 250.252 134.851 244.469" stroke="black" stroke-linecap="round" stroke-linejoin="round"/>
<path d="M118.193 271.837C118.232 272.203 118.364 272.553 118.578 272.853C118.909 273.277 119.377 273.572 119.903 273.686C120.428 273.799 120.977 273.725 121.453 273.474C122.784 272.722 123.114 270.557 123.147 269.028" stroke="black" stroke-linecap="round" stroke-linejoin="round"/>
<path d="M118.193 271.837C118.669 271.182 119.017 270.425 118.866 269.922C118.613 270.167 118.421 270.468 118.305 270.8C118.188 271.132 118.15 271.487 118.193 271.837Z" stroke="black" stroke-linecap="round" stroke-linejoin="round"/>
<path d="M114.043 269.004C113.883 269.397 113.77 269.808 113.705 270.228C113.623 270.671 113.645 271.128 113.769 271.561C113.893 271.995 114.116 272.394 114.42 272.728C114.766 273.048 115.206 273.249 115.675 273.301C116.143 273.352 116.616 273.252 117.024 273.014C117.481 272.695 117.878 272.297 118.195 271.838" stroke="black" stroke-linecap="round" stroke-linejoin="round"/>
<path d="M114.043 269.004C114.229 268.843 114.378 268.644 114.479 268.421C114.581 268.197 114.633 267.954 114.631 267.708C114.427 268.129 114.213 268.563 114.043 269.004Z" stroke="black" stroke-linecap="round" stroke-linejoin="round"/>
<path d="M113.343 261.97C112.302 263.414 111.499 265.015 110.966 266.713C110.701 267.354 110.657 268.066 110.84 268.735C111 269.116 111.29 269.427 111.657 269.616C112.024 269.804 112.446 269.857 112.848 269.766C113.305 269.616 113.715 269.354 114.044 269.003" stroke="black" stroke-linecap="round" stroke-linejoin="round"/>
<path d="M131.432 236.927C131.47 236.567 131.464 236.204 131.413 235.845C131.22 234.509 130.063 233.215 128.722 233.38C127.583 233.516 126.779 234.645 126.624 235.784C126.549 236.93 126.727 238.078 127.144 239.148C123.394 238.691 119.436 240.456 116.592 242.94C115.176 244.196 114.035 245.732 113.241 247.452C112.448 249.17 112.018 251.035 111.981 252.928C111.947 255.996 112.406 259.049 113.34 261.971" stroke="black" stroke-linecap="round" stroke-linejoin="round"/>
<path d="M131.432 236.927C131.093 237.851 130.824 238.799 130.627 239.764C131.024 238.859 131.295 237.905 131.432 236.927Z" stroke="black" stroke-linecap="round" stroke-linejoin="round"/>
<path d="M138.584 236.377C138.857 235.158 137.685 233.929 136.486 233.573C134.947 233.111 133.267 234.006 132.319 235.3C131.955 235.802 131.658 236.35 131.434 236.928" stroke="black" stroke-linecap="round" stroke-linejoin="round"/>
<path d="M136.762 238.744C137.365 237.845 138.541 236.561 138.585 236.382" stroke="black" stroke-linecap="round" stroke-linejoin="round"/>
<path d="M136.753 238.763C136.668 238.908 136.579 239.054 136.492 239.2C136.568 239.047 136.655 238.902 136.753 238.763Z" stroke="black" stroke-linecap="round" stroke-linejoin="round"/>
<path d="M136.753 238.763C136.754 238.755 136.757 238.749 136.762 238.744" stroke="black" stroke-linecap="round" stroke-linejoin="round"/>
<path d="M138.583 236.382C137.862 237.075 137.248 237.871 136.76 238.744" stroke="black" stroke-linecap="round" stroke-linejoin="round"/>
<path d="M138.583 236.382V236.377" stroke="black" stroke-linecap="round" stroke-linejoin="round"/>
<path d="M125.692 281.208C124.846 277.45 123.208 273.432 123.245 269.583C123.245 269.395 123.23 269.208 123.202 269.023C122.995 268.258 122.851 267.478 122.77 266.689C121.311 264.464 119.834 262.205 119.048 259.669C118.262 257.133 118.249 254.231 119.621 251.954C121.334 249.112 124.735 247.846 127.878 246.783L134.836 244.426C135.982 244.04 137.133 243.65 138.274 243.264C140.015 242.676 141.845 242.022 143.016 240.608C144.188 239.194 144.318 236.76 142.804 235.72C141.685 234.953 140.099 235.24 139.002 236.035C138.856 236.143 138.715 236.255 138.579 236.374" stroke="black" stroke-linecap="round" stroke-linejoin="round"/>
<path d="M144.93 280.526C146.04 279.383 146.652 277.614 145.984 276.169C145.264 274.617 143.307 273.972 141.613 274.203C140.215 274.47 138.877 274.99 137.666 275.737C137.405 275.873 137.153 276.014 136.894 276.153C134.97 277.207 132.905 277.574 130.957 278.468C129.178 279.282 127.456 280.291 125.739 281.281V281.285C124.953 281.742 124.167 282.194 123.377 282.626C122.295 283.131 121.326 283.85 120.53 284.739C119.797 285.68 119.489 287.058 120.122 288.065C120.417 288.475 120.812 288.802 121.269 289.017C121.725 289.233 122.228 289.329 122.733 289.297C123.036 289.292 123.339 289.257 123.636 289.193C124.322 289.04 124.994 288.829 125.645 288.563C130.617 286.686 135.589 284.811 140.559 282.938C142.103 282.303 143.586 281.528 144.99 280.623C146.166 279.882 147.401 279.24 148.684 278.704C151.746 277.49 154.753 276.121 157.679 274.611C160.587 273.115 163.416 271.479 166.169 269.704C168.964 267.902 171.666 265.97 174.275 263.908C184.671 255.727 193.378 245.603 199.911 234.099C201.092 232.001 202.217 229.841 203.807 228.034C205.198 226.35 207.104 225.17 209.232 224.675C209.467 224.628 209.707 224.595 209.947 224.576C213.311 224.299 216.336 226.444 219.022 228.485C220.567 229.591 222.003 230.84 223.313 232.216C224.322 233.294 225.089 234.576 225.562 235.975C226.551 239.057 225.651 242.412 224.489 245.432C219.069 259.522 207.985 270.856 195.385 279.169C190.811 282.16 186.056 284.866 181.149 287.271C173.532 291.049 165.609 294.272 157.682 297.405C156.651 297.809 155.616 298.219 154.586 298.623" stroke="black" stroke-linecap="round" stroke-linejoin="round"/>
<path d="M157.685 297.396V297.405C158.07 311.558 158.574 329.158 158.964 343.305C159.072 347.247 159.096 351.486 156.875 354.747C156.166 355.767 155.285 356.655 154.271 357.372C152.267 358.85 149.807 359.8 147.416 360.595C138.026 363.699 128.254 365.504 118.374 365.96C115.246 366.101 112.065 366.101 109.035 365.315C108.635 365.211 108.235 365.089 107.84 364.953C105.225 364.138 102.948 362.489 101.357 360.258C98.1388 355.436 99.6383 348.985 101.508 343.495C104.875 333.596 109.051 323.991 113.994 314.777C102.472 320.588 93.1805 330.934 90.3013 343.514C89.3977 347.465 88.7247 352.043 85.3143 354.236C83.6763 355.206 81.7695 355.623 79.8758 355.426C78.1971 355.292 76.5336 355.012 74.9029 354.589C72.8893 354.114 70.72 353.516 69.0081 352.42C67.9404 351.771 67.0737 350.837 66.5049 349.724C65.381 347.428 65.9122 344.699 66.5898 342.234C70.195 329.255 77.2706 317.505 87.0549 308.248C96.7987 299.064 110.545 292.025 123.639 289.231" stroke="black" stroke-linecap="round" stroke-linejoin="round"/>
<path d="M73.4179 366.143C73.3434 368.462 73.4788 370.783 73.8226 373.078C73.921 373.741 74.2642 374.583 74.9278 374.504C75.4408 374.442 75.6903 373.85 75.8221 373.346C76.8976 369.252 77.2585 365.002 76.8898 360.784C77.2679 362.915 77.9788 364.973 78.9971 366.882C79.3215 367.494 79.8158 368.171 80.5122 368.152C80.7721 368.122 81.0179 368.018 81.2195 367.851C81.4205 367.684 81.5689 367.462 81.646 367.212C81.7887 366.707 81.8242 366.178 81.7502 365.658C81.4861 362.227 80.858 358.832 79.8752 355.534" stroke="black" stroke-linecap="round" stroke-linejoin="round"/>
<path d="M73.418 366.143C73.6482 364.789 73.7664 363.418 73.7706 362.045C73.5805 363.404 73.4628 364.772 73.418 366.143Z" stroke="black" stroke-linecap="round" stroke-linejoin="round"/>
<path d="M68.9585 352.5C65.6975 358.125 65.0819 362.338 64.8439 368.84C64.8158 369.654 65.0225 370.726 65.8366 370.816C66.5757 370.895 67.0314 370.044 67.2767 369.338C68.3725 366.176 69.4668 363.013 70.5605 359.849C69.473 363.807 69.0131 367.91 69.1965 372.01C69.2199 372.603 69.3527 373.323 69.9121 373.526C70.6085 373.78 71.2241 372.994 71.5303 372.317C72.4246 370.349 73.059 368.274 73.4168 366.144" stroke="black" stroke-linecap="round" stroke-linejoin="round"/>
<path d="M209.235 224.667C208.183 222.654 207.608 220.426 207.555 218.156C207.536 217.507 207.705 216.684 208.34 216.552C208.853 216.448 209.3 216.891 209.634 217.295C211.079 219.018 212.525 220.74 213.972 222.462C214.14 220.498 214.729 218.594 215.7 216.879C216.671 215.164 218 213.679 219.597 212.525C220.181 212.112 221 211.744 221.573 212.177C222.195 212.646 221.977 213.613 221.705 214.337C220.52 217.474 219.334 220.611 218.148 223.746C219.594 220.624 221.79 217.908 224.542 215.842C224.907 215.537 225.331 215.311 225.788 215.178C226.018 215.117 226.261 215.123 226.488 215.193C226.715 215.264 226.917 215.397 227.073 215.578C227.529 216.194 227.101 217.051 226.677 217.69C224.899 220.377 223.119 223.063 221.338 225.75C223.576 222.877 226.336 220.453 229.472 218.603C229.99 218.254 230.577 218.021 231.194 217.92C231.502 217.875 231.818 217.919 232.102 218.048C232.387 218.176 232.628 218.383 232.799 218.645C233.203 219.384 232.756 220.287 232.304 221.002C229.773 224.985 226.823 228.687 223.506 232.044" stroke="black" stroke-linecap="round" stroke-linejoin="round"/>
<path d="M133.041 247.937C132.072 247.843 131.095 247.875 130.134 248.031C129.619 248.092 129.125 248.273 128.69 248.556C128.257 248.84 127.894 249.22 127.631 249.668C127.368 250.115 127.212 250.617 127.175 251.135C127.139 251.652 127.222 252.171 127.419 252.651C127.778 253.669 128.284 254.629 128.92 255.502C129.903 257.003 130.886 258.502 131.87 260C132.256 260.588 132.656 261.317 132.359 261.957C132.258 262.146 132.115 262.31 131.941 262.435C131.768 262.561 131.568 262.644 131.357 262.681C130.935 262.75 130.506 262.754 130.083 262.695" stroke="black" stroke-linecap="round" stroke-linejoin="round"/>
<path d="M131.776 253.921C131.536 253.328 131.291 252.735 131.047 252.138" stroke="black" stroke-linecap="round" stroke-linejoin="round"/>
<path d="M123.876 256.019C123.659 255.454 123.443 254.891 123.227 254.33" stroke="black" stroke-linecap="round" stroke-linejoin="round"/>
<path d="M130.625 268.143C130.315 268.492 129.921 268.757 129.48 268.913C129.04 269.068 128.567 269.109 128.106 269.033C127.646 268.956 127.212 268.764 126.845 268.475C126.479 268.185 126.191 267.807 126.01 267.377" stroke="black" stroke-linecap="round" stroke-linejoin="round"/>
<path d="M107.829 365C107.216 369.713 105.675 374.258 103.294 378.372C100.913 382.486 97.7403 386.086 93.9591 388.966C86.2445 394.796 76.5315 397.324 66.9539 395.997C62.3997 395.343 57.8596 393.815 53.2961 394.431C51.6446 394.659 50.0441 395.167 48.5631 395.932C45.5867 397.466 43.1832 399.917 41.7079 402.923C40.6485 405.192 40.1238 407.673 40.1744 410.176C40.2249 412.68 40.8494 415.138 41.9996 417.362C42.9945 419.236 44.3114 420.921 45.8902 422.34C47.8038 424.055 49.99 425.44 52.3591 426.437C56.6643 428.272 61.3877 428.94 66.069 429.093C81.5929 429.618 96.8159 424.726 109.127 415.255C121.439 405.785 130.073 392.327 133.549 377.188" stroke="black" stroke-linecap="round" stroke-linejoin="round"/>
<path d="M154.278 357.383C164.534 377.726 174.649 397.747 184.903 418.093C188.605 425.437 192.336 432.852 194.326 440.831C194.898 442.866 195.164 444.975 195.117 447.089C195.086 447.69 195.008 448.288 194.882 448.876C193.607 455.185 187.505 460.163 180.993 460.793C176.622 461.13 172.261 460.016 168.587 457.622C166.216 456.137 164.117 454.256 162.382 452.061C158.876 447.625 156.844 442.238 154.863 436.945C147.919 418.357 140.5 395.779 133.551 377.191" stroke="black" stroke-linecap="round" stroke-linejoin="round"/>
<path d="M168.562 457.656C168.218 461.297 168.204 465.395 171.032 467.715C172.914 469.253 175.53 469.408 177.959 469.498C183.685 469.706 189.411 469.915 195.136 470.123C201.282 470.344 208.055 470.358 212.74 466.382C215.572 463.978 217.158 459.485 214.913 456.531C213.625 454.832 211.46 454.093 209.423 453.45C204.666 451.944 199.909 450.437 195.152 448.928" stroke="black" stroke-linecap="round" stroke-linejoin="round"/>
<path d="M48.5727 395.934C48.5681 395.934 48.5681 395.929 48.5634 395.929C44.8842 394.461 40.7389 392.993 37.0743 394.503C34.7024 395.477 32.9811 397.547 31.3628 399.537C28.5444 403 25.7246 406.463 22.9035 409.925C19.7332 413.821 16.3931 418.177 16.4863 423.202C16.5852 428.265 20.8196 432.974 25.8613 433.407C30.8196 433.835 35.2707 430.608 39.1993 427.55C41.4291 425.809 43.6592 424.071 45.8894 422.337L45.9503 422.29" stroke="black" stroke-linecap="round" stroke-linejoin="round"/>
<path d="M370.324 266.656C370.129 266.445 369.879 266.293 369.603 266.215C369.326 266.136 369.033 266.136 368.757 266.213C368.48 266.291 368.23 266.443 368.034 266.653C367.839 266.863 367.704 267.123 367.647 267.405" stroke="black" stroke-linecap="round" stroke-linejoin="round"/>
<path d="M372.936 277.276C373.391 277.659 373.936 277.92 374.52 278.036C375.103 278.151 375.707 278.115 376.273 277.933C376.839 277.751 377.35 277.428 377.757 276.994C378.164 276.56 378.455 276.03 378.6 275.453" stroke="black" stroke-linecap="round" stroke-linejoin="round"/>
<path d="M374.869 266.402C375.535 266.171 376.254 266.142 376.937 266.318C377.619 266.495 378.234 266.87 378.703 267.395" stroke="black" stroke-linecap="round" stroke-linejoin="round"/>
<path d="M365.747 263.947C366.632 263.674 367.521 263.396 368.403 263.118" stroke="black" stroke-linecap="round" stroke-linejoin="round"/>
<path d="M373.326 247.829C370.978 244.398 366.339 243.279 362.331 244.38C358.323 245.48 355.147 248.971 354.107 252.998C353.632 255.029 353.595 257.137 353.998 259.183C354.401 261.229 355.236 263.166 356.446 264.864C351.36 267.607 349.351 274.457 351.209 279.928C352.055 282.343 353.468 284.52 355.33 286.275C357.683 288.506 360.518 290.164 363.615 291.119C364.757 291.506 365.949 291.721 367.153 291.759C367.539 291.764 367.925 291.735 368.306 291.674C369.008 291.566 369.681 291.325 370.291 290.964C371.063 290.529 371.679 289.865 372.055 289.063C372.193 288.752 372.291 288.425 372.347 288.089C372.672 286.183 371.637 284.131 370.531 282.453C368.155 278.849 365.309 275.49 363.724 271.477C362.139 267.464 362.096 262.453 365.008 259.273" stroke="black" stroke-linecap="round" stroke-linejoin="round"/>
<path d="M363.931 257.995C364.326 258.381 364.731 258.763 365.144 259.125C368.282 261.937 371.91 264.253 375.975 265.292C378.708 266.003 381.574 266.03 384.321 265.373C386.209 264.921 387.977 264.067 389.506 262.869" stroke="black" stroke-linecap="round" stroke-linejoin="round"/>
<path d="M384.33 265.419C379.136 272.358 378.741 282.502 383.281 289.865C383.432 290.105 383.582 290.34 383.742 290.576C384.736 292.028 385.882 293.368 387.163 294.574C388.741 296.061 390.442 297.412 392.249 298.61C398.285 302.728 405.304 305.893 410.348 311.191C416.826 317.999 419.359 327.527 421.879 336.578C422.637 339.302 423.447 342.068 424.401 344.769C426.608 351.041 429.596 356.973 434.554 361.279C437.666 363.978 441.393 365.87 445.408 366.791C449.422 367.711 453.601 367.631 457.578 366.557C461.554 365.483 465.205 363.449 468.211 360.632C471.217 357.817 473.485 354.305 474.815 350.407" stroke="black" stroke-linecap="round" stroke-linejoin="round"/>
<path d="M371.915 249.169C372.362 248.699 372.836 248.256 373.336 247.843C375.432 246.068 377.905 244.793 380.566 244.116C383.228 243.438 386.009 243.375 388.699 243.931C391.389 244.487 393.917 245.648 396.091 247.326C398.266 249.004 400.03 251.155 401.25 253.616C403.828 258.801 403.772 264.832 404.181 270.605C404.59 276.378 405.738 282.578 409.953 286.549C416.922 293.107 428.74 290.612 436.747 295.85C441.48 298.95 444.227 304.422 445.352 309.974C446.476 315.526 446.175 321.242 446.058 326.901C445.94 332.561 446.015 338.339 447.84 343.697C449.665 349.055 453.518 354.005 458.887 355.798C464.257 357.59 472.597 355.614 474.818 350.406" stroke="black" stroke-linecap="round" stroke-linejoin="round"/>
<path d="M372.583 288.134C372.849 289.258 373.442 290.278 374.288 291.066C375.133 291.854 376.192 292.375 377.333 292.562C378.473 292.749 379.642 292.594 380.695 292.118C381.748 291.641 382.636 290.864 383.248 289.884" stroke="black" stroke-linecap="round" stroke-linejoin="round"/>
<path d="M370.277 290.9C370.282 290.923 370.287 290.942 370.291 290.966C370.689 293.111 371.302 295.21 372.122 297.232C372.961 299.288 374.404 301.04 376.261 302.257C378.148 303.395 380.613 303.701 382.575 302.699C383.976 301.913 385.079 300.688 385.713 299.213C386.338 297.746 386.801 296.216 387.091 294.649" stroke="black" stroke-linecap="round" stroke-linejoin="round"/>
<path d="M367.136 291.545C367.14 291.616 367.15 291.691 367.154 291.762C367.451 295.173 367.992 298.597 369.328 301.75C370.692 304.968 372.951 307.899 376.037 309.545C379.123 311.192 383.075 311.368 386.049 309.531C389.694 307.282 391.106 302.761 392.24 298.626" stroke="black" stroke-linecap="round" stroke-linejoin="round"/>
<path d="M355.683 286.341C355.566 286.318 355.448 286.299 355.33 286.276C340.683 283.46 327.286 276.127 317.02 265.307C315.248 263.445 313.585 261.483 312.038 259.431C310.132 256.909 308.312 254.175 305.592 252.562C303.727 251.482 301.57 251.012 299.424 251.216C297.425 251.399 295.49 252.019 293.758 253.034C292.027 254.049 290.539 255.433 289.403 257.088C289.328 257.205 289.253 257.318 289.182 257.435C285.856 262.813 286.331 269.922 289.083 275.613C291.327 280.256 294.889 284.102 298.827 287.482C299.716 288.246 300.619 288.987 301.536 289.703C315.09 300.296 331.036 307.401 347.976 310.394C349.208 310.615 350.446 310.808 351.688 310.983" stroke="black" stroke-linecap="round" stroke-linejoin="round"/>
<path d="M347.977 310.392V310.397C345.344 324.022 338.338 336.415 328.021 345.697C325.417 348.044 322.352 350.815 322.766 354.29C323.165 357.636 326.605 359.649 329.71 360.961C330.397 361.253 331.098 361.534 331.803 361.808C340.708 365.18 350.034 367.308 359.519 368.131" stroke="black" stroke-linecap="round" stroke-linejoin="round"/>
<path d="M399.004 310.373C402.289 317.501 404.246 325.621 402.241 333.21C400.237 340.799 393.42 347.451 385.575 347.295C381.694 347.22 377.986 345.569 374.109 345.357C371.142 345.216 368.196 345.919 365.612 347.385C364.069 348.248 362.688 349.371 361.529 350.706C359.145 353.505 357.812 357.048 357.761 360.723C357.74 361.797 357.836 362.869 358.047 363.923C358.345 365.386 358.847 366.801 359.539 368.124C361.401 371.595 364.252 374.437 367.73 376.287C372.486 378.865 378.038 379.684 383.439 379.443C393.111 379.022 402.367 375.392 409.747 369.126C417.127 362.861 422.211 354.316 424.196 344.84" stroke="black" stroke-linecap="round" stroke-linejoin="round"/>
<path d="M357.678 360.723C352.352 359.12 347.355 356.577 342.924 353.214C342.383 352.801 341.786 352.173 342.03 351.539C342.317 350.782 343.399 350.871 344.171 351.098C347.228 351.997 350.288 352.897 353.349 353.798C349.696 352.402 346.366 350.276 343.563 347.548C343.13 347.177 342.782 346.716 342.542 346.198C342.426 345.938 342.385 345.651 342.424 345.369C342.463 345.087 342.58 344.821 342.763 344.603C343.342 344.015 344.321 344.227 345.097 344.499C349.096 345.933 352.791 348.104 355.99 350.9C353.214 348.256 351.087 345.004 349.775 341.401C349.417 340.423 349.29 339.03 350.25 338.63C351.002 338.318 351.802 338.913 352.4 339.464C355.004 341.882 357.386 344.841 359.993 347.26C359.038 344.225 358.841 341.002 359.42 337.874C359.489 337.373 359.655 336.89 359.91 336.453C360.041 336.237 360.225 336.058 360.445 335.933C360.665 335.808 360.913 335.74 361.166 335.738C361.937 335.78 362.422 336.566 362.751 337.267C364.217 340.437 365.164 343.822 365.558 347.292" stroke="black" stroke-linecap="round" stroke-linejoin="round"/>
<path d="M299.419 251.164C301.886 250.632 304.182 249.496 306.1 247.856C306.9 247.174 307.69 246.19 307.408 245.179C307.291 244.847 307.091 244.551 306.826 244.319C306.562 244.088 306.241 243.928 305.897 243.857C305.205 243.727 304.493 243.743 303.808 243.904C301.261 244.365 298.828 245.316 296.643 246.704C296.796 244.38 296.442 242.051 295.608 239.877C294.773 237.704 293.476 235.737 291.807 234.114C291.12 233.455 290.08 232.83 289.285 233.352C288.419 233.921 288.701 235.238 289.083 236.203C290.494 239.76 291.905 243.318 293.317 246.88C291.694 243.2 289.43 239.837 286.632 236.948C285.996 236.289 284.91 235.654 284.279 236.313C283.766 236.85 284.11 237.729 284.476 238.374C286.509 241.982 288.545 245.589 290.584 249.194C288.838 246.21 286.55 243.578 283.837 241.434C282.84 240.648 281.372 239.933 280.4 240.747C280.141 241 279.955 241.319 279.862 241.669C279.77 242.019 279.773 242.388 279.873 242.737C280.083 243.428 280.418 244.076 280.862 244.647C283.695 248.782 286.524 252.916 289.349 257.049" stroke="black" stroke-linecap="round" stroke-linejoin="round"/>
<path d="M394.648 377.378C394.653 377.397 394.657 377.421 394.662 377.439C395.156 379.851 396.136 382.138 397.542 384.159C398.949 386.179 400.752 387.893 402.842 389.194C404.932 390.495 407.266 391.357 409.7 391.727C412.134 392.097 414.618 391.967 417 391.346C419.922 390.583 422.669 389.087 425.676 388.786C428.14 388.572 430.606 389.161 432.707 390.466C434.34 391.452 435.756 392.758 436.87 394.304C437.916 395.727 438.671 397.342 439.091 399.056C439.861 402.502 439.525 406.102 438.131 409.346C438.098 409.425 438.065 409.505 438.027 409.585C437.024 411.935 435.594 414.078 433.812 415.909C429.526 420.312 423.617 422.843 417.608 424.142C410.961 425.54 404.098 425.57 397.439 424.229C390.779 422.888 384.463 420.204 378.875 416.341C367.771 408.574 360.032 394.982 358.183 381.559C351.893 399.823 345.01 417.869 337.534 435.696C335.454 440.655 332.989 445.943 328.877 449.166C327.933 449.914 326.897 450.539 325.795 451.024C323.712 451.912 321.457 452.324 319.195 452.233C314.941 452.144 310.543 450.685 306.454 449.203C306.398 449.185 306.337 449.161 306.28 449.142C305.537 448.875 304.779 448.587 304.037 448.263C303.594 448.07 303.156 447.863 302.738 447.638C301.03 446.744 299.553 445.563 298.796 443.827C297.53 440.905 298.81 437.565 300.08 434.643C310.657 410.367 321.23 386.089 331.798 361.81C331.836 361.72 331.878 361.63 331.916 361.541" stroke="black" stroke-linecap="round" stroke-linejoin="round"/>
<path d="M302.727 447.671C302.463 450.001 300.426 451.388 298.379 452.531C296.333 453.675 294.964 453.985 293.459 455.778C291.196 458.473 289.375 464.382 292.386 466.208C296.004 468.4 298.662 469.831 302.092 470.611C305.522 471.392 305.771 471.83 309.286 471.722C314.668 471.548 323.235 470.003 326.646 467.775C329.412 465.968 329.916 461.994 330.043 458.69C330.17 455.386 329.544 452.404 328.881 449.168" stroke="black" stroke-linecap="round" stroke-linejoin="round"/>
<path d="M306.537 449.149C306.509 449.167 306.485 449.186 306.458 449.205C305.864 449.647 305.267 450.095 304.687 450.559C303.687 451.337 302.787 452.235 302.005 453.231C301.495 453.904 301.084 454.647 300.787 455.438C300.339 456.556 300.225 457.78 300.458 458.962C301.083 461.836 304.141 463.756 307.082 463.701C309.155 463.603 311.143 462.845 312.755 461.537C313.455 461.003 314.101 460.401 314.683 459.74C315.628 458.652 316.458 457.467 317.158 456.207C317.896 454.918 318.55 453.572 319.195 452.236C319.199 452.222 319.209 452.213 319.213 452.199" stroke="black" stroke-linecap="round" stroke-linejoin="round"/>
<path d="M315.077 464.693C314.306 463.639 313.529 462.59 312.757 461.537C311.35 459.627 309.945 457.715 308.541 455.802C307.257 454.056 305.972 452.308 304.687 450.56C304.363 450.122 304.043 449.68 303.719 449.243" stroke="black" stroke-linecap="round" stroke-linejoin="round"/>
<path d="M297.213 455.27L300.788 455.439C303.371 455.561 305.956 455.682 308.541 455.801C311.411 455.937 314.285 456.072 317.161 456.205C318.411 456.262 319.663 456.323 320.915 456.379" stroke="black" stroke-linecap="round" stroke-linejoin="round"/>
<path d="M432.77 390.365C433.968 389.051 435.314 387.88 436.78 386.875C438.262 385.867 440.047 385.401 441.833 385.558C444.228 385.87 446.155 387.61 447.864 389.313C452.605 394.024 456.988 399.083 460.976 404.448C462.025 405.854 463.074 407.351 463.394 409.077C463.766 411.1 463.082 413.151 462.416 415.1C461.55 417.617 460.44 420.406 457.993 421.454C455.754 422.409 453.171 421.548 450.992 420.457C448.744 419.327 446.624 417.957 444.669 416.373C444.26 416.049 443.855 415.71 443.465 415.362C441.561 413.675 439.848 411.785 438.355 409.726" stroke="black" stroke-linecap="round" stroke-linejoin="round"/>
<path d="M444.89 416.102C446.37 416.534 447.96 416.396 449.344 415.714C450.728 415.032 451.806 413.856 452.365 412.418C452.919 410.607 452.777 408.654 451.966 406.942C451.582 406.087 451.104 405.277 450.54 404.528C449.973 403.782 449.36 403.072 448.705 402.402C448.376 402.058 448.037 401.725 447.694 401.395C444.568 398.394 440.935 395.971 436.962 394.239" stroke="black" stroke-linecap="round" stroke-linejoin="round"/>
<path d="M443.464 415.387V415.358C443.685 412.254 443.925 409.101 444.946 406.161C444.96 406.128 444.97 406.09 444.984 406.057C445.571 404.34 446.491 402.756 447.692 401.394C448.536 400.429 449.564 399.642 450.716 399.08" stroke="black" stroke-linecap="round" stroke-linejoin="round"/>
<path d="M438.12 409.356C438.124 409.352 438.129 409.352 438.134 409.347C441.948 407.011 446.15 405.379 450.54 404.529C451.966 404.255 453.406 404.062 454.854 403.95" stroke="black" stroke-linecap="round" stroke-linejoin="round"/>
<path d="M181.274 287.522C190.877 297.882 201.039 307.715 210.251 318.428C212.843 321.443 215.36 324.525 217.754 327.699C217.754 327.703 217.754 327.703 217.759 327.708" stroke="black" stroke-linecap="round" stroke-linejoin="round"/>
<path d="M317.128 265.203C320.054 261.942 322.407 258.65 325.229 255.356C330.405 248.299 335.11 241.71 339.344 234.185C339.813 233.716 347.812 218.659 350.165 211.132C352.517 203.605 353.929 196.077 353.458 188.079C353.458 181.492 352.99 174.906 351.106 167.849C348.753 157.968 344.519 149.97 339.344 141.032C337.932 138.679 336.051 136.797 334.639 134.445C330.876 129.27 326.641 125.036 321.937 120.799C314.324 114.459 305.748 109.378 296.531 105.747C295.59 105.278 295.119 105.747 294.178 105.278C292.767 104.809 291.826 103.867 290.415 103.396C287.592 102.456 284.769 102.456 282.416 101.044C278.182 99.6324 273.948 99.6324 269.714 98.6912C243.838 95.398 218.432 100.573 195.849 115.629C181.266 125.038 169.503 136.33 161.035 150.914L159.623 152.326C143.626 180.083 139.392 213.958 151.625 243.597C152.093 244.539 161.034 261.476 165.965 269.379" stroke="black" stroke-linecap="round" stroke-linejoin="round"/>
<path d="M275.521 326.198C276.486 323.192 277.691 320.269 279.125 317.456C285.241 307.106 290.887 296.755 298.744 287.586" stroke="black" stroke-linecap="round" stroke-linejoin="round"/>
<path d="M275.51 326.294C268.088 325.405 260.595 325.282 253.148 325.927C245.983 326.549 238.846 325.956 231.671 326.407C227.408 326.676 222.68 326.723 218.441 327.485C218.204 327.527 217.973 327.6 217.754 327.701C217.086 328.087 216.454 328.534 215.868 329.037C215.327 329.454 214.879 329.978 214.551 330.576C214.223 331.175 214.023 331.835 213.963 332.514C213.832 334.075 214.316 335.625 215.313 336.833C216.151 337.741 217.195 338.435 218.357 338.856C219.19 339.213 220.032 339.543 220.874 339.845C229.85 343.063 239.232 343.266 248.49 343.439C257.843 343.613 267.427 343.736 276.309 339.585C276.94 339.298 277.565 338.982 278.184 338.644C280.033 337.642 282.093 335.939 282.299 333.036C282.365 332.051 282.203 331.064 281.824 330.152C281.446 329.24 280.861 328.428 280.116 327.78C278.817 326.739 277.307 326.515 275.839 326.331C275.729 326.318 275.618 326.302 275.51 326.294Z" stroke="black" stroke-linecap="round" stroke-linejoin="round"/>
<path d="M220.77 340.126C219.384 339.762 217.924 339.777 216.545 340.17C215.166 340.562 213.918 341.318 212.93 342.357C211.943 343.398 211.253 344.683 210.932 346.08C210.611 347.478 210.672 348.936 211.107 350.302C212.062 353.299 214.739 355.501 217.665 356.649C217.91 356.743 218.16 356.832 218.409 356.917C221.132 357.835 224.054 358.051 226.929 358.229C238.29 358.94 249.671 359.194 261.071 358.992C265.837 358.912 270.753 358.71 275.18 357.065C275.907 356.797 276.619 356.488 277.311 356.138C280.525 354.51 283.427 351.645 283.794 348.065C284.211 343.929 280.565 339.841 276.408 339.799" stroke="black" stroke-linecap="round" stroke-linejoin="round"/>
<path d="M218.583 356.8C218.526 356.837 218.465 356.879 218.409 356.917C216.263 358.375 214.094 359.9 212.603 362.021C211.074 364.199 210.392 367.173 211.587 369.548C212.518 371.2 214.042 372.436 215.85 373.006C217.517 373.536 219.245 373.849 220.992 373.938C221.119 373.948 221.246 373.962 221.373 373.971C238.258 375.439 255.271 376.549 272.142 374.893C272.403 374.865 272.655 374.841 272.914 374.813C274.715 374.671 276.491 374.298 278.197 373.703C280.165 373.02 281.82 371.648 282.855 369.84C284.148 367.337 283.636 364.157 282.031 361.847C280.427 359.537 277.877 358.013 275.205 357.124" stroke="black" stroke-linecap="round" stroke-linejoin="round"/>
<path d="M220.977 374.085C221.015 378.107 221.988 382.44 225.061 385.028C227.549 387.117 230.941 387.684 234.164 388.086C239.338 388.73 244.538 389.134 249.765 389.295C254.051 389.426 258.463 389.375 262.445 387.771C265.12 386.664 267.478 384.91 269.308 382.666C271.137 380.423 272.38 377.76 272.926 374.917" stroke="black" stroke-linecap="round" stroke-linejoin="round"/>
<path d="M372.445 268.746C372.119 269.694 371.793 270.641 371.467 271.589C371.324 271.92 371.261 272.28 371.285 272.641C371.338 272.929 371.497 273.187 371.731 273.363C371.964 273.54 372.256 273.623 372.548 273.595" stroke="black" stroke-linecap="round" stroke-linejoin="round"/>
<path d="M309.609 271.911L307.63 265.431" stroke="black" stroke-opacity="0.15" stroke-linecap="round" stroke-linejoin="round"/>
<path d="M312.233 268.164L304.31 269.466L304.604 269.565" stroke="black" stroke-opacity="0.15" stroke-linecap="round" stroke-linejoin="round"/>
<path d="M321.719 277.411L316.908 273.152C316.778 275.475 316.648 277.798 316.519 280.12L321.623 277.66" stroke="black" stroke-opacity="0.15" stroke-linecap="round" stroke-linejoin="round"/>
<path d="M318.585 295.469L317.901 288.134C317.99 287.973 318.271 288.239 318.115 288.336" stroke="black" stroke-opacity="0.15" stroke-linecap="round" stroke-linejoin="round"/>
<path d="M314.271 293.338L321.29 291.336" stroke="black" stroke-opacity="0.15" stroke-linecap="round" stroke-linejoin="round"/>
<path d="M330.391 299.647L333.45 294.169C334.348 296.193 335.246 298.217 336.142 300.241L330.271 299.393L330.708 299.139" stroke="black" stroke-opacity="0.15" stroke-linecap="round" stroke-linejoin="round"/>
<path d="M347.931 302.557L353.486 299.046C353.391 299.277 352.95 299.132 353.012 298.89C353.074 298.648 353.533 298.734 353.502 298.98" stroke="black" stroke-opacity="0.15" stroke-linecap="round" stroke-linejoin="round"/>
<path d="M352.616 304.291C351.509 301.579 350.402 298.867 349.295 296.155" stroke="black" stroke-opacity="0.15" stroke-linecap="round" stroke-linejoin="round"/>
<path d="M361.517 308.038C361.698 307.948 361.902 307.916 362.101 307.949C362.299 307.982 362.483 308.077 362.624 308.221C362.765 308.364 362.857 308.549 362.887 308.749C362.916 308.948 362.881 309.152 362.787 309.33C362.454 311.398 362.122 313.466 361.79 315.534C360.724 313.598 358.452 312.039 357.558 310.175C356.467 307.898 359.784 308.308 361.517 308.038Z" stroke="black" stroke-opacity="0.15" stroke-linecap="round" stroke-linejoin="round"/>
<path d="M392.24 320.52C390.588 319.158 389.017 317.701 387.536 316.154L393.577 314.575C393.103 316.638 392.629 318.701 392.155 320.765" stroke="black" stroke-opacity="0.15" stroke-linecap="round" stroke-linejoin="round"/>
<path d="M364.802 328.698C364.747 326.041 364.691 323.385 364.636 320.729" stroke="black" stroke-opacity="0.15" stroke-linecap="round" stroke-linejoin="round"/>
<path d="M360.086 325.308L367.888 323.965" stroke="black" stroke-opacity="0.15" stroke-linecap="round" stroke-linejoin="round"/>
<path d="M391.266 338.622L388.854 331.178" stroke="black" stroke-opacity="0.15" stroke-linecap="round" stroke-linejoin="round"/>
<path d="M385.957 336.556L394.254 333.223" stroke="black" stroke-opacity="0.15" stroke-linecap="round" stroke-linejoin="round"/>
<path d="M378.333 340.997L375.898 335.36C374.968 337.077 374.037 338.796 373.106 340.513L378.513 341.265" stroke="black" stroke-opacity="0.15" stroke-linecap="round" stroke-linejoin="round"/>
<path d="M348.582 327.847L352.933 332.984C350.637 333.65 348.69 334.82 346.584 335.859C346.539 334.558 349.263 328.652 348.582 327.847Z" stroke="black" stroke-opacity="0.15" stroke-linecap="round" stroke-linejoin="round"/>
<path d="M337.59 354.909C336.8 352.368 336.009 349.827 335.219 347.286" stroke="black" stroke-opacity="0.15" stroke-linecap="round" stroke-linejoin="round"/>
<path d="M332.347 353.406C334.666 351.958 336.985 350.511 339.305 349.063" stroke="black" stroke-opacity="0.15" stroke-linecap="round" stroke-linejoin="round"/>
<path d="M391.132 366.718L386.11 361.145" stroke="black" stroke-opacity="0.15" stroke-linecap="round" stroke-linejoin="round"/>
<path d="M385.167 367.38C387.269 365.552 389.369 363.723 391.469 361.893" stroke="black" stroke-opacity="0.15" stroke-linecap="round" stroke-linejoin="round"/>
<path d="M403.274 350.689L408.879 355.097C406.875 355.874 404.811 356.92 402.727 357.411C402.174 355.637 403.064 352.6 403.274 350.689Z" stroke="black" stroke-opacity="0.15" stroke-linecap="round" stroke-linejoin="round"/>
<path d="M415.388 337.166C414.992 335.064 414.597 332.962 414.202 330.86" stroke="black" stroke-opacity="0.15" stroke-linecap="round" stroke-linejoin="round"/>
<path d="M411.406 335L418.214 332.84" stroke="black" stroke-opacity="0.15" stroke-linecap="round" stroke-linejoin="round"/>
<path d="M287.396 270.688C289.251 266.283 292.48 262.596 296.602 260.176C300.724 257.757 305.516 256.734 310.267 257.26" stroke="black" stroke-linecap="round" stroke-linejoin="round"/>
<path d="M379.935 346.293C374.464 348.913 370.221 353.551 368.097 359.233C365.974 364.915 366.135 371.198 368.547 376.765" stroke="black" stroke-linecap="round" stroke-linejoin="round"/>
<path d="M203.959 235.873C203.795 238.431 203.632 240.99 203.469 243.549C204.52 243.051 208.989 241.593 208.951 240.458C208.896 238.847 203.864 237.344 203.959 235.873Z" stroke="black" stroke-opacity="0.15" stroke-linecap="round" stroke-linejoin="round"/>
<path d="M201.81 262.804C202.376 260.358 202.944 257.913 203.512 255.468" stroke="black" stroke-opacity="0.15" stroke-linecap="round" stroke-linejoin="round"/>
<path d="M206.119 260.228L200.035 257.442" stroke="black" stroke-opacity="0.15" stroke-linecap="round" stroke-linejoin="round"/>
<path d="M172.08 276.08L172.686 282.942C172.686 281.592 176.617 279.237 177.217 277.876C175.668 277.055 173.754 276.638 172.08 276.08Z" stroke="black" stroke-opacity="0.15" stroke-linecap="round" stroke-linejoin="round"/>
<path d="M148.959 288.215C148.515 288.891 148.356 289.714 148.514 290.507C148.673 291.299 149.137 291.998 149.806 292.452C150.509 292.853 151.337 292.977 152.126 292.8C152.916 292.624 153.612 292.159 154.077 291.497C156.48 287.867 151.473 284.767 148.959 288.215Z" stroke="black" stroke-opacity="0.15" stroke-linecap="round" stroke-linejoin="round"/>
<path d="M144.692 320.012L141.436 314.253C140.485 316.336 139.534 318.419 138.582 320.503L144.644 319.991L144.554 319.566" stroke="black" stroke-opacity="0.15" stroke-linecap="round" stroke-linejoin="round"/>
<path d="M148.012 341.354C146.222 339.549 144.431 337.743 142.639 335.938" stroke="black" stroke-opacity="0.15" stroke-linecap="round" stroke-linejoin="round"/>
<path d="M147.628 334.95C146.156 337.399 144.684 339.849 143.213 342.299" stroke="black" stroke-opacity="0.15" stroke-linecap="round" stroke-linejoin="round"/>
<path d="M130.469 305.631L130.169 305.977L125.402 301.045" stroke="black" stroke-opacity="0.15" stroke-linecap="round" stroke-linejoin="round"/>
<path d="M130.122 300.304C128.406 302.352 126.689 304.4 124.972 306.446" stroke="black" stroke-opacity="0.15" stroke-linecap="round" stroke-linejoin="round"/>
<path d="M114.314 342.008C115.668 343.124 117.947 342.539 118.846 341.033C120.043 339.033 119.015 335.463 116.263 335.955C113.721 336.41 112.156 340.23 114.314 342.008Z" stroke="black" stroke-opacity="0.15" stroke-linecap="round" stroke-linejoin="round"/>
<path d="M98.3565 309.993C98.6461 310.567 99.0992 311.043 99.6586 311.362C100.297 311.744 101.06 311.863 101.784 311.694C104.917 310.888 104.264 307.163 101.915 305.965C99.1377 304.549 97.0091 307.255 98.3565 309.993Z" stroke="black" stroke-opacity="0.15" stroke-linecap="round" stroke-linejoin="round"/>
<path d="M83.8751 335.955C82.8163 334.019 81.7574 332.082 80.698 330.146C79.7256 332.24 78.7538 334.334 77.7814 336.427L83.4548 335.641" stroke="black" stroke-opacity="0.15" stroke-linecap="round" stroke-linejoin="round"/>
<path d="M135.203 285.219C140.047 310.584 126.996 336.834 131.843 362.196" stroke="black" stroke-opacity="0.15" stroke-linecap="round" stroke-linejoin="round"/>
<path d="M125.672 288.5L123.689 282.851" stroke="black" stroke-linecap="round" stroke-linejoin="round"/>
<path d="M129.531 287.323C128.802 285.224 128.073 283.124 127.344 281.024" stroke="black" stroke-linecap="round" stroke-linejoin="round"/>
<path d="M133.209 285.654L130.973 279.372" stroke="black" stroke-linecap="round" stroke-linejoin="round"/>
<path d="M138.409 284.033C137.752 281.651 137.095 279.269 136.438 276.887" stroke="black" stroke-linecap="round" stroke-linejoin="round"/>
<path d="M143.063 282.04L140.661 275.093" stroke="black" stroke-linecap="round" stroke-linejoin="round"/>
<path d="M162.803 424.792L161.559 433.447C161.559 432.529 166.751 432.999 166.746 431.171C166.741 429.58 163.666 426.182 162.803 424.792Z" stroke="black" stroke-linecap="round" stroke-linejoin="round"/>
<path d="M182.017 423.715L175.096 425.602C175.871 426.4 179.169 430.775 180.22 430.607C181.302 430.433 181.796 424.823 182.017 423.715Z" stroke="black" stroke-linecap="round" stroke-linejoin="round"/>
<path d="M164.153 393.305L157.921 393.663C159.576 395.527 161.394 398.438 163.49 399.712C163.639 399.195 164.086 393.305 164.153 393.305Z" stroke="black" stroke-linecap="round" stroke-linejoin="round"/>
<path d="M156.053 369.222L148.59 372.076C149.892 372.857 154.151 376.428 155.591 376.166C157.404 375.836 155.026 369.564 156.053 369.222Z" stroke="black" stroke-linecap="round" stroke-linejoin="round"/>
<path d="M148.933 389.15L144.063 387.5C144.498 388.606 145.465 392.917 146.552 393.39C148.111 394.068 148.421 388.971 148.933 389.15Z" stroke="black" stroke-linecap="round" stroke-linejoin="round"/>
<path d="M118.74 378.042C117.66 379.344 116.58 380.646 115.501 381.948C115.852 381.48 119.703 384.657 120.598 383.884C121.29 383.286 119.067 378.906 118.74 378.042Z" stroke="black" stroke-linecap="round" stroke-linejoin="round"/>
<path d="M119.471 371.714L123.137 367.328L116.33 367.544C117.461 368.963 118.592 370.382 119.724 371.802C119.702 371.603 119.68 371.404 119.659 371.205" stroke="black" stroke-linecap="round" stroke-linejoin="round"/>
<path d="M107.204 391.131L110.802 387.666L104.844 385.601C105.427 387.549 106.011 389.497 106.594 391.444" stroke="black" stroke-linecap="round" stroke-linejoin="round"/>
<path d="M107.156 397.789L104.147 400.758C105.171 401.743 106.557 403.648 107.886 404.049C107.917 402.005 107.415 399.828 107.156 397.789Z" stroke="black" stroke-linecap="round" stroke-linejoin="round"/>
<path d="M80.6227 410.224L76.0519 412.082C77.4868 413.593 79.129 416.031 80.9149 417.013C81.2446 414.889 80.7467 412.386 80.6227 410.224Z" stroke="black" stroke-linecap="round" stroke-linejoin="round"/>
<path d="M58.1449 408.306C56.7137 406.829 55.2824 405.352 53.8517 403.874C53.5527 406.11 53.2538 408.347 52.9553 410.583C55.0032 410.331 56.9881 409.704 58.8105 408.735L58.2209 408.234" stroke="black" stroke-linecap="round" stroke-linejoin="round"/>
<path d="M237.709 325.741C242.697 282.124 247.69 238.45 249.198 194.576C249.488 186.131 249.544 177.232 245.466 169.83C241.389 162.429 231.699 157.429 224.227 161.373C219.055 164.103 216.426 170.467 217.156 176.269C217.887 182.071 221.514 187.222 226.111 190.835C230.708 194.448 236.225 196.69 241.78 198.515C256.46 203.329 271.872 205.526 287.312 205.006C293.536 204.794 300.01 204.051 305.25 200.687C310.49 197.324 314.074 190.655 312.083 184.754C310.137 178.984 303.308 175.803 297.299 176.791C291.29 177.778 286.257 182.155 283.09 187.358C279.923 192.56 278.35 198.555 276.944 204.477C267.543 243.974 263.383 284.535 264.57 325.117" stroke="black" stroke-linecap="round" stroke-linejoin="round"/>
<path d="M128.637 182.089C117.505 182.818 106.373 183.546 95.2407 184.273" stroke="black" stroke-linecap="round" stroke-linejoin="round"/>
<path d="M138.574 140.577C115.862 117.574 92.1184 95.6527 67.3439 74.8152" stroke="black" stroke-linecap="round" stroke-linejoin="round"/>
<path d="M177.545 97.1506C173.95 92.1084 170.935 86.6767 168.558 80.9574" stroke="black" stroke-linecap="round" stroke-linejoin="round"/>
<path d="M229.857 81.2741C228.359 63.9022 225.96 46.6196 222.669 29.4963" stroke="black" stroke-linecap="round" stroke-linejoin="round"/>
<path d="M286.627 86.799L291.983 73.7959" stroke="black" stroke-linecap="round" stroke-linejoin="round"/>
<path d="M331.009 106.176L380.493 41.2798" stroke="black" stroke-linecap="round" stroke-linejoin="round"/>
<path d="M355.885 139.711C361.301 135.759 367.107 132.37 373.213 129.598" stroke="black" stroke-linecap="round" stroke-linejoin="round"/>
<path d="M375.125 192.686L459.385 182.326" stroke="black" stroke-linecap="round" stroke-linejoin="round"/>
<path d="M56.4169 173.177C58.4544 175.653 59.6851 178.693 59.9435 181.889C60.2013 185.084 59.4747 188.282 57.8607 191.053C56.668 193.011 54.944 194.746 52.7653 195.455C50.5866 196.165 47.9215 195.642 46.5205 193.827C45.1195 192.013 45.507 188.942 47.5372 187.876C49.2559 186.973 51.509 187.742 52.7419 189.243C53.9747 190.744 54.3487 192.785 54.3133 194.726C54.2091 200.318 51.1273 205.414 47.6283 209.778C44.1294 214.141 40.0835 218.142 37.4596 223.081C35.6383 226.562 34.5727 230.388 34.3327 234.308C34.0927 238.229 34.6837 242.157 36.0669 245.833" stroke="black" stroke-opacity="0.15" stroke-linecap="round" stroke-linejoin="round"/>
<path d="M64.9367 257.423C61.9325 251.213 58.9289 245.003 55.9263 238.794" stroke="black" stroke-linecap="round" stroke-linejoin="round"/>
<path d="M52.1029 253.386L69.2633 240.024" stroke="black" stroke-linecap="round" stroke-linejoin="round"/>
<path d="M150.875 49.734C145.362 47.1594 139.359 45.8002 133.274 45.7485" stroke="black" stroke-linecap="round" stroke-linejoin="round"/>
<path d="M144.543 41.0935C143.216 45.631 141.887 50.1692 140.558 54.7079" stroke="black" stroke-linecap="round" stroke-linejoin="round"/>
<path d="M399.375 78.3225C397.041 81.7371 394.675 85.2163 393.448 89.1657C392.22 93.1152 392.28 97.6756 394.593 101.105C396.907 104.534 401.826 106.294 405.427 104.263C409.027 102.231 409.662 96.1428 406.116 94.0147C403.001 92.1459 398.624 94.2449 397.165 97.572C395.707 100.899 396.562 104.834 398.267 108.041C400.137 111.558 402.931 114.479 405.616 117.423C408.302 120.366 410.958 123.451 412.462 127.141C413.965 130.83 414.148 135.275 412 138.63C409.852 141.986 405.004 143.654 401.627 141.542" stroke="black" stroke-linecap="round" stroke-linejoin="round"/>
<path d="M441.96 117.647C443.62 112.5 445.281 107.352 446.942 102.205" stroke="black" stroke-linecap="round" stroke-linejoin="round"/>
<path d="M450.781 112.467L433.967 104.245" stroke="black" stroke-linecap="round" stroke-linejoin="round"/>
<path d="M439.159 244.246C441.446 238.089 443.733 231.932 446.021 225.773" stroke="black" stroke-linecap="round" stroke-linejoin="round"/>
<path d="M449.125 238.743L433.411 229.874" stroke="black" stroke-linecap="round" stroke-linejoin="round"/>
<path d="M298.512 369.725L307.981 357.772" stroke="black" stroke-linecap="round" stroke-linejoin="round"/>
<path d="M306.558 368.626L297.615 359.139" stroke="black" stroke-linecap="round" stroke-linejoin="round"/>
<path d="M192.303 351.815L188.317 342.85" stroke="black" stroke-linecap="round" stroke-linejoin="round"/>
<path d="M185.235 351.099L193.256 343.182" stroke="black" stroke-linecap="round" stroke-linejoin="round"/>
<path d="M39.2451 107.6L46.2472 114.152L55.33 112.075L51.591 120.786L56.5367 129.069L47.2238 127.902L41.1977 135.097L39.1811 125.664L30.5107 121.829L38.5774 117.167L39.2451 107.6Z" stroke="black" stroke-linecap="round" stroke-linejoin="round"/>
<path d="M439.659 48.7118L438.212 58.1918L445.061 64.5095L435.76 66.3496L431.724 75.1116L427.423 66.7694L418.08 65.8663L424.722 58.8704L422.984 49.5503L431.39 53.5689L439.659 48.7118Z" fill="black" fill-opacity="0.15" stroke="black" stroke-linecap="round" stroke-linejoin="round"/>
<path d="M387.335 209.465L386.206 216.859L391.548 221.787L384.294 223.222L381.146 230.056L377.792 223.549L370.504 222.845L375.685 217.389L374.329 210.119L380.886 213.254L387.335 209.465Z" fill="black" fill-opacity="0.15" stroke="black" stroke-linecap="round" stroke-linejoin="round"/>
<path d="M100.833 207.057L105.149 212.963L111.506 212.54L108.326 218.718L111.112 225.681L104.83 223.594L100.195 228.32L99.4938 220.853L93.8428 216.81L99.6907 214.282L100.833 207.057Z" fill="black" fill-opacity="0.15" stroke="black" stroke-linecap="round" stroke-linejoin="round"/>
<path d="M53.6601 296.652L43.886 295.781" stroke="black" stroke-linecap="round" stroke-linejoin="round"/>
<path d="M49.6011 302.483C48.5942 298.864 47.586 295.244 46.5767 291.625" stroke="black" stroke-linecap="round" stroke-linejoin="round"/>
<g opacity="0.1">
<path d="M45.3435 403.404C47.531 400.17 52.2642 400.728 55.4434 401.69C59.3731 402.955 63.4242 403.807 67.5304 404.231C75.5372 404.932 83.5721 403.158 90.7903 399.709C100.952 394.684 108.908 386.094 113.138 375.576C114.551 372.138 116.347 367.741 115.355 364.024C114.355 360.274 109.598 360.118 107.591 363.009C105.716 365.712 105.523 369.641 104.216 372.68C102.902 375.738 101.197 378.613 99.1429 381.233C94.7299 386.831 88.7653 391.004 81.9939 393.233C74.6226 395.628 67.5898 395.329 60.0356 394.251C53.2023 393.276 44.9211 394.34 41.6336 401.236C41.3697 401.726 41.3064 402.3 41.4572 402.836C41.608 403.373 41.961 403.829 42.4419 404.111C42.9228 404.392 43.494 404.475 44.0352 404.344C44.5765 404.212 45.0455 403.875 45.3435 403.404Z" fill="black"/>
</g>
<g opacity="0.1">
<path d="M134.289 377.102C134.269 378.067 134.041 378.793 134.149 379.746C134.314 380.588 134.541 381.417 134.826 382.226C135.318 384.046 135.735 385.887 136.256 387.699C137.298 391.317 138.524 394.91 139.774 398.462C142.166 405.262 144.713 412.019 147.228 418.775C149.697 425.403 152.374 431.968 155.177 438.462C157.854 444.663 160.47 451.18 164.791 456.446C168.673 461.177 174.947 464.805 181.011 461.813C182.44 461.107 184.11 459.722 183.086 457.973C182.467 456.916 181.373 456.91 180.333 456.627C178.817 456.214 177.588 455.365 176.264 454.568C170.813 451.287 168.511 445.246 165.925 439.667C162.939 433.223 160.292 426.632 157.703 420.019C154.704 412.357 151.505 404.767 148.36 397.164C146.846 393.503 145.216 389.885 143.529 386.301C142.656 384.448 141.672 382.662 140.717 380.849C140.322 380.097 139.963 379.318 139.543 378.579C138.837 377.336 138.185 376.919 137.206 375.896C136.159 374.8 134.319 375.66 134.29 377.104L134.289 377.102Z" fill="black"/>
</g>
<g opacity="0.1">
<path d="M289.712 255.673C286.581 262.457 286.646 270.376 289.459 277.256C292.503 284.704 299.091 290.302 305.632 294.635C319.743 303.984 336.139 310.455 353.041 311.927L348.755 306.302C346.249 315.427 342.287 324.088 337.023 331.951C334.516 335.68 331.748 339.227 328.738 342.563C325.763 345.907 322.809 349.523 322.124 354.088C321.764 356.498 322.727 358.943 325.278 359.644C327.402 360.228 330.481 358.919 330.834 356.49C331.448 352.268 334.688 349.483 337.321 346.38C340.394 342.77 343.195 338.938 345.701 334.914C350.764 326.74 354.676 317.907 357.326 308.664C358.193 305.638 355.831 303.342 353.039 303.037C338.866 301.484 325.259 295.13 313.149 287.886C302.889 281.748 288.769 270.806 292.878 257.012C293.426 255.174 290.548 253.862 289.71 255.676L289.712 255.673Z" fill="black"/>
</g>
<g opacity="0.1">
<path d="M358.779 355.157C352.802 359.144 357.716 368.458 361.561 372.151C366.775 377.158 374.237 379.675 381.346 380.084C395.895 380.922 409.897 373.366 417.841 361.313C422.351 354.47 424.404 347.212 424.645 339.074C424.738 335.96 420.19 335.472 419.322 338.353C415.492 351.053 406.96 364.579 393.835 369.049C387.357 371.295 380.334 371.431 373.773 369.438C370.55 368.491 367.553 366.898 364.967 364.755C362.115 362.284 361.946 358.809 360.416 355.585C360.254 355.312 359.992 355.114 359.686 355.034C359.379 354.953 359.053 354.997 358.779 355.156V355.157Z" fill="black"/>
</g>
<g opacity="0.1">
<path d="M388.537 262.305C383.377 262.763 379.808 267.253 378.324 271.962C377.561 274.528 377.34 277.224 377.676 279.88C378.011 282.536 378.894 285.093 380.271 287.389C386.668 298.251 399.339 301.617 407.695 310.358C422.313 325.647 418.253 352.862 437.941 364.473C443.168 367.555 449.254 368.374 455.189 367.364C461.273 366.329 467.814 363.488 471.105 358.018C471.769 356.915 470.651 355.244 469.341 355.723C464.815 357.375 460.709 360.042 456.02 361.255C451.284 362.48 446.196 362.26 441.798 359.992C433.843 355.889 429.535 347.183 426.906 339.024C423.859 329.568 422.349 319.519 417.921 310.549C415.647 305.904 412.373 301.819 408.333 298.59C404.075 295.215 399.229 292.684 394.863 289.459C391.05 286.643 386.923 282.824 385.925 277.966C385.51 275.944 385.686 273.846 386.432 271.921C387.255 269.856 388.923 268.611 390.574 267.224C392.426 265.667 390.968 262.09 388.537 262.305H388.537Z" fill="black"/>
</g>
</g>
</g>
<defs>
<clipPath id="clip0_20_27728">
<rect width="500" height="500" fill="white"/>
</clipPath>
</defs>
</svg>
