<svg width="500" height="500" viewBox="0 0 500 500" fill="none" xmlns="http://www.w3.org/2000/svg">
<path fill-rule="evenodd" clip-rule="evenodd" d="M299.774 149.468C299.774 149.468 284.697 138.245 294.319 129.261C298.901 124.99 302.539 125.726 305.087 127.676L306.273 127.263C312.937 132.906 327.073 139.413 353.999 131.725C355.535 140.29 358.566 145.616 361.739 148.928L361.689 148.978C360.025 151.484 358.357 153.994 356.63 156.462C356.63 156.462 359.589 160.52 359.508 165.181L359.771 165.186C359.771 165.186 385.761 168.076 398.274 150.755C410.787 133.434 388.97 106.493 388.97 106.493C388.97 106.493 356.244 68.0038 314.214 76.6632C272.184 85.3224 248.44 120.378 248.44 120.378C248.44 120.378 222.768 155.565 211.542 162.622C207.493 165.167 199.023 169.545 188.778 174.842C170.61 184.234 146.861 196.511 132.296 206.561C109.516 222.278 62.0802 256.602 58.8214 290.276C55.6655 322.887 64.0057 327.705 74.7688 333.924C75.12 334.126 75.4738 334.331 75.8299 334.538C95.6846 346.083 164.103 343.598 207.505 342.021C212.668 341.833 217.478 341.659 221.809 341.522L221.918 340.949C167.88 330.69 146.565 289.75 165.985 240.214C188.124 183.737 255.554 180.262 255.554 180.262C255.554 180.262 259.353 175.127 263.521 172.714C267.689 170.301 270.58 174.168 270.58 174.168C270.58 174.168 272.648 176.152 275.702 179.094L299.774 149.468ZM378.541 103.443C378.276 103.178 377.846 103.178 377.58 103.443C377.315 103.709 377.315 104.139 377.58 104.403C382.03 108.852 387.362 115.614 391.147 122.725C394.952 129.872 397.102 137.201 395.455 142.865C393.806 148.54 389.087 152.313 384.667 154.686C382.468 155.867 380.371 156.685 378.824 157.207C378.051 157.468 377.417 157.655 376.978 157.776C376.759 157.836 376.588 157.88 376.474 157.909C376.417 157.924 376.373 157.934 376.345 157.941L376.313 157.948L376.306 157.95H376.305C375.939 158.033 375.71 158.397 375.794 158.763C375.877 159.128 376.241 159.357 376.607 159.274L376.456 158.612C376.607 159.274 376.607 159.274 376.607 159.274H376.608L376.611 159.273L376.622 159.271L376.66 159.261C376.693 159.253 376.741 159.242 376.804 159.226C376.928 159.195 377.109 159.148 377.339 159.085C377.8 158.958 378.459 158.764 379.258 158.494C380.857 157.953 383.027 157.107 385.309 155.882C389.853 153.443 394.959 149.438 396.76 143.243C398.563 137.039 396.181 129.292 392.346 122.087C388.491 114.845 383.075 107.976 378.541 103.443Z" fill="black"/>
<path fill-rule="evenodd" clip-rule="evenodd" d="M382.146 316.068L376.991 297.994L367.699 265.394L353.146 269.633L362.092 300.23L367.603 319.071C368.972 319.273 370.354 319.381 371.739 319.392C375.387 319.45 376.989 317.876 378.193 316.693C379.089 315.812 379.765 315.148 380.9 315.532C381.329 315.677 381.745 315.856 382.146 316.068ZM366.036 270.744C365.932 270.377 365.553 270.165 365.19 270.27C364.826 270.375 364.616 270.757 364.72 271.123L376.38 312.194C376.484 312.56 376.863 312.772 377.226 312.667C377.59 312.563 377.8 312.18 377.696 311.814L366.036 270.744Z" fill="black"/>
<path d="M383.146 330.394L382.544 338.394L378.671 335.113L378.146 334.928C378.945 334.238 379.567 333.413 379.972 332.504C381.166 331.967 382.241 331.252 383.146 330.394Z" fill="black"/>
<path d="M347.146 169.029C349.246 166.595 351.228 164.047 353.084 161.394H353.089C353.089 161.394 355.467 165.96 353.089 169.029C352.907 169.267 352.701 169.483 352.473 169.671C350.139 171.613 347.146 169.029 347.146 169.029Z" fill="black" fill-opacity="0.15"/>
<path d="M331.146 383.755L317.54 416.647C316.297 420.513 314.456 423.394 310.655 423.394H221.786C217.985 423.394 215.146 422.155 215.146 418.429L306.382 418.424C306.382 418.424 311.022 418.611 312.306 416.122C314.047 412.74 328.438 378.394 328.438 378.394C329.281 379.022 329.964 379.833 330.434 380.763C330.903 381.693 331.147 382.717 331.146 383.755Z" fill="black"/>
<path d="M303.146 137.342C301.182 139.037 300.372 140.415 300.061 141.394L299.636 141.294C299.636 141.294 294.284 137.741 296.836 135.943C299.387 134.145 303.146 137.342 303.146 137.342Z" fill="black" fill-opacity="0.15"/>
<path d="M166.197 240.391C188.317 184.16 255.687 180.7 255.687 180.7C255.687 180.7 259.478 175.592 263.647 173.185C267.815 170.778 270.7 174.633 270.7 174.633C270.7 174.633 272.766 176.61 275.818 179.537C280.799 184.305 288.406 191.594 293.964 196.909C296.93 199.746 299.31 202.022 300.4 203.053C304.777 207.206 301.793 205.926 300.509 211.676C299.224 217.426 309.486 290.553 309.486 290.553L309.45 291.621L332.565 292.422L343.146 292.788L342.27 305.708L340.117 337.449L339.94 340.051C339.94 340.051 336.466 340.775 327.651 341.548C314.535 342.697 289.596 343.96 246.659 343.123C238.412 342.999 230.19 342.185 222.081 340.69C168.09 330.473 146.792 289.711 166.197 240.391Z" fill="black" fill-opacity="0.15"/>
<path d="M269.17 387.488C269.17 387.488 294.566 385.685 293.084 397.855C291.601 410.025 266.146 403.804 266.146 403.804L269.17 387.488Z" fill="black"/>
<path d="M276.146 179.394L300.433 149.75C300.433 149.75 285.224 138.521 294.93 129.532C299.553 125.258 303.221 125.995 305.794 127.947C308.633 130.093 310.146 133.708 310.146 133.708" stroke="black" stroke-linecap="round" stroke-linejoin="round"/>
<path d="M294.146 196.394C296.627 191.073 299.77 185.176 305.438 183.665C308.59 182.819 311.921 183.547 315.18 183.727C324.675 184.254 333.908 180.026 341.24 173.917C341.649 173.58 342.049 173.234 342.445 172.883C343.955 171.542 345.397 170.133 346.77 168.654C348.825 166.44 350.765 164.12 352.582 161.705C353.805 160.099 354.987 158.462 356.143 156.802C357.851 154.36 359.501 151.874 361.146 149.394" stroke="black" stroke-linecap="round" stroke-linejoin="round"/>
<path d="M359.771 165.186C359.771 165.186 385.761 168.075 398.274 150.755C410.787 133.434 388.97 106.493 388.97 106.493C388.97 106.493 356.244 68.0028 314.215 76.6635C272.185 85.3241 248.441 120.379 248.441 120.379C248.441 120.379 222.774 155.566 211.542 162.622C200.311 169.678 155.077 190.844 132.297 206.561C109.516 222.278 62.0867 256.598 58.8229 290.277C55.5591 323.955 64.5638 327.99 75.8314 334.538C98.0483 347.456 181.067 342.808 221.81 341.522" stroke="black" stroke-linecap="round" stroke-linejoin="round"/>
<path d="M309.486 290.553C309.486 290.553 299.227 217.424 300.508 211.675C301.789 205.925 304.777 207.205 300.399 203.052C299.309 202.02 296.93 199.744 293.964 196.908C288.406 191.591 280.799 184.303 275.817 179.535C272.766 176.606 270.699 174.631 270.699 174.631C270.699 174.631 267.811 170.781 263.647 173.183C259.482 175.586 255.687 180.698 255.687 180.698C255.687 180.698 188.316 184.158 166.196 240.39C146.793 289.713 168.09 330.475 222.081 340.689C230.19 342.185 238.412 342.998 246.658 343.123C289.596 343.96 314.536 342.697 327.651 341.548C336.466 340.775 339.94 340.051 339.94 340.051L340.117 337.449L342.27 305.708L343.146 292.787L332.565 292.421L309.45 291.621L270.046 290.255L251.145 289.599C251.145 289.599 207.549 282.251 211.713 250.637" stroke="black" stroke-linecap="round" stroke-linejoin="round"/>
<path d="M289.146 260.394L270.146 290.394" stroke="black" stroke-linecap="round" stroke-linejoin="round"/>
<path d="M354.146 131.877C327.135 139.569 312.955 133.059 306.271 127.413C302.547 124.267 301.146 121.394 301.146 121.394" stroke="black" stroke-linecap="round" stroke-linejoin="round"/>
<path d="M372.146 154.394C372.146 154.394 366.698 154.394 361.634 149.093C358.565 145.877 355.632 140.708 354.146 132.394" stroke="black" stroke-linecap="round" stroke-linejoin="round"/>
<path d="M300.242 143.394C300.089 142.791 300.119 142.156 300.328 141.571C300.636 140.487 301.442 138.961 303.397 137.085C303.629 136.859 303.88 136.629 304.146 136.394" stroke="black" stroke-linecap="round" stroke-linejoin="round"/>
<path d="M356.419 156.394C356.419 156.394 359.222 160.677 359.144 165.598C359.134 166.926 358.888 168.238 358.42 169.46C357.952 170.681 357.272 171.788 356.419 172.716C355.686 173.552 354.852 174.271 353.943 174.855C348.299 178.437 342.146 174.644 342.146 174.644" stroke="black" stroke-linecap="round" stroke-linejoin="round"/>
<path d="M332.146 153.394C332.146 153.394 330.655 156.724 330.655 158.949C330.655 161.174 331.404 165.618 324.146 162.062" stroke="black" stroke-linecap="round" stroke-linejoin="round"/>
<path d="M311.146 170.394C311.146 170.394 298.896 166.45 302.979 154.394" stroke="black" stroke-linecap="round" stroke-linejoin="round"/>
<path d="M324.146 143.394L327.146 138.394" stroke="black" stroke-linecap="round" stroke-linejoin="round"/>
<path d="M342.146 156.394L346.146 151.394" stroke="black" stroke-linecap="round" stroke-linejoin="round"/>
<path d="M355.146 151.394C355.146 151.394 352.478 143.24 347.146 142.394" stroke="black" stroke-linecap="round" stroke-linejoin="round"/>
<path d="M353.462 169.394C353.462 169.394 354.045 171.301 354.668 174.249C356.398 182.416 358.425 198.579 349.146 204.394" stroke="black" stroke-linecap="round" stroke-linejoin="round"/>
<path d="M328.436 377.8C329.279 378.436 329.963 379.258 330.433 380.2C330.903 381.142 331.147 382.18 331.146 383.231L317.54 416.557C316.297 420.475 314.456 423.394 310.655 423.394H221.786C217.985 423.394 215.146 422.138 215.146 418.363L228.507 383.231C229.781 379.272 231.59 376.394 235.391 376.394H324.259C325.77 376.392 327.238 376.887 328.436 377.8Z" stroke="black" stroke-linecap="round" stroke-linejoin="round"/>
<path d="M215.146 419.394L306.953 419.39C306.953 419.39 311.622 419.581 312.913 417.032C314.666 413.568 329.146 378.394 329.146 378.394" stroke="black" stroke-linecap="round" stroke-linejoin="round"/>
<path d="M382.146 316.375L376.993 298.192L367.698 265.394L353.146 269.659L362.092 300.44L367.603 319.394" stroke="black" stroke-linecap="round" stroke-linejoin="round"/>
<path d="M379.146 335.203L382.596 338.394L383.132 330.613L383.146 330.394" stroke="black" stroke-linecap="round" stroke-linejoin="round"/>
<path d="M355.146 324.155C359.283 326.895 360.769 327.332 365.501 328.52C370.233 329.707 375.276 329.771 379.903 328.176C381.522 327.645 383.014 326.741 384.275 325.529C384.944 324.873 385.47 324.065 385.814 323.165C386.014 322.624 386.125 322.05 386.143 321.469C386.224 318.98 384.541 316.834 382.447 315.654C382.053 315.432 381.644 315.245 381.223 315.093C378.607 314.151 378.472 319.241 372.218 319.134C370.857 319.122 369.499 319.009 368.153 318.797C364.096 318.14 361.462 316.564 357.532 314.394" stroke="black" stroke-linecap="round" stroke-linejoin="round"/>
<path d="M377.146 298.394C394.024 300.336 389.335 321.411 385.455 323.394" stroke="black" stroke-linecap="round" stroke-linejoin="round"/>
<path d="M355.146 332.034C360.765 336.61 373.586 336.262 380.134 332.503C381.167 331.938 382.096 331.187 382.879 330.285C383.455 329.642 383.855 328.849 384.036 327.989C384.217 327.13 384.174 326.235 383.91 325.399V325.394" stroke="black" stroke-linecap="round" stroke-linejoin="round"/>
<path d="M340.146 338.385C347.848 343.007 371.483 342.607 378.502 335.064C379.209 334.327 379.76 333.445 380.119 332.474C380.128 332.446 380.137 332.423 380.146 332.394" stroke="black" stroke-linecap="round" stroke-linejoin="round"/>
<path d="M342.146 305.394C353.125 303.379 354.965 302.369 361.146 301.394" stroke="black" stroke-linecap="round" stroke-linejoin="round"/>
<path d="M327.254 341.921L324.146 355.394H441.082L453.146 266.561L337.818 259.394L332.185 292.939" stroke="black" stroke-linecap="round" stroke-linejoin="round"/>
<path d="M382.146 338.394C382.146 338.394 432.999 335.661 428.912 314.446C424.825 293.232 406.675 301.102 392.777 288.887C378.879 276.672 392.119 269.394 392.119 269.394" stroke="black" stroke-linecap="round" stroke-linejoin="round"/>
<path d="M312.146 405.394L316.146 395.394" stroke="black" stroke-linecap="round" stroke-linejoin="round"/>
<path d="M318.146 392.394L319.146 389.394" stroke="black" stroke-linecap="round" stroke-linejoin="round"/>
<path d="M245.146 399.394L248.146 389.394" stroke="black" stroke-linecap="round" stroke-linejoin="round"/>
<path d="M277.146 409.04C277.146 409.04 255.957 412.914 260.416 395.039L247.146 394.394" stroke="black" stroke-linecap="round" stroke-linejoin="round"/>
<path d="M282.146 384.747C282.146 384.747 262.051 377.799 260.146 395.394" stroke="black" stroke-linecap="round" stroke-linejoin="round"/>
<path d="M269.17 387.488L266.146 403.806C266.146 403.806 291.596 410.023 293.083 397.856C294.571 385.689 269.17 387.488 269.17 387.488Z" stroke="black" stroke-linecap="round" stroke-linejoin="round"/>
<path d="M229.146 408.394L238.146 385.394" stroke="black" stroke-linecap="round" stroke-linejoin="round"/>
<path d="M299.636 141.394C299.636 141.394 294.284 137.78 296.836 135.952C299.387 134.123 303.146 137.376 303.146 137.376" stroke="black" stroke-linecap="round" stroke-linejoin="round"/>
<path d="M347.146 169.029C347.146 169.029 350.14 171.613 352.473 169.671C352.701 169.483 352.907 169.267 353.089 169.029C355.467 165.96 353.089 161.394 353.089 161.394" stroke="black" stroke-linecap="round" stroke-linejoin="round"/>
<path d="M429.318 124.394C440.528 136.83 444.872 155.225 440.429 171.444C439.014 176.609 436.433 181.91 431.691 184.296C426.949 186.681 419.861 184.411 419.03 179.118C418.304 174.5 423.131 170.19 427.71 170.819C432.289 171.447 435.718 176.083 435.812 180.758C435.907 185.433 433.158 189.853 429.406 192.583C423.629 196.784 415.633 197.557 410.761 202.803C406.088 207.835 405.922 216.486 410.398 221.698C414.873 226.91 423.364 227.952 428.944 223.974" stroke="black" stroke-linecap="round" stroke-linejoin="round"/>
<path d="M398.146 207.394L396.146 200.394" stroke="black" stroke-linecap="round" stroke-linejoin="round"/>
<path d="M393.146 205.394L399.146 200.394" stroke="black" stroke-linecap="round" stroke-linejoin="round"/>
<path d="M451.146 163.394L456.146 158.394" stroke="black" stroke-linecap="round" stroke-linejoin="round"/>
<path d="M455.146 164.394L452.146 158.394" stroke="black" stroke-linecap="round" stroke-linejoin="round"/>
<path d="M404.146 95.394L407.146 91.394" stroke="black" stroke-linecap="round" stroke-linejoin="round"/>
<path d="M407.146 95.394C405.912 93.9067 404.146 92.8475 402.146 92.394" stroke="black" stroke-linecap="round" stroke-linejoin="round"/>
<path d="M345.146 400.394L385.146 395.394" stroke="black" stroke-linecap="round" stroke-linejoin="round"/>
<path d="M344.146 387.394L351.146 381.394" stroke="black" stroke-linecap="round" stroke-linejoin="round"/>
<path d="M343.146 415.394L348.146 419.394" stroke="black" stroke-linecap="round" stroke-linejoin="round"/>
<path d="M232.548 182.394C232.548 182.394 226.555 163.222 239.353 153.976C252.151 144.73 279.666 164.703 292.146 149.394" stroke="black" stroke-opacity="0.15" stroke-linecap="round" stroke-linejoin="round"/>
<path d="M426.564 155.58L424.621 158.188C424.562 158.267 424.478 158.328 424.38 158.362C424.281 158.397 424.174 158.403 424.071 158.381C423.968 158.359 423.875 158.31 423.805 158.239C423.735 158.168 423.69 158.08 423.678 157.986L423.264 154.872C423.252 154.781 423.21 154.696 423.144 154.626C423.077 154.556 422.989 154.506 422.891 154.481L419.52 153.63C419.419 153.604 419.329 153.551 419.262 153.478C419.196 153.404 419.156 153.315 419.148 153.221C419.139 153.127 419.163 153.033 419.216 152.952C419.269 152.87 419.348 152.805 419.444 152.765L422.62 151.448C422.713 151.409 422.791 151.347 422.844 151.269C422.897 151.191 422.924 151.101 422.92 151.009L422.782 147.876C422.778 147.781 422.806 147.688 422.863 147.608C422.919 147.528 423.003 147.466 423.1 147.429C423.197 147.393 423.305 147.385 423.408 147.405C423.512 147.425 423.606 147.473 423.677 147.543L426.057 149.843C426.126 149.91 426.216 149.957 426.315 149.978C426.415 150 426.518 149.994 426.615 149.963L429.898 148.876C429.997 148.844 430.104 148.839 430.206 148.863C430.308 148.887 430.4 148.938 430.468 149.009C430.537 149.081 430.579 149.17 430.59 149.264C430.601 149.358 430.579 149.452 430.528 149.535L428.822 152.273C428.772 152.353 428.75 152.444 428.758 152.535C428.766 152.626 428.804 152.714 428.868 152.785L431.035 155.247C431.1 155.321 431.139 155.412 431.145 155.506C431.151 155.601 431.125 155.695 431.07 155.775C431.015 155.856 430.934 155.919 430.837 155.958C430.741 155.996 430.633 156.006 430.53 155.988L427.096 155.38C426.995 155.362 426.891 155.372 426.796 155.408C426.701 155.443 426.621 155.503 426.564 155.58Z" fill="black"/>
<path d="M293.146 207.394C293.583 206.091 294.284 205.039 295.146 204.394" stroke="black" stroke-linecap="round" stroke-linejoin="round"/>
<path d="M284.146 197.394C284.634 196.194 285.319 195.167 286.146 194.394" stroke="black" stroke-linecap="round" stroke-linejoin="round"/>
<path d="M274.146 188.394C275.182 187.548 276.555 186.862 278.146 186.394" stroke="black" stroke-linecap="round" stroke-linejoin="round"/>
<path d="M265.146 181.394L267.146 180.394" stroke="black" stroke-linecap="round" stroke-linejoin="round"/>
<path d="M316.146 342.394L321.146 293.394" stroke="black" stroke-linecap="round" stroke-linejoin="round"/>
<path d="M296.146 337.394L300.146 333.394" stroke="black" stroke-linecap="round" stroke-linejoin="round"/>
<path d="M298.146 308.394L294.146 304.394" stroke="black" stroke-linecap="round" stroke-linejoin="round"/>
<path d="M265.146 324.394L269.146 319.394" stroke="black" stroke-linecap="round" stroke-linejoin="round"/>
<path d="M250.146 303.394C248.59 302.903 247.227 302.221 246.146 301.394" stroke="black" stroke-linecap="round" stroke-linejoin="round"/>
<path d="M220.146 325.394C220.986 323.928 221.994 322.584 223.146 321.394" stroke="black" stroke-linecap="round" stroke-linejoin="round"/>
<path d="M219.146 294.394C218.503 292.528 217.48 290.824 216.146 289.394" stroke="black" stroke-linecap="round" stroke-linejoin="round"/>
<path d="M194.146 306.394C194.514 305.131 195.222 304.069 196.146 303.394" stroke="black" stroke-linecap="round" stroke-linejoin="round"/>
<path d="M193.146 281.394L189.146 277.394" stroke="black" stroke-linecap="round" stroke-linejoin="round"/>
<path d="M199.146 253.394L202.146 248.394" stroke="black" stroke-linecap="round" stroke-linejoin="round"/>
<path d="M190.146 234.394L188.146 229.394" stroke="black" stroke-linecap="round" stroke-linejoin="round"/>
<path d="M216.146 228.394L222.146 226.394" stroke="black" stroke-linecap="round" stroke-linejoin="round"/>
<path d="M217.146 206.394L216.146 202.394" stroke="black" stroke-linecap="round" stroke-linejoin="round"/>
<path d="M239.146 234.394L243.146 232.394" stroke="black" stroke-linecap="round" stroke-linejoin="round"/>
<path d="M253.146 199.394L252.146 194.394" stroke="black" stroke-linecap="round" stroke-linejoin="round"/>
<path d="M288.146 235.394L289.146 229.394" stroke="black" stroke-linecap="round" stroke-linejoin="round"/>
<path d="M272.146 224.394C270.725 223.965 269.374 223.29 268.146 222.394" stroke="black" stroke-linecap="round" stroke-linejoin="round"/>
<path d="M274.146 261.394L275.146 257.394" stroke="black" stroke-linecap="round" stroke-linejoin="round"/>
<path d="M250.146 259.394L254.146 258.394" stroke="black" stroke-linecap="round" stroke-linejoin="round"/>
<path d="M256.146 283.394L255.146 278.394" stroke="black" stroke-linecap="round" stroke-linejoin="round"/>
<path d="M287.146 283.394L291.146 279.394" stroke="black" stroke-linecap="round" stroke-linejoin="round"/>
<path d="M299.146 263.394L297.146 260.394" stroke="black" stroke-linecap="round" stroke-linejoin="round"/>
<path d="M349.146 285.394C348.215 283.617 347.592 281.643 347.313 279.583C347.034 277.524 347.105 275.421 347.521 273.394" stroke="black" stroke-linecap="round" stroke-linejoin="round"/>
<path d="M298.146 139.394C298.146 139.394 291.51 160.213 277.424 158.291C263.339 156.37 237.729 153.807 232.925 174.305C228.121 194.804 255.708 213.06 251.173 237.402C248.463 251.961 215.345 273.73 187.785 268.15C160.225 262.569 116.232 236.121 100.307 278.399C84.3815 320.677 52.6877 394.023 223.451 396.394" stroke="black" stroke-linecap="round" stroke-linejoin="round"/>
<path d="M349.146 204.695C336.486 213.064 244.077 178.974 250.462 225.394" stroke="black" stroke-linecap="round" stroke-linejoin="round"/>
<g opacity="0.1">
<path d="M361.4 148.79C361.686 147.517 360.948 146.944 360.122 146.094C359.044 145.059 358.056 143.932 357.17 142.726C355.425 140.225 354.379 137.304 354.138 134.263C354.027 132.709 352.541 131.124 350.835 131.745C340.381 135.549 328.76 135.728 318.329 131.788C313.215 129.856 308.226 127.339 302.636 127.284C297.627 127.234 292.785 129.077 289.722 133.122C287.179 136.478 292.854 140.877 295.586 137.647C298.309 134.426 302.132 133.856 306.151 134.745C311.536 135.936 316.456 138.607 321.847 139.822C332.259 142.212 343.172 141.05 352.847 136.518L349.01 134.958C349.638 138.905 351.361 142.596 353.982 145.612C354.736 146.482 360.643 152.174 361.404 148.793L361.4 148.79Z" fill="black"/>
</g>
<g opacity="0.1">
<path d="M299.302 151.177C296.912 152.155 295.111 154.319 293.448 156.23C291.491 158.48 289.546 160.726 287.645 163.024C283.838 167.625 280.073 172.258 276.35 176.923C273.31 180.729 278.726 184.989 281.681 181.036C285.167 176.373 288.614 171.683 292.023 166.966C293.68 164.667 295.303 162.358 296.89 160.012C298.374 157.818 300.399 155.33 300.764 152.638C300.868 151.869 300.251 150.788 299.302 151.177Z" fill="black"/>
</g>
<g opacity="0.1">
<path d="M264.204 173.431C262.273 177.693 257.39 179.476 253.15 180.56C247.535 181.997 241.85 183.011 236.275 184.643C224.752 188.017 213.49 192.629 203.166 198.786C182.817 210.922 166.736 229.263 160.165 252.286C156.933 263.61 156.221 275.457 158.759 287.002C161.207 298.139 166.916 308.314 174.64 316.647C191.599 334.947 216.199 342.986 240.473 345.113C272.912 347.961 305.305 341.357 337.766 341.893C342.712 341.975 342.641 334.543 337.766 334.256C309.514 332.596 281.423 338.112 253.167 337.588C229.28 337.145 204.291 332.152 185.782 316.033C177.776 309.06 171.298 300.287 168.012 290.121C164.708 279.893 164.539 268.884 166.636 258.386C171.077 236.16 186.068 218.018 204.917 206.108C216.044 199.077 228.286 194.04 240.933 190.482C250.404 187.818 266.735 186.918 268.312 174.543C268.586 172.398 265.078 171.495 264.201 173.43L264.204 173.431Z" fill="black"/>
</g>
<g opacity="0.1">
<path d="M342.723 338.174C343.945 338.744 344.74 339.185 346.103 339.438C347.346 339.67 348.609 339.853 349.866 339.996C352.56 340.278 355.27 340.384 357.978 340.313C362.982 340.227 368.683 340.033 373.334 338.031C374.293 337.619 373.766 336.119 372.82 336.134C367.861 336.211 362.971 337.371 357.977 337.412C353.004 337.454 348.015 336.474 343.096 336.789C342.429 336.834 342 337.836 342.721 338.173L342.723 338.174Z" fill="black"/>
</g>
</svg>
